<svg width="118" height="59" viewBox="0 0 118 59" fill="none" xmlns="http://www.w3.org/2000/svg">
<path d="M63.1376 0.951022C63.1996 0.950562 63.2615 0.950102 63.3253 0.949628C63.456 0.94887 63.5866 0.94834 63.7172 0.948027C63.9119 0.947252 64.1065 0.944747 64.3011 0.942194C65.4761 0.934125 66.6151 1.08894 67.7441 1.42144C67.8486 1.45199 67.8486 1.45199 67.9553 1.48316C71.486 2.55707 74.3961 4.98784 76.1334 8.23682C77.8099 11.4781 78.1437 15.3118 77.0597 18.7944C76.2991 21.1162 75.0241 23.0003 73.2882 24.6977C73.379 24.8406 73.4698 24.9835 73.5606 25.1265C73.6112 25.206 73.6618 25.2856 73.7138 25.3677C73.8126 25.522 73.913 25.6752 74.0146 25.8277C74.0679 25.8277 74.1212 25.8277 74.1761 25.8277C74.2791 25.7069 74.2791 25.7069 74.3798 25.5452C74.4207 25.4828 74.4617 25.4205 74.5038 25.3562C74.5483 25.2873 74.5928 25.2183 74.6386 25.1473C74.6853 25.0759 74.7319 25.0046 74.78 24.9311C74.881 24.7766 74.9817 24.6219 75.0823 24.4671C75.3494 24.0558 75.6184 23.6458 75.8872 23.2356C75.9412 23.1531 75.9952 23.0706 76.0509 22.9855C76.5093 22.2857 76.9748 21.5909 77.445 20.899C77.5179 20.7917 77.5908 20.6844 77.6637 20.5771C77.7762 20.4114 77.8888 20.2456 78.0014 20.08C78.3356 19.5882 78.6679 19.0952 79.0001 18.6021C79.0536 18.5226 79.1071 18.4432 79.1622 18.3614C79.3754 18.0448 79.5886 17.7282 79.8017 17.4116C79.9489 17.1928 80.0962 16.9741 80.2436 16.7554C80.2876 16.6899 80.3317 16.6244 80.3771 16.5568C80.418 16.4961 80.4589 16.4354 80.5011 16.3728C80.5543 16.2939 80.5543 16.2939 80.6085 16.2133C80.7203 16.052 80.8384 15.8952 80.9561 15.7383C82.4211 15.7383 83.8861 15.7383 85.3955 15.7383C85.3955 23.3562 85.3955 30.9741 85.3955 38.8228C84.33 38.8228 83.2646 38.8228 82.1669 38.8228C82.1269 28.3948 82.1269 28.3948 82.0861 17.7562C81.2804 19.0313 81.2804 19.0313 80.487 20.3138C80.0648 21.002 79.6396 21.6881 79.2107 22.3721C78.8192 22.9965 78.4324 23.6235 78.0504 24.2537C77.6193 24.9648 77.1818 25.6715 76.7392 26.3754C76.47 26.8042 76.2038 27.2345 75.9423 27.668C75.3743 28.6081 74.8019 29.5063 74.0954 30.3477C73.982 30.4918 73.8693 30.6364 73.7574 30.7816C73.6907 30.8674 73.6907 30.8674 73.6227 30.955C73.5922 30.9943 73.5618 31.0336 73.5303 31.0741C73.1877 30.7597 72.9582 30.4264 72.7182 30.0299C72.2585 29.2857 71.7768 28.5573 71.2905 27.8304C71.2536 27.7752 71.2166 27.7199 71.1786 27.663C70.9673 27.347 70.7557 27.0312 70.5439 26.7155C70.4652 26.7503 70.4652 26.7503 70.385 26.7858C70.1438 26.8922 69.9025 26.9981 69.6611 27.104C69.5786 27.1404 69.4962 27.1769 69.4112 27.2145C68.985 27.401 68.5623 27.5744 68.1172 27.7108C67.9565 27.7621 67.9565 27.7621 67.7979 27.8494C67.5941 27.9474 67.3944 27.9633 67.1714 27.9868C66.9886 28.0074 66.8091 28.0363 66.6279 28.0678C66.5652 28.0785 66.5025 28.0892 66.4378 28.1001C66.311 28.1219 66.1842 28.1442 66.0576 28.167C65.5151 28.2577 65.0608 28.2491 64.4903 28.2491C64.4903 31.7384 64.4903 35.2277 64.4903 38.8228C63.851 38.8228 63.2117 38.8228 62.5531 38.8228C62.5531 35.3068 62.5531 31.7909 62.5531 28.1684C62.2335 28.1418 61.9138 28.1151 61.5845 28.0877C59.1488 27.6498 56.7999 26.5594 54.9845 24.8654C54.8192 24.7114 54.6494 24.5656 54.4765 24.4202C53.3068 23.3905 52.4493 22.0357 51.7373 20.6619C51.6703 20.5331 51.6703 20.5331 51.602 20.4018C51.1141 19.4045 50.751 18.294 50.6073 17.1912C48.9401 16.9979 47.3207 16.9454 45.9053 17.9683C45.0746 18.6477 44.6398 19.6406 44.488 20.6922C44.4831 20.7887 44.4781 20.8853 44.4729 20.9848C44.4689 21.0357 44.4648 21.0867 44.4606 21.1393C44.3934 22.575 44.9646 23.9142 45.8968 24.983C46.3753 25.4829 46.8856 25.9253 47.4594 26.312C47.1593 26.4204 46.9568 26.3635 46.6541 26.2792C46.5562 26.2527 46.4583 26.2262 46.3575 26.1989C46.2506 26.1694 46.1437 26.1398 46.0368 26.1102C45.3175 25.9131 44.6016 25.7336 43.8669 25.6035C43.8043 25.5921 43.7417 25.5807 43.6771 25.5689C43.3084 25.5018 43.3084 25.5018 42.9385 25.4414C41.9861 25.2948 41.9861 25.2948 41.766 25.0362C41.6942 24.8396 41.6688 24.6637 41.6479 24.4555C41.6326 24.3817 41.6173 24.3078 41.6016 24.2318C41.4765 23.6149 41.4582 23.0048 41.4612 22.3771C41.4617 22.2777 41.4621 22.1783 41.4626 22.0759C41.4872 20.231 42.0216 18.4567 43.2921 17.0754C45.0454 15.3895 47.3268 14.9254 49.6913 14.9204C49.9268 14.9297 50.1366 14.9572 50.3651 15.0118C50.3623 14.914 50.3595 14.8162 50.3566 14.7155C50.2831 11.0127 51.7433 7.57425 54.2713 4.89503C54.5434 4.61723 54.8273 4.36218 55.1273 4.11531C55.174 4.07452 55.2207 4.03373 55.2689 3.99171C55.5916 3.71173 55.5916 3.71173 55.773 3.71173C55.773 3.65846 55.773 3.60519 55.773 3.5503C55.9007 3.45331 55.9007 3.45331 56.0808 3.34536C56.18 3.28555 56.18 3.28555 56.2812 3.22452C56.3532 3.1822 56.4253 3.13988 56.4995 3.09628C56.5734 3.05271 56.6473 3.00914 56.7234 2.96425C56.944 2.83541 57.1654 2.70813 57.3873 2.58172C57.4441 2.54933 57.5008 2.51695 57.5593 2.48358C59.2296 1.54799 61.2197 0.962477 63.1376 0.951022ZM61.1809 2.25886C62.0311 2.82564 62.8135 2.74547 63.7638 2.58172C65.946 2.25632 68.0594 2.57723 70.1403 3.22744C70.0899 2.84444 70.0899 2.84444 69.8504 2.56308C69.6743 2.47513 69.4975 2.40318 69.313 2.33453C69.245 2.30782 69.1771 2.28111 69.1071 2.2536C66.5977 1.2979 63.5139 0.575858 61.1809 2.25886ZM61.2453 1.51508C61.1475 1.53901 61.1475 1.53901 61.0478 1.56342C60.9785 1.58149 60.9093 1.59956 60.8379 1.61818C60.7659 1.63672 60.694 1.65526 60.6198 1.67436C59.6935 1.92016 58.8267 2.25427 57.9675 2.67757C57.8856 2.71788 57.8856 2.71788 57.802 2.75901C57.5486 2.88809 57.3288 3.00692 57.1452 3.22744C57.6887 3.3905 58.0118 3.22296 58.4888 2.96614C59.065 2.65838 59.6262 2.52709 60.2678 2.43542C60.6598 2.36908 60.8911 2.23279 61.1923 1.97888C61.414 1.79631 61.6553 1.66895 61.9074 1.53242C61.6589 1.4539 61.4973 1.45286 61.2453 1.51508ZM60.394 2.9298C60.3311 2.99442 60.2683 3.05903 60.2035 3.1256C60.0362 3.30317 60.0362 3.30317 59.9702 3.5503C60.3623 3.48614 60.7299 3.35883 61.1053 3.23248C61.17 3.2111 61.2348 3.18972 61.3015 3.16769C61.3956 3.13624 61.3956 3.13624 61.4915 3.10416C61.5481 3.08523 61.6047 3.0663 61.663 3.0468C61.832 2.98328 61.9896 2.90731 62.1495 2.82386C61.9967 2.78291 61.8436 2.74269 61.6905 2.70279C61.6052 2.68032 61.52 2.65784 61.4322 2.63469C60.9306 2.52894 60.7561 2.54878 60.394 2.9298ZM62.876 3.06601C62.8983 3.107 62.9207 3.148 62.9437 3.19024C62.973 3.2458 63.0022 3.30136 63.0323 3.3586C63.0759 3.44007 63.0759 3.44007 63.1203 3.52319C63.2129 3.74549 63.2472 3.95812 63.2795 4.19602C63.3273 4.20529 63.3751 4.21455 63.4243 4.2241C65.0646 4.54757 66.5719 5.00732 68.0417 5.81032C68.0927 5.83793 68.1437 5.86555 68.1963 5.89399C68.7235 6.18112 69.234 6.47609 69.7002 6.8571C69.8154 6.9559 69.8154 6.9559 69.9789 6.94033C70.0315 6.76391 70.0835 6.58731 70.1353 6.41064C70.1643 6.31232 70.1933 6.21399 70.2232 6.11269C70.3472 5.63541 70.3948 5.17772 70.3976 4.68536C70.3987 4.59307 70.3999 4.50078 70.4011 4.40569C70.3806 3.92049 70.3806 3.92049 70.221 3.46959C70.015 3.32428 69.7972 3.26594 69.5551 3.20222C69.4901 3.18295 69.425 3.16368 69.358 3.14383C67.6333 2.64544 64.4777 1.99818 62.876 3.06601ZM58.1138 3.38887C58.315 3.523 58.5008 3.62607 58.7191 3.72686C58.7816 3.75631 58.844 3.78576 58.9083 3.81609C59.0938 3.89607 59.0938 3.89607 59.3245 3.79245C59.4875 3.61645 59.4875 3.61645 59.6474 3.404C59.7023 3.33356 59.7572 3.26312 59.8138 3.19055C59.9475 3.01511 60.0805 2.83923 60.2124 2.66243C59.4946 2.66243 58.7275 3.04379 58.1138 3.38887ZM70.5439 2.98529C70.5298 3.17458 70.5298 3.17458 70.6246 3.38887C70.8401 3.55392 71.0789 3.67058 71.3208 3.79245C71.788 4.03477 72.221 4.28319 72.6425 4.5996C72.6958 4.57296 72.749 4.54632 72.8039 4.51888C71.7314 3.66399 71.7314 3.66399 70.5439 2.98529ZM61.5529 3.36308C61.3995 3.41355 61.2458 3.46325 61.0922 3.51294C60.9953 3.54493 60.8983 3.57693 60.7985 3.60989C60.7094 3.63906 60.6203 3.66822 60.5285 3.69827C60.3076 3.78665 60.151 3.88192 59.9702 4.03459C60.0168 4.03417 60.0634 4.03375 60.1114 4.03331C61.1173 4.02544 62.1149 4.04079 63.1181 4.11531C63.0795 3.77428 63.0294 3.5715 62.7952 3.31824C62.752 3.27017 62.7087 3.22211 62.6641 3.17258C62.4026 2.92153 61.8566 3.26282 61.5529 3.36308ZM56.0051 3.89334C55.9385 3.94716 55.9385 3.94716 55.8706 4.00208C55.7286 4.11851 55.5891 4.23737 55.4502 4.35745C55.4032 4.398 55.3562 4.43856 55.3078 4.48034C54.7833 4.93818 54.3075 5.39093 53.9166 5.97175C54.3345 5.81016 54.7227 5.60807 55.1172 5.39666C55.1877 5.36045 55.2581 5.32424 55.3307 5.28694C55.7656 5.05279 56.0691 4.80846 56.3797 4.42433C56.5235 4.24707 56.6833 4.10072 56.8576 3.95388C56.9399 3.88396 56.9399 3.88396 57.0238 3.81262C57.0639 3.77933 57.1039 3.74603 57.1452 3.71173C57.1052 3.63182 57.1052 3.63182 57.0645 3.5503C56.5853 3.50947 56.3756 3.59198 56.0051 3.89334ZM57.1099 3.98919C56.8518 4.22683 56.6333 4.48387 56.4187 4.76103C56.491 4.74043 56.491 4.74043 56.5647 4.71941C57.2646 4.52391 57.9709 4.3595 58.6788 4.19602C58.1322 3.83165 57.6821 3.53494 57.1099 3.98919ZM70.7053 3.71173C70.7079 3.78961 70.7079 3.78961 70.7104 3.86906C70.7409 4.95129 70.713 5.90498 70.3825 6.94033C70.3549 7.0478 70.3279 7.15539 70.3017 7.26319C70.3391 7.29767 70.3764 7.33214 70.4149 7.36765C73.0618 9.81759 74.806 12.5345 75.3868 16.1419C75.6211 15.8619 75.763 15.5511 75.9064 15.2187C75.9311 15.1615 75.9559 15.1044 75.9813 15.0455C76.7224 13.2994 76.9947 11.2505 76.3717 9.41401C76.2123 9.0266 76.0108 8.66802 75.7904 8.31249C75.7375 8.22561 75.6847 8.13873 75.6302 8.04922C74.4034 6.13299 72.7666 4.65705 70.7053 3.71173ZM60.1316 4.35745C60.5127 4.66968 60.9099 4.95909 61.3071 5.25036C61.4434 5.35051 61.5797 5.45067 61.716 5.55084C61.776 5.59485 61.836 5.63887 61.8978 5.68423C62.0631 5.8061 62.2276 5.92901 62.3917 6.05247C62.7566 5.56356 62.9767 5.11282 63.1181 4.51888C62.1204 4.34482 61.1422 4.33945 60.1316 4.35745ZM59.2438 4.51888C58.9373 4.90828 58.7231 5.37493 58.5224 5.82546C58.4815 5.91689 58.4815 5.91689 58.4398 6.01018C58.1196 6.7533 57.912 7.53045 57.7102 8.31249C59.4097 8.34774 60.8581 7.60696 62.0688 6.45604C61.4439 5.81057 60.7227 5.29362 59.9551 4.83165C59.9028 4.80015 59.8505 4.76865 59.7967 4.7362C59.5377 4.57232 59.5377 4.57232 59.2438 4.51888ZM63.2795 4.5996C63.26 4.6639 63.2404 4.7282 63.2203 4.79445C62.9722 5.57881 62.9722 5.57881 62.77 5.85068C62.6197 6.03202 62.6197 6.03202 62.6357 6.19813C62.7567 6.47009 62.9738 6.63727 63.1938 6.82935C63.2898 6.91561 63.3858 7.002 63.4816 7.08852C63.5294 7.13147 63.5772 7.17441 63.6264 7.21866C64.1656 7.71007 64.6691 8.23657 65.136 8.79678C65.1733 8.84152 65.2107 8.88626 65.2492 8.93236C65.8643 9.67175 66.445 10.4274 66.9924 11.2182C68.0729 10.3446 69.5786 8.7195 69.7367 7.26319C68.0488 6.0107 65.4663 4.48745 63.2795 4.5996ZM56.7517 4.95777C56.6869 4.97582 56.6221 4.99387 56.5553 5.01247C56.1079 5.15508 55.9081 5.324 55.6848 5.73773C55.6607 5.78832 55.6365 5.83891 55.6116 5.89104C55.5567 6.00341 55.5567 6.00341 55.5006 6.11805C55.4288 6.30648 55.4288 6.30648 55.5309 6.53676C55.5732 6.49556 55.6156 6.45435 55.6592 6.4119C56.2932 5.81697 56.9939 5.33163 57.7102 4.84174C57.3535 4.72283 57.1014 4.84631 56.7517 4.95777ZM56.4187 6.2139C56.3746 6.24914 56.3304 6.28439 56.2849 6.3207C56.1563 6.42448 56.03 6.53052 55.9042 6.63765C55.8303 6.69966 55.7564 6.76168 55.6803 6.82557C55.5053 7.01314 55.5053 7.01314 55.5325 7.27108C55.6699 7.67803 55.9661 7.88154 56.3406 8.07381C56.6769 8.21157 56.9415 8.23532 57.3066 8.23178C57.3257 8.17168 57.3447 8.11158 57.3643 8.04965C58.0308 5.96111 58.0308 5.96111 58.5 5.1088C58.6106 4.93374 58.6106 4.93374 58.5981 4.76103C57.9425 4.76103 56.9354 5.79622 56.4187 6.2139ZM53.1901 6.94033C52.9987 7.16831 52.8517 7.40767 52.7059 7.66677C52.6554 7.75302 52.6049 7.83928 52.5529 7.92815C51.6503 9.51225 51.1066 11.3427 50.9301 13.1554C50.9234 13.2218 50.9166 13.2882 50.9096 13.3566C50.8941 13.5457 50.8941 13.5457 50.9301 13.8011C51.0878 13.979 51.0878 13.979 51.253 14.124C51.2643 14.0811 51.2756 14.0382 51.2872 13.994C51.9386 11.5487 53.0408 8.62978 55.1065 6.99015C55.2835 6.76252 55.2998 6.47687 55.3442 6.19876C55.3547 6.13826 55.3651 6.07776 55.3759 6.01542C55.4015 5.86649 55.426 5.71735 55.4502 5.56818C54.7528 5.56818 53.6589 6.47791 53.1901 6.94033ZM62.2302 6.53676C62.1832 6.58264 62.1362 6.62853 62.0877 6.6758C60.8541 7.83762 59.3778 8.35547 57.7102 8.47392C57.1139 10.8314 57.0467 13.3573 57.5488 15.7383C58.0955 15.7566 58.5761 15.6974 59.1076 15.5718C59.185 15.5536 59.2624 15.5354 59.3422 15.5166C62.1126 14.8419 64.6591 13.4756 66.7503 11.5411C65.9788 10.1415 64.8168 8.94908 63.6982 7.82316C63.6269 7.7511 63.5556 7.67905 63.4822 7.60481C63.0874 7.21198 62.6885 6.8539 62.2302 6.53676ZM55.0497 7.49273C53.4128 9.29387 52.1742 11.375 51.4951 13.7204C51.4737 13.786 51.4523 13.8515 51.4302 13.919C51.3753 14.1013 51.3753 14.1013 51.4144 14.3661C52.1338 15.3566 53.5327 15.4753 54.643 15.6576C54.643 15.7108 54.643 15.7641 54.643 15.819C55.1022 15.8981 55.5448 15.9094 56.0101 15.9048C56.0807 15.9044 56.1513 15.904 56.2241 15.9037C56.3966 15.9027 56.5691 15.9013 56.7416 15.8997C56.7416 15.8464 56.7416 15.7932 56.7416 15.7383C56.8748 15.7383 57.008 15.7383 57.1452 15.7383C57.1336 15.5785 57.1218 15.4188 57.1099 15.259C57.1 15.1256 57.1 15.1256 57.09 14.9895C57.0719 14.777 57.0498 14.5678 57.0235 14.3564C56.9794 13.9609 56.9693 13.5692 56.9674 13.1715C56.9669 13.0975 56.9664 13.0235 56.966 12.9473C56.9652 12.7912 56.9647 12.6352 56.9644 12.4791C56.9636 12.246 56.9611 12.013 56.9585 11.7799C56.9532 10.8174 57.0293 9.89947 57.204 8.95256C57.2334 8.76971 57.2334 8.76971 57.2259 8.47392C57.1684 8.46019 57.1108 8.44645 57.0515 8.4323C56.3821 8.26291 55.8573 8.10037 55.4502 7.50534C55.4102 7.42543 55.4102 7.42543 55.3695 7.34391C55.1914 7.32548 55.1914 7.32548 55.0497 7.49273ZM70.1403 7.66677C70.0954 7.74969 70.0504 7.83262 70.0041 7.91806C69.6328 8.59555 69.2464 9.23694 68.7682 9.84608C68.71 9.92068 68.6518 9.99528 68.5919 10.0721C68.2362 10.5178 67.8647 10.9193 67.4408 11.3012C67.3787 11.38 67.3787 11.38 67.3153 11.4604C67.3495 11.7201 67.459 11.9053 67.5994 12.1231C67.6415 12.1894 67.6836 12.2556 67.7269 12.3239C67.7725 12.3952 67.8182 12.4665 67.8652 12.5399C69.402 14.9872 70.7252 17.6295 71.5125 20.4198C71.8851 20.3031 72.1289 20.0894 72.4054 19.8245C72.4737 19.7599 72.4737 19.7599 72.5434 19.6941C72.6847 19.56 72.825 19.4249 72.9653 19.2897C73.0082 19.249 73.0511 19.2084 73.0953 19.1664C73.6345 18.6542 74.1276 18.1236 74.562 17.5187C74.7411 17.2719 74.7411 17.2719 74.9101 17.083C75.1649 16.765 75.2456 16.5182 75.2023 16.1154C75.1336 15.6853 75.023 15.2685 74.9025 14.8504C74.8819 14.7783 74.8613 14.7062 74.84 14.632C74.5539 13.6586 74.1869 12.749 73.6918 11.864C73.6633 11.8126 73.6348 11.7612 73.6054 11.7083C72.9645 10.5662 72.1757 9.57791 71.2703 8.63535C71.2302 8.59341 71.19 8.55146 71.1486 8.50825C70.7038 7.99956 70.7038 7.99956 70.1403 7.66677ZM76.9204 11.2989C76.9173 11.4586 76.9173 11.4586 76.9141 11.6215C76.8697 13.2047 76.6012 14.7041 75.7248 16.0511C75.3558 16.7067 75.4095 17.4011 75.3988 18.1364C75.3676 20.0843 74.7153 22.0446 73.6111 23.6484C73.6377 23.7016 73.6643 23.7549 73.6918 23.8098C75.922 21.7778 77.2687 18.5384 77.4179 15.5542C77.4667 14.0987 77.3679 12.7086 77.0011 11.2989C76.9745 11.2989 76.9478 11.2989 76.9204 11.2989ZM66.4022 12.2625C64.4878 13.7904 62.3798 14.9021 60.0509 15.6576C60.0509 15.6842 60.0509 15.7108 60.0509 15.7383C60.1766 15.7352 60.1766 15.7352 60.3049 15.7321C61.098 15.7137 61.891 15.7027 62.6843 15.6988C63.0922 15.6965 63.4997 15.6917 63.9074 15.681C64.3016 15.6707 64.6953 15.6673 65.0896 15.6685C65.2394 15.6677 65.3891 15.6646 65.5387 15.659C66.6753 15.6185 66.6753 15.6185 67.0664 15.9501C67.3536 16.2737 67.5693 16.6321 67.7766 17.0103C67.9479 17.3091 68.1516 17.5842 68.3545 17.8621C68.6665 18.3036 68.977 18.7462 69.2864 19.1895C69.4752 19.4597 69.6646 19.7295 69.8541 19.9992C69.9652 20.1581 70.0754 20.3175 70.1854 20.4771C70.2421 20.5581 70.2988 20.639 70.3572 20.7224C70.4042 20.7903 70.4511 20.8581 70.4994 20.928C70.5407 20.9734 70.582 21.0187 70.6246 21.0655C70.898 21.0655 70.9294 21.0367 71.124 20.8637C71.1989 20.7971 71.2739 20.7305 71.351 20.6619C70.9663 19.4333 70.5276 18.2475 69.993 17.0761C69.9075 16.8887 69.8236 16.7007 69.7402 16.5123C69.0079 14.8832 68.0625 13.348 67.0731 11.864C66.7965 11.864 66.6092 12.0938 66.4022 12.2625ZM50.8494 14.3661C50.8494 14.5792 50.8494 14.7923 50.8494 15.0118C50.9293 15.0118 51.0092 15.0118 51.0916 15.0118C51.1117 14.7765 51.1117 14.7765 51.0916 14.5276C51.0116 14.4743 50.9317 14.421 50.8494 14.3661ZM51.253 14.7697C51.253 14.8762 51.253 14.9828 51.253 15.0926C51.3595 15.0659 51.4661 15.0393 51.5758 15.0118C51.4693 14.9319 51.3628 14.852 51.253 14.7697ZM54.643 16.2226C54.643 17.0749 54.643 17.9273 54.643 18.8055C54.4815 18.7139 54.3201 18.6223 54.1537 18.528C53.6045 18.2276 53.0364 17.9886 52.4536 17.7612C52.3733 17.7298 52.293 17.6984 52.2102 17.666C51.8644 17.5336 51.5378 17.4175 51.1723 17.3526C51.2009 18.7804 51.606 20.0705 52.3023 21.3076C52.3556 21.3076 52.4088 21.3076 52.4637 21.3076C52.4845 21.3531 52.5053 21.3986 52.5268 21.4454C53.4045 23.0968 55.2339 23.9961 56.9418 24.5279C58.3618 24.9481 60.0439 25.187 61.5038 24.8591C61.4738 24.8249 61.4438 24.7906 61.4129 24.7554C60.6386 23.863 59.9882 22.8986 59.4052 21.8726C59.3781 21.8261 59.351 21.7796 59.323 21.7317C58.5343 20.3749 58.0268 18.8844 57.6024 17.3792C57.5074 17.0464 57.4068 16.7153 57.3066 16.384C56.9685 16.3214 56.6418 16.2892 56.2983 16.2777C56.1674 16.2731 56.1674 16.2731 56.0338 16.2684C55.9244 16.2649 55.8151 16.2615 55.7024 16.2579C55.178 16.2404 55.178 16.2404 54.643 16.2226ZM57.7102 16.5454C58.2782 19.3296 59.477 21.9229 61.2617 24.1326C61.3133 24.2014 61.3649 24.2702 61.418 24.3411C61.6987 24.7049 61.6987 24.7049 62.1344 24.8238C62.3823 24.7926 62.3823 24.7926 62.5531 24.6977C62.5587 23.9735 62.563 23.2494 62.5656 22.5253C62.5669 22.189 62.5686 21.8527 62.5714 21.5164C62.574 21.1914 62.5754 20.8664 62.5761 20.5414C62.5765 20.4178 62.5774 20.2943 62.5787 20.1708C62.5884 19.2242 62.5442 18.4758 61.8601 17.7618C60.8707 16.9133 59.0059 16.5055 57.7102 16.5454ZM75.1446 17.1912C75.0397 17.3272 74.9378 17.4656 74.8369 17.6048C74.0188 18.7143 73.1134 19.7333 72.0198 20.5777C71.8348 20.7431 71.7607 20.8372 71.6739 21.0655C71.6781 21.2448 71.6781 21.2448 71.7231 21.4303C71.7374 21.4995 71.7518 21.5688 71.7666 21.6401C71.7826 21.7118 71.7986 21.7836 71.8152 21.8575C71.8299 21.9283 71.8447 21.9991 71.8599 22.0721C71.9031 22.2753 71.9492 22.4775 71.9968 22.6798C72.0198 22.7784 72.0427 22.8771 72.0664 22.9787C72.175 23.2935 72.3247 23.535 72.5164 23.8047C72.5642 23.876 72.5642 23.876 72.613 23.9487C72.7161 24.1008 72.7161 24.1008 72.8846 24.2941C72.9645 24.2941 73.0444 24.2941 73.1268 24.2941C73.2665 24.1235 73.3859 23.9588 73.5051 23.7745C73.5406 23.72 73.5761 23.6655 73.6127 23.6093C74.6312 22.0063 75.1687 20.2158 75.2809 18.3262C75.2848 18.2602 75.2887 18.1942 75.2928 18.1261C75.3085 17.8001 75.311 17.5098 75.2254 17.1912C75.1987 17.1912 75.1721 17.1912 75.1446 17.1912ZM64.4903 17.5947C64.4903 19.7789 64.4903 21.963 64.4903 24.2134C65.0635 24.093 65.0635 24.093 65.601 23.9148C65.6658 23.889 65.7306 23.8633 65.7974 23.8367C65.8638 23.8095 65.9302 23.7823 65.9986 23.7543C66.1031 23.7121 66.1031 23.7121 66.2096 23.669C66.8095 23.4228 67.3881 23.1447 67.961 22.8412C67.8412 22.5004 67.6648 22.2181 67.4616 21.9224C67.3885 21.8144 67.3154 21.7064 67.2425 21.5982C67.2025 21.5392 67.1626 21.4801 67.1214 21.4192C66.8803 21.0597 66.6441 20.6969 66.4072 20.3346C66.3039 20.1771 66.2006 20.0195 66.0973 19.862C65.9379 19.6189 65.7786 19.3758 65.6196 19.1324C65.4638 18.8939 65.3075 18.6557 65.1511 18.4176C65.1033 18.3442 65.0554 18.2707 65.0062 18.195C64.9619 18.1278 64.9177 18.0606 64.8721 17.9914C64.8333 17.9321 64.7945 17.8729 64.7545 17.8118C64.659 17.6642 64.659 17.6642 64.4903 17.5947ZM71.351 21.1462C71.2179 21.2794 71.0847 21.4125 70.9475 21.5498C71.347 22.1091 71.347 22.1091 71.7546 22.6798C71.8926 22.4038 71.7511 22.1098 71.6789 21.8222C71.6553 21.7251 71.6553 21.7251 71.6312 21.6261C71.5921 21.466 71.5524 21.3061 71.5125 21.1462C71.4592 21.1462 71.4059 21.1462 71.351 21.1462ZM67.6716 23.3208C67.5972 23.3543 67.5228 23.3879 67.4462 23.4225C67.3663 23.4587 67.2865 23.495 67.2043 23.5323C66.3145 23.9292 65.4189 24.2416 64.4903 24.5362C64.4903 25.3087 64.4903 26.0811 64.4903 26.877C65.7252 27.4944 66.6293 27.8875 67.9522 27.4565C68.7358 27.1886 69.4792 26.8392 70.221 26.4734C70.221 26.09 70.0897 25.8995 69.8881 25.5906C69.8529 25.5357 69.8177 25.4809 69.7815 25.4244C69.7032 25.303 69.6246 25.1818 69.5456 25.0609C69.4017 24.8404 69.2595 24.6187 69.1172 24.3972C69.0161 24.2417 68.9149 24.0862 68.8136 23.9309C68.7649 23.8551 68.7162 23.7794 68.6661 23.7013C68.62 23.6314 68.5739 23.5615 68.5263 23.4895C68.4854 23.4267 68.4445 23.3639 68.4023 23.2992C68.3632 23.2546 68.3241 23.21 68.2839 23.1641C68.0229 23.1641 67.9059 23.213 67.6716 23.3208ZM53.9166 23.4062C56.0125 25.9678 59.0526 27.5343 62.3109 28.007C62.3909 28.007 62.4708 28.007 62.5531 28.007C62.5767 27.659 62.5909 27.3112 62.6035 26.9627C62.6137 26.8159 62.6137 26.8159 62.624 26.6662C62.6384 26.1362 62.5997 25.7918 62.2287 25.3954C61.7204 25.0073 61.2162 25.0239 60.609 25.0604C60.3034 25.0784 59.9975 25.0835 59.6915 25.0902C59.6314 25.0918 59.5714 25.0934 59.5095 25.0951C57.7308 25.1364 55.7826 24.6502 54.3334 23.5878C54.1083 23.3906 54.1083 23.3906 53.9166 23.4062ZM73.5303 23.8098C73.5303 24.0519 73.5303 24.0519 73.5303 24.0519V23.8098ZM62.1495 25.1012C62.3493 25.261 62.3493 25.261 62.5531 25.4241C62.5531 25.2643 62.5531 25.1045 62.5531 24.9398C62.4045 24.9398 62.279 25.0344 62.1495 25.1012ZM64.4903 27.1191C64.4903 27.4387 64.4903 27.7584 64.4903 28.0877C64.7509 28.0627 65.0116 28.0374 65.2722 28.012C65.3458 28.005 65.4194 27.998 65.4953 27.9907C65.5668 27.9837 65.6383 27.9767 65.712 27.9695C65.7775 27.9631 65.8431 27.9568 65.9106 27.9502C66.1125 27.9253 66.3092 27.8878 66.5081 27.8455C66.2927 27.6301 66.0587 27.5975 65.7716 27.5277C65.3322 27.4163 64.9102 27.2905 64.4903 27.1191Z" fill="#095097"/>
<path d="M21.3055 15.0923C24.2354 15.0923 27.1654 15.0923 30.1841 15.0923C30.6902 16.3974 31.1963 17.7026 31.7177 19.0473C32.0264 19.8363 32.3355 20.625 32.6459 21.4133C32.7527 21.6846 32.8594 21.9558 32.966 22.2271C33.0358 22.4044 33.1057 22.5816 33.1757 22.7588C33.3441 23.1851 33.511 23.6118 33.6739 24.0403C33.7543 24.2515 33.8354 24.4626 33.9165 24.6736C33.9742 24.8242 34.0308 24.9753 34.0875 25.1263C34.1224 25.2169 34.1573 25.3075 34.1932 25.4009C34.2238 25.4814 34.2543 25.562 34.2858 25.6449C34.3685 25.8542 34.3685 25.8542 34.6235 25.9081C34.8517 25.9354 35.0795 25.9596 35.3083 25.9816C35.4534 25.9962 35.5984 26.011 35.7435 26.0258C35.8206 26.0337 35.8977 26.0416 35.9772 26.0497C38.8382 26.3459 41.6852 26.797 44.4707 27.5224C44.6162 27.5598 44.6162 27.5598 44.7646 27.598C48.102 28.4633 51.5631 29.6269 54.2372 31.881C54.3055 31.9374 54.3737 31.9938 54.444 32.0519C55.3564 32.8336 56.2095 33.9577 56.3358 35.1903C56.4226 36.4256 56.0887 37.5017 55.301 38.4618C53.267 40.7656 50.4605 42.0074 47.5934 42.9642C47.5332 42.9843 47.473 43.0044 47.411 43.0251C46.7332 43.2503 46.0518 43.4619 45.3652 43.6588C45.3034 43.677 45.2417 43.6951 45.1781 43.7138C44.7412 43.8363 44.7412 43.8363 44.4707 43.7461C44.5282 43.7247 44.5856 43.7033 44.6449 43.6813C46.9829 42.8039 49.2917 41.8024 51.17 40.114C51.2444 40.0472 51.3188 39.9804 51.3955 39.9115C52.2984 39.0572 53.0894 37.9819 53.1448 36.7025C53.1545 36.0638 53.0757 35.5255 52.7843 34.9482C52.752 34.8824 52.7196 34.8167 52.6863 34.7489C51.0887 31.8222 47.0313 30.5041 44.0621 29.6109C39.6915 28.3384 39.6915 28.3384 35.1885 27.926C35.2175 27.9995 35.2466 28.0729 35.2765 28.1486C35.9481 29.8463 36.6162 31.5454 37.2809 33.2458C37.3424 33.4032 37.404 33.5605 37.4655 33.7179C37.4964 33.7969 37.5273 33.8759 37.5591 33.9572C37.802 34.5784 38.0454 35.1994 38.2891 35.8203C38.3255 35.9132 38.362 36.0061 38.3995 36.1019C38.5427 36.4667 38.6859 36.8316 38.8291 37.1964C39.0159 37.6722 39.2024 38.1481 39.3885 38.6241C39.4593 38.8044 39.5305 38.9845 39.6021 39.1646C39.6392 39.2589 39.6763 39.3531 39.7145 39.4503C39.7606 39.5665 39.7606 39.5665 39.8077 39.6851C39.8699 39.8718 39.8699 39.8718 39.8699 40.114C39.3464 39.9812 38.9647 39.7625 38.5306 39.4449C37.8978 38.995 37.2618 38.8441 36.4966 38.7781C36.4176 38.7712 36.3386 38.7643 36.2572 38.7572C36.1975 38.7521 36.1378 38.747 36.0763 38.7418C36.0477 38.6647 36.019 38.5876 35.9895 38.5082C35.3155 36.696 34.6303 34.8884 33.9262 33.0877C33.6177 32.2982 33.3119 31.5082 33.0161 30.7139C32.8783 30.3441 32.7391 29.9748 32.5997 29.6056C32.5333 29.4284 32.4676 29.251 32.4027 29.0732C32.3126 28.8272 32.2202 28.5821 32.1273 28.3371C32.1011 28.2636 32.0749 28.1901 32.048 28.1143C31.9767 27.9302 31.9085 27.7669 31.7984 27.6031C31.5761 27.5035 31.5761 27.5035 31.3141 27.5224C31.2122 27.5145 31.1103 27.5066 31.0052 27.4985C30.8833 27.4918 30.7614 27.4856 30.6394 27.4798C30.5707 27.4765 30.5021 27.4732 30.4313 27.4697C29.378 27.4229 28.3233 27.4135 27.2692 27.3987C26.978 27.3946 26.6868 27.3902 26.3956 27.3857C25.8289 27.3772 25.2622 27.369 24.6955 27.361C24.6792 27.4513 24.6792 27.4513 24.6627 27.5434C24.6212 27.7348 24.5706 27.8953 24.4943 28.0746C24.4695 28.1334 24.4447 28.1922 24.4192 28.2528C24.392 28.3163 24.3647 28.3798 24.3367 28.4453C24.3078 28.5134 24.279 28.5816 24.2492 28.6518C24.1528 28.8792 24.0559 29.1063 23.959 29.3335C23.8905 29.4946 23.8221 29.6559 23.7536 29.8171C23.5687 30.2526 23.3832 30.688 23.1977 31.1233C23.0409 31.4914 22.8843 31.8596 22.7278 32.2279C21.9901 33.9629 21.2506 35.6971 20.5084 37.4302C20.4829 37.4897 20.4575 37.5492 20.4312 37.6104C20.3614 37.7736 20.2914 37.9367 20.2215 38.0999C20.183 38.1896 20.1445 38.2794 20.1049 38.3719C20.0506 38.4965 19.9941 38.6202 19.9333 38.7418C19.1609 38.7418 18.3884 38.7418 17.5926 38.7418C17.7559 38.2517 17.924 37.7885 18.1336 37.3198C18.1622 37.2552 18.1908 37.1905 18.2202 37.1239C18.2815 36.9853 18.3429 36.8468 18.4044 36.7083C18.5702 36.3353 18.7348 35.9618 18.8995 35.5882C18.9328 35.5128 18.9661 35.4373 19.0004 35.3595C19.2941 34.693 19.582 34.0241 19.8677 33.3541C20.406 32.0925 20.9511 30.8338 21.4972 29.5756C21.5392 29.4787 21.5812 29.3818 21.6246 29.2819C21.7441 29.0064 21.8637 28.7309 21.9833 28.4554C22.0197 28.3716 22.056 28.2878 22.0935 28.2015C22.1268 28.1249 22.1601 28.0483 22.1944 27.9693C22.2235 27.9022 22.2527 27.8351 22.2827 27.7659C22.3311 27.6567 22.382 27.5486 22.4355 27.4417C19.3617 27.707 16.2916 28.0252 13.2702 28.6666C12.9786 28.7256 12.7102 28.7463 12.4117 28.7331C12.0332 28.7249 11.7414 28.7875 11.3775 28.8946C11.0597 28.8643 11.0597 28.8643 10.8125 28.8139C10.8125 28.7606 10.8125 28.7073 10.8125 28.6524C20.5498 25.9081 20.5498 25.9081 23.1619 25.9081C23.1757 25.8645 23.1894 25.8209 23.2035 25.776C23.3536 25.3117 23.5309 24.8659 23.7263 24.419C23.7572 24.3477 23.788 24.2764 23.8198 24.203C23.9197 23.9725 24.0201 23.7422 24.1204 23.5119C24.1898 23.3519 24.2591 23.192 24.3284 23.032C24.6112 22.3798 24.8949 21.7279 25.1793 21.0763C25.7701 19.7278 25.7701 19.7278 26.33 18.3663C26.3523 18.3109 26.3746 18.2556 26.3975 18.1985C26.5269 17.8638 26.6241 17.5509 26.6327 17.1909C26.1359 16.5782 25.2081 16.481 24.4735 16.3434C24.3443 16.3183 24.3443 16.3183 24.2124 16.2927C23.5188 16.1594 22.8232 16.0367 22.1266 15.9201C22.0539 15.9079 21.9813 15.8956 21.9064 15.883C21.8427 15.8725 21.7791 15.862 21.7135 15.8511C21.5476 15.8187 21.5476 15.8187 21.3055 15.738C21.3055 15.5249 21.3055 15.3118 21.3055 15.0923ZM28.4084 18.7245C28.009 19.5645 27.6471 20.4191 27.2873 21.2766C27.1183 21.6793 26.9488 22.0816 26.7793 22.484C26.7459 22.5632 26.7126 22.6425 26.6782 22.7241C26.2642 23.7067 25.844 24.6867 25.4219 25.666C25.6968 25.7576 25.9056 25.7564 26.1954 25.7558C26.2758 25.7559 26.2758 25.7559 26.3577 25.7559C26.5346 25.7558 26.7115 25.7552 26.8884 25.7546C27.0111 25.7544 27.1338 25.7543 27.2565 25.7542C27.5793 25.7539 27.9022 25.7531 28.225 25.7522C28.5545 25.7514 28.884 25.751 29.2135 25.7506C29.8599 25.7498 30.5063 25.7484 31.1527 25.7467C30.7682 24.6253 30.3429 23.5213 29.9117 22.4172C29.7798 22.0788 29.6481 21.7404 29.5163 21.4019C29.4845 21.3201 29.4526 21.2383 29.4197 21.1539C29.1053 20.3457 28.7965 19.5354 28.4891 18.7245C28.4625 18.7245 28.4358 18.7245 28.4084 18.7245Z" fill="#095097"/>
<path d="M86.7656 15.7378C92.8386 15.7378 98.9116 15.7378 105.169 15.7378C105.33 18.6435 105.33 18.6435 105.33 19.935C104.957 19.935 104.584 19.935 104.2 19.935C104.085 19.5911 104.002 19.2871 103.933 18.9361C103.817 18.4299 103.681 17.9802 103.258 17.6507C102.424 17.144 101.508 17.1779 100.566 17.1771C100.456 17.1768 100.347 17.1766 100.237 17.1763C100.008 17.1758 99.7797 17.1757 99.551 17.1757C99.2598 17.1757 98.9685 17.1746 98.6772 17.1732C98.4513 17.1723 98.2253 17.1722 97.9994 17.1722C97.8403 17.1721 97.6813 17.1712 97.5223 17.1703C96.989 17.1717 96.4769 17.181 95.9671 17.3521C95.8851 17.3773 95.8851 17.3773 95.8014 17.4031C95.557 17.5749 95.4754 17.7991 95.4021 18.0785C95.3686 18.3547 95.3668 18.6279 95.3672 18.9058C95.3664 18.987 95.3656 19.0682 95.3647 19.1518C95.3623 19.4187 95.3616 19.6855 95.3608 19.9523C95.3595 20.1379 95.358 20.3235 95.3564 20.5091C95.3526 20.9965 95.3502 21.4838 95.3481 21.9712C95.3453 22.5566 95.3407 23.1419 95.3364 23.7273C95.33 24.6156 95.3259 25.5039 95.3214 26.3922C97.3191 26.3922 99.3168 26.3922 101.375 26.3922C101.375 27.0048 101.375 27.6174 101.375 28.2486C99.3774 28.2486 97.3797 28.2486 95.3214 28.2486C95.3311 29.6838 95.3311 29.6838 95.3422 31.1189C95.3471 31.7043 95.3518 32.2898 95.3555 32.8752C95.3585 33.3473 95.3622 33.8193 95.3665 34.2914C95.368 34.4714 95.3692 34.6514 95.3701 34.8314C95.3715 35.0837 95.3738 35.336 95.3764 35.5884C95.3766 35.6626 95.3768 35.7368 95.3769 35.8132C95.3823 36.2251 95.4053 36.5825 95.5636 36.9659C96.112 37.371 97.0689 37.2446 97.7249 37.243C97.8555 37.2434 97.9862 37.2438 98.1168 37.2443C98.3895 37.245 98.6621 37.2448 98.9347 37.244C99.2819 37.2431 99.629 37.2447 99.9762 37.2471C100.246 37.2486 100.515 37.2485 100.785 37.2481C100.912 37.2481 101.04 37.2485 101.168 37.2495C102.589 37.2592 103.499 36.8438 104.533 35.8611C104.904 35.4791 105.198 35.0665 105.491 34.6235C105.643 34.3985 105.805 34.1901 105.976 33.9794C105.986 34.8917 105.963 35.7981 105.911 36.7089C105.9 36.9085 105.889 37.1082 105.879 37.308C105.872 37.4365 105.865 37.565 105.858 37.6936C105.854 37.7525 105.851 37.8114 105.848 37.8722C105.831 38.1726 105.793 38.4446 105.734 38.7416C101.259 38.7416 96.784 38.7416 92.1735 38.7416C92.1705 37.3216 92.1675 35.9015 92.1644 34.4385C92.162 33.5402 92.1594 32.6419 92.1567 31.7437C92.1552 31.2718 92.1538 30.8 92.1524 30.3282C92.1522 30.2691 92.152 30.2099 92.1518 30.149C92.149 29.1947 92.147 28.2404 92.1453 27.2861C92.1435 26.3065 92.1408 25.3269 92.1373 24.3473C92.1352 23.743 92.1338 23.1387 92.1332 22.5344C92.1328 22.0708 92.131 21.6072 92.1288 21.1435C92.1281 20.9535 92.1278 20.7635 92.1279 20.5735C92.1281 20.3139 92.1267 20.0544 92.125 19.7948C92.1254 19.7197 92.1258 19.6447 92.1262 19.5673C92.1196 18.96 92.0036 18.4172 91.5776 17.9521C90.3322 16.848 88.3512 16.6455 86.7656 16.3835C86.7656 16.1704 86.7656 15.9573 86.7656 15.7378Z" fill="#095097"/>
<path d="M12.5898 55.6919C43.8072 55.6919 75.0246 55.6919 107.188 55.6919C106.871 55.9033 106.586 55.8913 106.217 55.9072C106.141 55.9111 106.065 55.915 105.987 55.9189C105.73 55.9318 105.473 55.9436 105.216 55.9555C105.031 55.9645 104.846 55.9737 104.661 55.9829C104.151 56.008 103.641 56.0322 103.131 56.0563C102.637 56.0796 102.144 56.1038 101.651 56.1279C100.579 56.1803 99.5063 56.2318 98.4341 56.2829C97.4944 56.3277 96.5548 56.3728 95.6152 56.4182C95.5529 56.4212 95.4906 56.4242 95.4264 56.4273C95.1735 56.4396 94.9205 56.4518 94.6676 56.464C92.292 56.5788 89.9164 56.6928 87.5408 56.8063C85.4339 56.9071 83.3271 57.0084 81.2203 57.1104C80.682 57.1365 80.1436 57.1625 79.6053 57.1886C79.539 57.1918 79.4727 57.195 79.4044 57.1983C77.6416 57.2836 75.8789 57.3683 74.1161 57.4529C73.9261 57.462 73.7361 57.4711 73.546 57.4803C73.42 57.4863 73.2939 57.4923 73.1679 57.4984C72.2307 57.5434 71.2935 57.5886 70.3564 57.634C69.2881 57.6857 68.2198 57.737 67.1515 57.7877C66.6071 57.8136 66.0628 57.8396 65.5185 57.8662C62.1136 58.032 58.7756 58.0199 55.3705 57.8585C54.8065 57.8318 54.2424 57.8057 53.6784 57.7796C52.5742 57.7286 51.47 57.6769 50.3659 57.625C49.4008 57.5796 48.4357 57.5344 47.4707 57.4893C47.3408 57.4833 47.2108 57.4772 47.0809 57.4711C46.8851 57.462 46.6893 57.4529 46.4935 57.4437C44.6769 57.359 42.8603 57.274 41.0437 57.1886C40.9754 57.1853 40.9072 57.1821 40.8368 57.1788C40.2825 57.1528 39.7281 57.1267 39.1738 57.1006C37.0066 56.9986 34.8393 56.8973 32.672 56.7966C30.2332 56.6832 27.7944 56.5694 25.3557 56.4548C25.096 56.4426 24.8363 56.4304 24.5766 56.4182C24.5127 56.4152 24.4487 56.4122 24.3829 56.4091C23.4171 56.3638 22.4512 56.3188 21.4854 56.274C20.3889 56.2231 19.2923 56.1718 18.1959 56.1197C17.5821 56.0906 16.9683 56.0619 16.3545 56.0337C15.8971 56.0127 15.4397 55.991 14.9823 55.9689C14.7967 55.96 14.611 55.9514 14.4254 55.9431C14.1742 55.9318 13.9231 55.9196 13.672 55.9072C13.5624 55.9026 13.5624 55.9026 13.4505 55.8979C13.3838 55.8944 13.317 55.8909 13.2482 55.8873C13.1908 55.8847 13.1333 55.882 13.0742 55.8792C12.9127 55.8533 12.9127 55.8533 12.5898 55.6919Z" fill="#095097"/>
<path d="M81.7615 47.3784C82.0279 47.3784 82.2943 47.3784 82.5687 47.3784C82.5806 47.5392 82.5806 47.5392 82.5927 47.7032C82.6048 47.8472 82.617 47.9911 82.6292 48.1351C82.6342 48.2054 82.6392 48.2756 82.6444 48.3479C82.6914 48.8775 82.8319 49.3173 83.053 49.7999C83.1593 49.4721 83.2651 49.1441 83.3708 48.8162C83.416 48.6769 83.416 48.6769 83.4621 48.5348C83.491 48.445 83.5198 48.3553 83.5496 48.2628C83.5895 48.1392 83.5895 48.1392 83.6303 48.013C83.6927 47.8022 83.7404 47.5946 83.7794 47.3784C83.9925 47.3784 84.2056 47.3784 84.4251 47.3784C84.2433 48.0756 84.0309 48.7611 83.8097 49.4467C83.7765 49.5509 83.7433 49.655 83.7101 49.7592C83.6786 49.8569 83.6472 49.9546 83.6148 50.0553C83.5864 50.1439 83.5579 50.2325 83.5286 50.3238C83.4566 50.5263 83.4566 50.5263 83.3759 50.607C83.1488 50.6373 83.1488 50.6373 82.8916 50.607C82.6427 50.3423 82.494 50.0738 82.3568 49.7393C82.3078 49.6226 82.3078 49.6226 82.2578 49.5035C82.145 49.1764 82.0722 48.8471 82.0037 48.5084C81.9242 48.7672 81.8453 49.0263 81.7666 49.2853C81.7442 49.3582 81.7218 49.4312 81.6986 49.5063C81.5879 49.872 81.4886 50.227 81.4387 50.607C81.2256 50.607 81.0125 50.607 80.793 50.607C80.9638 49.8747 81.1797 49.1624 81.4135 48.4479C81.4474 48.3434 81.4813 48.239 81.5151 48.1345C81.597 47.8824 81.6791 47.6304 81.7615 47.3784Z" fill="#095097"/>
<path d="M37.6979 47.3701C37.7976 47.3715 37.7976 47.3715 37.8993 47.373C37.966 47.3737 38.0327 47.3744 38.1014 47.3752C38.153 47.3761 38.2045 47.377 38.2575 47.378C38.2636 47.426 38.2697 47.4739 38.2759 47.5233C38.3043 47.7441 38.3339 47.9646 38.3635 48.1852C38.373 48.2606 38.3825 48.336 38.3923 48.4137C38.456 48.8811 38.5587 49.2837 38.7418 49.7187C38.9061 49.4722 38.9749 49.276 39.0603 48.9939C39.0889 48.9 39.1175 48.8061 39.147 48.7093C39.1764 48.6113 39.2059 48.5132 39.2362 48.4122C39.2663 48.3132 39.2963 48.2142 39.3273 48.1122C39.4015 47.8675 39.4754 47.6228 39.549 47.378C39.7354 47.378 39.9219 47.378 40.114 47.378C39.9931 47.9812 39.8187 48.564 39.6344 49.1504C39.5838 49.3117 39.5336 49.473 39.4835 49.6344C39.2382 50.421 39.2382 50.421 39.1454 50.6066C38.8931 50.6571 38.8931 50.6571 38.5804 50.6066C38.1226 50.1003 37.8429 49.341 37.8388 48.6594C37.8463 48.5445 37.8463 48.5445 37.8539 48.4273C37.8007 48.4273 37.7474 48.4273 37.6925 48.4273C37.6702 48.5312 37.648 48.6352 37.625 48.7423C37.5365 49.1408 37.4304 49.5329 37.3192 49.9256C37.3007 49.9916 37.2822 50.0576 37.2631 50.1256C37.2181 50.286 37.1728 50.4463 37.1275 50.6066C36.9411 50.6066 36.7546 50.6066 36.5625 50.6066C36.6112 50.1973 36.6996 49.8174 36.8248 49.4243C36.8424 49.3679 36.86 49.3116 36.8782 49.2535C36.9152 49.1356 36.9523 49.0177 36.9897 48.8999C37.0471 48.7189 37.1038 48.5376 37.1603 48.3564C37.1964 48.2415 37.2326 48.1266 37.2688 48.0117C37.2857 47.9574 37.3027 47.9031 37.3202 47.8472C37.4688 47.3809 37.4688 47.3809 37.6979 47.3701Z" fill="#095097"/>
<path d="M103.23 47.3783C103.562 47.3666 103.893 47.3595 104.224 47.3531C104.318 47.3497 104.413 47.3463 104.51 47.3429C104.6 47.3416 104.69 47.3403 104.783 47.3389C104.908 47.3358 104.908 47.3358 105.035 47.3325C105.248 47.3783 105.248 47.3783 105.395 47.5724C105.654 48.1407 105.655 48.7439 105.445 49.3306C105.194 49.8867 104.849 50.2325 104.29 50.4758C103.623 50.7111 102.961 50.6975 102.262 50.6877C102.453 49.965 102.666 49.2492 102.882 48.5336C102.916 48.421 102.95 48.3083 102.984 48.1957C103.066 47.9232 103.148 47.6508 103.23 47.3783ZM103.715 47.7819C103.608 48.1097 103.502 48.4376 103.397 48.7656C103.352 48.9049 103.352 48.9049 103.305 49.047C103.262 49.1816 103.262 49.1816 103.218 49.319C103.191 49.4014 103.165 49.4838 103.137 49.5687C103.075 49.7795 103.027 49.9872 102.988 50.2034C103.52 50.1816 104.012 50.139 104.441 49.7998C104.822 49.3413 105.012 48.9591 105.025 48.3576C105.009 48.1403 105.009 48.1403 104.845 47.7819C104.472 47.7819 104.099 47.7819 103.715 47.7819Z" fill="#095097"/>
<path d="M87.4113 47.3784C88.1038 47.3784 88.7964 47.3784 89.5099 47.3784C89.7534 48.0279 89.896 48.5905 89.6934 49.2702C89.4261 49.8439 88.9524 50.2666 88.3799 50.5263C87.7686 50.6919 87.1531 50.71 86.5234 50.6877C86.5707 50.2988 86.6492 49.9428 86.7681 49.5697C86.7839 49.5195 86.7997 49.4693 86.816 49.4176C86.8661 49.259 86.9167 49.1006 86.9674 48.9423C87.018 48.7833 87.0685 48.6243 87.1187 48.4652C87.1642 48.3213 87.2101 48.1775 87.256 48.0337C87.3415 47.7591 87.3415 47.7591 87.4113 47.3784ZM87.8956 47.782C87.6559 48.5811 87.4161 49.3802 87.1692 50.2034C87.7625 50.2034 88.2351 50.1459 88.6949 49.7475C89.1063 49.2868 89.2047 48.9088 89.2085 48.2988C89.195 48.0741 89.195 48.0741 89.0256 47.782C88.6527 47.782 88.2798 47.782 87.8956 47.782Z" fill="#095097"/>
<path d="M97.9054 47.3784C98.5181 47.3784 99.1307 47.3784 99.7619 47.3784C99.9121 47.7538 99.9855 48.0322 99.9233 48.4277C99.7285 48.8174 99.4934 49.0216 99.1162 49.2349C99.0629 49.2349 99.0096 49.2349 98.9547 49.2349C99.147 49.7407 99.147 49.7407 99.5197 50.1227C99.7736 50.1876 99.7736 50.1876 100.004 50.2034C99.9774 50.3633 99.9508 50.5231 99.9233 50.6877C99.5442 50.7187 99.2551 50.6947 98.926 50.4897C98.6588 50.2384 98.5179 49.8967 98.3897 49.5577C98.3897 49.5045 98.3897 49.4512 98.3897 49.3963C98.2299 49.3963 98.0701 49.3963 97.9054 49.3963C97.8134 49.7985 97.7261 50.199 97.6633 50.607C97.4502 50.607 97.2371 50.607 97.0176 50.607C97.1773 49.8859 97.398 49.1887 97.629 48.4877C97.653 48.414 97.677 48.3403 97.7018 48.2644C97.7235 48.1987 97.7452 48.133 97.7675 48.0653C97.831 47.8406 97.8671 47.6088 97.9054 47.3784ZM98.3897 47.782C98.2832 48.1549 98.1766 48.5278 98.0669 48.912C98.5586 48.9459 98.8029 48.9174 99.1969 48.5891C99.3821 48.3114 99.3795 48.1881 99.3583 47.8627C99.2728 47.7589 99.2728 47.7589 99.0755 47.7741C98.8469 47.7767 98.6183 47.7794 98.3897 47.782Z" fill="#095097"/>
<path d="M55.7707 47.3784C55.9571 47.3784 56.1436 47.3784 56.3357 47.3784C56.2836 47.8577 56.1577 48.2907 56.0128 48.7506C56.439 48.7506 56.8652 48.7506 57.3043 48.7506C57.3392 48.5683 57.3392 48.5683 57.3749 48.3823C57.4428 48.0412 57.5259 47.7111 57.6271 47.3784C57.8402 47.3784 58.0533 47.3784 58.2728 47.3784C58.2492 47.4561 58.2256 47.5339 58.2013 47.614C58.1131 47.9044 58.025 48.1949 57.9369 48.4854C57.8988 48.6107 57.8608 48.7361 57.8227 48.8614C57.7678 49.0423 57.7129 49.2232 57.658 49.4042C57.6412 49.4595 57.6244 49.5149 57.607 49.5719C57.5028 49.916 57.4022 50.261 57.3043 50.607C57.1178 50.607 56.9314 50.607 56.7393 50.607C56.828 50.0976 56.9476 49.6333 57.1428 49.1542C56.7167 49.1808 56.2905 49.2074 55.8514 49.2349C55.7182 49.6877 55.585 50.1405 55.4478 50.607C55.2614 50.607 55.0749 50.607 54.8828 50.607C54.9322 50.1913 55.0234 49.8041 55.148 49.4042C55.1747 49.3167 55.1747 49.3167 55.2019 49.2274C55.2583 49.0431 55.3152 48.859 55.3721 48.6749C55.4107 48.5492 55.4492 48.4234 55.4877 48.2977C55.5816 47.9911 55.676 47.6847 55.7707 47.3784Z" fill="#095097"/>
<path d="M45.116 47.2979C45.1693 47.3512 45.2225 47.4045 45.2774 47.4594C45.2242 47.5925 45.1709 47.7257 45.116 47.8629C45.0526 47.8601 44.9893 47.8573 44.924 47.8544C44.3058 47.8385 43.8841 47.8523 43.3958 48.2615C43.1026 48.6198 43.0683 48.904 43.077 49.3577C43.1054 49.6267 43.191 49.8183 43.3403 50.0422C43.3935 50.0689 43.4468 50.0955 43.5017 50.123C43.8897 49.9832 44.2299 49.8239 44.4804 49.4924C44.5037 49.4341 44.527 49.3758 44.551 49.3158C44.3113 49.3158 44.0715 49.3158 43.8246 49.3158C43.8512 49.1826 43.8778 49.0495 43.9053 48.9122C44.3314 48.9122 44.7576 48.9122 45.1967 48.9122C45.1202 49.4478 45.0626 49.7299 44.7124 50.123C44.4823 50.288 44.2435 50.41 43.986 50.5265C43.9161 50.5615 43.8461 50.5965 43.7741 50.6325C43.4876 50.7154 43.3147 50.7453 43.0174 50.688C42.5276 50.1533 42.4229 49.6434 42.43 48.9365C42.4714 48.4441 42.6507 48.1581 42.9821 47.8024C43.5997 47.3458 44.3621 47.1939 45.116 47.2979Z" fill="#095097"/>
<path d="M94.4372 47.3562C94.4895 47.3636 94.5419 47.371 94.5958 47.3786C94.5844 47.4269 94.5729 47.4753 94.5611 47.5252C94.4481 48.0364 94.412 48.5158 94.4193 49.0383C94.4193 49.1094 94.4194 49.1805 94.4194 49.2538C94.4225 49.7104 94.4576 50.1542 94.5151 50.6072C94.2354 50.6471 94.2354 50.6471 93.9501 50.6879C93.9235 50.3949 93.8968 50.1019 93.8694 49.8C93.4699 49.8 93.0703 49.8 92.6587 49.8C92.5788 49.9998 92.5788 49.9998 92.4972 50.2036C92.3925 50.3669 92.2854 50.5288 92.1744 50.6879C91.9879 50.6613 91.8015 50.6346 91.6094 50.6072C91.6585 50.3553 91.7387 50.1919 91.8906 49.986C91.9323 49.9289 91.974 49.8718 92.017 49.8129C92.0849 49.7216 92.0849 49.7216 92.1542 49.6285C92.4508 49.229 92.7433 48.8304 93.014 48.4127C93.0585 48.3459 93.103 48.2792 93.1489 48.2104C93.234 48.0822 93.3171 47.9526 93.3978 47.8215C93.6956 47.3821 93.9093 47.3132 94.4372 47.3562ZM93.7887 48.1857C93.6622 48.3554 93.5404 48.5261 93.4204 48.7003C93.3861 48.749 93.3519 48.7977 93.3165 48.8478C93.1254 49.0987 93.1254 49.0987 93.0622 49.3964C93.302 49.3964 93.5417 49.3964 93.7887 49.3964C93.8153 48.9969 93.842 48.5974 93.8694 48.1857C93.8428 48.1857 93.8161 48.1857 93.7887 48.1857Z" fill="#095097"/>
<path d="M78.1493 47.3561C78.2192 47.3671 78.2192 47.3671 78.2905 47.3784C78.2848 47.4268 78.2791 47.4752 78.2732 47.525C78.2175 48.0311 78.1975 48.5292 78.1997 49.0381C78.1994 49.1092 78.1991 49.1804 78.1988 49.2536C78.1994 49.7109 78.2325 50.1534 78.2905 50.607C78.0108 50.647 78.0108 50.647 77.7255 50.6877C77.6237 50.3697 77.6448 50.1651 77.6448 49.7999C77.2452 49.7999 76.8457 49.7999 76.4341 49.7999C76.3542 49.9996 76.3542 49.9996 76.2726 50.2035C76.1531 50.4071 76.0453 50.5195 75.8691 50.6877C75.6017 50.6777 75.6017 50.6777 75.3848 50.607C75.4338 50.3552 75.5141 50.1917 75.666 49.9859C75.7077 49.9288 75.7494 49.8716 75.7924 49.8128C75.8376 49.7519 75.8829 49.6911 75.9296 49.6284C76.2261 49.2284 76.5192 48.8291 76.7922 48.4126C76.8595 48.3124 76.8595 48.3124 76.9282 48.2102C77.0142 48.0819 77.0983 47.9523 77.1803 47.8214C77.4622 47.4081 77.6461 47.3102 78.1493 47.3561ZM77.5641 48.1856C77.4376 48.3553 77.3158 48.5259 77.1958 48.7001C77.1615 48.7488 77.1272 48.7975 77.0919 48.8477C76.9007 49.0985 76.9007 49.0985 76.8376 49.3963C77.0774 49.3963 77.3171 49.3963 77.5641 49.3963C77.5907 48.9968 77.6173 48.5972 77.6448 48.1856C77.6182 48.1856 77.5915 48.1856 77.5641 48.1856Z" fill="#095097"/>
<path d="M61.259 47.3784C61.845 47.3784 62.4309 47.3784 63.0347 47.3784C63.0081 47.5116 62.9814 47.6448 62.954 47.782C62.5544 47.782 62.1549 47.782 61.7433 47.782C61.6633 48.1016 61.5834 48.4213 61.5011 48.7506C61.874 48.7506 62.2469 48.7506 62.6311 48.7506C62.6045 48.8838 62.5778 49.0169 62.5504 49.1542C62.1509 49.1808 61.7513 49.2074 61.3397 49.2349C61.2331 49.5545 61.1266 49.8741 61.0168 50.2034C61.4164 50.2034 61.8159 50.2034 62.2275 50.2034C62.2009 50.3366 62.1743 50.4698 62.1468 50.607C61.5608 50.607 60.9748 50.607 60.3711 50.607C60.4315 50.1839 60.5106 49.8077 60.6363 49.4042C60.663 49.3167 60.663 49.3167 60.6902 49.2274C60.7466 49.0431 60.8035 48.859 60.8604 48.6749C60.899 48.5492 60.9375 48.4234 60.976 48.2977C61.0698 47.9911 61.1644 47.6848 61.259 47.3784Z" fill="#095097"/>
<path d="M20.5793 47.3784C21.1653 47.3784 21.7513 47.3784 22.355 47.3784C22.3284 47.5116 22.3017 47.6448 22.2743 47.782C21.8747 47.8086 21.4752 47.8353 21.0636 47.8627C20.9837 48.1291 20.9037 48.3954 20.8214 48.6699C21.3808 48.7098 21.3808 48.7098 21.9514 48.7506C21.9248 48.8838 21.8982 49.0169 21.8707 49.1542C21.4712 49.1808 21.0716 49.2074 20.66 49.2349C20.5534 49.5545 20.4469 49.8741 20.3371 50.2034C20.7367 50.2034 21.1362 50.2034 21.5479 50.2034C21.5212 50.3366 21.4946 50.4698 21.4671 50.607C20.8811 50.607 20.2952 50.607 19.6914 50.607C19.7519 50.1839 19.8309 49.8077 19.9566 49.4042C19.9833 49.3167 19.9833 49.3167 20.0105 49.2274C20.0669 49.0431 20.1238 48.859 20.1807 48.6749C20.2193 48.5492 20.2578 48.4234 20.2963 48.2977C20.3901 47.9911 20.4847 47.6848 20.5793 47.3784Z" fill="#095097"/>
<path d="M17.7547 47.2976C17.7014 47.4574 17.6482 47.6173 17.5933 47.7819C17.5271 47.7917 17.4609 47.8015 17.3928 47.8115C17.3058 47.8251 17.2188 47.8386 17.1292 47.8525C17.043 47.8656 16.9569 47.8788 16.8681 47.8923C16.6508 47.9379 16.4927 47.9945 16.3018 48.1048C16.4152 48.4341 16.5748 48.6658 16.7912 48.9371C17.2471 49.5584 17.2471 49.5584 17.1897 50.0419C16.9364 50.3716 16.6126 50.5595 16.2211 50.6877C16.0017 50.7091 16.0017 50.7091 15.7772 50.7078C15.7031 50.7083 15.629 50.7087 15.5527 50.7091C15.3189 50.6863 15.1425 50.6234 14.9297 50.5262C14.9563 50.393 14.983 50.2599 15.0104 50.1226C15.3131 50.0318 15.3131 50.0318 15.4947 50.1226C15.665 50.1386 15.665 50.1386 15.8529 50.1378C15.916 50.1389 15.9792 50.1401 16.0442 50.1413C16.2447 50.134 16.2447 50.134 16.4633 49.9612C16.4251 49.561 16.3148 49.3495 16.0647 49.038C15.8054 48.6985 15.65 48.4435 15.5754 48.0241C16.2019 47.383 16.8785 47.2473 17.7547 47.2976Z" fill="#095097"/>
<path d="M69.8172 47.2974C69.7639 47.4572 69.7107 47.617 69.6558 47.7817C69.5896 47.7905 69.5234 47.7994 69.4553 47.8085C69.3683 47.8213 69.2813 47.8341 69.1917 47.8473C69.1055 47.8594 69.0194 47.8716 68.9306 47.8841C68.6828 47.9442 68.5532 48.018 68.3643 48.1852C68.5376 48.5052 68.7134 48.7868 68.9445 49.0681C69.1981 49.4043 69.2865 49.6164 69.2522 50.0417C69.0015 50.3721 68.6737 50.5597 68.2836 50.6874C68.0642 50.7089 68.0642 50.7089 67.8397 50.7076C67.7656 50.708 67.6915 50.7084 67.6152 50.7089C67.3814 50.686 67.205 50.6231 66.9922 50.526C67.0188 50.3928 67.0455 50.2596 67.0729 50.1224C67.3159 50.047 67.385 50.0381 67.6379 50.1224C68.1005 50.1743 68.1005 50.1743 68.4854 49.961C68.5254 49.9077 68.5653 49.8544 68.6065 49.7995C68.3986 49.4157 68.1695 49.0709 67.9018 48.726C67.7036 48.4607 67.679 48.2729 67.7186 47.9431C68.2176 47.3581 69.0942 47.2409 69.8172 47.2974Z" fill="#095097"/>
<path d="M24.6966 47.3784C25.469 47.3784 26.2415 47.3784 27.0373 47.3784C27.0107 47.5116 26.9841 47.6448 26.9566 47.782C26.637 47.782 26.3173 47.782 25.988 47.782C25.9714 47.8835 25.9547 47.9851 25.9376 48.0897C25.8377 48.5979 25.6757 49.0847 25.5135 49.5756C25.4013 49.9188 25.3086 50.2474 25.2616 50.607C25.0485 50.607 24.8354 50.607 24.6159 50.607C24.7419 49.9869 24.9212 49.3895 25.1103 48.7859C25.1403 48.6891 25.1704 48.5923 25.2014 48.4925C25.275 48.2556 25.3489 48.0188 25.423 47.782C25.13 47.782 24.837 47.782 24.5352 47.782C24.5884 47.6488 24.6417 47.5156 24.6966 47.3784Z" fill="#095097"/>
<path d="M51.0091 47.3784C51.7815 47.3784 52.554 47.3784 53.3498 47.3784C53.3232 47.5116 53.2966 47.6448 53.2691 47.782C52.9495 47.782 52.6298 47.782 52.3005 47.782C52.2839 47.8835 52.2672 47.9851 52.2501 48.0897C52.1502 48.5979 51.9882 49.0847 51.826 49.5756C51.7138 49.9188 51.6211 50.2474 51.5741 50.607C51.361 50.607 51.1479 50.607 50.9284 50.607C51.0544 49.9869 51.2337 49.3895 51.4228 48.7859C51.4528 48.6891 51.4829 48.5923 51.5139 48.4925C51.5875 48.2556 51.6614 48.0188 51.7355 47.782C51.4425 47.782 51.1495 47.782 50.8477 47.782C50.9009 47.6488 50.9542 47.5156 51.0091 47.3784Z" fill="#095097"/>
<path d="M72.1549 47.3784C72.9274 47.3784 73.6998 47.3784 74.4957 47.3784C74.469 47.5116 74.4424 47.6448 74.415 47.782C74.122 47.782 73.829 47.782 73.5271 47.782C73.4846 47.9643 73.4846 47.9643 73.4413 48.1503C73.2355 48.9787 72.9724 49.7918 72.7199 50.607C72.5335 50.607 72.347 50.607 72.1549 50.607C72.2082 50.0383 72.3878 49.5104 72.5585 48.9675C72.6031 48.8232 72.6031 48.8232 72.6487 48.676C72.8689 47.9684 72.8689 47.9684 72.9621 47.782C72.6691 47.782 72.3761 47.782 72.0742 47.782C72.1009 47.6488 72.1275 47.5156 72.1549 47.3784Z" fill="#095097"/>
<path d="M28.9752 47.3784C29.7477 47.3784 30.5201 47.3784 31.316 47.3784C31.2893 47.5116 31.2627 47.6448 31.2353 47.782C30.9423 47.8086 30.6493 47.8353 30.3474 47.8627C30.081 48.7683 29.8147 49.674 29.5403 50.607C29.3272 50.607 29.1141 50.607 28.8945 50.607C28.9967 50.2571 29.0994 49.9074 29.2023 49.5577C29.231 49.4592 29.2598 49.3607 29.2894 49.2591C29.4368 48.7588 29.5902 48.267 29.7824 47.782C29.4894 47.782 29.1964 47.782 28.8945 47.782C28.9212 47.6488 28.9478 47.5156 28.9752 47.3784Z" fill="#095097"/>
<path d="M33.7355 47.3784C33.9486 47.3784 34.1617 47.3784 34.3812 47.3784C34.2737 48.0123 34.0941 48.6102 33.8919 49.2197C33.8336 49.3968 33.7755 49.5738 33.7176 49.751C33.6919 49.8283 33.6663 49.9056 33.64 49.9852C33.5777 50.1916 33.5317 50.395 33.4934 50.607C33.2803 50.607 33.0672 50.607 32.8477 50.607C33.0338 49.9062 33.2422 49.2138 33.4587 48.5218C33.5759 48.142 33.6858 47.7743 33.7355 47.3784Z" fill="#095097"/>
</svg>
