<svg width="118" height="59" viewBox="0 0 118 59" fill="none" xmlns="http://www.w3.org/2000/svg">
<path d="M15.4258 16.2808C15.4258 16.2939 15.5831 16.5649 15.7754 16.8839L16.125 17.4652V17.8891C16.125 18.313 16.125 18.3174 16.2299 18.3174C16.3304 18.3174 16.3348 18.3043 16.3654 17.8192L16.396 17.3209L16.7107 16.8489C16.8811 16.5867 17.0384 16.3463 17.0603 16.3158C17.0822 16.2808 17.0603 16.2633 16.986 16.2633C16.8942 16.2633 16.8374 16.3332 16.6058 16.744C16.4572 17.0106 16.313 17.2204 16.2867 17.2117C16.2605 17.2029 16.1207 16.9888 15.9808 16.7309C15.7317 16.2808 15.7186 16.2633 15.5744 16.2633C15.4913 16.2633 15.4258 16.272 15.4258 16.2808Z" fill="#B50C00"/>
<path d="M14.116 16.3942C13.8625 16.4335 13.5653 16.4816 13.4561 16.4991C13.2769 16.5253 13.255 16.5428 13.2725 16.6171C13.2856 16.6651 13.3206 16.6957 13.3468 16.687C13.4473 16.6476 13.9062 16.5602 13.9193 16.5777C13.9368 16.5952 14.2034 18.3128 14.2034 18.4045C14.2034 18.4264 14.2646 18.4482 14.3345 18.4482C14.4088 18.4482 14.4656 18.4264 14.4656 18.3914C14.4656 18.3652 14.4044 17.9413 14.3301 17.4518C14.2558 16.9623 14.2034 16.5515 14.2165 16.5384C14.2296 16.5253 14.3695 16.5034 14.5268 16.4947C14.7715 16.4728 14.8153 16.4554 14.8153 16.3898C14.8153 16.2893 14.7453 16.2893 14.116 16.3942Z" fill="#B50C00"/>
<path d="M114.417 16.4643C113.35 16.6872 112.625 17.5875 112.625 18.68C112.629 19.6328 113.294 20.5069 114.238 20.7822C114.509 20.8609 115.125 20.874 115.422 20.804C115.995 20.6729 116.602 20.1922 116.856 19.6721C116.995 19.388 117.126 18.8942 117.126 18.6451C117.126 18.4003 116.995 17.9021 116.864 17.6355C116.432 16.7483 115.4 16.2589 114.417 16.4643ZM115.474 16.7003C116.073 16.8838 116.558 17.334 116.781 17.9152C116.925 18.2911 116.943 18.8374 116.825 19.2263C116.576 20.0567 115.872 20.6117 115.011 20.6686C114.373 20.7079 113.77 20.4763 113.368 20.0349C112.634 19.2351 112.638 18.0551 113.368 17.2553C113.595 17.0062 114.05 16.7352 114.356 16.6609C114.662 16.591 115.173 16.6085 115.474 16.7003Z" fill="#B50C00"/>
<path d="M113.63 17.3296C113.63 17.3689 113.678 17.3995 113.752 17.4082L113.87 17.4214V18.6232V19.8251L113.731 19.8688C113.46 19.9474 113.586 19.978 114.154 19.978C114.504 19.978 114.723 19.9605 114.723 19.9343C114.723 19.9081 114.675 19.8906 114.622 19.8906C114.417 19.8906 114.373 19.777 114.373 19.222V18.7106H114.495C114.596 18.7106 114.675 18.7937 115.072 19.3443L115.531 19.978H115.828C115.99 19.978 116.121 19.9649 116.121 19.9431C116.117 19.9256 116.056 19.8731 115.977 19.8251C115.833 19.7333 115.107 18.7631 115.129 18.6931C115.138 18.6669 115.199 18.632 115.273 18.6101C115.876 18.4134 115.955 17.6836 115.404 17.3864C115.243 17.299 115.151 17.2902 114.43 17.2771C113.739 17.264 113.63 17.2684 113.63 17.3296ZM115.024 17.5175C115.195 17.6399 115.304 17.8977 115.273 18.0769C115.212 18.3828 114.924 18.5795 114.53 18.5795H114.373V18.0157C114.373 17.5131 114.382 17.4476 114.452 17.4257C114.596 17.3864 114.906 17.4345 115.024 17.5175Z" fill="#B50C00"/>
<path d="M12.0576 16.8575L11.59 17.0061L11.7386 17.4999C12.1581 18.8941 12.18 18.9509 12.263 18.9378C12.3111 18.929 12.5383 18.8635 12.7743 18.7935C13.1327 18.6843 13.1983 18.6493 13.1983 18.575C13.1983 18.5051 13.1808 18.492 13.124 18.5138C12.818 18.6362 12.4334 18.7498 12.4072 18.7236C12.3504 18.6624 12.1494 17.9501 12.1843 17.9195C12.2324 17.8758 12.6345 17.749 12.7219 17.749C12.818 17.749 12.853 17.6966 12.8093 17.6266C12.7874 17.5917 12.6913 17.6048 12.4553 17.6835C12.2761 17.7403 12.1144 17.7709 12.1013 17.7578C12.0751 17.7272 11.8872 17.1328 11.8872 17.076C11.8872 17.0498 12.4597 16.8749 12.5602 16.8749C12.5995 16.8749 12.6301 16.84 12.6301 16.7875C12.6301 16.6783 12.6126 16.6783 12.0576 16.8575Z" fill="#B50C00"/>
<path d="M19.1078 16.8139C18.8369 16.9494 18.6446 17.216 18.5746 17.5569C18.4741 18.042 18.6708 18.4616 19.1034 18.6801C19.7328 18.9991 20.4189 18.8199 20.6899 18.2605C20.8297 17.9808 20.8516 17.6006 20.7467 17.3515C20.5194 16.8052 19.6803 16.5298 19.1078 16.8139ZM20.1174 16.897C20.2091 16.9407 20.3359 17.0456 20.4014 17.1286C20.5063 17.2684 20.5194 17.3209 20.5194 17.6356C20.5194 17.8934 20.4932 18.0376 20.4364 18.16C20.3228 18.3873 20.0911 18.6058 19.8595 18.6932C19.6978 18.7544 19.641 18.7587 19.4443 18.7107C18.9942 18.6014 18.7276 18.16 18.8369 17.688C19.0029 16.9494 19.5361 16.6173 20.1174 16.897Z" fill="#B50C00"/>
<path d="M39.5725 16.8704C37.8418 17.5609 34.5422 18.8983 34.5291 18.9114C34.4897 18.9464 34.7782 19.5626 34.8306 19.5495C34.8568 19.5451 35.0535 19.4883 35.2633 19.4271C35.7309 19.2872 36.2422 19.2479 36.5132 19.3222C37.0682 19.4752 37.3348 19.9341 37.4572 20.9392C37.4965 21.2452 37.514 24.1602 37.5271 31.9395L37.5446 42.5245L37.7719 42.6731C38.1171 42.9004 38.8645 43.3243 39.3714 43.5734C42.1248 44.9544 44.8825 45.1249 47.3605 44.0629C48.6191 43.5253 50.0395 42.4589 50.9617 41.3576C52.1504 39.9372 52.8322 38.3639 53.1294 36.3448C53.2343 35.6106 53.2386 33.7313 53.1294 32.9578C52.8147 30.7289 52.028 29.0812 50.6426 27.7745C49.384 26.5901 47.9854 26.0089 46.3946 26.0089C44.5328 26.0089 42.8022 27.0097 41.207 29.0026L40.7962 29.5183L40.7743 23.1419L40.7525 16.7655L40.3154 16.7568C39.9265 16.7481 39.8434 16.7612 39.5725 16.8704ZM45.7565 28.854C47.3211 29.2342 48.8027 30.7289 49.384 32.5164C49.9696 34.2995 50.0133 36.9086 49.4932 38.9233C49.148 40.2607 48.5929 41.2352 47.6533 42.1355C46.9628 42.7998 46.3028 43.1626 45.5599 43.2937C45.0791 43.3767 44.8562 43.3767 44.2837 43.2893C43.2042 43.132 42.1728 42.6207 41.1502 41.7509L40.7743 41.4319V36.1088V30.7857L41.1152 30.4798C42.1422 29.5576 42.7803 29.1643 43.6457 28.9152C44.3405 28.7141 45.0922 28.6966 45.7565 28.854Z" fill="#B50C00"/>
<path d="M109.325 17.1414C108.796 17.36 107.607 17.8407 106.681 18.2166C105.754 18.588 104.99 18.9027 104.985 18.9071C104.968 18.9246 105.129 19.3747 105.195 19.5014C105.239 19.5757 105.247 19.5757 105.492 19.4927C106.563 19.1212 107.301 19.2567 107.616 19.8817C107.891 20.4192 107.948 21.2977 107.948 24.8814V27.4511L107.603 27.1714C106.834 26.5508 106.021 26.2012 104.981 26.0526C104.43 25.9696 102.966 26.0177 102.42 26.14C100.89 26.4678 99.6927 27.1321 98.587 28.264C98.0494 28.8103 97.7697 29.16 97.2759 29.8986C95.8992 31.957 95.2699 34.2864 95.4097 36.7906C95.4971 38.329 95.8511 39.6532 96.4805 40.7895C97.5949 42.8086 99.3736 44.1984 101.406 44.6354C102.048 44.7709 103.316 44.7753 103.949 44.6354C105.309 44.3426 106.305 43.7832 107.577 42.6032L107.926 42.2754L107.94 43.5166L107.948 44.7578H108.398C108.849 44.7578 108.853 44.7578 109.482 44.5C112.507 43.2631 114.093 42.6032 114.128 42.5726C114.154 42.5464 114.01 41.9914 113.958 41.9258C113.949 41.9171 113.752 41.9739 113.516 42.0482C112.227 42.4546 111.571 42.14 111.335 41.008C111.2 40.3568 111.182 39.0851 111.182 27.9406V16.7437L110.737 16.7481H110.286L109.325 17.1414ZM104.815 27.3375C105.833 27.6784 106.55 28.2378 107.109 29.125C107.35 29.5096 107.621 30.1302 107.747 30.5847C107.948 31.3189 107.948 31.3146 107.948 36.24V40.9031L107.638 41.196C106.917 41.8777 106.117 42.341 105.348 42.5289C105.007 42.6163 104.876 42.6251 104.343 42.6032C103.622 42.577 103.276 42.494 102.665 42.1924C101.384 41.5631 100.23 40.2563 99.6446 38.7748C99.0327 37.2277 98.8011 34.9157 99.059 32.8529C99.2819 31.0305 99.8893 29.6101 100.886 28.5568C101.323 28.0936 101.707 27.8051 102.201 27.5604C102.804 27.2632 103.171 27.1846 103.884 27.2064C104.378 27.2195 104.531 27.2414 104.815 27.3375Z" fill="#B50C00"/>
<path d="M56.7922 16.9145C56.6261 16.98 56.1236 17.1854 55.6778 17.3646C54.1569 17.9852 52.553 18.6364 52.2252 18.7631C52.046 18.8374 51.8799 18.9117 51.8581 18.9336C51.8056 18.9816 52.0853 19.5848 52.1553 19.5848C52.1815 19.5848 52.3519 19.5323 52.5311 19.4711C52.9681 19.3182 53.5625 19.2832 53.8728 19.3837C54.2356 19.5017 54.4759 19.8339 54.607 20.3802C54.7513 20.9833 54.7644 22.2332 54.7513 31.9966C54.7338 42.5642 54.7469 41.9261 54.4803 42.5117C54.3492 42.7914 54.017 43.1585 53.7854 43.2809C53.5581 43.3945 53.1386 43.4776 52.5879 43.5125L52.1378 43.5431V43.8665V44.1899H56.5081H60.8785V43.8665V43.5431L60.389 43.5125C59.4276 43.4513 59.0473 43.3377 58.6496 42.9837C58.3787 42.739 58.1951 42.3719 58.0946 41.8736C58.0247 41.5284 58.0203 40.5975 58.0072 29.1428L57.9897 16.7877L57.5439 16.7921C57.1637 16.7921 57.0544 16.8096 56.7922 16.9145Z" fill="#B50C00"/>
<path d="M10.59 17.3992C10.4938 17.4386 10.5026 17.4561 10.8959 18.3651C11.1188 18.8764 11.3198 19.3004 11.3417 19.3091C11.3679 19.3178 11.4247 19.296 11.4684 19.2654C11.5383 19.2129 11.5209 19.1561 11.1975 18.4044C10.7735 17.4167 10.7429 17.3555 10.7123 17.3599C10.6992 17.3599 10.6424 17.3774 10.59 17.3992Z" fill="#B50C00"/>
<path d="M21.416 18.3914C21.0095 19.2261 20.9789 19.3048 21.0489 19.3529C21.0926 19.3834 21.1494 19.4097 21.1712 19.4097C21.1974 19.4097 21.3067 19.2174 21.416 18.9901C21.5209 18.7585 21.6345 18.5618 21.6607 18.5487C21.6913 18.54 21.8486 18.6011 22.0191 18.6842C22.2813 18.8153 22.3294 18.8284 22.3512 18.7672C22.3687 18.7279 22.3731 18.6973 22.3687 18.6929C22.36 18.6886 22.2114 18.6186 22.0409 18.5356C21.8661 18.4569 21.7219 18.3826 21.7219 18.3739C21.7219 18.3564 22.0322 17.7314 22.054 17.7096C22.0584 17.7009 22.2157 17.7751 22.3993 17.8757C22.714 18.0417 22.8145 18.0636 22.8145 17.9674C22.8145 17.9237 21.9797 17.4867 21.9011 17.4867C21.8792 17.4867 21.6607 17.8931 21.416 18.3914Z" fill="#B50C00"/>
<path d="M9.49646 17.9195C8.56994 18.2385 8.30772 19.0864 8.92394 19.7856C9.30853 20.2183 9.94661 20.2096 10.4623 19.7594C10.6546 19.589 10.7158 19.4841 10.6808 19.3923C10.6502 19.3093 10.5759 19.3005 10.5759 19.3792C10.5759 19.4972 10.27 19.7987 10.0733 19.873C9.57075 20.061 9.0332 19.6982 8.86712 19.0601C8.72727 18.5357 9.09875 18.0593 9.64505 18.055C9.86357 18.055 9.87231 18.0506 9.83735 17.9588C9.78927 17.8321 9.76305 17.8277 9.49646 17.9195Z" fill="#B50C00"/>
<path d="M23.905 19.8074C23.5553 20.2138 23.2669 20.5634 23.2581 20.5853C23.2538 20.6028 23.2931 20.6509 23.3499 20.6858C23.4461 20.7514 23.4592 20.747 23.7738 20.3712L24.1016 19.9866L24.2109 20.0652C24.4425 20.2313 25.0063 20.7295 25.0281 20.7907C25.0413 20.8257 24.9451 20.9743 24.7965 21.1491C24.6567 21.3108 24.5124 21.4769 24.4775 21.5206C24.4207 21.5905 24.4207 21.608 24.5081 21.691C24.5605 21.7434 24.6086 21.7784 24.6173 21.7653C24.6261 21.7566 24.9233 21.4113 25.2729 21.0005C25.6269 20.5853 25.9153 20.2269 25.9153 20.2007C25.9153 20.1789 25.8716 20.1308 25.8192 20.1046C25.7143 20.0477 25.7493 20.0215 25.3647 20.4804L25.1855 20.6946L24.9276 20.4848C24.5212 20.1483 24.2546 19.9035 24.2546 19.8554C24.2546 19.8292 24.3726 19.6719 24.5168 19.5058C24.7659 19.2174 24.7747 19.1999 24.696 19.13C24.6567 19.0906 24.5998 19.06 24.578 19.0644C24.5561 19.0644 24.2546 19.4009 23.905 19.8074Z" fill="#B50C00"/>
<path d="M7.18018 19.5758C6.46344 19.8293 6.11381 20.5592 6.42411 21.1579C6.78248 21.8528 7.61722 21.9752 8.17663 21.4158C8.43011 21.1623 8.535 20.9219 8.53937 20.6072C8.53937 19.873 7.84448 19.3398 7.18018 19.5758ZM7.70463 19.79C7.77018 19.8249 7.9013 19.9298 7.99307 20.026C8.40389 20.4455 8.45633 20.9831 8.12418 21.3327C7.76144 21.7086 7.22826 21.6692 6.8393 21.2366C6.45907 20.817 6.411 20.3057 6.7213 19.9648C6.95293 19.7069 7.38559 19.6283 7.70463 19.79Z" fill="#B50C00"/>
<path d="M15.0998 20.5285C13.8542 20.6596 12.7266 20.9787 11.6952 21.4944C10.6988 21.9926 9.93835 22.5433 9.1342 23.3431C7.66139 24.8159 6.72613 26.6776 6.39835 28.806C6.28909 29.4965 6.28909 30.9475 6.39835 31.6468C6.89657 34.8765 8.88509 37.5774 11.8045 38.9846C13.1549 39.6358 14.4267 39.9242 15.952 39.9199C16.5682 39.9199 16.7998 39.9024 17.1451 39.8281C19.4876 39.3168 20.9298 37.9707 21.262 35.9778C21.3538 35.4446 21.3319 34.3345 21.2226 33.7882C21.0435 32.9098 20.1082 31.6118 18.8758 30.5323C17.6433 29.4572 17.0227 28.6705 16.625 27.6916C16.2317 26.7126 16.1836 25.8866 16.4633 24.9164C16.8785 23.4698 17.8356 22.2592 18.9675 21.7391C19.221 21.6211 19.7018 21.4638 19.8023 21.4638C20.0164 21.4638 20.0121 21.407 19.7892 21.3021C19.1948 21.0268 18.1852 20.7339 17.4117 20.6116C16.9965 20.546 15.4712 20.4892 15.0998 20.5285Z" fill="#B50C00"/>
<path d="M25.9155 21.5558C25.544 21.8661 25.2031 22.1589 25.155 22.2026C25.072 22.29 25.0764 22.2944 25.391 22.6834C25.5658 22.9019 25.7363 23.0811 25.7669 23.0811C25.898 23.0811 25.8674 22.9805 25.6751 22.7795C25.5658 22.6659 25.4435 22.526 25.4085 22.4736C25.3342 22.3687 25.3167 22.3862 25.78 22.0234L26.0116 21.8399L26.1296 21.9666C26.1908 22.0409 26.2957 22.1676 26.3612 22.2507C26.453 22.3687 26.4924 22.3905 26.5317 22.3512C26.571 22.3119 26.5273 22.2376 26.3525 22.0234L26.1252 21.7481L26.3132 21.5776C26.4181 21.4859 26.5535 21.3766 26.6104 21.3416C26.7109 21.2717 26.7196 21.2761 26.8638 21.4422C26.9425 21.5383 27.043 21.6694 27.0824 21.735C27.161 21.8617 27.2441 21.8923 27.2921 21.8136C27.3227 21.7656 26.7065 20.992 26.6366 20.992C26.6147 20.9876 26.2869 21.2455 25.9155 21.5558Z" fill="#B50C00"/>
<path d="M5.20134 21.49C4.85608 21.7829 4.80801 22.198 5.08771 22.4559C5.29749 22.6482 5.47667 22.6482 5.86127 22.4471C6.21964 22.2636 6.39008 22.2505 6.5343 22.4078C6.67415 22.5608 6.70912 22.74 6.62608 22.9017C6.54304 23.059 6.42067 23.1333 6.19778 23.1639L6.03608 23.1901L6.11475 23.295C6.18904 23.3911 6.20653 23.3955 6.3289 23.3474C6.58675 23.2426 6.81838 22.8929 6.81838 22.6132C6.81838 22.3423 6.50808 21.9883 6.26771 21.9883C6.21527 21.9883 6.02297 22.0669 5.83941 22.1631C5.48104 22.3554 5.35867 22.3729 5.21008 22.268C5.05712 22.1631 5.01778 22.0101 5.08771 21.8353C5.15764 21.6649 5.27127 21.5949 5.46356 21.5949C5.59467 21.5949 5.59467 21.5949 5.52475 21.4857C5.43297 21.3458 5.37178 21.3502 5.20134 21.49Z" fill="#B50C00"/>
<path d="M20.1864 22.3117C19.5484 22.4472 18.9496 22.7575 18.482 23.1989C17.9707 23.6796 17.6647 24.1866 17.4724 24.8552C17.3457 25.3098 17.3326 26.1795 17.4506 26.6427C17.6429 27.3769 18.1367 28.1286 18.7267 28.5788C19.3867 29.077 20.0378 29.2955 20.8682 29.2955C21.9084 29.2955 22.7518 28.9328 23.4555 28.1767C23.8051 27.8096 24.0411 27.4032 24.2159 26.8831C24.3339 26.5291 24.3601 26.3892 24.3776 25.9216C24.3907 25.4715 24.382 25.3098 24.3033 24.9951C24.146 24.3221 23.8357 23.7626 23.3637 23.2863C22.7125 22.6307 21.939 22.2986 20.9993 22.268C20.6584 22.2592 20.3744 22.2723 20.1864 22.3117Z" fill="#B50C00"/>
<path d="M27.7945 22.762C27.7115 22.797 27.2963 22.9543 26.8767 23.1116C26.4572 23.269 26.0944 23.4132 26.0726 23.435C26.0507 23.4569 26.0551 23.4962 26.0813 23.5312C26.125 23.5836 26.2387 23.5487 26.7806 23.317C27.1346 23.1641 27.4493 23.0373 27.4798 23.0373C27.5367 23.0373 27.2001 23.5836 26.8287 24.095C26.7107 24.2567 26.6145 24.3965 26.6145 24.4052C26.6145 24.414 27.0035 24.414 27.4798 24.4009C28.0698 24.3878 28.3277 24.3965 28.2971 24.4271C28.2753 24.4533 27.9868 24.6587 27.659 24.8816L27.0647 25.2924L27.1258 25.4104C27.1608 25.4804 27.2089 25.5197 27.2351 25.5022C27.2613 25.4847 27.5323 25.2881 27.8338 25.0695C28.1354 24.851 28.4981 24.5932 28.6336 24.5014C28.7735 24.4096 28.874 24.3222 28.8609 24.3004C28.8478 24.2785 28.437 24.261 27.9431 24.261H27.0472L27.0996 24.1605C27.1433 24.0818 27.4798 23.5618 27.9431 22.8538C28.0393 22.7095 27.9912 22.679 27.7945 22.762Z" fill="#B50C00"/>
<path d="M3.56585 24.0642C3.53963 24.1342 3.56585 24.1473 4.42682 24.5013C4.70652 24.6193 4.93815 24.7285 4.93815 24.746C4.93815 24.7591 4.50985 24.9252 3.98978 25.1131C3.12882 25.4147 2.87096 25.5327 2.93215 25.5895C2.94089 25.5982 3.25556 25.7337 3.62704 25.891C3.99852 26.0484 4.40059 26.2145 4.51422 26.2669C4.76333 26.3718 4.83326 26.3805 4.86385 26.3019C4.88133 26.2582 4.72837 26.1751 4.35689 26.0178C3.54837 25.6813 3.39978 25.6113 3.426 25.5851C3.43911 25.5676 3.91111 25.3972 4.46615 25.2049C5.02556 25.0082 5.48445 24.8334 5.48445 24.8116C5.48445 24.7766 3.7057 23.9987 3.62704 23.9987C3.60519 23.9987 3.58333 24.0293 3.56585 24.0642Z" fill="#B50C00"/>
<path d="M27.3145 25.9085C27.3188 26.0134 27.4193 26.0484 27.8039 26.0746L28.2322 26.1052L28.3459 26.481C28.442 26.7957 28.4507 26.8656 28.3983 26.9006C27.852 27.3114 27.7865 27.3813 27.8127 27.5124C27.8302 27.5824 27.8476 27.6523 27.8607 27.661C27.8695 27.6741 28.1317 27.4687 28.4376 27.2065C28.7479 26.9443 29.1282 26.6209 29.2899 26.4898C29.5477 26.2756 29.6526 26.1401 29.5521 26.1401C29.5346 26.1401 29.0626 26.079 28.5032 26.009C27.4106 25.8692 27.3145 25.8604 27.3145 25.9085ZM29.1194 26.2232C29.15 26.2538 28.6299 26.752 28.5687 26.752C28.5556 26.752 28.5338 26.7083 28.5207 26.6515C28.5076 26.599 28.4639 26.4592 28.4289 26.3412L28.3633 26.1314L28.7261 26.162C28.9227 26.1795 29.1019 26.2057 29.1194 26.2232Z" fill="#B50C00"/>
<path d="M66.7125 25.9652C65.7335 26.0657 64.7327 26.3542 63.8324 26.7956C62.2197 27.5822 61.0659 28.7448 60.1394 30.5148C58.9638 32.7524 58.5879 35.0293 59.0031 37.3413C59.2129 38.4994 59.615 39.5745 60.2225 40.6059C61.5205 42.7999 63.2861 44.1328 65.4931 44.5786C68.3208 45.1511 71.2402 44.3339 73.1544 42.4371C73.8799 41.716 74.3912 40.9862 74.9069 39.9285C75.947 37.8045 76.3229 35.663 76.0213 33.574C75.8203 32.1799 75.3702 30.9736 74.6097 29.8111C73.185 27.6303 71.3101 26.3891 68.9108 26.0351C68.3382 25.9477 67.2282 25.9171 66.7125 25.9652ZM67.9799 27.3156C69.3565 27.6784 70.4928 28.7797 71.3494 30.5759C72.0793 32.1143 72.442 33.9018 72.477 36.1744C72.5119 38.4994 72.2148 40.2126 71.5723 41.3576C71.0872 42.223 70.1126 43.0009 69.2036 43.2413C68.5568 43.4161 67.7133 43.4205 67.0839 43.2544C65.9214 42.9485 64.9556 42.1356 64.1602 40.7939C63.0326 38.884 62.4863 36.6333 62.4863 33.8974C62.4863 31.9395 62.7398 30.6502 63.356 29.4528C63.6401 28.9021 64.0465 28.3733 64.4136 28.0761C64.8507 27.7221 65.5805 27.3899 66.2099 27.2545C66.6163 27.1627 67.5253 27.1976 67.9799 27.3156Z" fill="#B50C00"/>
<path d="M85.3522 26.0351C83.3113 26.2799 81.6811 27.0316 80.37 28.3296C78.8666 29.8199 77.6604 32.4814 77.5074 34.6448C77.4943 34.8589 77.4724 35.1299 77.4637 35.2523C77.4375 35.6368 77.5249 36.8518 77.6167 37.3719C78.0974 40.016 79.7144 42.4765 81.7991 43.7264C82.9442 44.4126 84.3252 44.7578 85.9073 44.7578C88.9097 44.7578 91.497 43.3331 93.0135 40.842C93.8264 39.509 94.3814 37.9313 94.6218 36.2793C94.7048 35.7068 94.6917 34.2602 94.5999 33.6352C94.3596 32.04 93.7827 30.6371 92.8387 29.3654C91.4926 27.556 89.8275 26.5115 87.6685 26.1357C87.1834 26.0526 85.7412 25.9871 85.3522 26.0351ZM86.5541 27.3812C87.7603 27.709 88.7262 28.5219 89.5653 29.9291C90.6098 31.6773 91.143 34.2121 91.0643 37.0223C90.99 39.6663 90.5224 41.2047 89.4866 42.2492C88.6824 43.0534 87.6598 43.4467 86.5104 43.3899C84.7666 43.3025 83.4205 42.2317 82.3804 40.1034C81.9958 39.3211 81.7336 38.5825 81.5107 37.6778C80.925 35.2872 80.9338 32.4028 81.5325 30.5323C81.6636 30.1214 81.9958 29.4003 82.2143 29.0638C82.7781 28.1854 83.6522 27.5866 84.7185 27.3419C85.0725 27.2589 86.1913 27.2851 86.5541 27.3812Z" fill="#B50C00"/>
<path d="M3.42998 27.1016C2.87931 27.2152 2.42479 27.3245 2.41605 27.3463C2.41168 27.3682 2.82249 27.6872 3.32946 28.05C4.19042 28.6706 4.26035 28.7099 4.29531 28.6269C4.31279 28.5744 4.32153 28.5263 4.31716 28.522C4.30842 28.5176 4.15109 28.4215 3.96753 28.3078C3.77961 28.1942 3.6179 28.0849 3.60479 28.0675C3.59605 28.0456 3.62227 27.8664 3.66161 27.6654L3.74027 27.2983L4.17731 27.224C4.41331 27.1846 4.61435 27.1497 4.61435 27.1497C4.61872 27.1453 4.63183 27.0841 4.64057 27.0142C4.65805 26.8962 4.64931 26.8831 4.54879 26.8875C4.48761 26.8918 3.98501 26.988 3.42998 27.1016ZM3.58294 27.3769C3.58294 27.5255 3.47805 27.932 3.44309 27.932C3.39064 27.932 2.79627 27.5255 2.81812 27.5037C2.83124 27.4906 3.42561 27.3463 3.55235 27.3245C3.56983 27.3245 3.58294 27.3463 3.58294 27.3769Z" fill="#B50C00"/>
<path d="M29.7344 27.482C29.7956 27.6743 29.8436 28.037 29.8174 28.0676C29.7956 28.0851 29.411 28.1506 28.9521 28.2118C28.4976 28.2774 28.0868 28.3386 28.0474 28.3517C27.995 28.3692 27.9688 28.4172 27.9688 28.509C27.9688 28.6183 27.9819 28.6357 28.0562 28.6183C28.2965 28.5571 29.848 28.3517 29.8742 28.3823C29.8917 28.3997 29.9179 28.5309 29.9267 28.6751C29.9442 28.898 29.9573 28.9373 30.0272 28.9373C30.1277 28.9373 30.1277 28.9679 30.0228 28.2686C29.8873 27.364 29.8961 27.4077 29.7999 27.4077C29.7344 27.4077 29.7169 27.4295 29.7344 27.482Z" fill="#B50C00"/>
<path d="M2.22421 29.0989C2.09747 29.4354 2.10184 29.9686 2.24169 30.2308C2.33784 30.41 2.57384 30.6241 2.76177 30.7028C2.94969 30.7815 3.35614 30.7946 3.59651 30.7246C3.82814 30.6635 4.08599 30.4143 4.18214 30.1696C4.3351 29.7763 4.23458 29.0683 4.02917 29.0683C3.95051 29.0683 3.95051 29.077 4.04666 29.2737C4.36569 29.8986 3.95925 30.4843 3.20755 30.4843C2.60006 30.4799 2.19799 30.1172 2.24169 29.6058C2.25043 29.4485 2.29414 29.3217 2.3728 29.2125C2.48206 29.0639 2.48206 29.0464 2.41214 29.0158C2.28977 28.9677 2.27229 28.9765 2.22421 29.0989Z" fill="#B50C00"/>
<path d="M23.4031 29.2169C23.3812 29.2256 23.2545 29.2693 23.1234 29.3086C22.258 29.5752 21.6331 30.4449 21.6331 31.3802C21.6331 32.027 21.8254 32.4946 22.2886 32.9623C23.1496 33.8276 24.5306 33.8276 25.3916 32.9579C26.4754 31.8609 26.152 30.0516 24.7491 29.3829C24.4345 29.2343 24.3864 29.2256 23.9319 29.2125C23.6653 29.2081 23.4293 29.2081 23.4031 29.2169Z" fill="#B50C00"/>
<path d="M28.6684 29.5754C28.3319 29.7196 28.1047 30.0562 28.0697 30.4713C27.9998 31.2187 28.4455 31.7344 29.1579 31.7344C29.5075 31.7344 29.7217 31.647 29.9227 31.4153C30.3161 30.9652 30.2767 30.113 29.8397 29.7459C29.761 29.6759 29.6343 29.5973 29.5556 29.5623C29.3677 29.488 28.8607 29.4924 28.6684 29.5754ZM29.6649 29.9207C29.9184 30.0562 30.0582 30.2528 30.0932 30.5238C30.1762 31.1269 29.6124 31.577 28.9481 31.4372C28.3144 31.3061 27.9823 30.7467 28.2358 30.231C28.3144 30.0649 28.5767 29.8551 28.7646 29.807C29.0137 29.7459 29.4376 29.7983 29.6649 29.9207Z" fill="#B50C00"/>
<path d="M3.16827 31.4545C2.66567 31.507 2.24612 31.555 2.24175 31.555C2.23301 31.5594 2.22864 31.6162 2.22864 31.6861C2.22864 31.8085 2.23738 31.8129 2.39471 31.7954C2.78367 31.7517 4.21279 31.6031 4.24338 31.6031C4.26523 31.6031 4.28271 31.5419 4.28271 31.472C4.28271 31.3147 4.3876 31.319 3.16827 31.4545Z" fill="#B50C00"/>
<path d="M3.90819 32.6126C3.57604 33.0234 3.51485 33.0846 3.47552 33.0234C3.28759 32.6956 3.03848 32.5645 2.77626 32.6519C2.57085 32.7218 2.49219 32.8442 2.49219 33.1108C2.49219 33.2812 2.60582 33.9324 2.64952 33.998C2.65389 34.0067 3.0953 33.9106 3.62848 33.7882C4.16167 33.6702 4.60745 33.5697 4.61619 33.5697C4.62493 33.5697 4.63367 33.5085 4.63367 33.4386C4.63367 33.3643 4.61619 33.3075 4.59434 33.3075C4.57248 33.3075 4.3496 33.3555 4.10485 33.4124C3.45804 33.5653 3.45804 33.5435 4.09174 32.7786C4.3496 32.4684 4.40204 32.3809 4.38456 32.2848C4.37145 32.2236 4.34522 32.1624 4.32774 32.1493C4.31026 32.1362 4.11797 32.346 3.90819 32.6126ZM3.26574 32.9666C3.35315 33.0409 3.493 33.3424 3.49737 33.4648C3.49737 33.5478 3.45367 33.5697 3.12589 33.6352C2.92485 33.6789 2.7413 33.7139 2.72382 33.7139C2.70634 33.7139 2.667 33.609 2.63641 33.4823C2.549 33.0802 2.71508 32.8486 3.05159 32.8923C3.13463 32.901 3.23078 32.936 3.26574 32.9666Z" fill="#B50C00"/>
<path d="M27.8377 32.7655C27.7547 33.1895 27.7459 33.2769 27.7984 33.3075C27.829 33.3293 27.8639 33.3424 27.8683 33.3337C27.877 33.3249 27.912 33.1545 27.947 32.9578C27.9819 32.7568 28.0256 32.5776 28.0431 32.5601C28.065 32.5427 28.4802 32.6126 28.974 32.7175C29.4635 32.8224 29.883 32.8967 29.9005 32.8879C29.9224 32.8748 29.9355 32.818 29.9355 32.7612C29.9355 32.6869 29.9049 32.6475 29.8393 32.6301C29.5116 32.5558 28.0431 32.2586 27.995 32.2586C27.9557 32.2586 27.9033 32.429 27.8377 32.7655Z" fill="#B50C00"/>
<path d="M22.8214 34.0417C21.8468 34.3914 21.5933 35.6194 22.3494 36.3143C22.6553 36.5897 22.9394 36.6902 23.3546 36.664C24.0669 36.6159 24.5521 36.122 24.5958 35.4053C24.6176 34.9857 24.5084 34.6711 24.2418 34.3957C23.8703 34.0068 23.3109 33.8669 22.8214 34.0417Z" fill="#B50C00"/>
<path d="M27.773 34.0854C27.2748 34.3257 26.9689 35.0381 27.1393 35.5626C27.2704 35.9559 27.7686 36.2924 28.2232 36.288C28.7345 36.2837 29.1934 35.8029 29.2677 35.1955C29.3376 34.5836 28.8743 34.0679 28.21 34.0198C28.0134 34.0067 27.9041 34.0242 27.773 34.0854ZM28.516 34.3913C28.8263 34.5399 29.0885 34.8152 29.1322 35.0294C29.189 35.3484 29.071 35.6806 28.8219 35.8641C28.599 36.0346 28.3805 36.0739 28.0746 35.9909C27.738 35.9035 27.5152 35.7549 27.3535 35.5014C27.2355 35.3178 27.2223 35.2654 27.2355 35.025C27.2486 34.8021 27.2748 34.7235 27.384 34.588C27.6594 34.2427 28.0571 34.1772 28.516 34.3913Z" fill="#B50C00"/>
<path d="M4.72782 34.1294C4.68412 34.16 4.70597 34.2386 4.82834 34.4921C4.91138 34.6669 4.9813 34.8374 4.9813 34.8636C4.9813 34.916 4.23834 35.2351 4.1859 35.2045C4.17279 35.1957 4.10286 35.0471 4.0373 34.8811C3.97175 34.7106 3.89308 34.5751 3.85812 34.5751C3.77945 34.5751 3.78382 34.6101 3.93241 34.9641L4.05916 35.2788L3.96301 35.3137C3.91056 35.3356 3.76197 35.3924 3.63523 35.4448C3.50849 35.4973 3.38612 35.5366 3.36427 35.5366C3.34242 35.5366 3.27249 35.3793 3.20256 35.187C3.11079 34.9204 3.06271 34.8374 2.99716 34.8374C2.94034 34.8374 2.92723 34.8592 2.94471 34.9117C3.02338 35.1258 3.29434 35.8251 3.30745 35.8382C3.32493 35.8644 5.15612 35.1345 5.18234 35.0908C5.20856 35.0471 4.85456 34.0944 4.81086 34.0944C4.79775 34.0944 4.75841 34.1119 4.72782 34.1294Z" fill="#B50C00"/>
<path d="M4.63224 36.2576C4.21269 36.6028 3.86306 36.9087 3.85432 36.935C3.8412 36.9699 3.95046 36.9787 4.24328 36.9568C4.47054 36.9393 4.87261 36.9131 5.13483 36.8956C5.40143 36.8781 5.62432 36.8694 5.63306 36.8738C5.65054 36.8913 5.20476 37.7304 4.96002 38.1281C4.85513 38.2985 4.78083 38.4559 4.78958 38.4733C4.80269 38.4908 4.96002 38.434 5.14795 38.351C5.3315 38.2636 5.75543 38.0756 6.08758 37.927C6.41535 37.7828 6.68632 37.6517 6.68632 37.6386C6.68632 37.6255 6.66883 37.5861 6.64698 37.5512C6.61639 37.5075 6.47217 37.5599 5.96083 37.809C5.60246 37.9839 5.29654 38.1368 5.27906 38.1456C5.20039 38.1893 5.26595 38.0538 5.65928 37.3982C5.88654 37.0136 6.06572 36.6946 6.06135 36.6902C6.05698 36.6815 5.91276 36.6946 5.74669 36.7164C5.22661 36.782 4.41372 36.817 4.41372 36.7776C4.41809 36.7558 4.67158 36.5416 4.98187 36.3056C5.29654 36.0653 5.55002 35.8642 5.55002 35.8599C5.55002 35.8161 5.44513 35.6239 5.42328 35.6282C5.41017 35.6282 5.0518 35.9123 4.63224 36.2576Z" fill="#B50C00"/>
<path d="M26.3477 36.6725C26.0506 36.8298 25.6528 37.3936 25.5829 37.752C25.5654 37.8613 25.5873 37.8918 25.7927 38.0317C26.2822 38.3638 26.2428 38.3507 26.3259 38.2284L26.3958 38.1191L26.0724 37.8962C25.749 37.6821 25.7446 37.6777 25.784 37.5378C25.8888 37.1838 26.2341 36.8604 26.5575 36.8167C26.9159 36.7687 27.4971 37.127 27.6457 37.4854C27.7331 37.6908 27.72 37.9574 27.6239 38.1541C27.5146 38.3682 27.2306 38.6217 27.0557 38.661C26.8984 38.696 26.8897 38.7266 26.9989 38.8315C27.0776 38.897 27.0907 38.8927 27.2655 38.7703C27.4709 38.6217 27.7681 38.189 27.838 37.9443C27.8948 37.7389 27.8948 37.5247 27.8337 37.3106C27.7768 37.1052 27.4666 36.7861 27.2131 36.6725C26.9683 36.5589 26.5575 36.5589 26.3477 36.6725Z" fill="#B50C00"/>
<path d="M6.59832 38.6701C6.07825 39.9375 6.0564 39.9943 6.08699 40.0205C6.10884 40.0423 8.08862 39.3431 8.22847 39.2644C8.24595 39.2557 8.22847 39.2163 8.19351 39.177C8.12795 39.1158 8.08862 39.1246 7.77395 39.2688C7.57729 39.3562 7.38936 39.4261 7.35003 39.4261C7.27136 39.4261 6.81684 38.941 6.81684 38.858C6.81684 38.8318 6.88677 38.6569 6.97418 38.4646C7.13151 38.1238 7.13151 38.1194 7.05284 38.0101C7.00477 37.9489 6.95669 37.8965 6.94358 37.8965C6.93047 37.8965 6.77751 38.2461 6.59832 38.6701ZM7.13151 39.5179C7.07906 39.566 6.46284 39.7845 6.44099 39.767C6.43225 39.7539 6.45847 39.6578 6.50655 39.5529C6.55462 39.448 6.62455 39.2819 6.66388 39.1858L6.73818 39.0109L6.94795 39.2513C7.06595 39.3824 7.14899 39.5048 7.13151 39.5179Z" fill="#B50C00"/>
<path d="M24.5879 38.7225C24.4918 38.8274 24.4918 38.8318 24.8939 39.2513C25.1648 39.5354 25.1648 39.5398 25.2785 40.0205C25.3396 40.2871 25.3921 40.5449 25.3921 40.5974C25.3921 40.7154 25.4576 40.7547 25.5232 40.6717C25.5713 40.6149 25.5538 40.5143 25.4402 40.1123C25.2916 39.5791 25.2828 39.5135 25.3528 39.5135C25.4052 39.5135 26.1263 39.7146 26.2793 39.7714C26.371 39.8063 26.406 39.7932 26.5065 39.6883L26.6245 39.566L25.9515 39.4086L25.2828 39.2469L24.9725 38.941C24.6666 38.6395 24.6666 38.6351 24.5879 38.7225Z" fill="#B50C00"/>
<path d="M22.9962 40.2213C22.9656 40.2519 22.9437 40.3 22.9437 40.3306C22.9437 40.3612 22.8957 40.3874 22.8389 40.3874C22.7077 40.3874 22.664 40.4442 22.7034 40.5622C22.7427 40.6802 22.8389 40.6715 22.9263 40.5447C22.9612 40.4835 23.018 40.4442 23.0486 40.4573C23.1448 40.4923 23.2628 40.3655 23.2322 40.265C23.1972 40.1601 23.0792 40.1383 22.9962 40.2213Z" fill="#B50C00"/>
<path d="M9.44433 40.4751C9.35693 40.5276 9.40937 40.6718 9.51863 40.6849C9.57544 40.6937 9.641 40.7461 9.66722 40.8029C9.69344 40.8597 9.76774 40.9253 9.82893 40.9471C9.89011 40.969 10.0256 41.0695 10.1261 41.17C10.266 41.3099 10.3315 41.3492 10.4014 41.3274C10.4845 41.3011 10.5282 41.1307 10.4495 41.1307C10.4277 41.1307 10.2966 41.0214 10.1611 40.8903C10.0037 40.733 9.88137 40.65 9.81144 40.65C9.75026 40.65 9.6847 40.615 9.66285 40.5669C9.60604 40.4664 9.51426 40.4271 9.44433 40.4751Z" fill="#B50C00"/>
<path d="M22.2767 40.8113C22.2592 40.8245 22.2461 40.8856 22.2461 40.9425C22.2461 41.0124 22.2723 41.043 22.3291 41.043C22.434 41.043 22.5258 40.9337 22.4908 40.8463C22.469 40.7807 22.3291 40.7545 22.2767 40.8113Z" fill="#B50C00"/>
<path d="M23.8441 41.1088C23.7523 41.2049 23.7567 41.2486 23.8659 41.2836C23.9752 41.3186 24.0495 41.2574 24.0276 41.1481C24.0102 41.0432 23.9271 41.0258 23.8441 41.1088Z" fill="#B50C00"/>
<path d="M8.62301 41.1567C8.58368 41.2659 8.66672 41.3708 8.81531 41.3839C8.90272 41.3927 8.95953 41.4276 8.97264 41.4801C8.98575 41.5281 9.05568 41.5806 9.15183 41.6024C9.23487 41.6287 9.36161 41.6898 9.42279 41.7379C9.48835 41.7904 9.58449 41.8297 9.63694 41.8297C9.68938 41.8297 9.79427 41.8515 9.86857 41.8778C9.97346 41.9127 10.0346 41.9084 10.1483 41.8559C10.2269 41.8209 10.3581 41.7904 10.4411 41.7947C10.5285 41.7991 10.6115 41.7729 10.6378 41.7335C10.6683 41.6898 10.7339 41.6724 10.8213 41.6855C10.9 41.6986 10.9743 41.6855 10.9874 41.6592C11.0092 41.6287 11.0486 41.6287 11.1229 41.6636C11.2059 41.6986 11.2452 41.6986 11.2977 41.6549C11.3501 41.6112 11.3763 41.6112 11.4332 41.6592C11.4725 41.6898 11.5599 41.7117 11.6255 41.7073C11.6954 41.7029 11.7609 41.7161 11.7784 41.7423C11.7915 41.7641 11.8483 41.786 11.9052 41.786C11.962 41.786 12.0406 41.8253 12.0843 41.8734C12.1281 41.9215 12.1849 41.9608 12.2111 41.9608C12.2329 41.9608 12.2985 42.0132 12.3509 42.0788L12.4515 42.2012L12.5476 42.105C12.6306 42.0264 12.635 42.0001 12.5869 41.9433C12.5563 41.904 12.4952 41.8734 12.4515 41.8734C12.399 41.8734 12.3684 41.8428 12.3684 41.7904C12.3684 41.6767 12.2766 41.6155 12.1718 41.6592C12.0406 41.7117 12.0363 41.7073 11.9838 41.5849C11.9445 41.5019 11.9095 41.4801 11.8396 41.5019C11.7915 41.5194 11.7216 41.5063 11.6866 41.4801C11.6517 41.4451 11.5686 41.4364 11.4943 41.4538C11.4157 41.4669 11.3239 41.4538 11.2758 41.4232C11.2059 41.3839 11.1709 41.3839 11.101 41.4276C11.0311 41.4713 10.9961 41.4713 10.9262 41.4276C10.8519 41.3795 10.8257 41.3883 10.747 41.4669C10.6683 41.5456 10.6334 41.55 10.5503 41.515C10.4673 41.4757 10.428 41.4801 10.3624 41.5412C10.2488 41.6418 9.79864 41.668 9.70687 41.5762C9.66316 41.5369 9.58887 41.5238 9.47961 41.5369C9.32664 41.5587 9.31353 41.55 9.30042 41.4407C9.28731 41.3358 9.2742 41.3271 9.10375 41.3358C8.93768 41.3446 8.9202 41.3358 8.90709 41.2266C8.89835 41.1348 8.86775 41.1042 8.77161 41.0955C8.69294 41.0867 8.64487 41.1042 8.62301 41.1567Z" fill="#B50C00"/>
<path d="M21.0045 41.4758C20.939 41.5501 20.9346 41.5632 21.0002 41.6244C21.0657 41.6943 21.1619 41.6856 21.2668 41.6025C21.2973 41.5807 21.3673 41.585 21.4372 41.6113C21.5727 41.6637 21.6339 41.6375 21.6339 41.5239C21.6339 41.4233 21.529 41.384 21.3891 41.4365C21.3192 41.467 21.2493 41.467 21.1968 41.4365C21.0919 41.3796 21.0919 41.3796 21.0045 41.4758Z" fill="#B50C00"/>
<path d="M22.0832 41.5107C22.0438 41.5239 22.0351 41.585 22.0526 41.6943C22.0701 41.8123 22.0613 41.8691 22.0089 41.9128C21.9696 41.9434 21.939 42.009 21.939 42.0527C21.939 42.1051 21.8953 42.1532 21.8297 42.1794C21.6942 42.2319 21.6505 42.3324 21.7204 42.4198C21.8078 42.5247 21.8953 42.4941 21.9608 42.3367C21.9958 42.2581 22.0657 42.1794 22.1138 42.1663C22.1881 42.1488 22.2012 42.1139 22.1924 41.9871C22.1881 41.8866 22.2099 41.8036 22.2667 41.7424C22.3935 41.6025 22.258 41.4364 22.0832 41.5107Z" fill="#B50C00"/>
<path d="M23.0087 41.5721C22.9913 41.594 22.9257 41.6027 22.8601 41.5896C22.7072 41.5547 22.5979 41.6639 22.681 41.7644C22.7509 41.8475 22.8077 41.8475 22.9038 41.7601C22.965 41.7032 22.9956 41.7032 23.0656 41.7469C23.1748 41.8125 23.2928 41.7382 23.2928 41.6071C23.2928 41.5459 23.2622 41.5241 23.1661 41.5241C23.0918 41.5241 23.0218 41.5459 23.0087 41.5721Z" fill="#B50C00"/>
<path d="M20.4537 41.6853C20.3663 41.7203 20.3226 41.7902 20.3226 41.9038C20.3226 41.9738 20.2964 42.0044 20.2352 42.0044C20.1478 42.0044 20.0604 42.1224 20.0604 42.2404C20.0604 42.2797 20.021 42.3496 19.973 42.3977C19.9249 42.4458 19.8855 42.5157 19.8855 42.555C19.8855 42.6381 19.6364 42.8915 19.5447 42.909C19.5053 42.9134 19.4398 42.9615 19.4004 43.0139C19.3611 43.0664 19.3087 43.097 19.2824 43.0795C19.195 43.027 19.0464 43.1363 19.0639 43.2412C19.0814 43.3723 19.2737 43.3941 19.383 43.2718C19.4267 43.2237 19.5097 43.1844 19.5621 43.1844C19.6364 43.1844 19.6714 43.1538 19.6932 43.0795C19.7107 43.0095 19.7588 42.9658 19.8418 42.9484C19.9467 42.9309 19.9686 42.9003 19.9817 42.7823C19.9904 42.6774 20.021 42.6337 20.0822 42.6206C20.2002 42.5987 20.2395 42.5288 20.1827 42.4283C20.139 42.3452 20.1915 42.271 20.2876 42.2666C20.3051 42.2666 20.3226 42.201 20.3313 42.1267C20.3444 42.0044 20.3663 41.9781 20.4755 41.9607C20.5848 41.9432 20.6067 41.917 20.6067 41.8121C20.6067 41.6766 20.563 41.646 20.4537 41.6853Z" fill="#B50C00"/>
<path d="M27.8083 42.0395C27.3626 42.2012 27.026 42.5072 26.825 42.9486C26.742 43.1278 26.7245 43.237 26.7245 43.6216C26.7245 44.0324 26.7376 44.1067 26.8469 44.3471C27.0042 44.6836 27.3407 45.0201 27.686 45.1818C27.9176 45.2911 27.9963 45.3042 28.3852 45.3042C28.7829 45.3042 28.8485 45.2911 29.1151 45.1643C29.6133 44.9283 29.9323 44.5263 30.046 43.9887C30.2077 43.2064 29.8231 42.4329 29.1063 42.1007C28.7829 41.9478 28.1492 41.9172 27.8083 42.0395ZM29.0801 42.2449C29.7532 42.5858 30.0766 43.3594 29.8537 44.0936C29.7794 44.3471 29.7138 44.4563 29.5172 44.6661C29.3686 44.8278 29.1806 44.9764 29.0277 45.0507C28.8092 45.1556 28.7261 45.1731 28.3852 45.1731C28.0443 45.1731 27.9613 45.1556 27.7428 45.0507C27.0697 44.7186 26.7157 43.9756 26.8949 43.272C27.026 42.7519 27.3844 42.3542 27.8739 42.1663C28.1973 42.0439 28.7567 42.0832 29.0801 42.2449Z" fill="#B50C00"/>
<path d="M27.5767 42.6383C27.5767 42.6732 27.6073 42.7038 27.6423 42.7038C27.7646 42.7038 27.7952 42.8743 27.7952 43.6085C27.7952 44.4214 27.7778 44.5263 27.6598 44.5612C27.4762 44.6224 27.5986 44.6705 27.9263 44.6705C28.1318 44.6705 28.276 44.653 28.276 44.6268C28.276 44.6006 28.2585 44.5831 28.2366 44.5831C28.2148 44.5831 28.1623 44.5525 28.1274 44.5131C28.0706 44.4563 28.0575 44.3121 28.0575 43.5954V42.7475H28.2978C28.4858 42.7475 28.5513 42.7694 28.6256 42.8437C28.8179 43.0491 28.6955 43.3943 28.3852 43.5123C28.276 43.556 28.1886 43.5997 28.1886 43.6085C28.1886 43.6566 28.8616 44.5656 28.949 44.6355C29.0626 44.7317 29.2812 44.736 29.3948 44.6486C29.4647 44.5962 29.4647 44.5874 29.4079 44.5831C29.2899 44.5831 29.1151 44.417 28.8179 44.0237C28.6649 43.8183 28.5382 43.6391 28.5382 43.626C28.5382 43.6085 28.6081 43.5604 28.6999 43.5123C29.0976 43.2982 29.1282 42.8306 28.7567 42.6383C28.5732 42.5421 27.5767 42.5421 27.5767 42.6383Z" fill="#B50C00"/>
<path d="M19.0854 42.1008C19.0286 42.1882 19.0067 42.1926 18.9281 42.1445C18.8057 42.0746 18.7183 42.0789 18.6877 42.1576C18.6746 42.1969 18.609 42.2232 18.5129 42.2232C18.3992 42.2232 18.3599 42.245 18.3424 42.3149C18.3249 42.3805 18.2944 42.4023 18.2463 42.3805C18.1545 42.3455 18.0059 42.4242 18.0059 42.5072C18.0059 42.5422 17.9491 42.5728 17.8661 42.5815C17.7393 42.5946 17.7218 42.6121 17.7087 42.7389C17.6956 42.8569 17.6781 42.8831 17.6169 42.8656C17.5732 42.8569 17.5033 42.8656 17.464 42.8874C17.4028 42.9224 17.3941 42.9137 17.4203 42.8175C17.4421 42.7257 17.429 42.6995 17.346 42.6646C17.2892 42.6471 17.2149 42.6383 17.1843 42.6514C17.1493 42.6646 17.0794 42.6165 17.0226 42.5466C16.9221 42.4198 16.9221 42.4198 16.8259 42.5072C16.7341 42.5903 16.7298 42.5903 16.5812 42.5072C16.4544 42.4417 16.4195 42.4373 16.3889 42.481C16.3627 42.5291 16.3233 42.5291 16.2184 42.4941C16.1004 42.4504 16.0698 42.4592 16.0087 42.5247C15.9518 42.5946 15.9212 42.599 15.8338 42.5597C15.7508 42.5247 15.7158 42.5291 15.6328 42.6077C15.5629 42.6733 15.5192 42.6864 15.4624 42.6558C15.3837 42.6121 15.2526 42.7083 15.2526 42.8132C15.2526 42.8569 15.2045 42.8743 15.0909 42.8656C14.9554 42.8569 14.9161 42.8743 14.8811 42.953C14.8505 43.0317 14.8024 43.0535 14.6844 43.0535C14.597 43.0535 14.4834 43.0841 14.4309 43.1234C14.3392 43.1846 14.3217 43.1846 14.2255 43.1234C14.1075 43.0448 13.9152 43.0317 13.8759 43.0972C13.8322 43.1672 13.7929 43.1453 13.7098 43.0054C13.6312 42.8656 13.6093 42.8612 13.3471 42.9443C13.2684 42.9705 13.2509 42.953 13.2291 42.8394C13.1854 42.6209 12.8926 42.5946 12.8926 42.8088C12.8926 42.9443 12.9712 43.0098 13.1417 43.0098C13.216 43.0098 13.299 43.036 13.3165 43.071C13.3689 43.154 13.5263 43.2283 13.6574 43.2283C13.7229 43.2283 13.8235 43.2633 13.8803 43.3114C13.9589 43.3769 14.0595 43.3944 14.3348 43.3944C14.6451 43.3944 14.7019 43.3813 14.8155 43.2895C14.8811 43.2283 14.9554 43.1846 14.9772 43.189C15.1171 43.2152 15.2132 43.1715 15.2526 43.071C15.2832 42.988 15.3181 42.9661 15.3793 42.988C15.4274 43.0011 15.4886 42.9836 15.5279 42.9443C15.5672 42.9093 15.6678 42.8787 15.7552 42.8787C15.8513 42.8787 15.9212 42.8525 15.9344 42.8132C15.9518 42.7694 15.9999 42.7607 16.0873 42.7782C16.1572 42.7913 16.2403 42.7869 16.2665 42.7651C16.3495 42.7083 16.6992 42.7214 16.8215 42.7869C16.874 42.8175 16.957 42.835 17.0007 42.8219C17.0488 42.8088 17.1144 42.835 17.1581 42.8831C17.1974 42.9268 17.2673 42.9661 17.3154 42.9661C17.3635 42.9661 17.3941 42.9967 17.3941 43.0535C17.3941 43.1191 17.3635 43.1409 17.2804 43.1409C17.2149 43.1409 17.1231 43.1934 17.0532 43.272C16.9658 43.3638 16.9177 43.39 16.8696 43.3594C16.7691 43.2939 16.5768 43.307 16.5025 43.3813C16.4151 43.4687 16.3583 43.4643 16.3058 43.3638C16.2315 43.2327 16.1223 43.2152 15.9781 43.3201L15.8513 43.4163L15.7683 43.2983C15.7027 43.2152 15.6459 43.1846 15.5323 43.1846C15.4012 43.1846 15.3837 43.1977 15.3837 43.2939C15.3837 43.4425 15.5585 43.5561 15.7158 43.5037C15.8032 43.4731 15.8732 43.4818 15.9824 43.5386C16.0786 43.5867 16.1835 43.6086 16.284 43.5911C16.3627 43.578 16.4894 43.5911 16.5637 43.6217C16.6642 43.661 16.7254 43.6654 16.8347 43.6217C16.9133 43.5954 17.0575 43.5649 17.1537 43.5517C17.3504 43.5255 17.429 43.4731 17.4858 43.3289C17.5077 43.272 17.5601 43.2283 17.6082 43.2283C17.7 43.2283 17.8442 43.0623 17.8049 43.0011C17.7918 42.9792 17.8398 42.9443 17.9098 42.918C17.9841 42.8918 18.0496 42.835 18.0627 42.7869C18.0758 42.7301 18.1239 42.7039 18.2026 42.7039C18.2812 42.7039 18.3293 42.6777 18.3424 42.6165C18.3599 42.5509 18.4036 42.5291 18.5085 42.5291C18.5959 42.5291 18.6615 42.5029 18.6789 42.4635C18.6921 42.4242 18.7576 42.398 18.8319 42.398C18.9018 42.398 18.9718 42.3805 18.9849 42.363C19.0111 42.3193 19.4569 42.328 19.6273 42.3717C19.7497 42.4067 19.7978 42.3324 19.7628 42.162C19.7497 42.0964 19.7147 42.0877 19.5836 42.1052C19.4831 42.1183 19.3913 42.1008 19.3389 42.0658C19.2252 41.9784 19.1641 41.9915 19.0854 42.1008Z" fill="#B50C00"/>
<path d="M10.5892 42.1619C10.5455 42.2756 10.6372 42.3761 10.7902 42.3892C10.8689 42.3979 10.9694 42.4416 11.0175 42.4897C11.0655 42.5378 11.1617 42.5727 11.2491 42.5727C11.3277 42.5727 11.4195 42.599 11.4457 42.6339C11.4763 42.6689 11.6337 42.7039 11.8478 42.7213C12.1319 42.7476 12.2193 42.7388 12.3023 42.6864C12.3592 42.647 12.4728 42.6164 12.5471 42.6164C12.6257 42.6164 12.7263 42.5815 12.7743 42.5378C12.8574 42.4635 12.9841 42.4416 13.2944 42.4373C13.3818 42.4373 13.4736 42.411 13.5042 42.3761C13.5479 42.3193 13.5697 42.3193 13.644 42.3717C13.7052 42.4154 13.7664 42.4241 13.832 42.3979C13.8844 42.3761 13.9543 42.3804 13.9893 42.4023C14.0243 42.4241 14.1029 42.4416 14.1641 42.4416C14.2297 42.4416 14.304 42.4722 14.3346 42.5072C14.3652 42.5421 14.4263 42.5727 14.4744 42.5727C14.5181 42.5727 14.6055 42.6252 14.6667 42.6907L14.7716 42.8131L14.859 42.7082C14.9595 42.5902 14.9158 42.4853 14.7672 42.4853C14.7148 42.4853 14.6667 42.4416 14.6405 42.3761C14.5968 42.2624 14.4919 42.2362 14.3826 42.3061C14.3346 42.3367 14.2865 42.3149 14.2166 42.2362C14.1379 42.1576 14.0986 42.1401 14.0549 42.175C14.0155 42.21 13.9587 42.2056 13.8626 42.1707C13.7533 42.127 13.7009 42.127 13.6353 42.1707C13.5829 42.2013 13.5435 42.2056 13.526 42.1794C13.4911 42.1226 13.2988 42.1226 13.2638 42.1794C13.2463 42.2056 13.172 42.2144 13.089 42.1969C12.9754 42.175 12.9317 42.1881 12.8836 42.2624C12.8312 42.3367 12.7918 42.3499 12.6782 42.328C12.5777 42.3061 12.5165 42.3193 12.4509 42.3804C12.3941 42.4285 12.3111 42.4547 12.2324 42.4504C12.1625 42.4416 12.0663 42.4635 12.0139 42.4984C11.9309 42.5596 11.909 42.5553 11.7779 42.481C11.6643 42.411 11.6118 42.4067 11.52 42.4416C11.3671 42.4984 11.3758 42.5028 11.3452 42.3761C11.3146 42.2581 11.166 42.2275 11.0175 42.3105C10.9475 42.3455 10.93 42.3324 10.9082 42.2231C10.8863 42.1139 10.8645 42.092 10.7509 42.092C10.6678 42.092 10.6066 42.1182 10.5892 42.1619Z" fill="#B50C00"/>
<path d="M20.526 42.5116C20.4604 42.5815 20.4954 42.7432 20.5871 42.7694C20.7051 42.8088 20.7707 42.7432 20.7488 42.6121C20.7357 42.5072 20.5915 42.446 20.526 42.5116Z" fill="#B50C00"/>
<path d="M21.0212 42.5509C20.9775 42.6033 20.9775 42.6295 21.0212 42.682C21.1086 42.7912 21.2616 42.7475 21.2616 42.6164C21.2616 42.4853 21.1086 42.4416 21.0212 42.5509Z" fill="#B50C00"/>
<path d="M18.0318 43.0928C17.9313 43.2064 17.9837 43.2851 18.1454 43.2633C18.2372 43.2458 18.2897 43.2676 18.3377 43.3332C18.3902 43.4119 18.412 43.4162 18.4863 43.3682C18.5519 43.3288 18.5956 43.3288 18.6874 43.3682C18.7879 43.4162 18.8097 43.4119 18.8884 43.3157C18.9627 43.2239 18.9627 43.2064 18.9059 43.1453C18.8491 43.0884 18.8228 43.0884 18.7267 43.1409C18.6437 43.1846 18.6043 43.189 18.565 43.1496C18.5344 43.119 18.4601 43.0972 18.3945 43.0972C18.329 43.0972 18.2591 43.0753 18.246 43.0535C18.2022 42.9836 18.1148 43.001 18.0318 43.0928Z" fill="#B50C00"/>
</svg>
