<svg width="24" height="24" viewBox="0 0 24 24" fill="none" xmlns="http://www.w3.org/2000/svg">
<mask id="mask0_1_127" style="mask-type:luminance" maskUnits="userSpaceOnUse" x="0" y="0" width="24" height="24">
<path d="M24 0H0V24H24V0Z" fill="white"/>
</mask>
<g mask="url(#mask0_1_127)">
<path d="M12.2775 4.26348C12.2031 4.19227 12.104 4.15253 12.001 4.15253C11.898 4.15253 11.799 4.19227 11.7245 4.26348L2.51953 13.057C2.48044 13.0944 2.44934 13.1393 2.42811 13.1891C2.40688 13.2389 2.39597 13.2924 2.39603 13.3465L2.39453 21.5995C2.39453 22.0238 2.5631 22.4308 2.86316 22.7309C3.16322 23.0309 3.57018 23.1995 3.99453 23.1995H8.79953C9.0117 23.1995 9.21519 23.1152 9.36521 22.9652C9.51524 22.8152 9.59953 22.6117 9.59953 22.3995V15.5995C9.59953 15.4934 9.64167 15.3917 9.71669 15.3167C9.7917 15.2416 9.89344 15.1995 9.99951 15.1995H13.9995C14.1056 15.1995 14.2073 15.2416 14.2824 15.3167C14.3574 15.3917 14.3995 15.4934 14.3995 15.5995V22.3995C14.3995 22.6117 14.4838 22.8152 14.6338 22.9652C14.7839 23.1152 14.9873 23.1995 15.1995 23.1995H20.0025C20.4269 23.1995 20.8338 23.0309 21.1339 22.7309C21.4339 22.4308 21.6025 22.0238 21.6025 21.5995V13.3465C21.6026 13.2924 21.5917 13.2389 21.5704 13.1891C21.5492 13.1393 21.5181 13.0944 21.479 13.057L12.2775 4.26348Z" fill="white"/>
<path d="M23.7455 11.4075L20.0055 7.82949V2.39999C20.0055 2.18781 19.9212 1.98433 19.7712 1.8343C19.6212 1.68427 19.4177 1.59999 19.2055 1.59999H16.8055C16.5933 1.59999 16.3899 1.68427 16.2398 1.8343C16.0898 1.98433 16.0055 2.18781 16.0055 2.39999V3.99999L13.1095 1.23099C12.8385 0.956988 12.4355 0.799988 12 0.799988C11.566 0.799988 11.164 0.956988 10.893 1.23149L0.258019 11.4065C-0.052981 11.7065 -0.0919811 12.2 0.191019 12.525C0.262084 12.607 0.349099 12.6737 0.446768 12.7211C0.544437 12.7684 0.650717 12.7954 0.759139 12.8003C0.867562 12.8053 0.975859 12.7881 1.07744 12.7499C1.17902 12.7117 1.27176 12.6532 1.35002 12.578L11.725 2.66399C11.7995 2.59278 11.8985 2.55303 12.0015 2.55303C12.1045 2.55303 12.2036 2.59278 12.278 2.66399L22.654 12.578C22.8069 12.7246 23.0116 12.8046 23.2233 12.8004C23.435 12.7963 23.6365 12.7084 23.7835 12.556C24.0905 12.238 24.065 11.713 23.7455 11.4075Z" fill="white"/>
</g>
</svg>
