<svg width="118" height="59" viewBox="0 0 118 59" fill="none" xmlns="http://www.w3.org/2000/svg">
<path d="M17.6996 7.31777C18.0511 7.61663 18.3928 7.92218 18.73 8.23708C18.9568 8.44776 19.1856 8.64257 19.4286 8.83374C19.983 9.3142 20.4876 9.86348 20.8974 10.4737C21.0842 10.7388 21.237 10.9315 21.5018 11.12C21.8633 11.1687 22.195 11.1519 22.5589 11.1292C23.5495 11.1055 24.4522 11.4442 25.2103 12.0736C25.5917 12.4576 25.853 12.8645 26.0907 13.3489C26.1326 13.4317 26.1745 13.5145 26.2177 13.5998C27.0626 15.6261 26.3106 18.0518 25.5416 19.9782C24.8405 21.6498 23.8996 23.1483 22.6818 24.4933C22.6238 24.5577 22.5659 24.6221 22.5062 24.6884C21.0503 26.2857 19.1509 27.7662 16.9211 27.9432C14.6194 27.9091 12.7874 26.3643 11.2014 24.8621C8.92271 22.5142 7.13323 18.9921 7.03039 15.6925C7.07173 14.3989 7.35067 13.1331 8.25955 12.1689C9.17338 11.4462 10.1505 11.0544 11.3151 11.1763C11.6979 11.1791 11.8799 11.155 12.1978 10.9359C12.4566 10.6808 12.6905 10.4165 12.9222 10.1367C13.0044 10.0429 13.0866 9.94905 13.1714 9.85241C13.3728 9.62178 13.5707 9.38896 13.7662 9.15332C14.3538 9.47581 14.8773 9.80788 15.3969 10.235C15.5103 10.3276 15.6237 10.4202 15.7406 10.5156C15.8246 10.5853 15.9086 10.6549 15.9951 10.7267C15.9444 10.7853 15.8937 10.8439 15.8415 10.9044C15.4466 11.3628 15.0586 11.8246 14.684 12.3C14.7778 12.3307 14.8716 12.3615 14.9682 12.3932C15.404 12.5915 15.6867 12.8425 16.0361 13.1686C16.1519 13.2758 16.2676 13.3829 16.3869 13.4933C16.4739 13.5754 16.561 13.6576 16.6507 13.7422C17.0663 13.5571 17.3598 13.331 17.6914 13.0211C18.0688 12.6818 18.382 12.4399 18.8796 12.3C18.5783 11.9461 18.2717 11.5974 17.9618 11.2511C17.8889 11.1693 17.8161 11.0875 17.741 11.0032C16.1997 9.36918 13.9258 7.63927 11.6305 7.40483C9.94306 7.38507 8.49054 7.74891 7.21066 8.8911C5.6162 10.5698 5.05927 12.7981 5.08523 15.0666C5.34545 19.8758 7.40575 24.0184 10.9058 27.2968C11.5073 27.8322 12.161 28.2705 12.8484 28.6889C13.0089 28.7872 13.0089 28.7872 13.1726 28.8876C13.8275 29.2506 14.504 29.4605 15.2248 29.6476C15.3541 29.6814 15.3541 29.6814 15.4859 29.7159C16.4671 29.9507 17.346 29.9084 18.3223 29.6558C18.4132 29.6324 18.5041 29.6089 18.5977 29.5847C21.929 28.6744 24.5174 25.8812 26.2336 22.9917C27.9983 19.801 29.1366 15.8351 28.2294 12.2017C27.7382 10.5268 26.9544 9.14586 25.4515 8.17818C24.0052 7.39272 22.3477 7.16636 20.7561 7.63735C20.5667 7.70322 20.3781 7.77114 20.1907 7.84221C20.0609 7.88548 19.9311 7.92874 19.7973 7.97332C19.6503 7.8382 19.6503 7.8382 19.5003 7.70034C19.3699 7.581 19.2394 7.46167 19.109 7.34235C19.0124 7.25349 19.0124 7.25349 18.9139 7.16284C18.633 6.90629 18.3547 6.6619 18.0458 6.43942C17.9748 6.38314 17.9038 6.32686 17.8307 6.26888C17.8307 6.18234 17.8307 6.09581 17.8307 6.00665C20.0695 4.79784 22.2569 4.294 24.7796 4.9086C27.0638 5.612 28.8347 7.08388 29.9912 9.17483C31.4459 12.1642 31.5487 15.5209 30.8107 18.7244C30.7889 18.8206 30.7671 18.9169 30.7446 19.016C30.3796 20.5753 29.8075 22.0074 29.1062 23.4444C29.0415 23.5778 28.9768 23.7111 28.9101 23.8485C28.046 25.5203 26.8661 26.9484 25.5662 28.2955C25.479 28.3895 25.3918 28.4835 25.3019 28.5803C23.2331 30.7534 20.4528 32.3378 17.4373 32.6222C17.3434 32.6315 17.2494 32.6408 17.1526 32.6504C14.3033 32.7843 11.5764 31.3387 9.45543 29.5754C9.17974 29.3402 9.17974 29.3402 8.87875 29.1339C8.80421 29.0736 8.72968 29.0133 8.65289 28.9511C8.65289 28.8646 8.65289 28.778 8.65289 28.6889C8.47982 28.6023 8.30675 28.5158 8.12844 28.4267C8.12844 28.3401 8.12844 28.2536 8.12844 28.1644C8.04191 28.1644 7.95538 28.1644 7.86622 28.1644C7.86622 28.0779 7.86622 27.9914 7.86622 27.9022C7.73642 27.8589 7.60662 27.8157 7.47289 27.7711C7.23577 27.5056 7.01708 27.2416 6.80094 26.9598C6.73716 26.8771 6.67338 26.7945 6.60767 26.7092C4.38048 23.7832 3.00183 20.5319 2.49066 16.8889C2.47343 16.7667 2.45619 16.6445 2.43842 16.5186C2.07231 13.4462 2.66573 10.2995 4.56386 7.81763C8.19021 3.51091 13.5718 4.12294 17.6996 7.31777Z" fill="#B60525"/>
<path d="M37.9339 11.1035C38.034 11.104 38.134 11.1044 38.2371 11.1049C38.3944 11.1049 38.3944 11.1049 38.5549 11.1049C38.9033 11.105 39.2516 11.106 39.5999 11.107C39.8408 11.1072 40.0816 11.1074 40.3225 11.1076C40.9577 11.1081 41.5929 11.1094 42.2281 11.1108C42.8758 11.1121 43.5235 11.1127 44.1711 11.1134C45.4429 11.1148 46.7147 11.1171 47.9864 11.1198C47.9864 11.9851 47.9864 12.8505 47.9864 13.742C45.2606 13.742 42.5348 13.742 39.7264 13.742C39.7264 15.04 39.7264 16.338 39.7264 17.6754C41.6734 17.6754 43.6204 17.6754 45.6264 17.6754C45.6264 18.5407 45.6264 19.406 45.6264 20.2976C43.6794 20.2976 41.7324 20.2976 39.7264 20.2976C39.7264 21.985 39.7264 23.6724 39.7264 25.4109C42.582 25.4109 45.4376 25.4109 48.3798 25.4109C48.3798 26.233 48.3798 27.0551 48.3798 27.902C44.6588 27.902 40.9379 27.902 37.1042 27.902C37.0989 23.7316 37.0989 23.7316 37.0978 21.9895C37.097 20.7846 37.0961 19.5798 37.0943 18.3749C37.093 17.4976 37.0922 16.6203 37.0919 15.743C37.0917 15.2781 37.0913 14.8133 37.0903 14.3485C37.0893 13.8304 37.0893 13.3124 37.0893 12.7943C37.0888 12.6391 37.0884 12.4839 37.0879 12.3239C37.0881 12.1836 37.0883 12.0434 37.0884 11.8988C37.0883 11.7762 37.0882 11.6535 37.0881 11.5271C37.1204 10.9744 37.4611 11.1044 37.9339 11.1035Z" fill="#2F2422"/>
<path d="M57.3847 10.948C57.5587 10.9491 57.5587 10.9491 57.7362 10.9502C59.8191 10.9887 61.3497 11.7659 62.9323 13.0867C62.7212 13.6208 62.3373 13.9737 61.9326 14.3651C61.865 14.4315 61.7974 14.4979 61.7277 14.5663C61.5617 14.7293 61.3949 14.8914 61.2279 15.0534C61.1564 15.0027 61.0849 14.952 61.0112 14.8998C59.4808 13.8428 58.2317 13.5039 56.3768 13.6112C55.7968 13.7209 55.4222 13.9054 55.0083 14.3405C54.6222 14.9427 54.626 15.3981 54.6723 16.1023C54.7392 16.4838 54.7392 16.4838 54.9345 16.7578C55.1506 16.8512 55.3696 16.9378 55.5901 17.0201C55.8076 17.1221 56.0247 17.2249 56.2415 17.3284C57.2163 17.7743 58.2335 18.0765 59.2576 18.3875C60.8797 18.9042 62.3316 19.7025 63.215 21.2125C63.6929 22.3587 63.632 23.9753 63.2601 25.149C62.6869 26.4535 61.7749 27.1117 60.5278 27.7174C58.6035 28.4588 56.2683 28.4469 54.3435 27.7128C53.2855 27.2418 52.3615 26.604 51.5256 25.8045C51.4824 25.6747 51.4391 25.5449 51.3945 25.4112C51.957 24.8487 52.5195 24.2862 53.099 23.7067C53.2396 23.8203 53.3802 23.9339 53.5251 24.0509C55.0636 25.2021 56.5679 25.6888 58.4745 25.5423C59.332 25.3917 59.9758 25.1347 60.5723 24.4934C60.9101 23.8473 60.8866 23.2182 60.7034 22.5267C60.099 21.4259 58.7708 21.074 57.6305 20.7368C57.3711 20.6613 57.1116 20.586 56.852 20.5109C55.0888 19.9958 53.2482 19.3961 52.3072 17.691C51.7855 16.5648 51.7395 15.231 52.1074 14.0537C52.6427 12.7613 53.5577 11.9839 54.8044 11.4028C55.6863 11.062 56.4479 10.9418 57.3847 10.948Z" fill="#2A1F1D"/>
<path d="M77.6708 12.1509C78.2657 12.6409 78.7911 13.2125 79.1909 13.8732C79.0455 14.3093 78.9999 14.3418 78.626 14.5631C78.5389 14.6151 78.4517 14.6671 78.362 14.7206C78.2705 14.7736 78.1789 14.8266 78.0846 14.8812C77.9936 14.9357 77.9026 14.9902 77.8089 15.0463C77.1299 15.4466 77.1299 15.4466 76.8309 15.4466C76.6879 15.2657 76.5526 15.0788 76.4212 14.8894C75.8929 14.1894 75.3741 13.9031 74.5528 13.6438C73.1308 13.5084 71.9508 13.6309 70.7998 14.5288C69.7472 15.4795 69.3101 16.9117 69.1973 18.2957C69.1148 20.3852 69.1083 22.6741 70.5376 24.3621C71.6142 25.288 72.7059 25.4872 74.0883 25.4515C75.2519 25.3598 76.0326 24.7939 76.8309 23.9688C76.9607 23.7741 76.9607 23.7741 77.0931 23.5755C77.646 23.7703 78.0928 24.0491 78.5763 24.3785C78.7164 24.4735 78.8565 24.5685 79.0009 24.6663C79.1069 24.739 79.2128 24.8117 79.322 24.8866C78.5557 26.1245 77.7773 27.0271 76.4376 27.6399C76.2728 27.7175 76.2728 27.7175 76.1047 27.7966C74.5032 28.4417 72.511 28.3928 70.8991 27.8053C70.3329 27.5463 69.8463 27.2375 69.3576 26.8532C69.269 26.789 69.1804 26.7248 69.0892 26.6586C67.5123 25.424 66.7935 23.3971 66.4731 21.4777C66.1515 18.6868 66.4497 15.785 68.1776 13.4799C68.2394 13.3942 68.3013 13.3085 68.365 13.2202C70.5418 10.4347 74.884 10.2616 77.6708 12.1509Z" fill="#2B201D"/>
<path d="M89.4177 47.569C89.8274 47.7657 89.8274 47.7657 90.0733 47.9624C90.1598 47.8326 90.2463 47.7028 90.3355 47.569C90.7452 47.5445 90.7452 47.5445 91.1222 47.569C91.1322 48.3925 91.139 49.2159 91.1438 50.0394C91.1457 50.3193 91.1484 50.5992 91.1518 50.8791C91.1566 51.2823 91.1588 51.6855 91.1606 52.0888C91.1626 52.2131 91.1646 52.3374 91.1667 52.4655C91.167 53.4095 91.0517 54.0566 90.3683 54.7556C89.6803 55.2186 89.0594 55.3447 88.2377 55.3046C88.1512 55.0883 88.0647 54.8719 87.9755 54.649C88.083 54.6267 88.1905 54.6044 88.3012 54.5814C88.4425 54.5497 88.5838 54.5179 88.7294 54.4852C88.9393 54.4395 88.9393 54.4395 89.1534 54.393C89.5925 54.2406 89.7892 54.0957 90.0733 53.7313C90.1792 53.2531 90.1792 53.2531 90.2044 52.8135C90.08 52.9 89.9556 52.9866 89.8274 53.0757C89.2217 53.4198 88.6563 53.4448 87.9755 53.3379C87.4388 53.1094 87.1568 52.8305 86.8774 52.33C86.4766 51.3085 86.4825 50.0348 86.7847 48.9877C87.3325 47.7929 88.1261 47.3821 89.4177 47.569ZM87.9181 48.5606C87.3212 49.4919 87.3459 50.566 87.5494 51.6171C87.7309 52.071 87.8248 52.2866 88.2377 52.5513C88.8769 52.6803 89.2712 52.6348 89.8428 52.309C90.2115 51.979 90.2691 51.7108 90.3089 51.2238C90.3109 50.967 90.3088 50.7102 90.3027 50.4535C90.3058 50.3244 90.3088 50.1952 90.3119 50.0622C90.3141 49.3825 90.3141 49.3825 90.0436 48.7778C89.6666 48.4402 89.3155 48.2668 88.8113 48.282C88.4168 48.3072 88.2575 48.3431 87.9181 48.5606Z" fill="#3D3330"/>
<path d="M37.2344 34.3267C38.7054 34.3267 40.1765 34.3267 41.6922 34.3267C41.7571 34.6512 41.7571 34.6512 41.8233 34.9822C41.6922 35.1133 41.6922 35.1133 41.3523 35.1282C41.2047 35.1275 41.0571 35.1268 40.905 35.1261C40.7457 35.1257 40.5864 35.1253 40.4223 35.1249C40.2545 35.1238 40.0868 35.1227 39.914 35.1215C39.7457 35.1209 39.5775 35.1203 39.4041 35.1197C38.9868 35.1182 38.5695 35.1158 38.1522 35.1133C38.1522 35.8489 38.1522 36.5844 38.1522 37.3422C38.8444 37.3422 39.5367 37.3422 40.2499 37.3422C40.2499 37.6018 40.2499 37.8614 40.2499 38.1289C40.1188 38.26 40.1188 38.26 39.6758 38.2728C39.493 38.272 39.3101 38.2703 39.1273 38.2682C38.8055 38.2655 38.4837 38.2628 38.1522 38.26C38.1522 39.1253 38.1522 39.9907 38.1522 40.8822C38.5474 40.8799 38.5474 40.8799 38.9506 40.8776C39.2049 40.8767 39.4591 40.8758 39.7134 40.875C39.8906 40.8744 40.0677 40.8735 40.2449 40.8723C40.4991 40.8707 40.7532 40.8701 41.0074 40.8694C41.2371 40.8684 41.2371 40.8684 41.4714 40.8673C41.8233 40.8822 41.8233 40.8822 41.9544 41.0133C41.9544 41.2729 41.9544 41.5325 41.9544 41.8C40.3968 41.8 38.8392 41.8 37.2344 41.8C37.2344 39.3338 37.2344 36.8676 37.2344 34.3267Z" fill="#3F3533"/>
<path d="M68.8338 45.4712C68.9203 45.5145 69.0069 45.5577 69.096 45.6023C69.096 48.1118 69.096 50.6212 69.096 53.2067C68.7932 53.2067 68.4903 53.2067 68.1783 53.2067C68.135 53.0769 68.0917 52.9471 68.0471 52.8134C67.9201 52.8999 67.793 52.9865 67.662 53.0756C67.0938 53.3977 66.59 53.4513 65.9494 53.3379C65.2362 53.0015 64.9694 52.5824 64.6383 51.8956C64.3364 50.96 64.3609 49.7519 64.7622 48.8519C65.0972 48.2849 65.4449 47.7808 66.0805 47.569C66.3494 47.5423 66.3494 47.5423 66.6459 47.5362C66.7912 47.5311 66.7912 47.5311 66.9394 47.5259C67.3615 47.5825 67.6763 47.7589 68.0471 47.9623C68.049 47.8154 68.0509 47.6686 68.0528 47.5172C68.0589 47.3242 68.0653 47.1311 68.0717 46.938C68.0725 46.8412 68.0733 46.7445 68.074 46.6448C68.0856 46.3618 68.0856 46.3618 68.1783 45.8645C68.4963 45.5926 68.4963 45.5926 68.8338 45.4712ZM65.556 49.0112C65.3969 49.4885 65.3958 49.9317 65.3921 50.4288C65.3894 50.5205 65.3867 50.6122 65.384 50.7067C65.3793 51.3346 65.4797 51.7598 65.8183 52.289C66.3031 52.6122 66.6978 52.6414 67.2605 52.5512C67.6088 52.3549 67.8959 52.178 68.1783 51.8956C68.2222 51.4243 68.2209 50.9511 68.2274 50.478C68.2323 50.3454 68.2372 50.2128 68.2423 50.0762C68.2699 49.297 68.2699 49.297 67.8638 48.6655C66.9294 48.1758 66.2326 48.1296 65.556 49.0112Z" fill="#3D3431"/>
<path d="M61.3593 36.0311C62.0329 36.3679 62.4986 36.8417 62.7472 37.566C62.9412 38.6399 62.9753 39.9373 62.442 40.9124C62.0545 41.4576 61.6497 41.8057 60.9742 41.9311C60.4033 41.9728 60.0239 41.8031 59.5237 41.5378C59.4805 41.4945 59.4372 41.4512 59.3926 41.4067C59.3923 41.5331 59.392 41.6595 59.3916 41.7897C59.3508 43.1234 59.3508 43.1234 59.0823 43.4809C58.8526 43.6292 58.6268 43.7667 58.3438 43.7667C58.3438 41.2572 58.3438 38.7477 58.3438 36.1622C58.6466 36.1622 58.9495 36.1622 59.2615 36.1622C59.3048 36.292 59.3481 36.4218 59.3926 36.5555C59.4711 36.4933 59.5495 36.4311 59.6303 36.3671C60.1628 35.9867 60.7237 35.9455 61.3593 36.0311ZM59.2615 37.4733C59.2175 37.9665 59.2189 38.4616 59.2124 38.9565C59.2075 39.0954 59.2026 39.2342 59.1975 39.3772C59.169 40.1777 59.169 40.1777 59.5637 40.8392C60.0061 41.0572 60.3408 41.1356 60.8349 41.1444C61.3859 40.919 61.6302 40.6279 61.8837 40.0955C62.1775 39.1073 62.0561 38.1327 61.6215 37.2111C61.3064 36.8397 61.1406 36.8234 60.6546 36.7604C60.066 36.8314 59.6815 37.0534 59.2615 37.4733Z" fill="#3C3230"/>
<path d="M87.45 34.7198C87.618 35.0004 87.618 35.0004 87.7122 35.2442C87.5483 35.4491 87.5483 35.4491 87.3189 35.6375C87.0188 35.6085 86.8235 35.5235 86.5645 35.3712C86.1904 35.2099 85.8898 35.2048 85.4833 35.2032C85.3481 35.201 85.2129 35.1988 85.0736 35.1966C84.6488 35.2503 84.47 35.3334 84.1722 35.6375C84.0738 36.0908 84.0738 36.0908 84.1722 36.5553C84.6709 37.0464 85.2394 37.2812 85.8766 37.5387C87.3085 38.1172 87.3085 38.1172 87.7501 38.7729C87.9972 39.498 87.9506 40.2661 87.622 40.9475C87.0807 41.5328 86.5256 41.7774 85.7455 41.9309C84.7959 41.9613 83.8907 41.7194 83.1233 41.1442C83.0096 40.8743 83.0096 40.8743 82.9922 40.6198C83.1807 40.3903 83.1807 40.3903 83.3855 40.2264C83.7437 40.3634 84.0644 40.5027 84.3934 40.7017C85.0444 40.9719 85.7587 41.0215 86.4292 40.7755C86.7103 40.619 86.7103 40.619 86.8518 40.1855C86.9617 39.7175 86.9617 39.7175 86.8026 39.3496C86.3445 38.836 85.777 38.5992 85.1647 38.3084C85.0839 38.2694 85.0031 38.2305 84.9198 38.1903C84.6805 38.0753 84.4399 37.9629 84.1993 37.8506C83.6849 37.5492 83.3888 37.2174 83.1233 36.6864C83.0519 35.844 83.149 35.4072 83.6477 34.7198C84.7499 33.8931 86.3099 34.0094 87.45 34.7198Z" fill="#3A302E"/>
<path d="M72.7081 36.2524C73.1937 36.7132 73.4045 37.0284 73.4656 37.7068C73.4656 37.8976 73.4634 38.0883 73.4594 38.279C73.4588 38.3799 73.4583 38.4809 73.4577 38.5849C73.4555 38.9055 73.4506 39.226 73.4456 39.5466C73.4436 39.7647 73.4418 39.9828 73.4402 40.2009C73.4359 40.734 73.4291 41.267 73.421 41.8001C73.1614 41.8001 72.9018 41.8001 72.6343 41.8001C72.5911 41.627 72.5478 41.4539 72.5032 41.2756C72.3978 41.3594 72.2923 41.4433 72.1836 41.5296C71.662 41.8721 71.1573 41.9742 70.5365 41.9312C69.9494 41.7671 69.5848 41.5402 69.2254 41.0462C69.0258 40.3972 68.9724 39.8534 69.25 39.2106C69.6202 38.751 69.9745 38.4474 70.5365 38.2601C70.7767 38.2478 71.0172 38.243 71.2577 38.2437C71.3834 38.2433 71.5091 38.243 71.6387 38.2427C71.9788 38.2601 71.9788 38.2601 72.3721 38.3912C72.3843 38.1437 72.3843 38.1437 72.3967 37.8913C72.4012 37.7985 72.4058 37.7057 72.4105 37.6101C72.3913 37.3334 72.3913 37.3334 72.2133 37.1139C71.7594 36.7948 71.199 36.8987 70.6677 36.949C70.2138 37.0632 70.2138 37.0632 69.881 37.2112C69.6188 36.8178 69.6188 36.8178 69.6188 36.4245C70.6177 35.9635 71.6822 35.7665 72.7081 36.2524ZM70.2246 39.2792C69.9397 39.6706 69.9349 39.9005 69.9629 40.3701C70.0026 40.6462 70.0026 40.6462 70.2088 40.9478C70.6642 41.2211 71.0743 41.23 71.5854 41.1445C71.9552 40.9883 71.9552 40.9883 72.241 40.7512C72.3194 40.6998 72.3978 40.6484 72.4786 40.5955C72.7522 40.1779 72.6809 39.798 72.6343 39.309C72.1712 39.0002 71.9464 39.0038 71.397 38.9976C71.2484 38.9938 71.0998 38.9901 70.9468 38.9863C70.5278 39.0149 70.5278 39.0149 70.2246 39.2792Z" fill="#3D3330"/>
<path d="M67.022 36.1786C67.7102 36.6375 68.1369 37.1865 68.3085 37.9978C68.3085 38.4305 68.3085 38.8631 68.3085 39.3089C67.097 39.3089 65.8856 39.3089 64.6374 39.3089C64.9135 40.4303 64.9135 40.4303 65.4241 40.8822C66.2754 41.0877 66.8518 40.9482 67.6529 40.62C67.8476 40.9445 67.8476 40.9445 68.0463 41.2756C67.2737 41.7191 66.5903 41.99 65.6863 41.9311C64.9113 41.7134 64.4214 41.2794 63.9818 40.62C63.5777 39.6386 63.5745 38.5608 63.9245 37.5635C64.2023 36.9404 64.5855 36.5246 65.1618 36.1622C65.8149 35.9446 66.3815 35.9526 67.022 36.1786ZM64.8996 37.3422C64.6667 37.7858 64.6374 38.0095 64.6374 38.5222C65.5893 38.5222 66.5411 38.5222 67.5218 38.5222C67.3293 37.5411 67.3293 37.5411 66.7352 36.9489C66.0227 36.5927 65.4207 36.7914 64.8996 37.3422Z" fill="#3E3431"/>
<path d="M105.704 36.391C106.351 36.8432 106.534 37.4835 106.7 38.2148C106.726 38.5221 106.726 38.5221 106.595 39.3087C105.383 39.3087 104.172 39.3087 102.924 39.3087C103.307 40.5162 103.307 40.5162 103.735 40.9066C104.526 41.1353 105.318 40.9093 106.07 40.6198C106.157 40.8362 106.243 41.0525 106.332 41.2754C105.537 41.8117 104.775 42.0525 103.81 41.8777C103.132 41.6628 102.791 41.3383 102.399 40.7509C101.973 39.6973 101.923 38.3782 102.358 37.3175C102.667 36.7384 103.051 36.433 103.628 36.1293C104.409 35.9062 105.008 36.0044 105.704 36.391ZM103.317 37.2109C103.105 37.6267 102.924 38.0512 102.924 38.5221C103.875 38.5221 104.827 38.5221 105.808 38.5221C105.69 37.5928 105.69 37.5928 105.152 36.9487C104.518 36.6316 103.834 36.7516 103.317 37.2109Z" fill="#3D3330"/>
<path d="M59.1319 48.0194C59.5698 48.5804 59.5429 49.0814 59.5381 49.7622C59.5379 49.8606 59.5377 49.959 59.5375 50.0604C59.5368 50.3743 59.5351 50.6882 59.5334 51.0021C59.5328 51.2151 59.5322 51.4281 59.5317 51.6411C59.5302 52.1629 59.5279 52.6846 59.5253 53.2064C59.2657 53.2064 59.0061 53.2064 58.7386 53.2064C58.6953 53.0766 58.6521 52.9468 58.6075 52.8131C58.4831 52.8996 58.3587 52.9862 58.2305 53.0753C57.6266 53.4203 57.0579 53.4311 56.3786 53.3376C55.7762 53.1018 55.4898 52.7293 55.1986 52.1576C55.0926 51.3228 55.2206 50.8652 55.723 50.1909C56.431 49.6281 57.3531 49.7378 58.2141 49.7976C58.3439 49.8408 58.4737 49.8841 58.6075 49.9287C58.6049 49.1287 58.6049 49.1287 58.2141 48.4701C57.4761 48.2548 56.7228 48.451 55.9853 48.6176C55.8987 48.4012 55.8122 48.1849 55.723 47.962C56.8189 47.3319 58.111 47.1899 59.1319 48.0194ZM56.1164 50.9776C56.0325 51.5681 56.0094 52.0127 56.3704 52.5017C56.9373 52.7563 57.3613 52.726 57.9519 52.5509C58.3413 52.3721 58.453 52.2469 58.7386 51.8953C58.8013 51.4931 58.786 51.1186 58.7386 50.7153C57.8178 50.347 56.8779 50.216 56.1164 50.9776Z" fill="#372D2A"/>
<path d="M53.6414 46.0202C54.0088 46.2527 54.1387 46.3695 54.3543 46.7577C54.3732 46.8523 54.3922 46.947 54.4117 47.0445C53.92 47.4378 53.92 47.4378 53.625 47.4378C53.2972 47.11 53.2972 47.11 52.9695 46.7823C52.3619 46.5797 51.859 46.5869 51.2486 46.7823C50.694 47.1681 50.3504 47.6932 50.1352 48.3346C49.9268 49.5108 49.9791 50.7287 50.6095 51.7645C51.1908 52.332 51.6031 52.4648 52.3933 52.4585C52.9023 52.3962 53.2087 52.1905 53.625 51.8956C53.6899 51.7658 53.6899 51.7658 53.7561 51.6334C54.0797 51.7844 54.2868 51.9019 54.5428 52.1578C53.9513 52.8232 53.3612 53.2609 52.4624 53.3931C51.5351 53.4356 50.7928 53.3102 50.085 52.6823C49.1138 51.4458 48.9028 50.16 49.0361 48.6178C49.251 47.6067 49.6955 46.8063 50.4783 46.1267C51.4289 45.5303 52.6466 45.5115 53.6414 46.0202Z" fill="#372D2B"/>
<path d="M55.8864 36.2279C56.5806 36.6145 56.9199 37.2635 57.1647 37.9979C57.258 39.0887 57.2107 40.058 56.6403 41.0134C56.1328 41.5934 55.6271 41.803 54.882 41.9184C54.2009 41.9441 53.6449 41.7786 53.1233 41.3341C52.3588 40.501 52.2586 39.6492 52.2824 38.5469C52.3487 37.6588 52.5695 37.1661 53.2314 36.5639C54.0144 35.9128 54.9498 35.8245 55.8864 36.2279ZM53.6247 37.2112C53.2576 37.8139 53.1747 38.2794 53.174 38.9812C53.1715 39.1475 53.1689 39.3138 53.1663 39.4852C53.2578 40.1591 53.5406 40.5659 54.0508 41.0053C54.553 41.1993 54.9535 41.2018 55.4603 41.0134C55.8082 40.7194 56.0429 40.3726 56.2469 39.9646C56.3762 38.4198 56.3762 38.4198 55.7225 37.0801C55.0874 36.5764 54.2176 36.7171 53.6247 37.2112Z" fill="#3C322F"/>
<path d="M84.4853 47.7161C85.1712 48.2061 85.5261 48.7306 85.7472 49.5353C85.8591 50.7061 85.8197 51.7221 85.0507 52.6574C84.358 53.2212 83.8098 53.4154 82.9232 53.3821C82.2921 53.2949 81.8804 53.0636 81.4856 52.5631C80.8694 51.6221 80.816 50.7807 80.8961 49.6664C81.0792 48.8438 81.4604 48.212 82.1499 47.7243C82.9312 47.4544 83.7012 47.4548 84.4853 47.7161ZM82.0761 48.8797C81.8111 49.4079 81.7748 49.8575 81.7729 50.4449C81.7707 50.6002 81.7685 50.7555 81.7663 50.9156C81.8289 51.5146 82.0264 51.9489 82.4203 52.4034C82.9113 52.6359 83.3792 52.6374 83.9117 52.5509C84.3827 52.2703 84.6361 52.0103 84.8294 51.502C84.8615 51.1512 84.878 50.82 84.8786 50.4695C84.8818 50.3784 84.885 50.2873 84.8883 50.1934C84.8922 49.5152 84.734 49.1363 84.305 48.6175C83.55 48.1142 82.6898 48.1916 82.0761 48.8797Z" fill="#3A302E"/>
<path d="M92.4669 36.2277C93.105 36.5843 93.4718 37.1654 93.6945 37.8522C93.9138 39.0484 93.7731 40.0974 93.1143 41.1198C92.5456 41.6884 91.9196 41.904 91.123 41.931C90.3245 41.7998 89.8225 41.5069 89.3126 40.8837C88.7599 39.9505 88.7723 38.8624 88.9459 37.8174C89.1729 37.0674 89.7053 36.6011 90.3364 36.1621C91.0543 35.9228 91.7664 35.926 92.4669 36.2277ZM90.0741 37.3421C89.7874 37.8854 89.7728 38.3729 89.7709 38.981C89.7687 39.15 89.7665 39.3191 89.7643 39.4932C89.8141 39.9859 89.9179 40.2243 90.2052 40.6199C90.2823 40.7335 90.2823 40.7335 90.3609 40.8494C90.7537 41.1202 91.1823 41.158 91.6475 41.1444C92.2545 40.9098 92.5127 40.5211 92.8275 39.9644C92.9484 39.14 92.9997 38.1878 92.598 37.4323C92.1749 36.9269 91.9865 36.8408 91.3361 36.7685C90.7667 36.8274 90.5059 36.9706 90.0741 37.3421Z" fill="#3B312E"/>
<path d="M40.9642 47.7901C41.7283 48.4797 42.1061 49.126 42.2133 50.1593C42.2279 51.0893 41.9847 51.9393 41.4313 52.6822C40.8975 53.1793 40.389 53.3823 39.6613 53.4197C38.9386 53.3816 38.411 53.1934 37.8913 52.6822C37.287 51.7952 37.1298 50.8541 37.2357 49.7977C37.462 48.8679 37.8609 48.2137 38.6779 47.7C39.4402 47.4459 40.2409 47.435 40.9642 47.7901ZM38.4157 49.0111C38.036 49.8054 37.9894 50.725 38.2574 51.5662C38.4833 52.0396 38.6246 52.2533 39.0713 52.5511C39.6997 52.6648 40.1442 52.6114 40.7019 52.297C41.2821 51.6037 41.3361 50.9109 41.2756 50.0272C41.1898 49.3839 40.9954 48.9939 40.5626 48.5112C39.7169 48.0883 38.9738 48.25 38.4157 49.0111Z" fill="#3A2F2D"/>
<path d="M76.2164 47.7163C76.8469 48.1562 77.2518 48.6753 77.4866 49.4044C77.6153 50.5903 77.5976 51.71 76.831 52.6822C76.3081 53.2027 75.7922 53.3792 75.061 53.4197C74.3355 53.3824 73.8213 53.1812 73.291 52.6822C72.6153 51.8199 72.5491 50.8537 72.6354 49.7977C72.8299 48.8285 73.2096 48.2823 74.0367 47.7245C74.7782 47.4587 75.4715 47.4633 76.2164 47.7163ZM73.8154 49.0111C73.4384 49.7957 73.4211 50.6892 73.6234 51.5324C73.8076 52.0045 74.006 52.343 74.471 52.5511C75.0504 52.638 75.4998 52.6266 76.0279 52.3626C76.5976 51.6756 76.7406 50.9746 76.6835 50.0927C76.5958 49.4176 76.4161 49.0173 75.9624 48.5112C75.1166 48.0883 74.3736 48.25 73.8154 49.0111Z" fill="#392F2D"/>
<path d="M78.1669 36.1869C78.655 36.5015 78.9682 36.7726 79.139 37.3443C79.3339 38.2689 79.3573 39.1612 79.3469 40.1039C79.3468 40.2532 79.3467 40.4025 79.3466 40.5564C79.3407 41.6506 79.3407 41.6506 79.1912 41.8001C78.929 41.8055 78.6667 41.8057 78.4045 41.8001C78.4026 41.6897 78.4007 41.5794 78.3987 41.4657C78.3906 41.0524 78.3809 40.6392 78.3701 40.2261C78.3657 40.0479 78.3621 39.8698 78.3591 39.6916C78.358 38.3271 78.358 38.3271 77.88 37.0801C77.4612 36.8707 77.0236 36.8824 76.5689 36.949C76.1797 37.2384 76.067 37.4061 75.9134 37.8668C75.8935 38.1661 75.8808 38.4658 75.8719 38.7656C75.8692 38.8524 75.8664 38.9391 75.8636 39.0285C75.8551 39.305 75.8473 39.5815 75.8396 39.858C75.834 40.0457 75.8282 40.2334 75.8225 40.4212C75.8085 40.8808 75.7952 41.3404 75.7823 41.8001C75.5201 41.8057 75.2578 41.8055 74.9956 41.8001C74.8645 41.669 74.8645 41.669 74.8496 41.1486C74.8496 40.9163 74.8504 40.684 74.8517 40.4516C74.8519 40.3296 74.8521 40.2075 74.8523 40.0818C74.853 39.6904 74.8546 39.2989 74.8563 38.9075C74.857 38.6428 74.8576 38.3781 74.8581 38.1134C74.8595 37.463 74.8618 36.8127 74.8645 36.1623C75.1674 36.1623 75.4702 36.1623 75.7823 36.1623C75.8255 36.2921 75.8688 36.4219 75.9134 36.5557C75.9918 36.4935 76.0702 36.4313 76.151 36.3672C76.7836 35.9154 77.4532 35.9211 78.1669 36.1869Z" fill="#3E3532"/>
<path d="M43.0045 36.1621C43.2641 36.1621 43.5237 36.1621 43.7911 36.1621C43.7937 36.2678 43.7963 36.3735 43.799 36.4825C43.8116 36.9657 43.8259 37.4489 43.8403 37.9321C43.8443 38.0984 43.8484 38.2647 43.8526 38.4361C43.8793 39.2903 43.9304 40.0643 44.1845 40.8821C44.9785 41.0313 44.9785 41.0313 45.7496 40.8575C46.1622 40.4949 46.2694 40.2241 46.324 39.6748C46.3282 39.5128 46.3323 39.3508 46.3365 39.1838C46.3391 39.0972 46.3416 39.0107 46.3442 38.9215C46.352 38.6464 46.3581 38.3712 46.3642 38.096C46.3692 37.9089 46.3743 37.7218 46.3795 37.5347C46.3921 37.0772 46.4031 36.6197 46.4133 36.1621C46.7162 36.1621 47.0191 36.1621 47.3311 36.1621C47.3344 36.9439 47.3367 37.7258 47.3383 38.5076C47.339 38.7738 47.3399 39.04 47.341 39.3062C47.3426 39.6879 47.3433 40.0696 47.3439 40.4514C47.3446 40.5712 47.3453 40.6909 47.346 40.8143C47.346 41.0992 47.3393 41.384 47.3311 41.6688C47.2 41.7999 47.2 41.7999 46.8804 41.8327C46.7696 41.8218 46.6587 41.811 46.5445 41.7999C46.4579 41.6701 46.3714 41.5403 46.2822 41.4066C46.2173 41.4688 46.1524 41.5309 46.0856 41.595C45.4833 41.9715 44.9037 41.9607 44.2254 41.8572C43.6663 41.6146 43.481 41.38 43.1356 40.8821C42.9796 40.4141 42.9881 39.9906 42.9916 39.5039C42.9918 39.4084 42.992 39.3129 42.9922 39.2146C42.9929 38.91 42.9946 38.6054 42.9963 38.3009C42.9969 38.0942 42.9975 37.8876 42.9981 37.6809C42.9995 37.1746 43.0018 36.6684 43.0045 36.1621Z" fill="#392F2C"/>
<path d="M91.9102 47.5688C92.213 47.5688 92.5159 47.5688 92.8279 47.5688C93.3039 48.9534 93.7798 50.3379 94.2702 51.7644C94.6837 50.7718 95.0786 49.7959 95.4256 48.7816C95.4664 48.6637 95.5072 48.5457 95.5493 48.4241C95.6478 48.1392 95.7459 47.8541 95.8435 47.5688C96.1464 47.5688 96.4492 47.5688 96.7613 47.5688C96.4903 48.5096 96.1805 49.4312 95.8466 50.3514C95.798 50.486 95.7494 50.6206 95.6993 50.7593C95.5974 51.0411 95.4954 51.3228 95.3932 51.6045C95.2361 52.0375 95.0799 52.4708 94.9237 52.9042C94.8244 53.1786 94.725 53.4531 94.6256 53.7275C94.5787 53.8575 94.5319 53.9875 94.4836 54.1214C94.4403 54.2406 94.397 54.3597 94.3523 54.4824C94.3142 54.5877 94.2761 54.6929 94.2368 54.8013C94.139 55.0422 94.139 55.0422 94.0079 55.1733C93.7021 55.1787 93.396 55.1789 93.0902 55.1733C93.139 55.0499 93.1878 54.9265 93.2382 54.7994C93.3009 54.6345 93.3636 54.4696 93.4261 54.3047C93.4885 54.1434 93.5509 53.9822 93.6151 53.8161C93.8476 52.9647 93.5256 52.248 93.2289 51.451C93.1913 51.3479 93.1537 51.2449 93.1149 51.1388C92.9953 50.8117 92.8748 50.485 92.7542 50.1583C92.6332 49.8297 92.5124 49.5011 92.3921 49.1722C92.3174 48.9681 92.2423 48.7641 92.1667 48.5602C91.9102 47.8605 91.9102 47.8605 91.9102 47.5688Z" fill="#3B312F"/>
<path d="M110.658 36.1621C110.961 36.1621 111.264 36.1621 111.576 36.1621C111.953 37.0709 112.281 37.988 112.584 38.9236C112.663 39.1684 112.743 39.413 112.823 39.6576C112.857 39.7639 112.892 39.8702 112.927 39.9797C112.998 40.2246 112.998 40.2246 113.149 40.3577C113.625 38.9731 114.101 37.5886 114.592 36.1621C114.894 36.1621 115.197 36.1621 115.509 36.1621C115.242 37.0939 114.933 38.0032 114.595 38.9113C114.546 39.0427 114.497 39.1741 114.447 39.3095C114.345 39.5846 114.243 39.8596 114.141 40.1345C113.984 40.5566 113.828 40.979 113.672 41.4014C113.572 41.6695 113.473 41.9375 113.374 42.2055C113.327 42.332 113.28 42.4584 113.232 42.5887C113.188 42.7052 113.145 42.8217 113.1 42.9417C113.062 43.0443 113.024 43.1469 112.985 43.2527C112.887 43.5043 112.887 43.5043 112.756 43.7666C112.496 43.7666 112.237 43.7666 111.969 43.7666C112.04 43.1988 112.187 42.737 112.425 42.2224C112.611 41.4345 112.25 40.6271 111.977 39.8957C111.939 39.7925 111.902 39.6894 111.863 39.5831C111.744 39.2564 111.623 38.9302 111.502 38.6041C111.381 38.275 111.261 37.9458 111.14 37.6166C111.065 37.4123 110.99 37.2082 110.915 37.0042C110.658 36.3075 110.658 36.3075 110.658 36.1621Z" fill="#3B322F"/>
<path d="M44.5255 45.5767C44.6563 45.5797 44.7871 45.5827 44.9219 45.5859C45.1191 45.5894 45.1191 45.5894 45.3204 45.593C45.4214 45.5961 45.5225 45.5991 45.6266 45.6023C45.6266 45.8619 45.6266 46.1215 45.6266 46.3889C45.2805 46.4322 44.9344 46.4755 44.5777 46.52C44.5345 46.9094 44.4912 47.2988 44.4466 47.7C44.7928 47.7 45.1389 47.7 45.4955 47.7C45.4955 47.9164 45.4955 48.1327 45.4955 48.3556C45.1494 48.3556 44.8033 48.3556 44.4466 48.3556C44.4466 49.9565 44.4466 51.5573 44.4466 53.2067C44.1438 53.2067 43.8409 53.2067 43.5289 53.2067C43.5289 51.6058 43.5289 50.005 43.5289 48.3556C43.2693 48.3556 43.0097 48.3556 42.7422 48.3556C42.7422 48.1393 42.7422 47.9229 42.7422 47.7C43.0018 47.7 43.2614 47.7 43.5289 47.7C43.5243 47.6225 43.5197 47.5449 43.515 47.465C43.4927 46.8143 43.5031 46.3965 43.9222 45.8645C44.1844 45.6023 44.1844 45.6023 44.5255 45.5767Z" fill="#3B322F"/>
<path d="M108.824 34.0645C108.824 34.7567 108.824 35.449 108.824 36.1622C109.299 36.1622 109.775 36.1622 110.266 36.1622C110.266 36.3786 110.266 36.5949 110.266 36.8178C110.222 36.8611 110.179 36.9043 110.135 36.9489C109.702 36.9489 109.269 36.9489 108.824 36.9489C108.888 38.9608 108.888 38.9608 108.955 41.0133C109.344 41.0133 109.733 41.0133 110.135 41.0133C110.135 41.2297 110.135 41.446 110.135 41.6689C109.517 41.9968 109.094 41.9499 108.43 41.8C108.082 41.481 108.039 41.2932 107.992 40.8189C107.992 40.6385 107.994 40.4582 107.998 40.2779C107.999 40.1826 108 40.0873 108 39.9891C108.002 39.6859 108.007 39.3827 108.012 39.0795C108.014 38.8734 108.016 38.6673 108.018 38.4613C108.022 37.9571 108.029 37.453 108.037 36.9489C107.931 36.9516 107.826 36.9543 107.717 36.9571C107.381 36.9489 107.381 36.9489 107.25 36.8178C107.245 36.5993 107.245 36.3807 107.25 36.1622C107.51 36.1622 107.769 36.1622 108.037 36.1622C108.037 35.5565 108.037 34.9508 108.037 34.3267C108.561 34.0645 108.561 34.0645 108.824 34.0645Z" fill="#332926"/>
<path d="M98.4806 36.4327C98.605 36.5166 98.7294 36.6004 98.8575 36.6868C98.7277 36.9031 98.5979 37.1194 98.4642 37.3423C97.8414 37.0965 97.8414 37.0965 97.5464 36.949C96.7646 36.8614 96.7646 36.8614 96.1124 37.2522C95.6817 37.8134 95.6829 38.2644 95.6699 38.9566C95.665 39.1265 95.6601 39.2963 95.655 39.4713C95.7192 40.0383 95.8816 40.3104 96.2353 40.7512C96.5967 41.0378 96.7567 41.0137 97.2268 40.9807C97.6905 40.9082 97.6905 40.9082 98.0709 40.6201C98.3413 40.6447 98.3413 40.6447 98.5953 40.7512C98.6818 40.881 98.7684 41.0108 98.8575 41.1446C98.1995 41.7252 97.655 41.9663 96.7761 41.9394C96.0023 41.839 95.5405 41.4792 95.0553 40.8823C94.5276 40.0703 94.5605 39.0608 94.662 38.129C94.9189 37.1406 95.4104 36.6373 96.2681 36.1132C97.036 35.9386 97.7965 36.042 98.4806 36.4327Z" fill="#3E3432"/>
<path d="M51.6579 36.0312C51.7444 36.1177 51.8309 36.2043 51.9201 36.2934C51.8336 36.553 51.747 36.8126 51.6579 37.0801C51.5803 37.063 51.5027 37.0459 51.4228 37.0284C51.3192 37.0103 51.2156 36.9922 51.1089 36.9736C51.0069 36.9538 50.905 36.934 50.8 36.9136C50.2995 36.9685 50.1335 37.2222 49.8223 37.6045C49.7229 38.0568 49.7229 38.0568 49.7342 38.553C49.7326 38.642 49.7309 38.731 49.7292 38.8227C49.7244 39.105 49.7241 39.3872 49.724 39.6695C49.7212 39.9537 49.7174 40.2379 49.7132 40.522C49.7098 40.7785 49.7087 41.0349 49.7077 41.2914C49.6912 41.669 49.6912 41.669 49.5601 41.8001C49.3005 41.8001 49.0409 41.8001 48.7734 41.8001C48.7734 39.9396 48.7734 38.0792 48.7734 36.1623C49.0763 36.1623 49.3792 36.1623 49.6912 36.1623C49.7345 36.2488 49.7777 36.3354 49.8223 36.4245C49.9062 36.3596 49.99 36.2947 50.0764 36.2279C50.6008 35.971 51.0813 35.944 51.6579 36.0312Z" fill="#403734"/>
<path d="M63.9824 47.5691C64.1193 47.9799 64.1048 48.0921 63.9824 48.4868C63.8495 48.4777 63.8495 48.4777 63.714 48.4684C62.9793 48.4218 62.9793 48.4218 62.3353 48.7245C61.9991 49.236 61.9925 49.676 61.9742 50.2748C61.9687 50.445 61.9632 50.6153 61.9576 50.7908C61.9523 50.9706 61.9471 51.1505 61.9419 51.3303C61.9363 51.5117 61.9306 51.6931 61.9248 51.8745C61.9109 52.3186 61.8975 52.7627 61.8846 53.2068C61.5817 53.2068 61.2788 53.2068 60.9668 53.2068C60.9668 51.3896 60.9668 49.5724 60.9668 47.7002C61.2697 47.7002 61.5725 47.7002 61.8846 47.7002C61.9278 47.7867 61.9711 47.8732 62.0157 47.9624C62.0968 47.8975 62.1779 47.8326 62.2615 47.7657C62.8365 47.4897 63.3553 47.5362 63.9824 47.5691Z" fill="#3A302D"/>
<path d="M79.7147 45.6021C79.7147 48.1115 79.7147 50.621 79.7147 53.2065C79.4118 53.2065 79.1089 53.2065 78.7969 53.2065C78.7969 50.7836 78.7969 48.3606 78.7969 45.8643C79.3213 45.6021 79.3213 45.6021 79.7147 45.6021Z" fill="#433735"/>
<path d="M70.5391 47.5688C70.7987 47.5688 71.0583 47.5688 71.3257 47.5688C71.4568 47.7 71.4568 47.7 71.4717 48.2203C71.4717 48.4527 71.471 48.685 71.4696 48.9173C71.4695 49.0394 71.4693 49.1614 71.4691 49.2872C71.4683 49.6786 71.4667 50.07 71.465 50.4615C71.4644 50.7262 71.4638 50.9909 71.4632 51.2556C71.4618 51.9059 71.4595 52.5563 71.4568 53.2066C71.154 53.2066 70.8511 53.2066 70.5391 53.2066C70.5391 51.3462 70.5391 49.4857 70.5391 47.5688Z" fill="#433937"/>
<path d="M99.9055 36.1621C100.208 36.1621 100.511 36.1621 100.823 36.1621C100.823 38.0226 100.823 39.883 100.823 41.7999C100.564 41.7999 100.304 41.7999 100.037 41.7999C99.9055 41.6688 99.9055 41.6688 99.8906 41.1484C99.8906 40.9161 99.8914 40.6837 99.8927 40.4514C99.8929 40.3293 99.8931 40.2073 99.8933 40.0816C99.894 39.6901 99.8957 39.2987 99.8973 38.9072C99.898 38.6426 99.8986 38.3779 99.8991 38.1132C99.9006 37.4628 99.9028 36.8125 99.9055 36.1621Z" fill="#443937"/>
<path d="M100.038 34.0645C100.34 34.1077 100.643 34.151 100.955 34.1956C100.972 34.5725 100.972 34.5725 100.955 34.9822C100.869 35.0688 100.782 35.1553 100.693 35.2445C100.283 35.1953 100.283 35.1953 99.9065 35.1133C99.8246 34.8101 99.8246 34.8101 99.7754 34.4578C99.8619 34.328 99.9485 34.1982 100.038 34.0645Z" fill="#3F3532"/>
<path d="M70.9307 45.4712C71.2912 45.6515 71.2912 45.6515 71.5862 45.8645C71.5535 46.1759 71.5535 46.1759 71.4551 46.5201C71.2093 46.7004 71.2093 46.7004 70.9307 46.7823C70.8009 46.739 70.6711 46.6958 70.5374 46.6512C70.4941 46.3483 70.4508 46.0455 70.4062 45.7334C70.6275 45.5777 70.6275 45.5777 70.9307 45.4712Z" fill="#403533"/>
<path d="M82.0755 47.8311C82.162 47.8743 82.2485 47.9176 82.3377 47.9622C82.0348 48.265 81.732 48.5679 81.4199 48.8799C81.4199 48.4866 81.4199 48.4866 81.7477 48.1342C81.8559 48.0342 81.964 47.9341 82.0755 47.8311Z" fill="#534A47"/>
<path d="M84.0423 34.4575C84.1288 34.5008 84.2153 34.5441 84.3045 34.5886C84.0016 34.8915 83.6988 35.1944 83.3867 35.5064C83.3867 35.1131 83.3867 35.1131 83.7145 34.7607C83.8227 34.6607 83.9308 34.5606 84.0423 34.4575Z" fill="#5A514F"/>
</svg>
