<svg width="74" height="52" viewBox="0 0 74 52" fill="none" xmlns="http://www.w3.org/2000/svg">
<path d="M40.1912 38.3433C34.9837 34.0363 33.1173 32.2222 31.3554 31.3347V23.5821C32.4909 22.6163 33.1565 21.1937 33.1565 19.6798V10.6743C33.1565 5.61035 29.0583 1.51221 24.0466 1.51221H22.1281C17.0902 1.51221 13.0182 5.6234 13.0182 10.6743V19.6798C12.9921 21.1937 13.6577 22.6163 14.7932 23.5821V31.3347C13.0312 32.2222 7.41913 35.2109 2.21162 39.5048C0.958682 40.5359 0.253906 42.0629 0.253906 43.6943V49.8677C0.253906 50.455 0.723757 50.9248 1.31107 50.9248C1.89838 50.9248 2.36823 50.4419 2.36823 49.8677V43.6943C2.36823 42.7024 2.81198 41.7758 3.56896 41.1363C9.0375 36.6074 14.9759 33.6056 16.1114 33.0444C16.6073 32.7964 16.9205 32.2874 16.9205 31.7393V23.047C16.9205 22.6946 16.7509 22.3553 16.4507 22.1726C15.6154 21.6114 15.1195 20.6847 15.1195 19.6798V10.6612C15.1195 6.77192 18.2648 3.60043 22.1411 3.60043H24.0727C27.949 3.60043 31.0944 6.75887 31.0944 10.6612V19.6667C31.0944 20.6717 30.5984 21.5983 29.7631 22.1595C29.476 22.3553 29.2933 22.6816 29.2933 23.034V31.7262C29.2933 32.2744 29.6196 32.7964 30.1025 33.0313C31.2379 33.5926 33.4175 35.4328 38.8861 39.9616L40.2304 38.3433H40.1912Z" fill="#4D4D4D"/>
<path d="M70.2475 25.8012H62.9257V24.4438C62.9257 23.6477 62.6124 22.8907 62.0512 22.3295C61.49 21.7683 60.733 21.4551 59.9369 21.4551H52.354C51.5579 21.4551 50.8009 21.7683 50.2397 22.3295C49.6785 22.8907 49.3652 23.6477 49.3652 24.4438V25.8012H42.0434C41.1037 25.8012 40.2162 26.1797 39.5506 26.8323C38.885 27.4979 38.5195 28.3854 38.5195 29.3251V47.7537C38.5195 48.6934 38.898 49.5808 39.5506 50.2465C40.2162 50.9121 41.1037 51.2775 42.0434 51.2775H70.2344C71.1741 51.2775 72.0616 50.899 72.7273 50.2465C73.3929 49.5808 73.7583 48.6934 73.7583 47.7537V29.3251C73.7583 28.3854 73.3798 27.4979 72.7273 26.8323C72.0616 26.1666 71.1741 25.8012 70.2344 25.8012H70.2475ZM50.9967 24.4438C50.9967 24.0784 51.1402 23.7391 51.3882 23.478C51.6492 23.2301 51.9886 23.0865 52.354 23.0865H59.9369C60.3023 23.0865 60.6417 23.2301 60.9027 23.478C61.1637 23.726 61.2942 24.0784 61.2942 24.4438V25.8012H50.9967V24.4438ZM72.1399 47.7537C72.1399 48.2627 71.9442 48.7325 71.5787 49.0979C71.2133 49.4634 70.7434 49.6592 70.2344 49.6592H42.0434C41.5344 49.6592 41.0646 49.4634 40.6991 49.0979C40.3337 48.7325 40.1379 48.2627 40.1379 47.7537V41.502C40.6991 41.8675 41.3647 42.0632 42.0304 42.0632H50.4355V43.4206C50.4355 43.6425 50.5268 43.8382 50.6704 43.9949C50.814 44.1515 51.0358 44.2298 51.2446 44.2298H61.0071C61.229 44.2298 61.4247 44.1384 61.5814 43.9949C61.738 43.8513 61.8163 43.6294 61.8163 43.4206V42.0632H70.2214C70.9001 42.0632 71.5526 41.8675 72.1138 41.502V47.7537H72.1399ZM52.0799 42.5984V39.8837H60.211V42.5984H52.0799ZM72.1399 38.5263C72.1399 39.0353 71.9442 39.5052 71.5787 39.8706C71.2133 40.236 70.7434 40.4318 70.2344 40.4318H61.8293V39.0745C61.8293 38.8526 61.738 38.6568 61.5944 38.5002C61.4508 38.3436 61.229 38.2653 61.0202 38.2653H51.2577C51.0358 38.2653 50.8401 38.3566 50.6834 38.5002C50.5268 38.6438 50.4485 38.8657 50.4485 39.0745V40.4318H42.0434C41.5344 40.4318 41.0646 40.236 40.6991 39.8706C40.3337 39.5052 40.1379 39.0353 40.1379 38.5263V29.312C40.1379 28.803 40.3337 28.3332 40.6991 27.9677C41.0646 27.6023 41.5344 27.4065 42.0434 27.4065H70.2344C70.7434 27.4065 71.2133 27.6023 71.5787 27.9677C71.9442 28.3332 72.1399 28.803 72.1399 29.312V38.5263Z" fill="#4D4D4D"/>
<path d="M23.2498 36.8691L20.5742 51.4998H26.1863L23.6282 36.8691H23.2498Z" fill="#D52B1E"/>
<path d="M26.1863 33.332H20.5742L23.2367 36.3339H23.6152L26.1863 33.332Z" fill="#D52B1E"/>
</svg>
