<svg width="49" height="17" viewBox="0 0 49 17" fill="none" xmlns="http://www.w3.org/2000/svg">
<path d="M13.6424 6.47487C13.0574 5.46755 12.2194 4.67341 11.1274 4.09245C10.0373 3.51149 8.75976 3.22053 7.29297 3.21957V6.07252C7.30724 6.07252 7.32151 6.0706 7.33577 6.0706C8.11863 6.0706 8.7588 6.40477 9.25725 7.07312C9.76425 7.73282 10.0182 8.7219 10.0182 10.0413C10.0182 10.2795 10.0097 10.5061 9.99254 10.7231H14.5023C14.5223 10.484 14.5327 10.2401 14.5327 9.98945C14.5327 8.64412 14.236 7.47259 13.6424 6.47391V6.47487Z" fill="#D72624"/>
<g filter="url(#filter0_f_1_111)">
<ellipse cx="8.57144" cy="5.30577" rx="4.09091" ry="3.40909" fill="url(#paint0_radial_1_111)"/>
</g>
<path d="M6.89062 2.113V4.35023V7.23456C6.89062 7.41422 7.09263 7.51973 7.24008 7.41707L10.6689 5.0299C10.791 4.9449 10.7968 4.76629 10.6805 4.67352L7.25167 1.93913C7.106 1.82296 6.89062 1.92668 6.89062 2.113Z" fill="#D72624"/>
<path d="M9.99275 10.724C9.91475 11.7457 9.65222 12.5255 9.20514 13.0632C8.6639 13.7056 8.01421 14.0264 7.25799 14.0264C6.76811 14.0264 6.31627 13.8833 5.90344 13.5971C5.49917 13.311 5.18146 12.8683 4.94937 12.2691C4.71727 11.6699 4.60122 10.9151 4.60122 10.0038C4.60122 9.0925 4.71727 8.38959 4.94937 7.81631C5.19002 7.24303 5.52581 6.80899 5.95576 6.51418C6.37335 6.22802 6.81852 6.0811 7.29318 6.07342V3.21951C7.29318 3.21951 7.28747 3.21951 7.28462 3.21951C5.86635 3.21951 4.60597 3.51911 3.50541 4.11832C2.40484 4.70888 1.56206 5.49438 0.978005 6.47481C0.401563 7.45525 0.113342 8.62677 0.113342 9.98939C0.113342 12.0636 0.749711 13.7085 2.02245 14.9242C3.33799 16.2004 5.10917 16.838 7.33599 16.838C9.5628 16.838 11.2655 16.2042 12.5725 14.9367C13.7187 13.8257 14.3617 12.4208 14.5025 10.723H9.99275V10.724Z" fill="#D72624"/>
<path d="M46.1418 11.6282L47.9087 13.4079C46.8941 14.5686 45.8581 15.4112 44.8006 15.9357C43.7516 16.4516 42.6167 16.7095 41.3958 16.7095C39.4355 16.7095 37.7848 16.0475 36.4435 14.7234C35.1023 13.3907 34.4316 11.783 34.4316 9.90004C34.4316 8.66196 34.7326 7.53135 35.3344 6.50822C35.9362 5.47648 36.7702 4.67259 37.8364 4.09654C38.9025 3.51189 40.1105 3.21957 41.4603 3.21957C42.3201 3.21957 43.1025 3.34423 43.8075 3.59357C44.5125 3.84291 45.1273 4.19971 45.6517 4.66399C46.1848 5.12827 46.6104 5.69143 46.9285 6.35346C47.2552 7.00689 47.4788 7.68611 47.5991 8.39113C47.6507 8.74364 47.6765 9.3025 47.6765 10.0677H38.9971C39.0143 11.1596 39.3324 12.0452 39.9514 12.7244C40.5791 13.395 41.3443 13.7304 42.247 13.7304C42.8231 13.7304 43.4507 13.5584 44.1299 13.2145C44.8092 12.862 45.4798 12.3332 46.1418 11.6282ZM43.5625 7.90106C43.5023 7.38519 43.3776 6.9811 43.1885 6.68877C43.0079 6.38785 42.7586 6.15141 42.4405 5.97945C42.131 5.7989 41.8042 5.70862 41.4603 5.70862C41.0992 5.70862 40.751 5.7989 40.4157 5.97945C40.0804 6.16001 39.8096 6.40504 39.6032 6.71456C39.4055 7.02408 39.2765 7.41958 39.2163 7.90106H43.5625Z" fill="#D72624"/>
<path d="M22.2312 3.21951V4.93476C23.2027 4.27273 24.0324 3.82135 24.7202 3.58061C25.4167 3.33987 26.126 3.21951 26.8482 3.21951C27.6822 3.21951 28.4173 3.39576 29.0535 3.74827C29.6983 4.10078 30.1669 4.54356 30.4593 5.07663C30.7516 5.60109 30.8977 6.3491 30.8977 7.32065V12.6857C30.8977 13.1413 30.9278 13.4337 30.988 13.5626C31.0568 13.6916 31.16 13.7862 31.2975 13.8464C31.4007 13.8894 31.7102 13.9108 32.2261 13.9108H32.858V16.3999H25.2877V13.9108C25.8637 13.9022 26.1862 13.8893 26.2549 13.8722C26.4699 13.812 26.6117 13.7131 26.6805 13.5755C26.7493 13.438 26.7837 13.1413 26.7837 12.6857V7.95258C26.7837 7.34214 26.7192 6.94664 26.5903 6.76609C26.3839 6.46517 26.0572 6.31471 25.6101 6.31471C25.2404 6.31471 24.8449 6.39639 24.4236 6.55974C24.0023 6.7231 23.4349 7.05841 22.7213 7.56568V12.6857C22.7213 13.2445 22.7814 13.5884 22.9018 13.7174C23.0222 13.8464 23.3102 13.9108 23.7659 13.9108H24.1786V16.3999H16.6856V13.9108H17.0596C17.6529 13.9108 18.0183 13.8851 18.1558 13.8335C18.302 13.7819 18.4095 13.6916 18.4782 13.5626C18.5556 13.4337 18.5943 13.18 18.5943 12.8017V6.79188H16.6856V4.30283C18.2332 4.11367 19.6819 3.75257 21.0318 3.21951H22.2312Z" fill="#D72624"/>
<path d="M7.41493 8.94293L15.8984 10.354M7.41493 8.94293L14.2839 3.22308M7.41493 8.94293L15.3819 4.85729M7.41493 8.94293L16.0416 6.61489M7.41493 8.94293L16.1108 8.43689" stroke="white" stroke-width="0.111194"/>
<defs>
<filter id="filter0_f_1_111" x="2.2078" y="-0.376052" width="12.7273" height="11.3636" filterUnits="userSpaceOnUse" color-interpolation-filters="sRGB">
<feFlood flood-opacity="0" result="BackgroundImageFix"/>
<feBlend mode="normal" in="SourceGraphic" in2="BackgroundImageFix" result="shape"/>
<feGaussianBlur stdDeviation="1.13636" result="effect1_foregroundBlur_1_111"/>
</filter>
<radialGradient id="paint0_radial_1_111" cx="0" cy="0" r="1" gradientUnits="userSpaceOnUse" gradientTransform="translate(8.57144 5.30577) rotate(90) scale(3.40909 4.09091)">
<stop stop-color="white"/>
<stop offset="1" stop-color="white"/>
</radialGradient>
</defs>
</svg>
