<svg width="60" height="20" viewBox="0 0 60 20" fill="none" xmlns="http://www.w3.org/2000/svg">
<g clip-path="url(#clip0_1_110)">
<rect width="59.2582" height="20" rx="10" fill="white"/>
<path d="M19.3567 6.47487C18.7717 5.46755 17.9337 4.67341 16.8416 4.09245C15.7515 3.51149 14.4741 3.22053 13.0073 3.21957V6.07252C13.0215 6.07252 13.0358 6.0706 13.0501 6.0706C13.8329 6.0706 14.4731 6.40477 14.9715 7.07312C15.4785 7.73282 15.7325 8.7219 15.7325 10.0413C15.7325 10.2795 15.724 10.5061 15.7068 10.7231H20.2166C20.2366 10.484 20.247 10.2401 20.247 9.98945C20.247 8.64412 19.9502 7.47259 19.3567 6.47391V6.47487Z" fill="#D72624"/>
<g filter="url(#filter0_f_1_110)">
<ellipse cx="14.2857" cy="5.30577" rx="4.09091" ry="3.40909" fill="url(#paint0_radial_1_110)"/>
</g>
<path d="M12.6049 2.113V4.35023V7.23456C12.6049 7.41422 12.8069 7.51973 12.9544 7.41707L16.3832 5.0299C16.5053 4.9449 16.5111 4.76629 16.3948 4.67352L12.966 1.93913C12.8203 1.82296 12.6049 1.92668 12.6049 2.113Z" fill="#D72624"/>
<path d="M15.707 10.724C15.629 11.7457 15.3665 12.5255 14.9194 13.0632C14.3782 13.7056 13.7285 14.0264 12.9723 14.0264C12.4824 14.0264 12.0306 13.8833 11.6177 13.5971C11.2135 13.311 10.8958 12.8683 10.6637 12.2691C10.4316 11.6699 10.3155 10.9151 10.3155 10.0038C10.3155 9.0925 10.4316 8.38959 10.6637 7.81631C10.9043 7.24303 11.2401 6.80899 11.6701 6.51418C12.0876 6.22802 12.5328 6.0811 13.0075 6.07342V3.21951C13.0075 3.21951 13.0018 3.21951 12.9989 3.21951C11.5806 3.21951 10.3203 3.51911 9.2197 4.11832C8.11914 4.70888 7.27635 5.49438 6.6923 6.47481C6.11586 7.45525 5.82764 8.62677 5.82764 9.98939C5.82764 12.0636 6.46401 13.7085 7.73674 14.9242C9.05229 16.2004 10.8235 16.838 13.0503 16.838C15.2771 16.838 16.9798 16.2042 18.2868 14.9367C19.433 13.8257 20.076 12.4208 20.2168 10.723H15.707V10.724Z" fill="#D72624"/>
<path d="M51.8561 11.6282L53.623 13.4079C52.6084 14.5686 51.5724 15.4112 50.5149 15.9357C49.4659 16.4516 48.331 16.7095 47.1101 16.7095C45.1498 16.7095 43.4991 16.0475 42.1578 14.7234C40.8166 13.3907 40.1459 11.783 40.1459 9.90004C40.1459 8.66196 40.4469 7.53135 41.0487 6.50822C41.6505 5.47648 42.4845 4.67259 43.5507 4.09654C44.6168 3.51189 45.8248 3.21957 47.1746 3.21957C48.0344 3.21957 48.8168 3.34423 49.5218 3.59357C50.2268 3.84291 50.8416 4.19971 51.366 4.66399C51.8991 5.12827 52.3247 5.69143 52.6428 6.35346C52.9695 7.00689 53.1931 7.68611 53.3134 8.39113C53.365 8.74364 53.3908 9.3025 53.3908 10.0677H44.7114C44.7285 11.1596 45.0467 12.0452 45.6657 12.7244C46.2933 13.395 47.0585 13.7304 47.9613 13.7304C48.5374 13.7304 49.165 13.5584 49.8442 13.2145C50.5235 12.862 51.1941 12.3332 51.8561 11.6282ZM49.2768 7.90106C49.2166 7.38519 49.0919 6.9811 48.9028 6.68877C48.7222 6.38785 48.4729 6.15141 48.1548 5.97945C47.8452 5.7989 47.5185 5.70862 47.1746 5.70862C46.8135 5.70862 46.4653 5.7989 46.13 5.97945C45.7947 6.16001 45.5238 6.40504 45.3175 6.71456C45.1198 7.02408 44.9908 7.41958 44.9306 7.90106H49.2768Z" fill="#D72624"/>
<path d="M27.9455 3.21951V4.93476C28.917 4.27273 29.7467 3.82135 30.4345 3.58061C31.1309 3.33987 31.8403 3.21951 32.5625 3.21951C33.3965 3.21951 34.1316 3.39576 34.7678 3.74827C35.4126 4.10078 35.8812 4.54356 36.1735 5.07663C36.4659 5.60109 36.612 6.3491 36.612 7.32065V12.6857C36.612 13.1413 36.6421 13.4337 36.7023 13.5626C36.7711 13.6916 36.8743 13.7862 37.0118 13.8464C37.115 13.8894 37.4245 13.9108 37.9404 13.9108H38.5723V16.3999H31.002V13.9108C31.578 13.9022 31.9004 13.8893 31.9692 13.8722C32.1842 13.812 32.326 13.7131 32.3948 13.5755C32.4636 13.438 32.498 13.1413 32.498 12.6857V7.95258C32.498 7.34214 32.4335 6.94664 32.3045 6.76609C32.0982 6.46517 31.7715 6.31471 31.3244 6.31471C30.9547 6.31471 30.5592 6.39639 30.1379 6.55974C29.7166 6.7231 29.1492 7.05841 28.4355 7.56568V12.6857C28.4355 13.2445 28.4957 13.5884 28.6161 13.7174C28.7365 13.8464 29.0245 13.9108 29.4802 13.9108H29.8929V16.3999H22.3999V13.9108H22.7739C23.3672 13.9108 23.7326 13.8851 23.8701 13.8335C24.0163 13.7819 24.1238 13.6916 24.1925 13.5626C24.2699 13.4337 24.3086 13.18 24.3086 12.8017V6.79188H22.3999V4.30283C23.9475 4.11367 25.3962 3.75257 26.7461 3.21951H27.9455Z" fill="#D72624"/>
<path d="M13.1292 8.94293L21.6127 10.354M13.1292 8.94293L19.9982 3.22308M13.1292 8.94293L21.0962 4.85729M13.1292 8.94293L21.7559 6.61489M13.1292 8.94293L21.8251 8.43689" stroke="white" stroke-width="0.111194"/>
</g>
<rect x="0.204082" y="0.204082" width="58.8501" height="19.5918" rx="9.79592" stroke="#D72624" stroke-width="0.408163"/>
<defs>
<filter id="filter0_f_1_110" x="7.9221" y="-0.376052" width="12.7273" height="11.3636" filterUnits="userSpaceOnUse" color-interpolation-filters="sRGB">
<feFlood flood-opacity="0" result="BackgroundImageFix"/>
<feBlend mode="normal" in="SourceGraphic" in2="BackgroundImageFix" result="shape"/>
<feGaussianBlur stdDeviation="1.13636" result="effect1_foregroundBlur_1_110"/>
</filter>
<radialGradient id="paint0_radial_1_110" cx="0" cy="0" r="1" gradientUnits="userSpaceOnUse" gradientTransform="translate(14.2857 5.30577) rotate(90) scale(3.40909 4.09091)">
<stop stop-color="white"/>
<stop offset="1" stop-color="white"/>
</radialGradient>
<clipPath id="clip0_1_110">
<rect width="59.2582" height="20" rx="10" fill="white"/>
</clipPath>
</defs>
</svg>
