<svg width="997" height="116" viewBox="0 0 997 116" fill="none" xmlns="http://www.w3.org/2000/svg">
<path d="M107.288 50.0237V44.0669C107.288 42.4898 106.593 41.0108 105.384 40.0221C100.326 35.8629 94.8758 32.9948 93.1598 32.1287V24.6356C94.263 23.7041 94.9085 22.3231 94.9085 20.8605V12.1663C94.9085 7.27983 90.9291 3.30859 86.0508 3.30859H84.1796C79.2932 3.30859 75.322 7.288 75.322 12.1663V20.8605C75.2974 22.3231 75.943 23.6959 77.0461 24.6356V32.1287C75.3301 32.9866 69.8799 35.8711 64.8219 40.0221C63.6044 41.0108 62.918 42.4898 62.918 44.0669V50.0237" stroke="#D52B1E" stroke-width="2" stroke-linecap="round" stroke-linejoin="round"/>
<path d="M76.9885 30.2901C74.9457 28.7865 72.9846 27.757 72.2982 27.4056V23.8429C72.8211 23.4017 73.1316 22.7398 73.1316 22.0452V17.9024C73.1316 15.5736 71.2359 13.686 68.9153 13.686H68.0246C65.6958 13.686 63.8082 15.5818 63.8082 17.9024V22.0452C63.8 22.7398 64.1024 23.3935 64.6253 23.8429V27.4056C63.8082 27.8142 61.2179 29.1869 58.8074 31.1644C58.2272 31.6383 57.9004 32.341 57.9004 33.0928V35.9282" stroke="#4D4E4E" stroke-width="2" stroke-linecap="round" stroke-linejoin="round"/>
<path d="M93.6992 30.2901C95.742 28.7865 97.7031 27.757 98.3895 27.4056V23.8429C97.8666 23.4017 97.5561 22.7398 97.5561 22.0452V17.9024C97.5561 15.5736 99.4518 13.686 101.772 13.686H102.663C104.992 13.686 106.879 15.5818 106.879 17.9024V22.0452C106.888 22.7398 106.585 23.3935 106.062 23.8429V27.4056C106.879 27.8142 109.47 29.1869 111.88 31.1644C112.46 31.6383 112.787 32.341 112.787 33.0928V35.9282" stroke="#4D4E4E" stroke-width="2" stroke-linecap="round" stroke-linejoin="round"/>
<path d="M8.66504 83.5H2.39941V82.4219H4.85254V74.3281H2.39941V73.375C3.35775 73.3698 4.04264 73.2344 4.4541 72.9688C4.86556 72.6979 5.09733 72.2708 5.14941 71.6875H6.25879V82.4219H8.66504V83.5ZM19.2744 83.5H11.3994V81.9766C12.2327 81.2578 13.1676 80.4219 14.2041 79.4688C15.2458 78.5156 16.0192 77.6771 16.5244 76.9531C17.0296 76.2292 17.2822 75.5052 17.2822 74.7812C17.2822 74.1406 17.0687 73.6406 16.6416 73.2812C16.2197 72.9219 15.6442 72.7422 14.915 72.7422C13.8473 72.7422 12.7979 73.0807 11.7666 73.7578H11.6885V72.2344C12.7406 71.7344 13.8291 71.4844 14.9541 71.4844C16.1416 71.4844 17.0765 71.7734 17.7588 72.3516C18.4411 72.9245 18.7822 73.7083 18.7822 74.7031C18.7822 75.2344 18.6937 75.7422 18.5166 76.2266C18.3447 76.7109 18.0739 77.1823 17.7041 77.6406C17.3343 78.099 16.8916 78.5859 16.376 79.1016C15.8604 79.6172 14.6755 80.6641 12.8213 82.2422H19.2744V83.5ZM21.54 83.0547V81.4922H21.665C22.6807 82.1536 23.738 82.4844 24.8369 82.4844C25.6807 82.4844 26.3551 82.2448 26.8604 81.7656C27.3708 81.2812 27.626 80.6146 27.626 79.7656C27.626 78.224 26.5687 77.4531 24.4541 77.4531C23.8499 77.4531 23.0479 77.5573 22.0479 77.7656V71.7266H29.04V72.9922H23.4541V76.3281C24.1416 76.2604 24.6051 76.2266 24.8447 76.2266C26.2458 76.2266 27.3083 76.5286 28.0322 77.1328C28.7562 77.737 29.1182 78.6172 29.1182 79.7734C29.1182 80.9401 28.7249 81.8932 27.9385 82.6328C27.1572 83.3724 26.1338 83.7422 24.8682 83.7422C23.639 83.7422 22.5296 83.513 21.54 83.0547ZM35.626 72.2656C35.626 72.7344 35.5999 73.2682 35.5479 73.8672H38.5479C39.2874 73.8672 39.8656 74.1328 40.2822 74.6641C40.7041 75.1901 40.9176 75.8802 40.9229 76.7344C40.9176 78.8385 40.6937 80.5807 40.251 81.9609C39.8083 83.3359 39.0322 84.0234 37.9229 84.0234C37.277 84.0234 36.3708 83.7161 35.2041 83.1016L35.5947 82.1094C35.8656 82.2396 36.2536 82.388 36.7588 82.5547C37.264 82.7214 37.6104 82.8047 37.7979 82.8047C38.2145 82.8047 38.5479 82.5885 38.7979 82.1562C39.0531 81.7188 39.264 81.0833 39.4307 80.25C39.6025 79.4167 39.6885 78.4219 39.6885 77.2656C39.6885 76.2344 39.5505 75.5807 39.2744 75.3047C38.9984 75.0286 38.6286 74.8906 38.165 74.8906H35.4463C35.238 76.2188 35.0114 77.3568 34.7666 78.3047C34.5218 79.2526 34.1338 80.2474 33.6025 81.2891C33.0765 82.3307 32.4385 83.2708 31.6885 84.1094L30.8057 83.4688C31.488 82.6667 32.1624 81.5521 32.8291 80.125C33.501 78.6927 33.9515 77.0026 34.1807 75.0547H31.126V74.0078H34.3057C34.3421 73.6432 34.3604 72.5938 34.3604 70.8594H35.626V72.2656ZM45.8447 78.5859L44.6338 78.9062C43.9202 76.2969 42.8838 74.2656 41.5244 72.8125L42.4385 72.1875C43.1572 72.9219 43.8421 73.9062 44.4932 75.1406C45.1494 76.3698 45.5999 77.5182 45.8447 78.5859ZM59.665 83.7812H48.4697V84.4375H47.3291V70.7734H60.8135V84.4062H59.665V83.7812ZM48.4697 82.8672H59.665V71.6562H48.4697V82.8672ZM49.5479 81.4141V80.5H53.3525V77.3047H50.2666V76.4531H53.3525V74.0391H49.8291V73.1719H58.3604V74.0391H54.54V76.4531H57.8916V77.3047H54.54V80.5H58.7041V81.4141H49.5479ZM56.7275 80.1094C56.4723 79.6302 56.0661 79.0104 55.5088 78.25L56.3682 77.8125C56.6859 78.2135 57.1286 78.8151 57.6963 79.6172L56.7275 80.1094ZM29.8438 107.82L29.5391 106.766C31.2161 106.615 32.6484 106.128 33.8359 105.305C35.0286 104.482 35.625 103.253 35.625 101.617C35.625 100.159 35.1432 99.0312 34.1797 98.2344C33.2214 97.4375 31.8828 97.0156 30.1641 96.9688C30.1068 99.7708 29.6042 102.109 28.6562 103.984C27.7083 105.859 26.5208 106.797 25.0938 106.797C24.2083 106.797 23.5104 106.422 23 105.672C22.4948 104.917 22.2422 103.997 22.2422 102.914C22.2422 101.128 23.013 99.5234 24.5547 98.1016C26.0964 96.6745 27.9219 95.9609 30.0312 95.9609C32.0156 95.9609 33.651 96.4583 34.9375 97.4531C36.224 98.4427 36.8672 99.7969 36.8672 101.516C36.8672 103.474 36.2188 104.971 34.9219 106.008C33.625 107.044 31.9323 107.648 29.8438 107.82ZM28.9375 97.0703C27.4271 97.2995 26.1276 97.9844 25.0391 99.125C23.9505 100.26 23.4062 101.544 23.4062 102.977C23.4062 103.737 23.5651 104.383 23.8828 104.914C24.2005 105.44 24.6432 105.703 25.2109 105.703C26.1849 105.703 27.0339 104.794 27.7578 102.977C28.4818 101.154 28.875 99.1849 28.9375 97.0703ZM44.5625 108.523L43.7578 107.875C44.4557 107.104 45.0078 106.154 45.4141 105.023C45.8255 103.888 46.0495 102.706 46.0859 101.477H44.3281V100.578H46.0938V96.0547H44.6719V95.0781H52.8047V96.0547H51.3984V100.578H52.8203V101.477H51.3984V108.312H50.2031V101.477H47.2578C47.1432 104.466 46.2448 106.815 44.5625 108.523ZM47.2656 96.0547V100.578H50.2031V96.0547H47.2656ZM40.5781 106.406V107.484H39.5V101.453C39.099 102.188 38.6901 102.81 38.2734 103.32L37.6094 102.812C39.0521 100.667 39.9297 98.4036 40.2422 96.0234H38.2578V95.125H43.8281V96.0234H41.3672C41.1849 97.1484 40.8984 98.2318 40.5078 99.2734H43.4141V106.406H40.5781ZM42.3203 100.102H40.5469V105.555H42.3203V100.102ZM62.0391 96.5625H59.9922C59.7786 98.7031 58.1589 100.052 55.1328 100.609L54.8281 99.7734C57.3438 99.3047 58.6849 98.2344 58.8516 96.5625H55.5312V97.9141H54.4375V95.6484H60.75V94.2422H61.9922V95.6484H68.5V97.7969H67.4062V96.5625H63.1328V98.7969C63.1328 98.9479 63.1745 99.0703 63.2578 99.1641C63.3411 99.2578 63.4531 99.3229 63.5938 99.3594C63.7344 99.3958 63.9661 99.4141 64.2891 99.4141C64.4766 99.4141 64.7474 99.4115 65.1016 99.4062C65.4609 99.401 65.7031 99.3854 65.8281 99.3594C65.9583 99.3281 66.0677 99.276 66.1562 99.2031C66.25 99.1302 66.3151 99.026 66.3516 98.8906C66.3932 98.7552 66.4141 98.4401 66.4141 97.9453L67.2969 98.0625V99.1016C67.2969 99.4453 67.1927 99.7109 66.9844 99.8984C66.776 100.086 66.4922 100.195 66.1328 100.227C65.7786 100.258 65.1589 100.273 64.2734 100.273C63.9661 100.273 63.6328 100.268 63.2734 100.258C62.9141 100.247 62.6172 100.13 62.3828 99.9062C62.1536 99.6823 62.0391 99.4141 62.0391 99.1016V96.5625ZM54.5625 108.539L54.1875 107.625C57.0573 107 58.6589 105.448 58.9922 102.969H55.0703V102.039H59.0391V100.211H60.2734V102.039H65.1094V106.625C65.1094 106.786 65.1458 106.917 65.2188 107.016C65.2969 107.115 65.401 107.182 65.5312 107.219C65.6615 107.25 65.8828 107.266 66.1953 107.266C66.638 107.266 66.9036 107.258 66.9922 107.242C67.0807 107.227 67.1979 107.167 67.3438 107.062C67.4896 106.953 67.5859 106.729 67.6328 106.391C67.6797 106.047 67.7031 105.5 67.7031 104.75L68.7109 104.883V106.938C68.7109 107.344 68.5703 107.669 68.2891 107.914C68.013 108.159 67.3333 108.281 66.25 108.281C65.1979 108.281 64.5339 108.167 64.2578 107.938C63.987 107.714 63.8516 107.396 63.8516 106.984V102.969H60.2422C59.9609 105.917 58.0677 107.773 54.5625 108.539ZM81.9609 107.805H74.3828V108.422H73.1641V102.5C72.3568 102.854 71.4193 103.214 70.3516 103.578L69.9297 102.633C72.3411 101.805 74.7188 100.711 77.0625 99.3516H70.4844V98.4062H75.5469V96.5078H71.3359V95.5312H75.5469V94.1641H76.8203V95.5312H80.6172V96.5078H76.8203V98.4062H78.6016C80.5859 97.1198 82.0755 95.8958 83.0703 94.7344L84.1641 95.3516C83.3724 96.1797 82.2188 97.1536 80.7031 98.2734L80.5234 98.4062H84.8438V99.3516H78.9453C77.8411 100.034 76.8411 100.609 75.9453 101.078H83.1953V108.422H81.9609V107.805ZM81.9609 103.82V101.992H74.3828V103.82H81.9609ZM74.3828 106.828H81.9609V104.773H74.3828V106.828ZM93.5312 106.039C91.3802 107.305 89.1016 108.115 86.6953 108.469L86.3203 107.523C88.4297 107.159 90.4792 106.432 92.4688 105.344C90.8958 104.177 89.6406 102.76 88.7031 101.094L89.7266 100.656C90.6536 102.281 91.9245 103.63 93.5391 104.703C95.4974 103.406 96.7839 102.023 97.3984 100.555H87.4922V99.6094H92.7031V97.2578H86.2891V96.2812H92.7031V94.3047H93.9766V96.2812H100.68V97.2578H93.9766V99.6094H98.7422L99.1016 99.9531C98.2995 101.99 96.8047 103.784 94.6172 105.336C95.1797 105.648 95.7109 105.909 96.2109 106.117C96.7109 106.32 97.3438 106.529 98.1094 106.742C98.875 106.956 99.7005 107.141 100.586 107.297L100.031 108.375C97.5781 107.932 95.4115 107.154 93.5312 106.039ZM102.047 103.266L101.766 102.258C102.286 102.133 103 101.914 103.906 101.602V98.2734H102.164V97.3125H103.906V94.2734H105.117V97.3125H106.602V98.2734H105.117V101.172C105.581 100.995 106.005 100.828 106.391 100.672L106.586 101.57C106.289 101.716 105.799 101.922 105.117 102.188V107.312C105.117 108.062 104.698 108.438 103.859 108.438H102.289L102.125 107.398H103.32C103.711 107.398 103.906 107.234 103.906 106.906V102.641C103.219 102.885 102.599 103.094 102.047 103.266ZM107.352 95.9688L107.219 95.0391C110.839 94.9661 113.68 94.7109 115.742 94.2734L116.102 95.25C113.654 95.6615 110.737 95.901 107.352 95.9688ZM109.5 104.258C108.677 106.008 107.677 107.331 106.5 108.227L105.883 107.555C107.544 106.039 108.661 104.094 109.234 101.719H107.125V100.703H109.43C109.492 100.281 109.531 99.862 109.547 99.4453H107.336V98.5H108.672L108.055 96.5391L109.047 96.2969L109.727 98.5H111.5L110.859 96.3594L111.867 96.1641L112.578 98.5H113.703C114.255 97.401 114.641 96.5208 114.859 95.8594L116 96.2031C115.755 96.7188 115.362 97.4844 114.82 98.5H116.195V99.4453H110.734C110.714 99.862 110.669 100.281 110.602 100.703H116.602V101.719H110.398C110.305 102.125 110.19 102.521 110.055 102.906H115.742L116.062 103.266C115.411 104.604 114.526 105.688 113.406 106.516C114.396 107.005 115.521 107.359 116.781 107.578L116.227 108.508C114.841 108.201 113.604 107.732 112.516 107.102C111.307 107.794 109.956 108.268 108.461 108.523L108.18 107.703C109.576 107.422 110.727 107.029 111.633 106.523C110.711 105.846 110 105.091 109.5 104.258ZM112.477 105.977C113.388 105.305 114.039 104.591 114.43 103.836H110.359C110.88 104.659 111.586 105.372 112.477 105.977ZM131.297 98.0078V96.3125H119.609V98.0078H118.5V95.4141H124.703V94.1406H125.961V95.4141H132.453V98.0078H131.297ZM124.703 103.156V101.586H119.531V100.656H124.703V99.1562H119.789V98.1875H124.703V97.1641H125.992V98.1875H131.133V99.1562H125.992V100.656H131.438V101.586H125.992V103.156H132.68V104.117H126.5C127.823 105.711 129.901 106.826 132.734 107.461L132.195 108.523C130.852 108.284 129.557 107.797 128.312 107.062C127.068 106.328 126.122 105.505 125.477 104.594C124.878 105.573 123.969 106.417 122.75 107.125C121.531 107.833 120.141 108.32 118.578 108.586L118.188 107.641C119.948 107.292 121.341 106.758 122.367 106.039C123.398 105.32 124.068 104.68 124.375 104.117H118.352V103.156H124.703ZM136.453 108.523V101.758L134.234 101.914L134.086 101.031L135.016 101.008C135.49 100.357 135.922 99.7396 136.312 99.1562L134.219 97.0312L134.875 96.3125L135.172 96.6172C135.656 95.8516 136.122 95 136.57 94.0625L137.617 94.4219C136.914 95.599 136.307 96.5417 135.797 97.25C136.286 97.75 136.633 98.1146 136.836 98.3438C137.466 97.3594 137.911 96.5964 138.172 96.0547L139.234 96.5078C138.193 98.1484 137.148 99.6354 136.102 100.969C137.112 100.922 137.904 100.875 138.477 100.828L138.07 99.6094L138.969 99.3828C139.245 100.128 139.505 100.951 139.75 101.852L138.852 102.094L138.695 101.539C138.372 101.586 137.99 101.63 137.547 101.672V108.523H136.453ZM139.703 99.3047V98.5H143.641V97.5547H140.359V96.7578H143.641V95.8281H140V94.9766H143.641V94.1641H144.781V94.9766H148.531V95.8281H144.781V96.7578H148.078V97.5547H144.781V98.5H148.859V99.3047H139.703ZM140.359 106.219V100.203H148.109V106.219H140.359ZM141.484 101.898H146.984V100.922H141.484V101.898ZM141.484 103.609H146.984V102.617H141.484V103.609ZM146.984 104.328H141.484V105.422H146.984V104.328ZM138.695 105.703C138.674 105.609 138.536 104.711 138.281 103.008L139.18 102.891C139.284 103.568 139.443 104.456 139.656 105.555L138.695 105.703ZM134.891 107.008L133.992 106.797C134.388 105.396 134.599 104.143 134.625 103.039L135.625 103.07C135.365 105.138 135.12 106.451 134.891 107.008ZM148.5 108.492C147.276 108.091 146.193 107.607 145.25 107.039L145.891 106.336C146.891 106.872 147.961 107.302 149.102 107.625L148.5 108.492ZM139.492 108.492L139.07 107.672C140.419 107.281 141.513 106.841 142.352 106.352L143.102 107.133C142.034 107.753 140.831 108.206 139.492 108.492Z" fill="black"/>
<path d="M73.4453 83.5H63.4609V81.417C65.9863 79.4951 67.6826 78.0127 68.5498 76.9697C69.4229 75.9268 69.8594 75.001 69.8594 74.1924C69.8594 73.5479 69.6484 73.0498 69.2266 72.6982C68.8105 72.3408 68.2363 72.1621 67.5039 72.1621C66.3906 72.1621 65.2305 72.5576 64.0234 73.3486H63.8037V70.8262C65.2568 70.2695 66.6426 69.9912 67.9609 69.9912C69.5254 69.9912 70.7295 70.334 71.5732 71.0195C72.4229 71.6992 72.8477 72.6543 72.8477 73.8848C72.8477 74.834 72.502 75.8389 71.8105 76.8994C71.125 77.9541 69.5254 79.4424 67.0117 81.3643H73.4453V83.5ZM80.4062 83.7812C78.6074 83.7812 77.2861 83.2363 76.4424 82.1465C75.6045 81.0508 75.1855 79.2959 75.1855 76.8818C75.1855 74.4912 75.6074 72.7451 76.4512 71.6436C77.2949 70.542 78.6133 69.9912 80.4062 69.9912C82.1992 69.9912 83.5176 70.542 84.3613 71.6436C85.2051 72.7393 85.627 74.4824 85.627 76.873C85.627 79.3047 85.208 81.0654 84.3701 82.1553C83.5322 83.2393 82.2109 83.7812 80.4062 83.7812ZM80.4062 72.0391C79.5859 72.0391 78.9971 72.4258 78.6396 73.1992C78.2881 73.9668 78.1123 75.1973 78.1123 76.8906C78.1123 78.5781 78.2939 79.8086 78.6572 80.582C79.0205 81.3555 79.6035 81.7422 80.4062 81.7422C81.209 81.7422 81.792 81.3496 82.1553 80.5645C82.5186 79.7793 82.7002 78.5488 82.7002 76.873C82.7002 75.1855 82.5215 73.958 82.1641 73.1904C81.8125 72.4229 81.2266 72.0391 80.4062 72.0391ZM92.5879 83.7812C90.7891 83.7812 89.4678 83.2363 88.624 82.1465C87.7861 81.0508 87.3672 79.2959 87.3672 76.8818C87.3672 74.4912 87.7891 72.7451 88.6328 71.6436C89.4766 70.542 90.7949 69.9912 92.5879 69.9912C94.3809 69.9912 95.6992 70.542 96.543 71.6436C97.3867 72.7393 97.8086 74.4824 97.8086 76.873C97.8086 79.3047 97.3896 81.0654 96.5518 82.1553C95.7139 83.2393 94.3926 83.7812 92.5879 83.7812ZM92.5879 72.0391C91.7676 72.0391 91.1787 72.4258 90.8213 73.1992C90.4697 73.9668 90.2939 75.1973 90.2939 76.8906C90.2939 78.5781 90.4756 79.8086 90.8389 80.582C91.2021 81.3555 91.7852 81.7422 92.5879 81.7422C93.3906 81.7422 93.9736 81.3496 94.3369 80.5645C94.7002 79.7793 94.8818 78.5488 94.8818 76.873C94.8818 75.1855 94.7031 73.958 94.3457 73.1904C93.9941 72.4229 93.4082 72.0391 92.5879 72.0391ZM106.404 71.5293C106.404 72.543 106.398 73.3193 106.387 73.8584H114.499C114.499 75.9795 114.452 77.7227 114.358 79.0879C114.265 80.4473 114.118 81.4463 113.919 82.085C113.72 82.7178 113.345 83.2158 112.794 83.5791C112.243 83.9482 111.54 84.1328 110.685 84.1328H107.916L107.556 81.8301H110.254C110.922 81.8301 111.373 81.4814 111.607 80.7842C111.842 80.0811 111.959 78.4375 111.959 75.8535H106.299C106.035 77.8398 105.414 79.5244 104.436 80.9072C103.463 82.2842 102.115 83.4268 100.393 84.335L99.0918 82.5508C100.592 81.6953 101.764 80.5996 102.607 79.2637C103.451 77.9277 103.873 76.1348 103.873 73.8848C103.873 73.7148 103.87 73.542 103.864 73.3662V71.5293H99.6543V69.4287H115.782V71.5293H106.404ZM125.863 78.0156C124.609 81.0039 122.131 83.1338 118.428 84.4053L117.347 82.4014C118.519 81.9912 119.523 81.502 120.361 80.9336C121.199 80.3652 121.876 79.7383 122.392 79.0527C122.913 78.3672 123.312 77.6699 123.587 76.9609C123.868 76.2461 124.041 75.5547 124.105 74.8867C124.176 74.2129 124.211 73.0322 124.211 71.3447L124.202 69.0332H126.812V73.4365C126.812 73.7471 126.918 74.2773 127.129 75.0273C127.346 75.7715 127.744 76.5889 128.324 77.4795C128.91 78.3701 129.704 79.2197 130.706 80.0283C131.708 80.8311 132.839 81.5049 134.099 82.0498L132.517 84.2559C130.935 83.5469 129.572 82.627 128.43 81.4961C127.287 80.3594 126.432 79.1992 125.863 78.0156ZM152.081 82.7266L150.227 84.5459C148.961 83.2568 147.897 81.9854 147.036 80.7314C145.542 82.4248 143.438 83.7139 140.726 84.5986L139.68 82.6035C141.514 82 143.02 81.1797 144.197 80.1426C145.381 79.0996 146.254 77.8047 146.816 76.2578C147.379 74.7051 147.66 72.6338 147.66 70.0439V68.8838H150.191V69.1738C150.191 73.293 149.635 76.4219 148.521 78.5605C149.553 80.2246 150.739 81.6133 152.081 82.7266ZM144.742 78.666C144.168 79.123 142.894 79.7998 140.919 80.6963C138.95 81.5869 137.283 82.2344 135.918 82.6387L135.18 80.3711C135.631 80.248 136.208 80.0664 136.911 79.8262V69.1387H139.451V78.8945C141.426 78.1094 142.984 77.3887 144.127 76.7324L144.742 78.666ZM145.929 74.667L143.679 75.9766C142.524 73.7441 141.385 71.8984 140.26 70.4395L142.325 69.3232C143.263 70.5068 144.464 72.2881 145.929 74.667ZM169.853 83.9219H153.558V81.6719H160.044V68.998H162.689V73.2783H168.534V75.4756H162.689V81.6719H169.853V83.9219Z" fill="#D52B1E"/>
<g clip-path="url(#paint0_diamond_1_476_clip_path)" data-figma-skip-parse="true"><g transform="matrix(0 0.057 -0.0005 0 230.5 58)"><rect x="0" y="0" width="inf" height="inf" fill="url(#paint0_diamond_1_476)" opacity="0.5" shape-rendering="crispEdges"/><rect x="0" y="0" width="inf" height="inf" transform="scale(1 -1)" fill="url(#paint0_diamond_1_476)" opacity="0.5" shape-rendering="crispEdges"/><rect x="0" y="0" width="inf" height="inf" transform="scale(-1 1)" fill="url(#paint0_diamond_1_476)" opacity="0.5" shape-rendering="crispEdges"/><rect x="0" y="0" width="inf" height="inf" transform="scale(-1)" fill="url(#paint0_diamond_1_476)" opacity="0.5" shape-rendering="crispEdges"/></g></g><path d="M231 1C231 0.447715 230.552 0 230 0C229.448 0 229 0.447715 229 1H230H231ZM229 115C229 115.552 229.448 116 230 116C230.552 116 231 115.552 231 115H230H229ZM230 1H229V115H230H231V1H230Z" data-figma-gradient-fill="{&#34;type&#34;:&#34;GRADIENT_DIAMOND&#34;,&#34;stops&#34;:[{&#34;color&#34;:{&#34;r&#34;:0.0,&#34;g&#34;:0.0,&#34;b&#34;:0.0,&#34;a&#34;:1.0},&#34;position&#34;:0.0},{&#34;color&#34;:{&#34;r&#34;:0.0,&#34;g&#34;:0.0,&#34;b&#34;:0.0,&#34;a&#34;:0.0},&#34;position&#34;:1.0}],&#34;stopsVar&#34;:[],&#34;transform&#34;:{&#34;m00&#34;:6.1232342629258393e-17,&#34;m01&#34;:-1.0,&#34;m02&#34;:231.0,&#34;m10&#34;:114.0,&#34;m11&#34;:6.9804870332656772e-15,&#34;m12&#34;:1.0},&#34;opacity&#34;:0.50,&#34;blendMode&#34;:&#34;NORMAL&#34;,&#34;visible&#34;:true}"/>
<g clip-path="url(#clip0_1_476)">
<path d="M399.931 50.8403V42.7352C399.931 41.7413 399.489 40.8359 398.738 40.2175C395.58 37.6336 392.179 35.8226 391.119 35.2926V30.6106C391.804 30.0364 392.201 29.1751 392.201 28.2475V22.8147C392.201 19.767 389.728 17.2935 386.68 17.2935H385.51C382.462 17.2935 379.988 19.767 379.988 22.8147V28.2475C379.988 29.153 380.386 30.0143 381.071 30.6106V35.2926C380.938 35.3588 379.966 35.8005 379.768 35.9109" stroke="#4E4E4E" stroke-width="2" stroke-miterlimit="10"/>
<path d="M386.614 51.7014L386.371 50.4426L384.582 43.6846C384.229 42.6246 382.175 35.2703 370.315 35.182V34.4753C370.315 34.0998 370.006 33.7906 369.631 33.7906C369.255 33.7906 368.946 34.0998 368.946 34.4753V35.8445C368.946 36.2641 368.813 39.9081 364.86 39.9081C360.907 39.9081 360.775 36.2421 360.775 35.8224V34.4532C360.775 34.0777 360.465 33.7686 360.09 33.7686C359.714 33.7686 359.405 34.0777 359.405 34.4532V35.1378C350.66 35.2041 346.243 40.5044 345.138 43.6184C345.138 43.6846 345.094 43.7509 345.094 43.7951L343.35 51.7456" stroke="#4E4E4E" stroke-width="2" stroke-miterlimit="10"/>
<path d="M349.136 5.85332L364.816 7.90721C364.816 7.90721 364.882 7.90721 364.905 7.90721C364.927 7.90721 364.971 7.90721 364.993 7.90721L379.9 5.96374V8.32682C379.48 8.81268 378.531 10.0053 378.531 11.3083C378.531 12.81 379.745 13.3622 380.585 13.3622C381.424 13.3622 382.639 12.81 382.639 11.3083C382.639 10.0053 381.711 8.7906 381.269 8.32682V5.16869C381.269 5.16869 381.269 4.99201 381.225 4.90367C381.225 4.88159 381.203 4.8595 381.181 4.83742C381.159 4.79325 381.137 4.74908 381.093 4.70491C381.071 4.68283 381.048 4.66074 381.004 4.63866C380.96 4.61657 380.938 4.5724 380.872 4.55032C380.828 4.55032 380.806 4.52823 380.761 4.50615C380.717 4.50615 380.695 4.48406 380.651 4.48406L364.971 2.43018C364.971 2.43018 364.86 2.43018 364.794 2.43018L349.114 4.48406C348.783 4.52823 348.518 4.81533 348.518 5.16869C348.518 5.52205 348.761 5.80915 349.114 5.85332H349.136Z" stroke="#D52D27" stroke-width="2" stroke-miterlimit="10"/>
<path d="M354.655 14.7095C354.28 14.7095 353.971 15.0187 353.971 15.3941V16.1892C353.176 16.4763 352.602 17.2271 352.602 18.1105V20.827C352.602 21.7766 353.264 22.5717 354.125 22.8146C354.501 23.8968 355.495 26.8119 356.069 27.9604C357.151 30.1247 360.221 33.7907 364.859 33.7907C369.496 33.7907 372.566 30.1247 373.648 27.9604C374.223 26.8119 375.238 23.8968 375.592 22.8146C376.475 22.5937 377.116 21.7766 377.116 20.827V18.1105C377.116 17.2271 376.541 16.4542 375.746 16.1892V15.3941C375.746 15.0187 375.437 14.7095 375.062 14.7095" stroke="#4E4E4E" stroke-width="2" stroke-miterlimit="10"/>
<path d="M353.971 7.90723V12.6775C353.971 12.9426 354.125 13.1634 354.346 13.2959C354.523 13.3843 358.653 15.4161 364.881 15.4161C371.109 15.4161 375.238 13.3843 375.415 13.2959C375.636 13.1855 375.79 12.9426 375.79 12.6775V7.90723" stroke="#D52D27" stroke-width="2" stroke-miterlimit="10"/>
<path d="M329.656 50.8401V42.735C329.656 41.7412 330.098 40.8357 330.849 40.2173C334.007 37.6334 337.408 35.8224 338.468 35.2924V30.6104C337.783 30.0362 337.386 29.1749 337.386 28.2473V22.8145C337.386 19.7668 339.859 17.2933 342.907 17.2933H344.078C347.125 17.2933 349.599 19.7668 349.599 22.8145V28.2473C349.599 29.1528 349.201 30.0141 348.517 30.6104V35.2924C348.649 35.3586 349.621 35.8003 349.82 35.9108" stroke="#4E4E4E" stroke-width="2" stroke-miterlimit="10"/>
</g>
<path d="M300.441 82.9287L298.499 84.3174C297.843 83.4912 297.002 82.5537 295.977 81.5049L296.618 81.0566H294.772V79.1846H303.104V78.4463H295.959V72.3291H300.134V71.6436H295.414V69.9297H300.134V68.5059H302.489V69.9297H303.878C303.626 69.6543 303.386 69.4082 303.157 69.1914L304.906 68.4707C305.176 68.7227 305.662 69.209 306.365 69.9297H307.262V71.6436H302.489V72.3291H306.682V78.4463H305.478V79.1846H307.587V81.0566H305.478V82.6387C305.478 83.1367 305.267 83.5469 304.845 83.8691C304.429 84.1914 303.951 84.3525 303.412 84.3525H301.048L300.767 82.2607H302.639C302.949 82.2607 303.104 82.1172 303.104 81.8301V81.0566H298.622C299.431 81.8418 300.037 82.4658 300.441 82.9287ZM302.489 74.667H304.379V73.8057H302.489V74.667ZM298.227 74.667H300.134V73.8057H298.227V74.667ZM300.134 75.8887H298.227V76.8643H300.134V75.8887ZM304.379 75.8887H302.489V76.8643H304.379V75.8887ZM294.263 84.4756H291.907V73.9639H290.448V72.1445H291.907V68.5059H294.263V72.1445H295.563V73.9639H294.263V84.4756ZM324.251 84.1328H309.564V81.9531H315.629V75.6338H308.809V73.4805H315.629V68.9277H318.239V73.4805H325.191V75.6338H318.239V81.9531H324.251V84.1328ZM341.39 74.1221H328.487V69.209H341.39V74.1221ZM338.999 72.4697V70.9229H330.878V72.4697H338.999ZM341.513 78.2266C341.513 79.5801 341.445 80.6816 341.311 81.5312C341.182 82.375 341.009 82.9609 340.792 83.2891C340.581 83.6113 340.3 83.8721 339.948 84.0713C339.603 84.2705 339.271 84.3906 338.955 84.4316C338.639 84.4727 337.824 84.4932 336.512 84.4932H335.29L334.965 82.3311H337.558C338.003 82.3311 338.328 82.1992 338.533 81.9355C338.744 81.666 338.867 81.0127 338.902 79.9756H330.948L330.737 80.8193H328.268L329.138 77.0225H326.615V75.2031H343.227V77.0225H331.651L331.379 78.2266H341.513Z" fill="#D52B1E"/>
<path d="M350.578 77.7891C350.578 77.3932 350.719 77.0547 351 76.7734C351.281 76.4922 351.62 76.3516 352.016 76.3516C352.411 76.3516 352.75 76.4922 353.031 76.7734C353.312 77.0547 353.453 77.3932 353.453 77.7891C353.453 78.1849 353.312 78.5234 353.031 78.8047C352.75 79.0859 352.411 79.2266 352.016 79.2266C351.62 79.2266 351.281 79.0859 351 78.8047C350.719 78.5234 350.578 78.1849 350.578 77.7891ZM374.117 72.5781C373.753 73.5885 373.073 74.4818 372.078 75.2578C372.984 75.7266 374.122 76.0938 375.492 76.3594L374.984 77.2578C373.516 76.9505 372.253 76.4844 371.195 75.8594C370.065 76.5052 368.648 76.9844 366.945 77.2969L366.648 76.4453C368.065 76.2266 369.294 75.8359 370.336 75.2734C369.487 74.6224 368.849 73.9193 368.422 73.1641C368.01 73.7266 367.615 74.1901 367.234 74.5547L366.422 74C366.901 73.4792 367.372 72.8464 367.836 72.1016C368.299 71.3568 368.628 70.6771 368.82 70.0625L370.039 70.2734C369.883 70.7005 369.664 71.1641 369.383 71.6641H375.164V72.5781H374.117ZM371.164 74.7031C371.997 74.0417 372.581 73.3333 372.914 72.5781H369.273C369.768 73.4427 370.398 74.151 371.164 74.7031ZM362.258 84.5234V76.3828C361.779 77.2891 361.333 78.0234 360.922 78.5859L360.133 78.0312C361.909 75.0938 363.021 72.4714 363.469 70.1641L364.688 70.3438C364.333 71.8698 363.784 73.3802 363.039 74.875H363.453V84.5234H362.258ZM364.789 81.9297V72.7734H365.898V81.9297H364.789ZM367.023 79.7422L366.633 78.9062C368.669 78.2917 370.279 77.6172 371.461 76.8828L372.227 77.5391C371.643 77.9297 370.812 78.349 369.734 78.7969C368.661 79.2396 367.758 79.5547 367.023 79.7422ZM367.008 82.0938L366.648 81.2109C369.128 80.5703 371.352 79.6406 373.32 78.4219L374.203 79.1016C373.385 79.638 372.237 80.2161 370.758 80.8359C369.279 81.4505 368.029 81.8698 367.008 82.0938ZM366.047 84.5234L365.766 83.625C367.521 83.3958 369.182 82.9948 370.75 82.4219C372.323 81.8438 373.609 81.2161 374.609 80.5391L375.508 81.3047C374.471 82.0443 373.073 82.7188 371.312 83.3281C369.557 83.9375 367.802 84.3359 366.047 84.5234ZM377.391 83.9375V82.9453H383.133V75.7656H376.789V74.75H383.133V70.3594H384.438V74.75H391.18V75.7656H384.438V82.9453H390.414V83.9375H377.391ZM394.469 74.8516V70.8438H405.438V74.8516H394.469ZM404.211 71.7188H395.68V73.9766H404.211V71.7188ZM400.602 84.4375L400.445 83.3594H402.453C403.344 83.3594 403.859 82.9531 404 82.1406C404.141 81.3229 404.211 80.625 404.211 80.0469H395.82L395.609 80.9922H394.367L395.227 77.2891H392.523V76.3203H407.328V77.2891H396.461L396.055 79.1016H405.531C405.531 79.7422 405.5 80.4062 405.438 81.0938C405.375 81.776 405.26 82.3906 405.094 82.9375C404.927 83.4792 404.682 83.8594 404.359 84.0781C404.036 84.2969 403.669 84.4115 403.258 84.4219C402.846 84.4323 402.289 84.4375 401.586 84.4375H400.602ZM414.547 81.5C412.682 81.8958 410.69 82.2578 408.57 82.5859L408.344 81.5312C408.661 81.4948 409.146 81.4271 409.797 81.3281V71.8828H408.703V70.9375H417.227V71.8828H415.742V84.5H414.547V81.5ZM410.992 71.8828V74.2344H414.547V71.8828H410.992ZM410.992 75.1328V77.5H414.547V75.1328H410.992ZM410.992 81.1484C412.409 80.9245 413.594 80.7188 414.547 80.5312V78.3984H410.992V81.1484ZM420.695 80.5156C421.544 81.599 422.542 82.5938 423.688 83.5L422.938 84.3984C421.943 83.638 420.982 82.651 420.055 81.4375C419.195 82.5781 418.159 83.599 416.945 84.5L416.344 83.6953C417.411 82.8984 418.422 81.8359 419.375 80.5078C418.807 79.7109 418.328 78.7865 417.938 77.7344C417.547 76.6771 417.299 75.3021 417.195 73.6094H416.453V72.6484H422.773C422.753 75.7109 422.06 78.3333 420.695 80.5156ZM419.992 79.4609C420.945 77.7995 421.453 75.849 421.516 73.6094H418.305C418.372 75.8385 418.935 77.7891 419.992 79.4609ZM425.141 74.4844L424.484 73.7656C425.75 72.8385 426.828 71.6745 427.719 70.2734L428.844 70.6484C428.406 71.362 427.846 72.0703 427.164 72.7734C426.482 73.4766 425.807 74.0469 425.141 74.4844ZM430.227 76.0859V70.7656H438.5V76.0859H430.227ZM431.438 73H437.297V71.6641H431.438V73ZM437.297 73.8438H431.438V75.1875H437.297V73.8438ZM426.766 84.5703V77.9531C425.969 78.8958 425.323 79.5573 424.828 79.9375L424.125 79.2188C424.948 78.4688 425.776 77.5443 426.609 76.4453C427.443 75.3464 428.034 74.4323 428.383 73.7031L429.477 74.0938C429.039 74.9375 428.37 75.9375 427.469 77.0938H427.977V84.5703H426.766ZM428.844 80.5234V79.5781H436.156V78.2188H429.25V77.3047H439.383V78.2188H437.375V79.5781H439.68V80.5234H437.375V83.1328C437.375 83.4974 437.234 83.7969 436.953 84.0312C436.672 84.2708 436.346 84.3906 435.977 84.3906H433.984L433.789 83.3125H435.469C435.656 83.3125 435.818 83.25 435.953 83.125C436.089 83 436.156 82.8568 436.156 82.6953V80.5234H428.844ZM431.961 83.8047C431.294 82.9661 430.576 82.1615 429.805 81.3906L430.656 80.75C431.359 81.3854 432.104 82.1641 432.891 83.0859L431.961 83.8047ZM290.312 107.008V105.438H290.438C291.495 106.135 292.589 106.484 293.719 106.484C294.552 106.484 295.219 106.258 295.719 105.805C296.224 105.352 296.477 104.721 296.477 103.914C296.477 103.164 296.258 102.612 295.82 102.258C295.383 101.904 294.674 101.727 293.695 101.727H293.008V100.523H293.539C294.383 100.523 295.044 100.344 295.523 99.9844C296.003 99.625 296.242 99.1198 296.242 98.4688C296.242 97.9167 296.031 97.4922 295.609 97.1953C295.193 96.8932 294.617 96.7422 293.883 96.7422C292.826 96.7422 291.776 97.0833 290.734 97.7656H290.648V96.2266C291.701 95.7318 292.792 95.4844 293.922 95.4844C295.135 95.4844 296.073 95.7396 296.734 96.25C297.401 96.7552 297.734 97.4401 297.734 98.3047C297.734 98.9401 297.513 99.5078 297.07 100.008C296.628 100.508 296.073 100.826 295.406 100.961V101.086C297.12 101.393 297.977 102.38 297.977 104.047C297.977 105.125 297.583 106.01 296.797 106.703C296.01 107.396 294.997 107.742 293.758 107.742C292.576 107.742 291.427 107.497 290.312 107.008ZM304.039 107.742C302.654 107.742 301.635 107.247 300.984 106.258C300.333 105.268 300.008 103.724 300.008 101.625C300.008 99.526 300.333 97.9792 300.984 96.9844C301.641 95.9896 302.659 95.4922 304.039 95.4922C305.409 95.4922 306.422 95.9922 307.078 96.9922C307.734 97.987 308.062 99.526 308.062 101.609C308.062 103.714 307.737 105.263 307.086 106.258C306.435 107.247 305.419 107.742 304.039 107.742ZM304.039 96.6875C303.148 96.6875 302.503 97.0417 302.102 97.75C301.701 98.4531 301.5 99.7448 301.5 101.625C301.5 103.49 301.701 104.776 302.102 105.484C302.503 106.193 303.148 106.547 304.039 106.547C304.93 106.547 305.573 106.193 305.969 105.484C306.37 104.776 306.57 103.484 306.57 101.609C306.57 99.7708 306.372 98.4922 305.977 97.7734C305.581 97.0495 304.935 96.6875 304.039 96.6875ZM313.977 107.742C312.591 107.742 311.573 107.247 310.922 106.258C310.271 105.268 309.945 103.724 309.945 101.625C309.945 99.526 310.271 97.9792 310.922 96.9844C311.578 95.9896 312.596 95.4922 313.977 95.4922C315.346 95.4922 316.359 95.9922 317.016 96.9922C317.672 97.987 318 99.526 318 101.609C318 103.714 317.674 105.263 317.023 106.258C316.372 107.247 315.357 107.742 313.977 107.742ZM313.977 96.6875C313.086 96.6875 312.44 97.0417 312.039 97.75C311.638 98.4531 311.438 99.7448 311.438 101.625C311.438 103.49 311.638 104.776 312.039 105.484C312.44 106.193 313.086 106.547 313.977 106.547C314.867 106.547 315.51 106.193 315.906 105.484C316.307 104.776 316.508 103.484 316.508 101.609C316.508 99.7708 316.31 98.4922 315.914 97.7734C315.518 97.0495 314.872 96.6875 313.977 96.6875ZM323.914 107.742C322.529 107.742 321.51 107.247 320.859 106.258C320.208 105.268 319.883 103.724 319.883 101.625C319.883 99.526 320.208 97.9792 320.859 96.9844C321.516 95.9896 322.534 95.4922 323.914 95.4922C325.284 95.4922 326.297 95.9922 326.953 96.9922C327.609 97.987 327.938 99.526 327.938 101.609C327.938 103.714 327.612 105.263 326.961 106.258C326.31 107.247 325.294 107.742 323.914 107.742ZM323.914 96.6875C323.023 96.6875 322.378 97.0417 321.977 97.75C321.576 98.4531 321.375 99.7448 321.375 101.625C321.375 103.49 321.576 104.776 321.977 105.484C322.378 106.193 323.023 106.547 323.914 106.547C324.805 106.547 325.448 106.193 325.844 105.484C326.245 104.776 326.445 103.484 326.445 101.609C326.445 99.7708 326.247 98.4922 325.852 97.7734C325.456 97.0495 324.81 96.6875 323.914 96.6875ZM342.008 107.711H334.469V108.375H333.234V103.656C332.151 104.26 331.062 104.789 329.969 105.242L329.414 104.344C331.607 103.469 333.487 102.453 335.055 101.297L335.32 101.102C334.471 100.424 333.445 99.6693 332.242 98.8359C331.466 99.4193 330.714 99.9115 329.984 100.312L329.359 99.5781C330.74 98.7188 331.979 97.7708 333.078 96.7344C334.177 95.6927 334.935 94.8203 335.352 94.1172L336.609 94.4062C336.375 94.7656 336.049 95.1901 335.633 95.6797H341.18L341.648 96.1016C340.555 98.1172 338.615 100.099 335.828 102.047H343.266V108.375H342.008V107.711ZM333.109 98.1562C334.5 99.0625 335.565 99.7943 336.305 100.352C337.997 99.0078 339.198 97.7656 339.906 96.625H334.773C334.247 97.1615 333.693 97.6719 333.109 98.1562ZM334.469 106.742H342.008V103.023H334.469V106.742ZM359.109 108.289C357.828 107.034 356.789 105.763 355.992 104.477C354.612 106.341 352.602 107.701 349.961 108.555L349.484 107.586C352.026 106.737 353.935 105.349 355.211 103.422C356.487 101.495 357.125 98.6823 357.125 94.9844V94.4375H358.398V95.0547C358.398 98.6276 357.828 101.406 356.688 103.391C357.599 104.906 358.734 106.268 360.094 107.477L359.109 108.289ZM345.68 107.016L345.305 105.891C345.779 105.75 346.362 105.555 347.055 105.305V94.6016H348.258V104.852C350.299 104.055 351.893 103.341 353.039 102.711L353.367 103.688C352.867 104.047 351.75 104.602 350.016 105.352C348.286 106.102 346.841 106.656 345.68 107.016ZM353.141 100.148C352.307 98.6224 351.339 97.1198 350.234 95.6406L351.281 95.0391C351.979 95.9193 352.984 97.4141 354.297 99.5234L353.141 100.148ZM361.648 108.062V107.039H367.828V94.5547H369.102V98.9141H374.883V99.9219H369.102V107.039H376.086V108.062H361.648ZM385.219 107.82L384.914 106.766C386.591 106.615 388.023 106.128 389.211 105.305C390.404 104.482 391 103.253 391 101.617C391 100.159 390.518 99.0312 389.555 98.2344C388.596 97.4375 387.258 97.0156 385.539 96.9688C385.482 99.7708 384.979 102.109 384.031 103.984C383.083 105.859 381.896 106.797 380.469 106.797C379.583 106.797 378.885 106.422 378.375 105.672C377.87 104.917 377.617 103.997 377.617 102.914C377.617 101.128 378.388 99.5234 379.93 98.1016C381.471 96.6745 383.297 95.9609 385.406 95.9609C387.391 95.9609 389.026 96.4583 390.312 97.4531C391.599 98.4427 392.242 99.7969 392.242 101.516C392.242 103.474 391.594 104.971 390.297 106.008C389 107.044 387.307 107.648 385.219 107.82ZM384.312 97.0703C382.802 97.2995 381.503 97.9844 380.414 99.125C379.326 100.26 378.781 101.544 378.781 102.977C378.781 103.737 378.94 104.383 379.258 104.914C379.576 105.44 380.018 105.703 380.586 105.703C381.56 105.703 382.409 104.794 383.133 102.977C383.857 101.154 384.25 99.1849 384.312 97.0703ZM398.883 96.9688V96.0078H402.797V94.2734H403.977V96.0078H408.141V96.9688H398.883ZM393.648 105.07L392.992 104.414C393.544 103.674 394.112 102.667 394.695 101.391C395.284 100.115 395.661 99.0729 395.828 98.2656H393.664V97.3359H395.914V94.3438H397.086V97.3359H398.789V98.2656H397.086V100.133C397.565 100.779 398.185 101.391 398.945 101.969L398.312 102.867C397.724 102.279 397.315 101.841 397.086 101.555V108.531H395.914V101.227C395.289 102.69 394.534 103.971 393.648 105.07ZM407.648 100.945C407.107 100.57 406.521 100.073 405.891 99.4531C405.26 98.8281 404.792 98.276 404.484 97.7969L405.445 97.3594C406.227 98.4167 407.232 99.3464 408.461 100.148L407.648 100.945ZM399.391 100.969L398.625 100.297C399.891 99.349 400.805 98.3854 401.367 97.4062L402.406 97.7969C401.646 99.0312 400.641 100.089 399.391 100.969ZM403.422 105.711C402.052 106.987 400.435 107.914 398.57 108.492L398.117 107.594C399.898 107.016 401.404 106.128 402.633 104.93C401.596 103.784 400.857 102.445 400.414 100.914L401.508 100.555C401.935 101.935 402.57 103.107 403.414 104.07C404.346 102.93 404.948 101.763 405.219 100.57L406.391 100.852C406.016 102.305 405.294 103.646 404.227 104.875C405.523 106.021 406.99 106.862 408.625 107.398L407.961 108.406C406.284 107.833 404.771 106.935 403.422 105.711ZM409.664 108.062V107.047H411.867V98.8516H413.109V107.047H416.758V96.1328H410.055V95.1484H423.75V96.1328H418V100.664H422.883V101.648H418V107.047H424.023V108.062H409.664ZM437.336 107.805H429.758V108.422H428.539V102.5C427.732 102.854 426.794 103.214 425.727 103.578L425.305 102.633C427.716 101.805 430.094 100.711 432.438 99.3516H425.859V98.4062H430.922V96.5078H426.711V95.5312H430.922V94.1641H432.195V95.5312H435.992V96.5078H432.195V98.4062H433.977C435.961 97.1198 437.451 95.8958 438.445 94.7344L439.539 95.3516C438.747 96.1797 437.594 97.1536 436.078 98.2734L435.898 98.4062H440.219V99.3516H434.32C433.216 100.034 432.216 100.609 431.32 101.078H438.57V108.422H437.336V107.805ZM437.336 103.82V101.992H429.758V103.82H437.336ZM429.758 106.828H437.336V104.773H429.758V106.828Z" fill="black"/>
<g clip-path="url(#paint1_diamond_1_476_clip_path)" data-figma-skip-parse="true"><g transform="matrix(0 0.057 -0.0005 0 500.5 58)"><rect x="0" y="0" width="inf" height="inf" fill="url(#paint1_diamond_1_476)" opacity="0.5" shape-rendering="crispEdges"/><rect x="0" y="0" width="inf" height="inf" transform="scale(1 -1)" fill="url(#paint1_diamond_1_476)" opacity="0.5" shape-rendering="crispEdges"/><rect x="0" y="0" width="inf" height="inf" transform="scale(-1 1)" fill="url(#paint1_diamond_1_476)" opacity="0.5" shape-rendering="crispEdges"/><rect x="0" y="0" width="inf" height="inf" transform="scale(-1)" fill="url(#paint1_diamond_1_476)" opacity="0.5" shape-rendering="crispEdges"/></g></g><path d="M501 1C501 0.447715 500.552 0 500 0C499.448 0 499 0.447715 499 1H500H501ZM499 115C499 115.552 499.448 116 500 116C500.552 116 501 115.552 501 115H500H499ZM500 1H499V115H500H501V1H500Z" data-figma-gradient-fill="{&#34;type&#34;:&#34;GRADIENT_DIAMOND&#34;,&#34;stops&#34;:[{&#34;color&#34;:{&#34;r&#34;:0.0,&#34;g&#34;:0.0,&#34;b&#34;:0.0,&#34;a&#34;:1.0},&#34;position&#34;:0.0},{&#34;color&#34;:{&#34;r&#34;:0.0,&#34;g&#34;:0.0,&#34;b&#34;:0.0,&#34;a&#34;:0.0},&#34;position&#34;:1.0}],&#34;stopsVar&#34;:[],&#34;transform&#34;:{&#34;m00&#34;:6.1232342629258393e-17,&#34;m01&#34;:-1.0,&#34;m02&#34;:501.0,&#34;m10&#34;:114.0,&#34;m11&#34;:6.9804870332656772e-15,&#34;m12&#34;:1.0},&#34;opacity&#34;:0.50,&#34;blendMode&#34;:&#34;NORMAL&#34;,&#34;visible&#34;:true}"/>
<path d="M642.191 38.3433C636.984 34.0363 635.117 32.2222 633.355 31.3347V23.5821C634.491 22.6163 635.156 21.1937 635.156 19.6798V10.6743C635.156 5.61035 631.058 1.51221 626.047 1.51221H624.128C619.09 1.51221 615.018 5.6234 615.018 10.6743V19.6798C614.992 21.1937 615.658 22.6163 616.793 23.5821V31.3347C615.031 32.2222 609.419 35.2109 604.212 39.5048C602.959 40.5359 602.254 42.0629 602.254 43.6943V49.8677C602.254 50.455 602.724 50.9248 603.311 50.9248C603.898 50.9248 604.368 50.4419 604.368 49.8677V43.6943C604.368 42.7024 604.812 41.7758 605.569 41.1363C611.038 36.6074 616.976 33.6056 618.111 33.0444C618.607 32.7964 618.921 32.2874 618.921 31.7393V23.047C618.921 22.6946 618.751 22.3553 618.451 22.1726C617.615 21.6114 617.119 20.6847 617.119 19.6798V10.6612C617.119 6.77192 620.265 3.60043 624.141 3.60043H626.073C629.949 3.60043 633.094 6.75887 633.094 10.6612V19.6667C633.094 20.6717 632.598 21.5983 631.763 22.1595C631.476 22.3553 631.293 22.6816 631.293 23.034V31.7262C631.293 32.2744 631.62 32.7964 632.102 33.0313C633.238 33.5926 635.418 35.4328 640.886 39.9616L642.23 38.3433H642.191Z" fill="#4D4D4D"/>
<path d="M672.247 25.8012H664.926V24.4438C664.926 23.6477 664.612 22.8907 664.051 22.3295C663.49 21.7683 662.733 21.4551 661.937 21.4551H654.354C653.558 21.4551 652.801 21.7683 652.24 22.3295C651.678 22.8907 651.365 23.6477 651.365 24.4438V25.8012H644.043C643.104 25.8012 642.216 26.1797 641.551 26.8323C640.885 27.4979 640.52 28.3854 640.52 29.3251V47.7537C640.52 48.6934 640.898 49.5808 641.551 50.2465C642.216 50.9121 643.104 51.2775 644.043 51.2775H672.234C673.174 51.2775 674.062 50.899 674.727 50.2465C675.393 49.5808 675.758 48.6934 675.758 47.7537V29.3251C675.758 28.3854 675.38 27.4979 674.727 26.8323C674.062 26.1666 673.174 25.8012 672.234 25.8012H672.247ZM652.997 24.4438C652.997 24.0784 653.14 23.7391 653.388 23.478C653.649 23.2301 653.989 23.0865 654.354 23.0865H661.937C662.302 23.0865 662.642 23.2301 662.903 23.478C663.164 23.726 663.294 24.0784 663.294 24.4438V25.8012H652.997V24.4438ZM674.14 47.7537C674.14 48.2627 673.944 48.7325 673.579 49.0979C673.213 49.4634 672.743 49.6592 672.234 49.6592H644.043C643.534 49.6592 643.065 49.4634 642.699 49.0979C642.334 48.7325 642.138 48.2627 642.138 47.7537V41.502C642.699 41.8675 643.365 42.0632 644.03 42.0632H652.435V43.4206C652.435 43.6425 652.527 43.8382 652.67 43.9949C652.814 44.1515 653.036 44.2298 653.245 44.2298H663.007C663.229 44.2298 663.425 44.1384 663.581 43.9949C663.738 43.8513 663.816 43.6294 663.816 43.4206V42.0632H672.221C672.9 42.0632 673.553 41.8675 674.114 41.502V47.7537H674.14ZM654.08 42.5984V39.8837H662.211V42.5984H654.08ZM674.14 38.5263C674.14 39.0353 673.944 39.5052 673.579 39.8706C673.213 40.236 672.743 40.4318 672.234 40.4318H663.829V39.0745C663.829 38.8526 663.738 38.6568 663.594 38.5002C663.451 38.3436 663.229 38.2653 663.02 38.2653H653.258C653.036 38.2653 652.84 38.3566 652.683 38.5002C652.527 38.6438 652.449 38.8657 652.449 39.0745V40.4318H644.043C643.534 40.4318 643.065 40.236 642.699 39.8706C642.334 39.5052 642.138 39.0353 642.138 38.5263V29.312C642.138 28.803 642.334 28.3332 642.699 27.9677C643.065 27.6023 643.534 27.4065 644.043 27.4065H672.234C672.743 27.4065 673.213 27.6023 673.579 27.9677C673.944 28.3332 674.14 28.803 674.14 29.312V38.5263Z" fill="#4D4D4D"/>
<path d="M625.25 36.8691L622.574 51.4998H628.186L625.628 36.8691H625.25Z" fill="#D52B1E"/>
<path d="M628.186 33.332H622.574L625.237 36.3339H625.615L628.186 33.332Z" fill="#D52B1E"/>
<path d="M565.008 70.4688V69.5078H568.922V67.7734H570.102V69.5078H574.266V70.4688H565.008ZM559.773 78.5703L559.117 77.9141C559.669 77.1745 560.237 76.1667 560.82 74.8906C561.409 73.6146 561.786 72.5729 561.953 71.7656H559.789V70.8359H562.039V67.8438H563.211V70.8359H564.914V71.7656H563.211V73.6328C563.69 74.2786 564.31 74.8906 565.07 75.4688L564.438 76.3672C563.849 75.7786 563.44 75.3411 563.211 75.0547V82.0312H562.039V74.7266C561.414 76.1901 560.659 77.4714 559.773 78.5703ZM573.773 74.4453C573.232 74.0703 572.646 73.5729 572.016 72.9531C571.385 72.3281 570.917 71.776 570.609 71.2969L571.57 70.8594C572.352 71.9167 573.357 72.8464 574.586 73.6484L573.773 74.4453ZM565.516 74.4688L564.75 73.7969C566.016 72.849 566.93 71.8854 567.492 70.9062L568.531 71.2969C567.771 72.5312 566.766 73.5885 565.516 74.4688ZM569.547 79.2109C568.177 80.487 566.56 81.4141 564.695 81.9922L564.242 81.0938C566.023 80.5156 567.529 79.6276 568.758 78.4297C567.721 77.2839 566.982 75.9453 566.539 74.4141L567.633 74.0547C568.06 75.4349 568.695 76.6068 569.539 77.5703C570.471 76.4297 571.073 75.263 571.344 74.0703L572.516 74.3516C572.141 75.8047 571.419 77.1458 570.352 78.375C571.648 79.5208 573.115 80.362 574.75 80.8984L574.086 81.9062C572.409 81.3333 570.896 80.4349 569.547 79.2109ZM575.789 81.5625V80.5469H577.992V72.3516H579.234V80.5469H582.883V69.6328H576.18V68.6484H589.875V69.6328H584.125V74.1641H589.008V75.1484H584.125V80.5469H590.148V81.5625H575.789ZM603.461 81.3047H595.883V81.9219H594.664V76C593.857 76.3542 592.919 76.7135 591.852 77.0781L591.43 76.1328C593.841 75.3047 596.219 74.2109 598.562 72.8516H591.984V71.9062H597.047V70.0078H592.836V69.0312H597.047V67.6641H598.32V69.0312H602.117V70.0078H598.32V71.9062H600.102C602.086 70.6198 603.576 69.3958 604.57 68.2344L605.664 68.8516C604.872 69.6797 603.719 70.6536 602.203 71.7734L602.023 71.9062H606.344V72.8516H600.445C599.341 73.5339 598.341 74.1094 597.445 74.5781H604.695V81.9219H603.461V81.3047ZM603.461 77.3203V75.4922H595.883V77.3203H603.461ZM595.883 80.3281H603.461V78.2734H595.883V80.3281ZM615.344 81.3203L615.039 80.2656C616.716 80.1146 618.148 79.6276 619.336 78.8047C620.529 77.9818 621.125 76.7526 621.125 75.1172C621.125 73.6589 620.643 72.5312 619.68 71.7344C618.721 70.9375 617.383 70.5156 615.664 70.4688C615.607 73.2708 615.104 75.6094 614.156 77.4844C613.208 79.3594 612.021 80.2969 610.594 80.2969C609.708 80.2969 609.01 79.9219 608.5 79.1719C607.995 78.4167 607.742 77.4974 607.742 76.4141C607.742 74.6276 608.513 73.0234 610.055 71.6016C611.596 70.1745 613.422 69.4609 615.531 69.4609C617.516 69.4609 619.151 69.9583 620.438 70.9531C621.724 71.9427 622.367 73.2969 622.367 75.0156C622.367 76.974 621.719 78.4714 620.422 79.5078C619.125 80.5443 617.432 81.1484 615.344 81.3203ZM614.438 70.5703C612.927 70.7995 611.628 71.4844 610.539 72.625C609.451 73.7604 608.906 75.0443 608.906 76.4766C608.906 77.237 609.065 77.8828 609.383 78.4141C609.701 78.9401 610.143 79.2031 610.711 79.2031C611.685 79.2031 612.534 78.2943 613.258 76.4766C613.982 74.6536 614.375 72.6849 614.438 70.5703ZM623.688 76.9062V75.8906H630.25V69.5938H624.312V68.6016H637.445V69.5938H631.523V75.8906H638.164V76.9062H631.523V82H630.25V76.9062H623.688ZM634.773 75.1562L633.711 74.8125C634.352 73.6719 634.956 72.2917 635.523 70.6719L636.797 71.0469C636.026 72.849 635.352 74.2188 634.773 75.1562ZM627.016 75.1094C626.432 73.5417 625.878 72.2135 625.352 71.125L626.531 70.7031C626.958 71.5521 627.518 72.8854 628.211 74.7031L627.016 75.1094ZM649 81.8438L648.875 80.7656L650.094 80.7734C650.505 80.7786 650.802 80.7682 650.984 80.7422C651.167 80.7109 651.344 80.625 651.516 80.4844C651.688 80.3385 651.823 80.1354 651.922 79.875C652.026 79.6146 652.117 79.1849 652.195 78.5859C652.273 77.987 652.312 77.2057 652.312 76.2422V73.0547C652.312 72.2422 652.307 71.3906 652.297 70.5H646.633C646.18 71.6458 645.555 72.7995 644.758 73.9609L643.875 73.4062C645.062 71.6198 645.826 69.7161 646.164 67.6953L647.406 67.8594C647.318 68.3438 647.172 68.9036 646.969 69.5391H653.492V72.875C653.492 74.6771 653.469 76.1849 653.422 77.3984C653.375 78.6068 653.299 79.4427 653.195 79.9062C653.091 80.3646 652.948 80.7266 652.766 80.9922C652.583 81.2526 652.375 81.4479 652.141 81.5781C651.911 81.7135 651.701 81.7891 651.508 81.8047C651.32 81.8203 650.484 81.8333 649 81.8438ZM639.555 79.6719L639.289 78.5938C639.904 78.4531 640.568 78.2865 641.281 78.0938V72.2969H639.633V71.3672H641.281V67.8594H642.523V71.3672H643.898V72.2969H642.523V77.7344C643.331 77.4948 643.935 77.3047 644.336 77.1641L644.414 78.1562C643.57 78.5156 641.951 79.0208 639.555 79.6719ZM645.922 73.9141V73.0312H650.555V73.9141H645.922ZM645.508 78.5156L645.25 77.4688C647.359 77.1458 649.297 76.7552 651.062 76.2969L651.141 77.2578C649.547 77.763 647.669 78.1823 645.508 78.5156ZM658.188 81.9922V75.3203C657.615 75.3464 656.781 75.3932 655.688 75.4609L655.539 74.5312H655.766L656.344 74.5234C656.719 74.0807 657.174 73.5 657.711 72.7812C657.466 72.5104 656.732 71.7839 655.508 70.6016L656.18 69.9766L656.484 70.25C657.135 69.3385 657.659 68.4635 658.055 67.625L659.117 68.0234C658.497 69.0807 657.841 70.026 657.148 70.8594L658.32 71.9531C659.128 70.8333 659.698 69.9531 660.031 69.3125L661.07 69.7344C660.008 71.3594 658.823 72.9453 657.516 74.4922C658.229 74.4609 659.104 74.4036 660.141 74.3203C659.953 73.7214 659.818 73.3177 659.734 73.1094L660.734 72.8828C660.953 73.5078 661.229 74.3516 661.562 75.4141L660.555 75.6719C660.523 75.5625 660.469 75.3828 660.391 75.1328C660.135 75.1641 659.766 75.2005 659.281 75.2422V81.9922H658.188ZM666.086 73.2891C665.003 74.0078 663.695 74.6276 662.164 75.1484L661.758 74.3516C662.898 73.9609 664.042 73.3906 665.188 72.6406C664.219 71.8646 663.375 70.9714 662.656 69.9609L663.523 69.5234C664.174 70.4036 665.021 71.237 666.062 72.0234C667.286 71.0807 668.099 70.1589 668.5 69.2578H661.859V68.3438H669.609L670.117 68.8047C669.503 70.1901 668.453 71.4714 666.969 72.6484C667.953 73.2682 669.138 73.8203 670.523 74.3047L669.906 75.2031C668.505 74.6927 667.232 74.0547 666.086 73.2891ZM661.367 81.6484V80.7188H665.305V77.5703H662.328V76.6016H665.305V74.8125H666.523V76.6016H669.711V77.5703H666.523V80.7188H670.422V81.6484H661.367ZM660.586 79.5078C660.398 78.5443 660.245 77.5495 660.125 76.5234C660.276 76.513 660.615 76.474 661.141 76.4062C661.349 77.8594 661.51 78.8281 661.625 79.3125L660.586 79.5078ZM656.508 80.5234L655.523 80.3594C655.924 78.9479 656.154 77.6406 656.211 76.4375L657.32 76.5547C657.096 78.4974 656.826 79.8203 656.508 80.5234ZM681.609 73.7266V72.2734H679.648V71.4766C679.211 71.8307 678.695 72.1953 678.102 72.5703L677.578 71.8516C678.26 71.4557 678.966 70.8932 679.695 70.1641C680.43 69.4349 681.013 68.638 681.445 67.7734L682.805 67.7891C683.305 68.5859 683.909 69.3229 684.617 70C685.331 70.6719 686.047 71.1953 686.766 71.5703L686.195 72.4062C684.414 71.3333 683.076 70.0391 682.18 68.5234C681.529 69.6432 680.701 70.6172 679.695 71.4453H684.664V72.2734H682.711L682.719 73.7266H685.758V77.6094H682.898C683.695 79.1042 684.984 80.2474 686.766 81.0391L686.164 81.9219C685.331 81.5885 684.547 81.0807 683.812 80.3984C683.083 79.7109 682.547 79.0026 682.203 78.2734C681.849 79.138 681.292 79.8958 680.531 80.5469C679.776 81.1979 678.875 81.6667 677.828 81.9531L677.5 81.1719C679.354 80.6146 680.628 79.4271 681.32 77.6094H678.719V73.7266H681.609ZM684.648 74.4922H682.719L682.734 76.8438H684.648V74.4922ZM681.609 74.4922H679.812V76.8438H681.609V74.4922ZM675.852 75.4922H677.805C677.779 77.1797 677.719 78.4792 677.625 79.3906C677.531 80.2969 677.414 80.875 677.273 81.125C677.138 81.375 676.956 81.5625 676.727 81.6875C676.503 81.8125 676.224 81.8906 675.891 81.9219C675.807 81.9323 675.294 81.9375 674.352 81.9375L674.234 81.0391H675.461H675.484L675.508 81.0469H675.555C676.029 81.0469 676.339 80.7188 676.484 80.0625C676.63 79.4062 676.714 78.1484 676.734 76.2891H673.156V76.5391H672.164V68.3125H677.844V69.1562H675.852V70.7109H677.383V71.5078H675.852V73.0938H677.383V73.8906H675.852V75.4922ZM673.219 69.1562V70.7109H674.805V69.1562H673.219ZM673.219 71.5078V73.0938H674.805V71.5078H673.219ZM673.219 73.8906V75.4922H674.805V73.8906H673.219ZM675.805 78.8516L675.445 76.9141L675.977 76.8438L676.359 78.7578L675.805 78.8516ZM674.672 79.7031L674.328 77.0703L674.938 76.9922L675.328 79.6016L674.672 79.7031ZM673.336 80.3047L673.156 77.2891L673.844 77.2188L674.008 80.2578L673.336 80.3047ZM672.062 81.3672L671.281 80.9609C671.609 79.9245 671.81 78.6953 671.883 77.2734L672.688 77.3359C672.677 77.7734 672.604 78.4297 672.469 79.3047C672.339 80.1745 672.203 80.862 672.062 81.3672ZM687.773 78.3828V77.3906H689.898V73.2109H695.117V70.4219H691.492C690.461 72.0052 689.346 73.25 688.148 74.1562L687.414 73.4531C689.326 71.8333 690.685 69.9141 691.492 67.6953L692.719 67.9219C692.505 68.5052 692.286 69.0156 692.062 69.4531H701.922V70.4219H696.344V73.2109H701.305V74.1562H696.344V77.3906H702.312V78.3828H696.344V81.9766H695.117V78.3828H687.773ZM691.07 77.3906H695.117V74.1562H691.07V77.3906ZM715.062 78.6719C714.026 80.0625 712.737 81.1745 711.195 82.0078L710.641 81.2031C712.229 80.2344 713.487 79.0391 714.414 77.6172C713.534 76.013 712.953 74.5182 712.672 73.1328C712.464 73.5495 712.26 73.9115 712.062 74.2188L711.164 73.6641C711.638 72.8932 712.076 71.9349 712.477 70.7891C712.883 69.638 713.164 68.6068 713.32 67.6953L714.523 67.8438C714.367 68.6771 714.13 69.5365 713.812 70.4219H718.359V71.3359H717.508C717.388 73.6797 716.799 75.776 715.742 77.625C716.586 78.9427 717.552 80.0495 718.641 80.9453L717.836 81.8281C716.727 80.8021 715.802 79.75 715.062 78.6719ZM715.055 76.5C715.898 74.8385 716.333 73.1198 716.359 71.3438L713.453 71.3672L713.383 71.5469C713.633 73.2812 714.19 74.9323 715.055 76.5ZM703.805 74.4141L703.391 73.6797C703.891 73.4714 704.503 73.1354 705.227 72.6719C705.956 72.2083 706.562 71.75 707.047 71.2969H703.914V70.4844H707.344V67.9219H708.484V70.4844H711.719V71.2969H708.555C709.268 71.875 710.078 72.3776 710.984 72.8047L710.43 73.5859C709.904 73.3203 709.255 72.8906 708.484 72.2969V74.4844H707.344V72.2734C706.167 73.2161 704.987 73.9297 703.805 74.4141ZM710.672 70.1406L709.773 69.9141L710.492 68.1641L711.477 68.375L710.672 70.1406ZM705.219 70.1094L704.586 68.4766L705.531 68.1953L706.188 69.8281L705.219 70.1094ZM708.234 80.6484C707.042 81.3828 705.62 81.8307 703.969 81.9922L703.734 81.1719C705.099 80.974 706.25 80.6276 707.188 80.1328C706.036 79.5859 705.214 79.2474 704.719 79.1172C704.599 79.1172 704.539 79.0234 704.539 78.8359C704.539 78.7995 704.549 78.763 704.57 78.7266C704.831 78.263 705.141 77.6432 705.5 76.8672H703.672V75.9844H705.891C706.13 75.4323 706.294 75.0286 706.383 74.7734L707.523 74.9531C707.43 75.1875 707.279 75.5312 707.07 75.9844H711.914V76.8672H710.945C710.648 78.0911 710.042 79.1276 709.125 79.9766C709.724 80.263 710.185 80.4922 710.508 80.6641L709.859 81.5469C709.49 81.3125 708.948 81.013 708.234 80.6484ZM708.133 79.5078C708.997 78.7734 709.547 77.8932 709.781 76.8672H706.664C706.253 77.7266 705.974 78.2708 705.828 78.5C706.229 78.6354 706.997 78.9714 708.133 79.5078Z" fill="black"/>
<path d="M601.26 108H592.831V106.066H595.67V98.4023H592.831V96.627C593.956 96.6152 594.75 96.46 595.213 96.1611C595.682 95.8564 595.954 95.3789 596.03 94.7285H598.482V106.066H601.26V108ZM604.696 108.07V105.812H604.969C605.537 106.069 606.211 106.198 606.99 106.198C609.398 106.198 610.737 104.938 611.007 102.419C609.87 103.116 608.827 103.465 607.878 103.465C606.583 103.465 605.537 103.096 604.74 102.357C603.943 101.619 603.545 100.573 603.545 99.2197C603.545 97.8311 604.02 96.6973 604.969 95.8184C605.924 94.9336 607.16 94.4912 608.678 94.4912C610.371 94.4912 611.675 95.0127 612.589 96.0557C613.503 97.0928 613.96 98.6162 613.96 100.626C613.96 103.081 613.354 104.971 612.141 106.295C610.934 107.619 609.182 108.281 606.885 108.281C605.953 108.281 605.224 108.211 604.696 108.07ZM611.024 101.004C611.024 100.945 611.03 100.813 611.042 100.608C611.048 100.409 611.051 100.26 611.051 100.16C611.051 97.6992 610.254 96.4688 608.66 96.4688C608.01 96.4688 607.482 96.7002 607.078 97.1631C606.68 97.6201 606.48 98.2559 606.48 99.0703C606.48 100.682 607.33 101.487 609.029 101.487C609.662 101.487 610.327 101.326 611.024 101.004ZM619.585 108H616.588V104.801H619.585V108ZM632.821 104.704H630.94V108.026H628.163V104.704H621.765V102.375L628.04 94.7549H630.94V102.665H632.821V104.704ZM628.163 102.665V97.4707L623.874 102.665H628.163ZM650.698 105.267H644.581V109.028H642.059V105.267H634.263V103.166H636.53V99.9492C636.185 100.307 635.818 100.652 635.432 100.986L633.744 99.457C634.746 98.5664 635.643 97.5088 636.434 96.2842C637.23 95.0596 637.805 93.835 638.156 92.6104L640.67 92.9883C640.494 93.5859 640.312 94.1162 640.125 94.5791H650.285V96.6094H644.581V98.666H649.617V100.696H644.581V103.166H650.698V105.267ZM639.088 96.6094C638.648 97.3359 638.171 98.0215 637.655 98.666H642.059V96.6094H639.088ZM639 103.166H642.059V100.696H639V103.166ZM668.804 107.227L666.949 109.046C665.684 107.757 664.62 106.485 663.759 105.231C662.265 106.925 660.161 108.214 657.448 109.099L656.402 107.104C658.236 106.5 659.742 105.68 660.92 104.643C662.104 103.6 662.977 102.305 663.539 100.758C664.102 99.2051 664.383 97.1338 664.383 94.5439V93.3838H666.914V93.6738C666.914 97.793 666.357 100.922 665.244 103.061C666.275 104.725 667.462 106.113 668.804 107.227ZM661.465 103.166C660.891 103.623 659.616 104.3 657.642 105.196C655.673 106.087 654.006 106.734 652.641 107.139L651.902 104.871C652.354 104.748 652.931 104.566 653.634 104.326V93.6387H656.174V103.395C658.148 102.609 659.707 101.889 660.85 101.232L661.465 103.166ZM662.651 99.167L660.401 100.477C659.247 98.2441 658.107 96.3984 656.982 94.9395L659.048 93.8232C659.985 95.0068 661.187 96.7881 662.651 99.167ZM686.575 108.422H670.28V106.172H676.767V93.498H679.412V97.7783H685.257V99.9756H679.412V106.172H686.575V108.422Z" fill="#D52B1E"/>
<g clip-path="url(#paint2_diamond_1_476_clip_path)" data-figma-skip-parse="true"><g transform="matrix(0 0.057 -0.0005 0 778.5 58)"><rect x="0" y="0" width="inf" height="inf" fill="url(#paint2_diamond_1_476)" opacity="0.5" shape-rendering="crispEdges"/><rect x="0" y="0" width="inf" height="inf" transform="scale(1 -1)" fill="url(#paint2_diamond_1_476)" opacity="0.5" shape-rendering="crispEdges"/><rect x="0" y="0" width="inf" height="inf" transform="scale(-1 1)" fill="url(#paint2_diamond_1_476)" opacity="0.5" shape-rendering="crispEdges"/><rect x="0" y="0" width="inf" height="inf" transform="scale(-1)" fill="url(#paint2_diamond_1_476)" opacity="0.5" shape-rendering="crispEdges"/></g></g><path d="M779 1C779 0.447715 778.552 0 778 0C777.448 0 777 0.447715 777 1H778H779ZM777 115C777 115.552 777.448 116 778 116C778.552 116 779 115.552 779 115H778H777ZM778 1H777V115H778H779V1H778Z" data-figma-gradient-fill="{&#34;type&#34;:&#34;GRADIENT_DIAMOND&#34;,&#34;stops&#34;:[{&#34;color&#34;:{&#34;r&#34;:0.0,&#34;g&#34;:0.0,&#34;b&#34;:0.0,&#34;a&#34;:1.0},&#34;position&#34;:0.0},{&#34;color&#34;:{&#34;r&#34;:0.0,&#34;g&#34;:0.0,&#34;b&#34;:0.0,&#34;a&#34;:0.0},&#34;position&#34;:1.0}],&#34;stopsVar&#34;:[],&#34;transform&#34;:{&#34;m00&#34;:6.1232342629258393e-17,&#34;m01&#34;:-1.0,&#34;m02&#34;:779.0,&#34;m10&#34;:114.0,&#34;m11&#34;:6.9804870332656772e-15,&#34;m12&#34;:1.0},&#34;opacity&#34;:0.50,&#34;blendMode&#34;:&#34;NORMAL&#34;,&#34;visible&#34;:true}"/>
<g clip-path="url(#clip1_1_476)">
<path d="M896.135 45.1001V43.825C896.135 43.4874 895.986 43.1708 895.727 42.9591C894.644 42.0688 893.478 41.4548 893.11 41.2694V39.6654C893.346 39.466 893.485 39.1704 893.485 38.8573V36.9962C893.485 35.9502 892.633 35.1001 891.588 35.1001H891.188C890.142 35.1001 889.292 35.9519 889.292 36.9962V38.8573C889.287 39.1704 889.425 39.4643 889.661 39.6654V41.2694C889.294 41.4531 888.127 42.0705 887.044 42.9591C886.784 43.1708 886.637 43.4874 886.637 43.825V45.1001" fill="#D52B1E"/>
<path d="M896.135 45.1001V43.825C896.135 43.4874 895.986 43.1708 895.727 42.9591C894.644 42.0688 893.478 41.4548 893.11 41.2694V39.6654C893.346 39.466 893.485 39.1704 893.485 38.8573V36.9962C893.485 35.9502 892.633 35.1001 891.588 35.1001H891.188C890.142 35.1001 889.292 35.9519 889.292 36.9962V38.8573C889.287 39.1704 889.425 39.4643 889.661 39.6654V41.2694C889.294 41.4531 888.127 42.0705 887.044 42.9591C886.784 43.1708 886.637 43.4874 886.637 43.825V45.1001" stroke="#D52B1E" stroke-linecap="square" stroke-linejoin="round"/>
</g>
<path d="M929.648 4.04102H930.296C942.215 4.38402 951.798 13.9989 952.11 25.9717L952.117 26.5537C952.117 38.917 942.046 48.9805 929.648 48.9805C917.229 48.9805 907.178 38.9386 907.178 26.5322C907.178 14.1026 917.23 4.04102 929.648 4.04102Z" stroke="#4D4D4D" stroke-width="2" stroke-miterlimit="10"/>
<path d="M941.382 38.1002V34.9124C941.382 34.0684 941.01 33.2769 940.363 32.7478C937.656 30.5219 934.739 28.987 933.821 28.5235V24.5135C934.411 24.015 934.757 23.276 934.757 22.4933V17.8405C934.757 15.2255 932.627 13.1002 930.016 13.1002H929.015C926.4 13.1002 924.275 15.2298 924.275 17.8405V22.4933C924.262 23.276 924.607 24.0107 925.197 24.5135V28.5235C924.279 28.9827 921.362 30.5263 918.655 32.7478C918.004 33.2769 917.637 34.0684 917.637 34.9124V38.1002" stroke="#D52B1E" stroke-width="2" stroke-linecap="round" stroke-linejoin="round"/>
<path d="M896.934 35.9951L907.2 28.688" stroke="#4D4D4D" stroke-width="2" stroke-linecap="round" stroke-linejoin="round"/>
<path d="M898.566 43.543H914.506" stroke="#4D4D4D" stroke-width="2" stroke-linecap="round" stroke-linejoin="round"/>
<path d="M895.53 14.59V14.0809C895.53 13.5082 895.201 12.2674 894.681 12.0129L893.059 11.2175C892.91 11.1432 892.815 10.9947 892.815 10.8251V10.263C892.815 10.263 892.9 10.1675 892.942 10.1039C893.154 9.81755 893.324 9.48878 893.441 9.13881C893.685 9.03275 893.833 8.79943 893.833 8.5343V7.86616C893.833 7.70708 893.769 7.548 893.663 7.43134V6.55109C893.663 6.45564 893.706 5.91477 893.303 5.46934C892.953 5.07694 892.391 4.88605 891.617 4.88605C890.842 4.88605 890.28 5.08755 889.93 5.46934C889.527 5.91477 889.57 6.45564 889.57 6.55109V7.43134C889.464 7.548 889.4 7.70708 889.4 7.86616V8.5343C889.4 8.7358 889.495 8.9267 889.655 9.05396C889.814 9.65847 890.132 10.1039 890.248 10.2524V10.8038C890.248 10.9629 890.164 11.1114 890.015 11.1856L888.499 11.9917C888 12.2568 887.703 13.487 887.703 14.0385V14.5794" fill="white"/>
<path d="M894.681 12.0129L893.059 11.2175C892.91 11.1432 892.815 10.9947 892.815 10.8251V10.263C892.815 10.263 892.9 10.1675 892.942 10.1039C893.154 9.81755 893.324 9.48878 893.441 9.13881C893.685 9.03275 893.833 8.79943 893.833 8.5343V7.86616C893.833 7.70708 893.769 7.548 893.663 7.43134V6.55109C893.663 6.45564 893.706 5.91477 893.303 5.46934C892.953 5.07694 892.391 4.88605 891.617 4.88605C890.842 4.88605 890.28 5.08755 889.93 5.46934C889.527 5.91477 889.57 6.45564 889.57 6.55109V7.43134C889.464 7.548 889.4 7.70708 889.4 7.86616V8.5343C889.4 8.7358 889.495 8.9267 889.655 9.05396C889.814 9.65847 890.132 10.1039 890.248 10.2524V10.8039C890.248 10.9629 890.164 11.1114 890.015 11.1856L888.499 11.9917C888 12.2568 887.703 13.487 887.703 14.0385V14.5794C887.703 15.3642 890.27 15.5763 891.617 15.5763C892.963 15.5763 895.53 15.3642 895.53 14.5794V14.0703C895.53 13.4976 895.201 12.2568 894.681 12.0023V12.0129Z" stroke="#4D4E4E" stroke-width="0.959999" stroke-linecap="round" stroke-linejoin="round"/>
<path d="M901.193 15.9158V15.4068C901.193 14.8341 900.896 13.5933 900.408 13.3387L898.902 12.5433C898.764 12.4691 898.669 12.3206 898.669 12.1509V11.5888C898.669 11.5888 898.743 11.4934 898.785 11.4298C898.976 11.1434 899.135 10.8146 899.252 10.4647C899.475 10.3586 899.612 10.1253 899.612 9.86017V9.19203C899.612 9.03295 899.559 8.87386 899.453 8.75721V7.87696C899.453 7.78151 899.496 7.24064 899.125 6.79521C898.806 6.40281 898.276 6.21191 897.566 6.21191C896.855 6.21191 896.335 6.41342 896.007 6.79521C895.635 7.24064 895.667 7.78151 895.678 7.87696V8.75721C895.582 8.87386 895.519 9.03295 895.519 9.19203V9.86017C895.519 10.0617 895.604 10.2526 895.752 10.3798C895.901 10.9843 896.198 11.4298 896.304 11.5782V12.1297C896.304 12.2888 896.219 12.4373 896.092 12.5115L894.692 13.3175C894.236 13.5827 893.949 14.8129 893.949 15.3644V15.9052" fill="white"/>
<path d="M901.182 16.8496V15.4178C901.193 14.8451 900.896 13.6043 900.408 13.3498L898.902 12.5544C898.764 12.4801 898.669 12.3317 898.669 12.162V11.5999C898.669 11.5999 898.743 11.5044 898.785 11.4408C898.976 11.1545 899.135 10.8257 899.252 10.4757C899.475 10.3697 899.612 10.1363 899.612 9.87121V9.20307C899.612 9.04399 899.559 8.88491 899.453 8.76825V7.88801C899.453 7.79256 899.496 7.25168 899.125 6.80626C898.806 6.41386 898.276 6.22296 897.566 6.22296C896.855 6.22296 896.335 6.42446 896.007 6.80626C895.635 7.25168 895.667 7.79256 895.678 7.88801V8.76825C895.582 8.88491 895.519 9.04399 895.519 9.20307V9.87121C895.519 10.0727 895.604 10.2636 895.752 10.3909C895.901 10.9954 896.198 11.4408 896.304 11.5893V12.1408C896.304 12.2998 896.219 12.4483 896.092 12.5226L894.692 13.3286C894.236 13.5937 893.949 14.8239 893.949 15.3754V15.9163" stroke="#4D4E4E" stroke-width="0.959999" stroke-linecap="round" stroke-linejoin="round"/>
<path d="M888.541 13.3495L886.918 12.5541C886.77 12.4799 886.674 12.3314 886.674 12.1617V11.5996C886.674 11.5996 886.759 11.5042 886.802 11.4406C887.014 11.1542 887.183 10.8255 887.3 10.4755C887.544 10.3694 887.692 10.1361 887.692 9.87097V9.20283C887.692 9.04375 887.629 8.88467 887.523 8.76801V7.88776C887.523 7.79231 887.565 7.25144 887.162 6.80601C886.812 6.41361 886.25 6.22272 885.476 6.22272C884.702 6.22272 884.14 6.42422 883.79 6.80601C883.387 7.25144 883.429 7.79231 883.429 7.88776V8.76801C883.323 8.88467 883.259 9.04375 883.259 9.20283V9.87097C883.259 10.0725 883.355 10.2634 883.514 10.3906C883.673 10.9951 883.991 11.4406 884.108 11.589V12.1405C884.108 12.2996 884.023 12.4481 883.874 12.5223L882.358 13.3283C881.859 13.5935 881.562 14.8237 881.562 15.3752V15.916C881.562 16.7008 884.129 16.9129 885.476 16.9129C886.823 16.9129 889.389 16.7008 889.389 15.916V15.407C889.389 14.8343 889.061 13.5935 888.541 13.3389V13.3495Z" fill="white"/>
<path d="M889.389 15.9156V15.4065C889.389 14.8338 889.061 13.593 888.541 13.3385L886.918 12.5431C886.77 12.4688 886.674 12.3204 886.674 12.1507V11.5886C886.674 11.5886 886.759 11.4931 886.802 11.4295C887.014 11.1432 887.183 10.8144 887.3 10.4644C887.544 10.3584 887.692 10.1251 887.692 9.85992V9.19178C887.692 9.0327 887.629 8.87362 887.523 8.75696V7.87671C887.523 7.78127 887.565 7.24039 887.162 6.79497C886.812 6.40257 886.25 6.21167 885.476 6.21167C884.702 6.21167 884.14 6.41317 883.79 6.79497C883.387 7.24039 883.429 7.78127 883.429 7.87671V8.75696C883.323 8.87362 883.259 9.0327 883.259 9.19178V9.85992C883.259 10.0614 883.355 10.2523 883.514 10.3796C883.673 10.9841 883.991 11.4295 884.108 11.578V12.1295C884.108 12.2886 884.023 12.437 883.874 12.5113L882.358 13.3173C881.859 13.5824 881.562 14.8126 881.562 15.3641V16.658" stroke="#4D4E4E" stroke-width="0.959999" stroke-linecap="round" stroke-linejoin="round"/>
<path d="M892.455 17.2417V16.7326C892.455 16.16 892.126 14.9191 891.606 14.6646L889.984 13.8692C889.835 13.795 889.74 13.6465 889.74 13.4768V12.9147C889.74 12.9147 889.824 12.8193 889.867 12.7556C890.079 12.4693 890.249 12.1405 890.365 11.7905C890.609 11.6845 890.758 11.4512 890.758 11.186V10.5179C890.758 10.3588 890.694 10.1997 890.588 10.0831V9.20283C890.588 9.10738 890.63 8.5665 890.227 8.12108C889.877 7.72868 889.315 7.53778 888.541 7.53778C887.767 7.53778 887.205 7.73928 886.855 8.12108C886.452 8.5665 886.494 9.10738 886.494 9.20283V10.0831C886.388 10.1997 886.325 10.3588 886.325 10.5179V11.186C886.325 11.3875 886.42 11.5784 886.579 11.7057C886.738 12.3102 887.056 12.7556 887.173 12.9041V13.4556C887.173 13.6147 887.088 13.7631 886.94 13.8374L885.423 14.6434C884.925 14.9085 884.522 17.0084 884.522 17.5599" fill="white"/>
<path d="M892.455 17.2418V16.7327C892.455 16.16 892.126 14.9192 891.606 14.6647L889.984 13.8693C889.835 13.795 889.74 13.6465 889.74 13.4769V12.9148C889.74 12.9148 889.825 12.8193 889.867 12.7557C890.079 12.4693 890.249 12.1406 890.366 11.7906C890.609 11.6845 890.758 11.4512 890.758 11.1861V10.518C890.758 10.3589 890.694 10.1998 890.588 10.0831V9.20289C890.588 9.10744 890.631 8.56656 890.228 8.12114C889.878 7.72874 889.316 7.53784 888.541 7.53784C887.767 7.53784 887.205 7.73934 886.855 8.12114C886.452 8.56656 886.495 9.10744 886.495 9.20289V10.0831C886.389 10.1998 886.325 10.3589 886.325 10.518V11.1861C886.325 11.3876 886.42 11.5785 886.579 11.7058C886.739 12.3103 887.057 12.7557 887.173 12.9042V13.4556C887.173 13.6147 887.088 13.7632 886.94 13.8374L885.423 14.6434C884.925 14.9086 884.617 16.1388 884.617 16.6903" stroke="#4D4E4E" stroke-width="0.959999" stroke-linecap="round" stroke-linejoin="round"/>
<path d="M898.596 17.242V16.733C898.596 16.1603 898.268 14.9194 897.748 14.6649L896.125 13.8695C895.977 13.7953 895.881 13.6468 895.881 13.4771V12.915C895.881 12.915 895.966 12.8196 896.009 12.7559C896.221 12.4696 896.39 12.1408 896.507 11.7908C896.751 11.6848 896.899 11.4515 896.899 11.1863V10.5182C896.899 10.3591 896.836 10.2 896.73 10.0834V9.20313C896.73 9.10768 896.772 8.56681 896.369 8.12138C896.019 7.72898 895.457 7.53809 894.683 7.53809C893.909 7.53809 893.347 7.73959 892.997 8.12138C892.594 8.56681 892.636 9.10768 892.636 9.20313V10.0834C892.53 10.2 892.466 10.3591 892.466 10.5182V11.1863C892.466 11.3878 892.562 11.5787 892.721 11.706C892.88 12.3105 893.198 12.7559 893.315 12.9044V13.4559C893.315 13.615 893.23 13.7634 893.082 13.8377L891.565 14.6437C891.066 14.9088 890.77 16.139 890.77 16.6905V17.2314" fill="white"/>
<path d="M898.596 17.242V16.733C898.596 16.1603 898.268 14.9194 897.748 14.6649L896.125 13.8695C895.977 13.7953 895.881 13.6468 895.881 13.4771V12.915C895.881 12.915 895.966 12.8196 896.009 12.7559C896.221 12.4696 896.39 12.1408 896.507 11.7908C896.751 11.6848 896.899 11.4515 896.899 11.1863V10.5182C896.899 10.3591 896.836 10.2 896.73 10.0834V9.20313C896.73 9.10768 896.772 8.56681 896.369 8.12138C896.019 7.72898 895.457 7.53809 894.683 7.53809C893.909 7.53809 893.347 7.73959 892.997 8.12138C892.594 8.56681 892.636 9.10768 892.636 9.20313V10.0834C892.53 10.2 892.466 10.3591 892.466 10.5182V11.1863C892.466 11.3878 892.562 11.5787 892.721 11.706C892.88 12.3105 893.198 12.7559 893.315 12.9044V13.4559C893.315 13.615 893.23 13.7634 893.082 13.8377L891.565 14.6437C891.066 14.9088 890.77 16.139 890.77 16.6905V17.2314" stroke="#4D4E4E" stroke-width="0.959999" stroke-linecap="round" stroke-linejoin="round"/>
<path d="M895.53 17.9097V17.4006C895.53 16.8279 895.201 15.5871 894.681 15.3326L893.059 14.5372C892.91 14.4629 892.815 14.3144 892.815 14.1448V13.5827C892.815 13.5827 892.9 13.4872 892.942 13.4236C893.154 13.1373 893.324 12.8085 893.441 12.4585C893.685 12.3525 893.833 12.1191 893.833 11.854V11.1859C893.833 11.0268 893.769 10.8677 893.663 10.751V9.87079C893.663 9.77535 893.706 9.23447 893.303 8.78905C892.953 8.39665 892.391 8.20575 891.617 8.20575C890.842 8.20575 890.28 8.40725 889.93 8.78905C889.527 9.23447 889.57 9.77535 889.57 9.87079V10.751C889.464 10.8677 889.4 11.0268 889.4 11.1859V11.854C889.4 12.0555 889.495 12.2464 889.655 12.3737C889.814 12.9782 890.132 13.4236 890.248 13.5721V14.1236C890.248 14.2826 890.164 14.4311 890.015 14.5053L888.499 15.3114C888 15.5765 887.703 16.8067 887.703 17.3582V17.8991" fill="white"/>
<path d="M895.53 17.9097V17.4006C895.53 16.8279 895.201 15.5871 894.681 15.3326L893.059 14.5372C892.91 14.4629 892.815 14.3144 892.815 14.1448V13.5827C892.815 13.5827 892.9 13.4872 892.942 13.4236C893.154 13.1373 893.324 12.8085 893.441 12.4585C893.685 12.3525 893.833 12.1191 893.833 11.854V11.1859C893.833 11.0268 893.769 10.8677 893.663 10.751V9.87079C893.663 9.77535 893.706 9.23447 893.303 8.78905C892.953 8.39665 892.391 8.20575 891.617 8.20575C890.842 8.20575 890.28 8.40725 889.93 8.78905C889.527 9.23447 889.57 9.77535 889.57 9.87079V10.751C889.464 10.8677 889.4 11.0268 889.4 11.1859V11.854C889.4 12.0555 889.495 12.2464 889.655 12.3737C889.814 12.9782 890.132 13.4236 890.248 13.5721V14.1236C890.248 14.2826 890.164 14.4311 890.015 14.5053L888.499 15.3114C888 15.5765 887.703 16.8067 887.703 17.3582V17.8991" stroke="#4D4E4E" stroke-width="0.959999" stroke-linecap="round" stroke-linejoin="round"/>
<path d="M897.725 17.6551C892.741 18.8641 891.065 18.7475 886.155 17.9096C880.248 16.2658 880.863 17.5597 880.958 17.6233L889.294 25.1955V33.2132C889.294 33.2662 889.294 33.3299 889.336 33.3723C889.411 33.5102 889.58 33.6056 889.792 33.6056C889.941 33.6056 890.068 33.5526 890.153 33.4783L893.536 29.671C893.642 29.5862 893.685 29.4695 893.663 29.3635V25.1955L902.169 17.6127C902.36 17.4642 903.314 16.2976 897.736 17.6551H897.725Z" stroke="#4D4E4E" stroke-width="0.959999" stroke-miterlimit="10"/>
<path d="M845.93 71.2656C843.992 69.8125 842.773 68.9479 842.273 68.6719L842.992 67.8594C844.107 68.474 845.362 69.3281 846.758 70.4219L845.93 71.2656ZM843.07 78.5938V79.9531C843.07 80.2865 843.203 80.5104 843.469 80.625C843.74 80.7344 844.497 80.7891 845.742 80.7891C846.414 80.7891 846.951 80.7708 847.352 80.7344C847.753 80.6979 848.013 80.6458 848.133 80.5781C848.258 80.5104 848.354 80.4167 848.422 80.2969C848.495 80.1771 848.555 79.9297 848.602 79.5547C848.648 79.1797 848.672 78.6198 848.672 77.875V77.7109L849.797 77.8438V80.2578C849.797 80.6484 849.654 80.9766 849.367 81.2422C849.086 81.513 848.643 81.6719 848.039 81.7188C847.44 81.7708 846.792 81.7969 846.094 81.7969C845.458 81.7969 844.841 81.7786 844.242 81.7422C843.643 81.7057 843.229 81.6719 843 81.6406C842.771 81.6094 842.565 81.526 842.383 81.3906C842.206 81.2552 842.07 81.0885 841.977 80.8906C841.888 80.6927 841.844 80.4661 841.844 80.2109V79.5938C840.714 80.4531 839.628 81.1432 838.586 81.6641L838.047 80.8516C839.453 80.0807 840.703 79.2344 841.797 78.3125V71.4844H843.07V77.1484C844.393 75.8984 845.654 74.5182 846.852 73.0078C848.049 71.4922 848.867 70.2604 849.305 69.3125L850.578 69.7969C849.974 70.9323 848.88 72.4167 847.297 74.25C845.714 76.0781 844.305 77.526 843.07 78.5938ZM851.539 78.8281C851.331 78.1042 851.003 77.2214 850.555 76.1797C850.112 75.138 849.724 74.3281 849.391 73.75L850.484 73.3438C850.833 73.9115 851.255 74.7526 851.75 75.8672C852.25 76.9818 852.589 77.8359 852.766 78.4297L851.539 78.8281ZM838.695 79.2969L837.539 78.9375C837.815 78.2865 838.076 77.4401 838.32 76.3984C838.565 75.3516 838.729 74.4036 838.812 73.5547L840.016 73.6328C839.979 74.388 839.82 75.3802 839.539 76.6094C839.258 77.8333 838.977 78.7292 838.695 79.2969ZM861.633 74.3125C861.336 73.724 860.716 73.4297 859.773 73.4297C859.31 73.4349 858.898 73.625 858.539 74C858.185 74.375 858.008 74.7943 858.008 75.2578C858.008 75.7578 858.148 76.1641 858.43 76.4766C858.716 76.7839 859.102 76.9375 859.586 76.9375C860.195 76.9375 860.685 76.7396 861.055 76.3438C861.424 75.9427 861.615 75.4141 861.625 74.7578L861.633 74.3125ZM867.805 71.1094H862.875V74.1484C863.214 74.7526 863.383 75.5807 863.383 76.6328C863.383 78.0078 862.875 79.1641 861.859 80.1016C860.849 81.0339 859.599 81.5469 858.109 81.6406L857.789 80.6641C859.034 80.5755 860.083 80.1458 860.938 79.375C861.792 78.6042 862.219 77.6484 862.219 76.5078C862.219 76.3151 862.208 76.1406 862.188 75.9844C862.052 76.5885 861.745 77.0651 861.266 77.4141C860.786 77.7578 860.214 77.9297 859.547 77.9297C858.781 77.9297 858.135 77.6901 857.609 77.2109C857.083 76.7266 856.823 76.1198 856.828 75.3906C856.828 74.5521 857.122 73.8542 857.711 73.2969C858.299 72.7344 859.026 72.4531 859.891 72.4531C860.536 72.4531 861.109 72.6432 861.609 73.0234V71.1406H853.789V70.0859H861.609V68.25H862.875V70.0703H865.57C865.185 69.2109 864.82 68.5026 864.477 67.9453L865.32 67.5625C865.758 68.2396 866.154 68.9688 866.508 69.75L865.789 70.0703H867.805V71.1094ZM868.812 69.4531L867.914 69.8203C867.565 69.013 867.193 68.2943 866.797 67.6641L867.625 67.2656C867.984 67.8229 868.38 68.5521 868.812 69.4531ZM870.477 81.9844L870 81.1719C871.656 80.6354 872.904 79.8021 873.742 78.6719C874.586 77.5417 875.034 76.0365 875.086 74.1562H872.008V73.2109H881.953C880.286 71.6641 879.055 69.9922 878.258 68.1953L879.414 67.8516C880.539 70.1745 882.253 72.1406 884.555 73.75L883.641 74.6406C883.052 74.1771 882.508 73.7161 882.008 73.2578V76.8828C882.008 77.8724 881.938 78.6979 881.797 79.3594C881.656 80.0208 881.477 80.5026 881.258 80.8047C881.039 81.1016 880.776 81.3281 880.469 81.4844C880.161 81.6406 879.841 81.737 879.508 81.7734C879.174 81.8099 878.521 81.8281 877.547 81.8281H876.922L876.727 80.7344H878.781C879.375 80.7344 879.852 80.4974 880.211 80.0234C880.576 79.5495 880.758 78.5078 880.758 76.8984V74.1562H876.352C876.247 76.4427 875.667 78.2031 874.609 79.4375C873.557 80.6719 872.18 81.5208 870.477 81.9844ZM870 74.5469L869.328 73.7812C870.318 73.1198 871.302 72.2318 872.281 71.1172C873.266 69.9974 873.953 68.9583 874.344 68L875.578 68.3125C874.328 70.8073 872.469 72.8854 870 74.5469ZM896.031 81.8672H894.203L894.047 80.7734H895.547C895.969 80.7734 896.18 80.5885 896.18 80.2188V74.1016H893.555V73.1406H897.211C896.711 72.6823 895.737 71.888 894.289 70.7578L895.055 70.0859C895.414 70.3359 895.992 70.7734 896.789 71.3984C897.773 70.5339 898.409 69.8151 898.695 69.2422H893.719V68.3438H899.969L900.375 68.7656C900.125 69.2031 899.721 69.7422 899.164 70.3828C898.612 71.0234 898.07 71.5625 897.539 72C897.904 72.3021 898.159 72.5234 898.305 72.6641L897.656 73.1406H900.406L900.688 73.3984C900.125 75.112 899.547 76.3698 898.953 77.1719L898.109 76.7969C898.521 76.1354 898.906 75.237 899.266 74.1016H897.375V80.6484C897.375 81.0026 897.25 81.2943 897 81.5234C896.755 81.7526 896.432 81.8672 896.031 81.8672ZM888.82 80.1328V77.9062H885.719V76.9219H888.82V75H886.094V68.375H892.773V75H890.016V76.9219H892.867V77.9062H890.016V79.9766C891.583 79.763 892.674 79.599 893.289 79.4844V80.4531C891.883 80.7812 889.333 81.1615 885.641 81.5938L885.391 80.5312C885.953 80.4896 887.096 80.3568 888.82 80.1328ZM887.234 71.2656H888.867V69.2578H887.234V71.2656ZM889.977 71.2656H891.625V69.2578H889.977V71.2656ZM891.625 72.1094H889.977V74.0859H891.625V72.1094ZM888.867 72.1094H887.234V74.0859H888.867V72.1094ZM909.344 81.3203L909.039 80.2656C910.716 80.1146 912.148 79.6276 913.336 78.8047C914.529 77.9818 915.125 76.7526 915.125 75.1172C915.125 73.6589 914.643 72.5312 913.68 71.7344C912.721 70.9375 911.383 70.5156 909.664 70.4688C909.607 73.2708 909.104 75.6094 908.156 77.4844C907.208 79.3594 906.021 80.2969 904.594 80.2969C903.708 80.2969 903.01 79.9219 902.5 79.1719C901.995 78.4167 901.742 77.4974 901.742 76.4141C901.742 74.6276 902.513 73.0234 904.055 71.6016C905.596 70.1745 907.422 69.4609 909.531 69.4609C911.516 69.4609 913.151 69.9583 914.438 70.9531C915.724 71.9427 916.367 73.2969 916.367 75.0156C916.367 76.974 915.719 78.4714 914.422 79.5078C913.125 80.5443 911.432 81.1484 909.344 81.3203ZM908.438 70.5703C906.927 70.7995 905.628 71.4844 904.539 72.625C903.451 73.7604 902.906 75.0443 902.906 76.4766C902.906 77.237 903.065 77.8828 903.383 78.4141C903.701 78.9401 904.143 79.2031 904.711 79.2031C905.685 79.2031 906.534 78.2943 907.258 76.4766C907.982 74.6536 908.375 72.6849 908.438 70.5703ZM932.242 74.1406C931.133 73.6823 929.875 72.9297 928.469 71.8828C927.068 70.8359 925.901 69.75 924.969 68.625C924.245 69.625 923.198 70.6589 921.828 71.7266C920.458 72.7891 919.073 73.625 917.672 74.2344L917.148 73.375C918.503 72.724 919.831 71.8776 921.133 70.8359C922.44 69.7943 923.414 68.7969 924.055 67.8438H925.781C926.604 68.9115 927.706 69.9505 929.086 70.9609C930.471 71.9661 931.737 72.6927 932.883 73.1406L932.242 74.1406ZM929.094 73.6328H920.953V72.6875H929.094V73.6328ZM929.344 81.0781H920.531V81.8594H919.305V75.7734H930.578V81.8125H929.344V81.0781ZM920.531 80.1328H929.344V76.7188H920.531V80.1328ZM944.672 78.8359C943.5 80.263 942.146 81.3203 940.609 82.0078L940.008 81.1719C941.602 80.4115 942.924 79.3021 943.977 77.8438C942.904 76.1771 942.234 74.5339 941.969 72.9141C941.776 73.2109 941.594 73.474 941.422 73.7031L940.672 73.1328C941.661 71.5547 942.401 69.6875 942.891 67.5312L944.133 67.7266C943.924 68.5964 943.643 69.4792 943.289 70.375H948.328V71.3516H947.391C947.307 73.8099 946.633 75.9922 945.367 77.8984C946.273 79.0391 947.38 80.0495 948.688 80.9297L947.836 81.875C946.628 81.0104 945.573 79.9974 944.672 78.8359ZM944.625 76.8203C945.594 75.112 946.104 73.2891 946.156 71.3516H942.859C942.849 71.3776 942.81 71.4531 942.742 71.5781C943.102 73.5781 943.729 75.3255 944.625 76.8203ZM933.609 74.125L933.43 73.1641L934.5 73.0781C935 71.8385 935.44 70.6198 935.82 69.4219H933.609V68.4609H940.742V69.4219H937.07C936.617 70.7188 936.141 71.901 935.641 72.9688C937.109 72.8281 938.201 72.7083 938.914 72.6094C938.638 71.9688 938.37 71.3698 938.109 70.8125L939.156 70.4844C939.75 71.6875 940.25 72.8359 940.656 73.9297L939.578 74.2422C939.484 73.9818 939.38 73.7109 939.266 73.4297C938.365 73.5859 936.479 73.8177 933.609 74.125ZM933.555 81.7656L933.328 80.7344C934.359 80.5938 935.443 80.4297 936.578 80.2422V77.2578H933.789V76.25H936.578V74.4844H937.781V76.25H940.383V77.2578H937.781V80.0312C939.073 79.8021 940.01 79.612 940.594 79.4609L940.641 80.3906C939.365 80.8073 937.003 81.2656 933.555 81.7656ZM958.109 74.3125C957.812 73.724 957.193 73.4297 956.25 73.4297C955.792 73.4349 955.383 73.625 955.023 74C954.664 74.375 954.487 74.7943 954.492 75.2578C954.492 75.763 954.633 76.1693 954.914 76.4766C955.195 76.7839 955.578 76.9375 956.062 76.9375C956.677 76.9375 957.167 76.737 957.531 76.3359C957.901 75.9349 958.094 75.4089 958.109 74.7578V74.3125ZM964.281 71.1406H959.352V74.1484C959.695 74.7526 959.867 75.5807 959.867 76.6328C959.862 78.0078 959.352 79.1641 958.336 80.1016C957.326 81.0339 956.076 81.5469 954.586 81.6406L954.266 80.6641C955.516 80.5755 956.565 80.1458 957.414 79.375C958.268 78.6042 958.695 77.6484 958.695 76.5078C958.695 76.3151 958.685 76.1406 958.664 75.9844C958.534 76.5885 958.229 77.0651 957.75 77.4141C957.271 77.7578 956.695 77.9297 956.023 77.9297C955.263 77.9297 954.62 77.6901 954.094 77.2109C953.568 76.7266 953.305 76.1198 953.305 75.3906C953.305 74.5521 953.599 73.8542 954.188 73.2969C954.781 72.7344 955.508 72.4531 956.367 72.4531C957.013 72.4531 957.589 72.6432 958.094 73.0234V71.1406H950.266V70.1172H958.094V68.25H959.352V70.1172H964.281V71.1406ZM975.141 80.4297C977.094 79.9609 978.07 78.9557 978.07 77.4141C978.07 76.4609 977.711 75.724 976.992 75.2031C976.273 74.6823 975.315 74.4219 974.117 74.4219C973.294 74.4219 972.49 74.526 971.703 74.7344C970.922 74.9427 970.021 75.3672 969 76.0078C967.984 76.6484 967.276 77.138 966.875 77.4766L966.297 76.5156C969.469 74.4688 972.568 72.3151 975.594 70.0547L967.688 70.0859V69.0469H977.227L977.773 69.8438L972.266 73.6562L972.328 73.75C972.964 73.5573 973.596 73.4609 974.227 73.4609C975.721 73.4609 976.948 73.8047 977.906 74.4922C978.87 75.1797 979.352 76.1302 979.352 77.3438C979.352 78.7656 978.763 79.8516 977.586 80.6016C976.409 81.3464 974.831 81.7188 972.852 81.7188C970.133 81.7188 968.773 80.9714 968.773 79.4766C968.773 78.888 969.055 78.3932 969.617 77.9922C970.18 77.5911 970.797 77.3906 971.469 77.3906C972.411 77.3906 973.219 77.6536 973.891 78.1797C974.562 78.7057 974.979 79.4557 975.141 80.4297ZM973.992 80.6328C973.69 79.138 972.878 78.3906 971.555 78.3906C971.133 78.3906 970.753 78.4948 970.414 78.7031C970.081 78.9115 969.914 79.1875 969.914 79.5312C969.914 80.3281 970.836 80.7266 972.68 80.7266C973.081 80.7266 973.518 80.6953 973.992 80.6328ZM925.375 96.7656C925.375 97.2344 925.352 97.7682 925.305 98.3672H928.305C929.044 98.3672 929.622 98.6328 930.039 99.1641C930.461 99.6901 930.672 100.38 930.672 101.234C930.672 103.333 930.451 105.073 930.008 106.453C929.565 107.833 928.789 108.523 927.68 108.523C927.034 108.523 926.128 108.216 924.961 107.602L925.344 106.609C925.625 106.745 926.016 106.896 926.516 107.062C927.021 107.224 927.367 107.305 927.555 107.305C927.982 107.31 928.32 107.086 928.57 106.633C928.826 106.174 929.034 105.534 929.195 104.711C929.362 103.883 929.445 102.901 929.445 101.766C929.445 100.729 929.305 100.076 929.023 99.8047C928.747 99.5286 928.38 99.3906 927.922 99.3906H925.203C925.021 101.161 924.599 102.859 923.938 104.484C923.281 106.109 922.451 107.484 921.445 108.609L920.562 107.969C921.24 107.167 921.911 106.052 922.578 104.625C923.25 103.193 923.703 101.503 923.938 99.5547H920.883V98.5078H924.062C924.099 98.1432 924.117 97.0938 924.117 95.3594H925.375V96.7656ZM934.961 103.242L933.742 103.562C933.034 100.953 932 98.9219 930.641 97.4688L931.555 96.8438C932.268 97.5729 932.953 98.5599 933.609 99.8047C934.266 101.044 934.716 102.19 934.961 103.242ZM935.781 96.5234L934.883 96.8906C934.534 96.0833 934.161 95.362 933.766 94.7266L934.594 94.3281C934.953 94.8854 935.349 95.6172 935.781 96.5234ZM933.539 96.8438L932.641 97.2422C932.266 96.4036 931.888 95.6745 931.508 95.0547L932.352 94.6641C932.805 95.3672 933.201 96.0938 933.539 96.8438ZM942.008 97.4688V96.5078H945.922V94.7734H947.102V96.5078H951.266V97.4688H942.008ZM936.773 105.57L936.117 104.914C936.669 104.174 937.237 103.167 937.82 101.891C938.409 100.615 938.786 99.5729 938.953 98.7656H936.789V97.8359H939.039V94.8438H940.211V97.8359H941.914V98.7656H940.211V100.633C940.69 101.279 941.31 101.891 942.07 102.469L941.438 103.367C940.849 102.779 940.44 102.341 940.211 102.055V109.031H939.039V101.727C938.414 103.19 937.659 104.471 936.773 105.57ZM950.773 101.445C950.232 101.07 949.646 100.573 949.016 99.9531C948.385 99.3281 947.917 98.776 947.609 98.2969L948.57 97.8594C949.352 98.9167 950.357 99.8464 951.586 100.648L950.773 101.445ZM942.516 101.469L941.75 100.797C943.016 99.849 943.93 98.8854 944.492 97.9062L945.531 98.2969C944.771 99.5312 943.766 100.589 942.516 101.469ZM946.547 106.211C945.177 107.487 943.56 108.414 941.695 108.992L941.242 108.094C943.023 107.516 944.529 106.628 945.758 105.43C944.721 104.284 943.982 102.945 943.539 101.414L944.633 101.055C945.06 102.435 945.695 103.607 946.539 104.57C947.471 103.43 948.073 102.263 948.344 101.07L949.516 101.352C949.141 102.805 948.419 104.146 947.352 105.375C948.648 106.521 950.115 107.362 951.75 107.898L951.086 108.906C949.409 108.333 947.896 107.435 946.547 106.211ZM952.789 108.562V107.547H954.992V99.3516H956.234V107.547H959.883V96.6328H953.18V95.6484H966.875V96.6328H961.125V101.164H966.008V102.148H961.125V107.547H967.148V108.562H952.789Z" fill="black"/>
<path d="M873.866 107.033L872.284 108.94C872.009 108.659 870.863 107.783 868.848 106.312L869.832 105.231H866.703V103.465H878.111V102.656H867.837V96.4336H873.611V95.6953H866.861V93.9463H873.611V92.9531H876.116V93.9463H883.104V95.6953H876.116V96.4336H882.058V102.656H880.563V103.465H883.332V105.231H880.563V107.191C880.563 107.73 880.338 108.155 879.887 108.466C879.441 108.782 878.917 108.94 878.313 108.94H875.58L875.308 106.726H877.61C877.944 106.726 878.111 106.576 878.111 106.277V105.231H871.309C872.615 106.069 873.468 106.67 873.866 107.033ZM876.116 98.8945H879.676V97.9453H876.116V98.8945ZM870.228 98.8945H873.611V97.9453H870.228V98.8945ZM873.611 100.178H870.228V101.145H873.611V100.178ZM879.676 100.178H876.116V101.145H879.676V100.178ZM900.682 107.191C900.682 107.654 900.482 108.047 900.084 108.369C899.686 108.691 899.22 108.853 898.687 108.853H895.936L895.698 106.638H897.737C897.878 106.638 898.004 106.588 898.115 106.488C898.232 106.389 898.291 106.269 898.291 106.128V100.459H893.58V93.3486H900.682V107.191ZM895.865 96.1963H898.291V94.9922H895.865V96.1963ZM898.291 97.5498H895.865V98.7715H898.291V97.5498ZM892.209 100.459H887.604V109.011H885.274V93.3486H892.209V100.459ZM889.959 96.1963V94.9922H887.604V96.1963H889.959ZM889.959 98.7715V97.5498H887.604V98.7715H889.959ZM918.813 97.5059H916.889V95.8711H904.883V97.585H902.932V94.1836H909.629V92.918H912.081V94.1836H918.813V97.5059ZM910.569 104.757C908.724 106.022 906.389 107.183 903.564 108.237L902.738 106.523C905.926 105.328 908.46 103.989 910.341 102.507C910.288 102.261 910.235 102.056 910.183 101.892C908.729 102.923 906.523 103.995 903.564 105.108L902.809 103.465C905.322 102.615 907.552 101.502 909.497 100.125C909.444 100.014 909.348 99.8262 909.207 99.5625C907.707 100.512 905.894 101.364 903.767 102.12L903.046 100.477C904.938 99.8086 906.491 99.1201 907.704 98.4111H905.331V96.7148H916.493V98.4111H915.14C915.187 99.2139 915.28 99.9346 915.421 100.573C916.312 99.9463 917.076 99.3164 917.715 98.6836L919.367 100.371C918.787 100.893 917.703 101.622 916.115 102.56L916.133 102.604C916.32 103.078 916.698 103.699 917.267 104.467C917.841 105.234 918.603 105.97 919.552 106.673L917.548 108.457C916.142 107.408 915.025 105.92 914.199 103.992C913.379 102.064 912.939 100.204 912.881 98.4111H910.982C912.312 100.544 912.978 102.674 912.978 104.801C912.978 105.41 912.922 105.952 912.811 106.427C912.699 106.901 912.532 107.309 912.31 107.648C912.093 107.982 911.817 108.252 911.483 108.457C911.155 108.662 910.804 108.794 910.429 108.853C910.054 108.917 909.424 108.949 908.539 108.949C908.264 108.949 907.956 108.946 907.616 108.94L907.326 106.708C908.328 106.708 908.999 106.702 909.339 106.69C909.679 106.673 909.963 106.559 910.191 106.348C910.426 106.137 910.552 105.606 910.569 104.757Z" fill="#D52B1E"/>
<defs>
<clipPath id="paint0_diamond_1_476_clip_path"><path d="M231 1C231 0.447715 230.552 0 230 0C229.448 0 229 0.447715 229 1H230H231ZM229 115C229 115.552 229.448 116 230 116C230.552 116 231 115.552 231 115H230H229ZM230 1H229V115H230H231V1H230Z"/></clipPath><clipPath id="paint1_diamond_1_476_clip_path"><path d="M501 1C501 0.447715 500.552 0 500 0C499.448 0 499 0.447715 499 1H500H501ZM499 115C499 115.552 499.448 116 500 116C500.552 116 501 115.552 501 115H500H499ZM500 1H499V115H500H501V1H500Z"/></clipPath><clipPath id="paint2_diamond_1_476_clip_path"><path d="M779 1C779 0.447715 778.552 0 778 0C777.448 0 777 0.447715 777 1H778H779ZM777 115C777 115.552 777.448 116 778 116C778.552 116 779 115.552 779 115H778H777ZM778 1H777V115H778H779V1H778Z"/></clipPath><linearGradient id="paint0_diamond_1_476" x1="0" y1="0" x2="500" y2="500" gradientUnits="userSpaceOnUse">
<stop/>
<stop offset="1" stop-opacity="0"/>
</linearGradient>
<linearGradient id="paint1_diamond_1_476" x1="0" y1="0" x2="500" y2="500" gradientUnits="userSpaceOnUse">
<stop/>
<stop offset="1" stop-opacity="0"/>
</linearGradient>
<linearGradient id="paint2_diamond_1_476" x1="0" y1="0" x2="500" y2="500" gradientUnits="userSpaceOnUse">
<stop/>
<stop offset="1" stop-opacity="0"/>
</linearGradient>
<clipPath id="clip0_1_476">
<rect width="75" height="52" fill="white" transform="translate(327.5 0.5)"/>
</clipPath>
<clipPath id="clip1_1_476">
<rect width="12" height="11" fill="white" transform="translate(885.637 34.1001)"/>
</clipPath>
</defs>
</svg>
