<svg width="118" height="59" viewBox="0 0 118 59" fill="none" xmlns="http://www.w3.org/2000/svg">
<path fill-rule="evenodd" clip-rule="evenodd" d="M39.9274 16.7228H46.9337V42.0165H39.9274V16.7228ZM50.611 42.0165V16.7228H69.881V21.6269H57.618V26.8469H68.8985V31.7516H57.618V37.1118H69.881V42.0165H50.611ZM73.8038 42.0165V16.7228H93.072V21.6269H80.8095V26.8469H92.0907V31.7516H80.8095V37.1118H93.072V42.0165H73.8038ZM96.996 42.0165V16.7228H116.264V21.6269H104.002V26.8469H115.282V31.7516H104.002V37.1118H116.264V42.0165H96.996ZM20.7309 14.4534C21.771 15.772 22.8649 17.1531 23.9901 18.4038L26.7694 21.3067C29.24 23.7687 31.9341 25.9958 34.817 27.9592L34.91 27.9739C35.0922 28.094 35.2453 28.2533 35.358 28.4402C35.4708 28.627 35.5405 28.8366 35.562 29.0538C35.5473 29.9769 34.484 30.1624 33.9251 30.6595C28.3598 34.6949 23.3773 39.6927 19.4496 45.2586L19.1331 45.5769C18.8142 45.7716 18.4028 45.6938 18.0686 45.5769C17.6419 45.4367 17.596 44.9721 17.3235 44.6838C16.4549 43.3339 15.3444 42.0692 14.398 40.8124C13.839 40.2443 13.3732 39.648 12.799 39.0426C9.56975 35.5012 5.93712 32.3974 2.14226 29.7822C1.87045 29.5098 1.64518 29.1523 1.76945 28.7183C1.88637 28.2371 2.44467 27.95 2.81749 27.6555C7.55938 24.4031 11.9064 20.1583 15.5764 15.6092L17.8671 12.6285C18.1689 12.3971 18.5736 12.2031 18.9452 12.3659C19.116 12.4118 19.3106 12.5667 19.4655 12.6591L20.7309 14.4534Z" fill="#366DB4"/>
<path fill-rule="evenodd" clip-rule="evenodd" d="M17.4551 17.0068C16.3808 17.7713 15.3421 18.5848 14.3422 19.4445C14.2571 19.4983 14.1561 19.614 14.1023 19.6691C11.7197 21.7958 9.36037 24.1239 7.43509 26.5763C6.89209 27.2821 6.31787 27.9733 6.10789 28.8113C6.09994 29.2607 6.17034 29.6806 6.41153 30.0216C8.04052 32.4513 10.1997 34.7733 12.3484 36.7677C14.2039 38.42 15.989 40.2375 18.1071 41.3462C18.8056 41.6725 19.5898 41.2923 20.172 40.8809C23.0516 38.854 25.6209 36.3172 28.0567 33.694C29.1819 32.3129 30.4712 31.0482 31.1072 29.4651C31.278 28.8352 31.0062 28.3002 30.6964 27.8257C28.795 25.1095 26.4816 22.5414 23.9901 20.2274L23.8272 20.1344C22.9267 19.2651 21.9026 18.4123 20.917 17.6594C19.9773 16.8593 18.5736 16.1375 17.4551 17.0068Z" fill="white"/>
<path fill-rule="evenodd" clip-rule="evenodd" d="M17.8671 17.6894C14.3196 20.1417 10.9049 23.4634 8.15747 26.8548C7.59795 27.6782 6.62031 28.4624 7.06291 29.5576C7.38124 30.3644 8.09564 30.946 8.55355 31.6598C11.2459 34.8963 14.4286 37.9156 17.7496 40.3453C19.209 41.2764 20.2491 39.771 21.3822 39.0793C23.703 37.2489 25.8529 35.0212 27.8866 32.8559V32.8021C28.7008 31.8159 29.5627 30.8462 30.1988 29.7828C30.4791 29.2613 30.3389 28.5475 30.0273 28.0896C27.567 24.5267 24.339 21.3765 20.9164 18.6211C20.0312 17.9997 19.007 16.9137 17.8671 17.6894Z" fill="#366DB4"/>
<path fill-rule="evenodd" clip-rule="evenodd" d="M18.5888 19.9248L18.279 20.9178L16.7266 25.3658C17.1147 25.4038 17.5958 25.3658 17.976 25.4038V25.4429L17.7507 30.4719L17.7899 30.527C18.287 30.5723 18.9065 30.5962 19.4116 30.5105V30.434L19.2095 25.5519L19.2408 25.3891L20.6065 25.3658C19.9228 23.5609 19.2631 21.7471 18.6274 19.9248H18.5888Z" fill="white"/>
<path fill-rule="evenodd" clip-rule="evenodd" d="M13.3042 26.8942C12.4337 27.3288 11.1536 27.99 11.2938 29.1831C11.4799 29.8357 12.1864 30.2544 12.7453 30.5268C15.8337 31.8853 19.9328 31.9318 23.1914 30.9143C23.9988 30.6046 25.0781 30.1552 25.225 29.1684C25.2171 28.3524 24.3557 27.8412 23.7344 27.5309V27.4923C23.9511 27.4072 24.2009 27.3288 24.4255 27.305V27.2817C23.331 27.0876 22.275 26.8005 21.2202 26.5214C21.4222 26.9866 21.5691 27.4758 21.7405 27.9582C22.0617 27.8542 22.3912 27.7784 22.7255 27.7317C23.2851 27.9496 24.0839 28.26 24.1617 28.9578C24.2241 29.6104 23.5097 29.9275 23.0598 30.192C20.6692 31.0613 17.9757 31.1476 15.4841 30.487C14.7942 30.2703 13.8 29.99 13.715 29.1146C14.2041 27.9582 15.4694 27.7163 16.5242 27.4378C15.9812 27.0876 15.4303 26.7773 14.9026 26.3892C14.3363 26.4216 13.8166 26.6695 13.3042 26.8942ZM17.7198 31.9085C17.6274 33.6936 17.6041 35.3471 17.4719 37.1408C18.1783 37.2032 18.9772 37.265 19.7302 37.1548L19.5049 32.1644L19.4657 31.9238C18.8921 31.9477 18.3491 31.9703 17.7198 31.9085Z" fill="white"/>
<path fill-rule="evenodd" clip-rule="evenodd" d="M24.2115 43.0819V42.777H24.4013C24.5042 42.777 24.6437 42.7868 24.6437 42.916C24.6437 43.0562 24.5721 43.0819 24.4515 43.0819H24.2115ZM24.2115 43.2955H24.3395L24.6303 43.8263H24.9511L24.6278 43.2741C24.7962 43.26 24.9321 43.1762 24.9321 42.9442C24.9321 42.6546 24.7399 42.5628 24.4136 42.5628H23.9416V43.8263H24.2109L24.2115 43.2955ZM25.5847 43.1951C25.5847 42.4526 25.0282 42.021 24.4068 42.021C23.783 42.021 23.2266 42.4526 23.2266 43.1951C23.2266 43.9377 23.783 44.3705 24.4068 44.3705C25.0282 44.3705 25.5847 43.9377 25.5847 43.1951ZM25.2461 43.1951C25.2461 43.7357 24.8605 44.1005 24.4068 44.1005V44.0969C23.9416 44.1005 23.5657 43.7357 23.5657 43.1951C23.5657 42.6546 23.9416 42.2946 24.4068 42.2946C24.8605 42.2952 25.2461 42.6552 25.2461 43.1951Z" fill="#366DB4"/>
</svg>
