<svg width="118" height="59" viewBox="0 0 118 59" fill="none" xmlns="http://www.w3.org/2000/svg">
<path d="M87.8231 17.4864C87.9688 17.5129 88.1154 17.5349 88.262 17.5563C90.0332 17.8431 91.6256 18.7501 93.0154 19.8461C93.1328 19.9384 93.2513 20.0292 93.37 20.1197C94.1618 20.7388 94.806 21.4734 95.3593 22.3095C95.3997 22.364 95.4401 22.4186 95.4817 22.4748C96.0775 23.2809 96.5072 24.1749 96.8665 25.1074C96.8909 25.1701 96.9152 25.2329 96.9403 25.2976C97.0982 25.7223 97.1974 26.1415 97.2768 26.587C97.2965 26.6839 97.3165 26.7808 97.337 26.8776C97.3551 26.9658 97.3733 27.0539 97.392 27.1447C97.4104 27.233 97.4287 27.3213 97.4476 27.4123C97.7591 29.1479 97.608 30.9453 97.1293 32.6345C97.1119 32.6985 97.0945 32.7626 97.0766 32.8286C96.9723 33.1972 96.8407 33.5399 96.6793 33.8871C96.6054 34.0451 96.6054 34.0451 96.5439 34.257C96.4523 34.5156 96.3244 34.7379 96.1884 34.9754C96.0664 35.1972 95.9703 35.4237 95.8755 35.6582C95.8268 35.6582 95.7782 35.6582 95.728 35.6582C95.709 35.711 95.69 35.7637 95.6704 35.8181C95.5751 36.0396 95.4605 36.2213 95.3224 36.4188C95.2775 36.4839 95.2327 36.549 95.1864 36.6161C95.126 36.6895 95.126 36.6895 95.0643 36.7645C95.0156 36.7645 94.9669 36.7645 94.9168 36.7645C94.8917 36.8443 94.8917 36.8443 94.8661 36.9258C94.7498 37.1749 94.5989 37.313 94.4005 37.502C94.3518 37.5643 94.3032 37.6267 94.253 37.6909C94.0975 37.8805 93.9282 38.0136 93.7368 38.1657C93.6987 38.2174 93.6607 38.2691 93.6215 38.3224C93.4992 38.482 93.3986 38.5192 93.2205 38.6082C93.1703 38.6614 93.1201 38.7147 93.0684 38.7695C92.7763 39.0753 92.3999 39.2763 92.0405 39.4932C91.987 39.5257 91.9335 39.5582 91.8783 39.5917C91.546 39.7882 91.546 39.7882 91.3768 39.7882C91.3768 39.8369 91.3768 39.8856 91.3768 39.9357C90.1865 40.4928 89.0288 40.8854 87.7498 41.1857C87.6657 41.2055 87.6657 41.2055 87.5798 41.2257C86.0862 41.5278 84.3601 41.4415 82.8955 41.042C82.7789 41.0131 82.6622 40.9844 82.5455 40.9558C81.8582 40.7823 81.2449 40.5467 80.6093 40.2307C80.5159 40.1914 80.4222 40.1528 80.3281 40.1155C80.0843 40.0055 79.8699 39.8744 79.6456 39.7297C79.4572 39.6121 79.261 39.5147 79.0605 39.4195C79.0605 39.3708 79.0605 39.3221 79.0605 39.272C79.0096 39.2549 78.9586 39.2379 78.9061 39.2204C78.6457 39.1038 78.4341 38.946 78.2124 38.7695C78.1675 38.7339 78.1226 38.6982 78.0764 38.6615C77.3248 38.0527 76.6849 37.3715 76.1123 36.5933C75.9753 36.4012 75.9753 36.4012 75.8377 36.275C75.6743 36.1038 75.6493 35.8827 75.5943 35.6582C75.5456 35.6582 75.4969 35.6582 75.4468 35.6582C73.8498 32.8242 73.1865 29.4514 74.0582 26.2511C74.1424 25.9659 74.2406 25.6869 74.3405 25.407C74.3882 25.2533 74.4358 25.0997 74.4834 24.946C74.639 24.4861 74.8477 24.0637 75.078 23.637C75.1009 23.5941 75.1237 23.5513 75.1473 23.5071C75.4137 23.0103 75.6813 22.5434 76.0777 22.136C76.1922 22.0055 76.2608 21.8773 76.3318 21.7195C76.3805 21.7195 76.4291 21.7195 76.4793 21.7195C76.4949 21.6806 76.5105 21.6417 76.5265 21.6016C76.6678 21.352 76.8554 21.1582 77.0508 20.9497C77.0887 20.9084 77.1265 20.8671 77.1655 20.8245C77.3533 20.6223 77.5431 20.4347 77.7572 20.2603C77.9564 20.1176 77.9564 20.1176 78.028 19.9495C78.095 19.9175 78.1619 19.8856 78.2308 19.8527C78.4872 19.7196 78.6391 19.5649 78.8393 19.3595C78.9366 19.3083 79.035 19.2593 79.1343 19.212C79.2439 19.1468 79.3529 19.0806 79.4615 19.0138C80.2398 18.5466 80.9993 18.1685 81.863 17.8845C81.9554 17.8515 81.9554 17.8515 82.0497 17.8179C82.4495 17.6764 82.8466 17.5873 83.2643 17.5157C83.3132 17.5066 83.3621 17.4974 83.4125 17.488C84.892 17.2137 86.3438 17.2102 87.8231 17.4864ZM81.4943 23.7845C81.4273 23.8376 81.3602 23.8907 81.2912 23.9455C81.1886 24.0278 81.1886 24.0278 81.084 24.1117C81.0155 24.1664 80.947 24.2211 80.8763 24.2774C80.6866 24.445 80.5344 24.6107 80.388 24.817C80.388 24.8656 80.388 24.9143 80.388 24.9645C80.2785 25.001 80.2785 25.001 80.1668 25.0382C80.0764 25.2601 80.0764 25.2601 80.0193 25.4807C79.9706 25.4807 79.9219 25.4807 79.8718 25.4807C79.2014 26.7904 79.2014 26.7904 78.8393 28.2095C78.8264 28.2784 78.8136 28.3473 78.8004 28.4183C78.6767 29.247 78.7532 30.0493 78.9269 30.8645C78.9413 30.9339 78.9558 31.0034 78.9707 31.075C79.0688 31.5021 79.2133 31.87 79.4207 32.2561C79.503 32.4132 79.503 32.4132 79.5952 32.6621C79.7738 33.0928 80.1023 33.4515 80.388 33.8145C80.4228 33.8617 80.4576 33.909 80.4935 33.9576C81.2015 34.8702 82.4474 35.6612 83.5593 35.9532C83.6452 35.9781 83.7312 36.003 83.8197 36.0287C85.5123 36.5125 87.3079 36.3441 88.8736 35.5029C89.0203 35.4179 89.1642 35.3299 89.3072 35.2388C89.3512 35.2107 89.3953 35.1826 89.4407 35.1537C89.6538 35.0109 89.7448 34.9492 89.828 34.6995C89.9102 34.6698 89.9102 34.6698 89.994 34.6395C90.222 34.5411 90.3227 34.416 90.4722 34.2215C90.5655 34.1095 90.5655 34.1095 90.7683 33.9481C90.9533 33.8238 90.9533 33.8238 91.008 33.5932C91.0597 33.5461 91.1115 33.4989 91.1647 33.4503C92.093 32.5327 92.479 30.887 92.579 29.626C92.586 27.5905 91.8224 25.7455 90.418 24.2731C89.8921 23.7429 89.8921 23.7429 89.238 23.4895C89.238 23.4408 89.238 23.3921 89.238 23.342C86.7985 22.0381 83.708 21.9093 81.4943 23.7845Z" fill="black"/>
<path d="M39.3524 17.6533C39.422 17.653 39.4915 17.6526 39.5632 17.6523C39.6393 17.6523 39.7155 17.6524 39.794 17.6524C39.8744 17.6522 39.9548 17.6519 40.0376 17.6517C40.3047 17.651 40.5717 17.6508 40.8388 17.6507C41.0251 17.6505 41.2114 17.6503 41.3977 17.65C41.7895 17.6496 42.1813 17.6494 42.573 17.6495C43.0221 17.6495 43.4712 17.6487 43.9203 17.6476C44.3552 17.6465 44.79 17.6462 45.2249 17.6463C45.4083 17.6462 45.5917 17.6459 45.7751 17.6453C47.2404 17.6411 48.6641 17.6825 50.0846 18.068C50.2128 18.1027 50.3417 18.1349 50.4707 18.167C52.1412 18.6203 53.7851 19.8146 54.7225 21.2769C54.7726 21.3994 54.8217 21.5224 54.87 21.6456C54.9367 21.7583 55.0044 21.8705 55.0728 21.9821C56.0472 23.7541 56.1686 26.136 55.6372 28.059C55.3347 29.0916 54.9951 30.0997 54.2063 30.8644C54.185 30.9115 54.1637 30.9587 54.1417 31.0073C54.0168 31.2364 53.817 31.3651 53.6163 31.5281C53.5676 31.6011 53.5189 31.6742 53.4688 31.7494C53.3461 31.8236 53.2232 31.8973 53.1 31.9706C53.0514 32.0223 53.0027 32.0741 52.9525 32.1273C52.7807 32.2884 52.6669 32.3138 52.4363 32.3394C52.4363 32.3881 52.4363 32.4367 52.4363 32.4869C52.0478 32.8059 51.573 32.9751 51.1088 33.1506C51.058 33.1725 51.0072 33.1944 50.9549 33.2169C50.4488 33.4314 49.9391 33.562 49.4033 33.6807C49.3201 33.6999 49.2369 33.719 49.1512 33.7388C48.3826 33.9127 47.6735 33.9725 46.8866 33.9691C46.7941 33.969 46.7016 33.9689 46.6064 33.9688C46.3624 33.9684 46.1185 33.9678 45.8746 33.9669C45.6249 33.9662 45.3752 33.9659 45.1255 33.9655C44.637 33.9647 44.1485 33.9634 43.66 33.9619C43.6608 34.0859 43.6608 34.0859 43.6615 34.2124C43.666 34.9905 43.6693 35.7686 43.6715 36.5467C43.6726 36.9467 43.6742 37.3468 43.6767 37.7468C43.6791 38.1327 43.6804 38.5186 43.681 38.9045C43.6814 39.0519 43.6822 39.1993 43.6834 39.3467C43.685 39.5528 43.6853 39.7589 43.6851 39.965C43.6859 40.0262 43.6867 40.0875 43.6876 40.1506C43.6853 40.5674 43.6853 40.5674 43.5601 40.7257C43.3774 40.8687 43.228 40.8482 42.9986 40.8481C42.908 40.8485 42.8175 40.849 42.7241 40.8495C42.6252 40.8488 42.5262 40.8482 42.4273 40.8474C42.3258 40.8474 42.2243 40.8474 42.1228 40.8475C41.9101 40.8475 41.6974 40.8468 41.4847 40.8454C41.2123 40.8438 40.94 40.8437 40.6676 40.8442C40.458 40.8445 40.2484 40.844 40.0388 40.8432C39.9383 40.843 39.8379 40.8429 39.7375 40.843C39.597 40.843 39.4565 40.842 39.316 40.8409C39.2361 40.8405 39.1562 40.8402 39.0739 40.8399C38.8661 40.8206 38.7444 40.7872 38.5713 40.6731C38.4791 40.4888 38.488 40.3647 38.4876 40.1584C38.4873 40.0802 38.487 40.002 38.4866 39.9215C38.4866 39.835 38.4867 39.7484 38.4867 39.6592C38.4864 39.5678 38.4861 39.4764 38.4859 39.3822C38.4852 39.1276 38.4848 38.873 38.4846 38.6185C38.4844 38.3442 38.4837 38.07 38.483 37.7957C38.4815 37.133 38.4808 36.4704 38.4802 35.8077C38.4798 35.4958 38.4794 35.1839 38.479 34.8721C38.4778 33.8357 38.4767 32.7994 38.4762 31.763C38.476 31.494 38.4759 31.2249 38.4758 30.9559C38.4757 30.889 38.4757 30.8222 38.4757 30.7533C38.475 29.6695 38.4732 28.5858 38.4708 27.502C38.4683 26.39 38.467 25.278 38.4668 24.166C38.4666 23.5414 38.466 22.9168 38.4641 22.2922C38.4625 21.7604 38.4619 21.2285 38.4626 20.6967C38.4629 20.4252 38.4628 20.1538 38.4614 19.8824C38.4598 19.5883 38.4606 19.2942 38.4616 19.0001C38.4607 18.9141 38.4599 18.828 38.4591 18.7393C38.4637 18.1642 38.4637 18.1642 38.6334 17.87C38.8681 17.6736 39.0572 17.6539 39.3524 17.6533ZM43.66 22.3831C43.66 24.6709 43.66 26.9586 43.66 29.3156C44.2669 29.3232 44.8739 29.3308 45.4992 29.3387C45.7824 29.3437 45.7824 29.3437 46.0713 29.3489C47.2154 29.3607 48.1668 29.261 49.1913 28.7256C49.1913 28.677 49.1913 28.6283 49.1913 28.5781C49.271 28.554 49.271 28.554 49.3523 28.5294C49.8803 28.2783 50.2859 27.6499 50.4865 27.1123C50.5245 26.9871 50.5603 26.8612 50.5925 26.7344C50.6199 26.6271 50.6199 26.6271 50.6478 26.5177C50.7237 25.5891 50.6285 24.6785 50.15 23.8581C49.9657 23.6491 49.9657 23.6491 49.7813 23.4894C49.7083 23.3799 49.7083 23.3799 49.6338 23.2681C49.4085 23.1787 49.4085 23.1787 49.1913 23.1206C49.1913 23.072 49.1913 23.0233 49.1913 22.9731C48.845 22.7823 48.5176 22.6806 48.1357 22.5952C48.0835 22.5827 48.0313 22.5703 47.9774 22.5574C46.5565 22.2302 45.1213 22.3831 43.66 22.3831Z" fill="black"/>
<path d="M111.069 17.6632C111.122 17.6728 111.175 17.6823 111.229 17.6922C111.701 17.7809 112.155 17.9047 112.613 18.0504C112.719 18.0842 112.719 18.0842 112.828 18.1187C113.277 18.2656 113.681 18.4284 114.083 18.6764C114.253 18.7774 114.425 18.8449 114.609 18.9169C114.784 19.01 114.953 19.1111 115.125 19.2119C115.125 19.2606 115.125 19.3093 115.125 19.3594C115.295 19.4081 115.466 19.4568 115.641 19.5069C115.641 19.5556 115.641 19.6043 115.641 19.6544C115.684 19.6727 115.726 19.6909 115.77 19.7097C115.971 19.8214 116.095 19.9099 116.231 20.0969C116.238 20.4737 116.14 20.6688 115.886 20.9425C115.783 21.0616 115.712 21.1802 115.636 21.3184C115.506 21.5507 115.365 21.7337 115.199 21.9407C115.085 22.0997 114.973 22.2591 114.862 22.4201C114.834 22.461 114.805 22.502 114.776 22.5442C114.647 22.7307 114.525 22.9167 114.413 23.1138C114.38 23.1647 114.347 23.2157 114.314 23.2682C114.265 23.2682 114.216 23.2682 114.166 23.2682C114.134 23.3572 114.134 23.3572 114.102 23.4479C114.019 23.6369 114.019 23.6369 113.871 23.7107C113.548 23.7487 113.354 23.7338 113.097 23.5401C113.054 23.5063 113.011 23.4724 112.968 23.4376C112.77 23.2915 112.548 23.2135 112.322 23.1207C112.242 23.072 112.161 23.0233 112.078 22.9732C111.822 22.8229 111.564 22.7455 111.278 22.6672C111.041 22.5962 110.815 22.5058 110.585 22.4154C109.282 21.9485 107.471 21.8397 106.196 22.4105C105.738 22.6647 105.482 22.9303 105.297 23.4235C105.142 24.0252 105.21 24.4754 105.494 25.0241C106.323 26.1724 108.407 26.5084 109.696 26.8154C110.038 26.9009 110.373 27.0065 110.709 27.1136C110.888 27.167 111.061 27.2074 111.244 27.2415C111.655 27.3263 112.037 27.4961 112.423 27.6563C112.634 27.7435 112.846 27.8253 113.06 27.9052C113.388 28.0361 113.698 28.1962 114.009 28.3615C114.08 28.3992 114.08 28.3992 114.153 28.4377C114.394 28.5677 114.612 28.7086 114.83 28.8732C114.903 28.8975 114.976 28.9219 115.051 28.9469C115.177 29.0666 115.3 29.1901 115.42 29.3157C115.488 29.3818 115.556 29.448 115.625 29.5162C115.695 29.5839 115.764 29.6516 115.835 29.7213C115.904 29.789 115.973 29.8567 116.045 29.9264C116.452 30.3653 116.452 30.3653 116.452 30.6432C116.501 30.6432 116.55 30.6432 116.6 30.6432C116.815 31.0253 116.962 31.411 117.093 31.8278C117.117 31.9022 117.117 31.9022 117.141 31.978C117.549 33.3092 117.483 34.9344 117.042 36.2482C117.027 36.3118 117.012 36.3754 116.997 36.4409C116.655 37.8712 115.509 39.117 114.289 39.8732C114.166 39.9357 114.166 39.9357 114.019 39.9357C114.019 39.9844 114.019 40.033 114.019 40.0832C113.804 40.1731 113.59 40.2626 113.375 40.3514C113.234 40.41 113.094 40.4697 112.955 40.5317C112.576 40.696 112.193 40.807 111.792 40.9036C111.745 40.9153 111.697 40.927 111.648 40.9391C110.732 41.1495 109.816 41.2176 108.879 41.2125C108.802 41.2123 108.802 41.2123 108.724 41.2121C107.865 41.2083 107.042 41.1417 106.201 40.9682C106.138 40.9563 106.076 40.9444 106.011 40.9322C104.495 40.6446 103.028 40.1407 101.702 39.3457C101.649 39.3143 101.596 39.283 101.542 39.2506C101.375 39.1512 101.209 39.0506 101.043 38.9493C100.991 38.9176 100.939 38.886 100.885 38.8534C100.762 38.7758 100.642 38.6925 100.522 38.6082C100.522 38.5595 100.522 38.5108 100.522 38.4607C100.466 38.4531 100.41 38.4455 100.352 38.4376C100.133 38.3816 100.068 38.3423 99.9326 38.1657C99.911 37.9989 99.911 37.9989 99.9188 37.82C99.9208 37.7604 99.9228 37.7008 99.9248 37.6393C99.9274 37.594 99.9299 37.5486 99.9326 37.5019C99.9813 37.5019 100.03 37.5019 100.08 37.5019C100.099 37.4615 100.118 37.4211 100.138 37.3795C100.241 37.181 100.356 36.9946 100.476 36.8059C100.519 36.7376 100.563 36.6692 100.607 36.5988C100.744 36.3957 100.744 36.3957 100.903 36.1995C101.051 36.031 101.051 36.031 101.112 35.8057C101.211 35.7072 101.309 35.6089 101.407 35.5107C101.497 35.3792 101.583 35.2454 101.665 35.1097C102.108 34.3857 102.108 34.3857 102.366 34.2569C102.727 34.223 102.912 34.2896 103.21 34.492C103.28 34.5394 103.351 34.5867 103.424 34.6355C103.576 34.7427 103.728 34.8514 103.878 34.9622C104.475 35.3944 105.149 35.6872 105.832 35.9532C105.898 35.9801 105.898 35.9801 105.966 36.0075C106.342 36.156 106.718 36.2512 107.114 36.3311C107.206 36.3501 107.206 36.3501 107.301 36.3695C107.72 36.4534 108.133 36.5252 108.561 36.5432C108.621 36.547 108.682 36.5508 108.744 36.5547C109.738 36.5899 110.906 36.4112 111.659 35.7319C111.707 35.7319 111.756 35.7319 111.806 35.7319C111.814 35.6909 111.821 35.6498 111.829 35.6075C111.889 35.4045 111.992 35.2494 112.101 35.0682C112.262 34.5355 112.203 34.0436 111.975 33.5399C111.577 32.8379 110.541 32.4313 109.796 32.2104C109.739 32.1954 109.682 32.1805 109.623 32.1651C109.422 32.1117 109.228 32.0441 109.031 31.9753C108.634 31.8411 108.232 31.7374 107.824 31.6391C107.422 31.5411 107.028 31.4219 106.633 31.2966C106.458 31.2439 106.288 31.203 106.109 31.1686C105.333 31.0077 104.552 30.6929 103.841 30.3482C103.723 30.294 103.723 30.294 103.603 30.2387C102.196 29.5706 100.97 28.5505 100.432 27.048C100.356 26.8222 100.291 26.5951 100.227 26.3657C100.201 26.273 100.201 26.273 100.175 26.1784C99.7684 24.4629 100.002 22.4325 100.909 20.9129C101.913 19.3507 103.494 18.1313 105.31 17.6838C107.241 17.278 109.135 17.2925 111.069 17.6632Z" fill="black"/>
<path d="M20.5722 18.0565C20.7401 18.1108 20.9094 18.1576 21.0792 18.2052C21.4906 18.3279 21.8688 18.5033 22.2541 18.6909C22.3209 18.7226 22.3877 18.7543 22.4566 18.787C22.8075 18.9558 23.1337 19.1338 23.4525 19.3593C23.507 19.3947 23.5614 19.4302 23.6176 19.4667C24.169 19.8271 24.6944 20.2071 25.1488 20.6868C25.2377 20.7757 25.2377 20.7757 25.3285 20.8665C25.3909 20.9289 25.4532 20.9912 25.5175 21.0555C25.5576 21.0939 25.5977 21.1323 25.6391 21.1719C25.7487 21.2779 25.8546 21.3877 25.96 21.498C25.96 21.5467 25.96 21.5954 25.96 21.6455C26.0087 21.6455 26.0574 21.6455 26.1075 21.6455C26.202 21.7468 26.202 21.7468 26.3077 21.8881C26.3462 21.9393 26.3846 21.9906 26.4243 22.0433C26.4842 22.1248 26.4842 22.1248 26.5454 22.2078C26.5851 22.2604 26.6248 22.313 26.6657 22.3672C26.8814 22.6571 27.0595 22.9398 27.2138 23.268C27.2788 23.3731 27.3449 23.4776 27.412 23.5814C27.8923 24.3752 28.2557 25.2421 28.4675 26.1443C28.4924 26.2305 28.5173 26.3167 28.543 26.4055C28.5832 26.5454 28.5832 26.5454 28.6242 26.6882C28.6487 26.7724 28.6733 26.8566 28.6985 26.9434C28.8758 27.6876 28.8482 28.4769 28.8459 29.2372C28.8455 29.3891 28.8459 29.541 28.8463 29.6929C28.8474 31.3165 28.6008 32.9312 27.8193 34.3789C27.7221 34.5614 27.7221 34.5614 27.6263 34.7981C27.5071 35.0717 27.3713 35.3304 27.223 35.5889C27.1989 35.6321 27.1749 35.6753 27.1501 35.7198C26.9778 36.0218 26.7785 36.2794 26.55 36.543C26.4423 36.675 26.3348 36.8072 26.2273 36.9394C25.7737 37.4927 25.3299 38.0009 24.78 38.4605C24.7369 38.4981 24.6939 38.5358 24.6495 38.5746C24.3555 38.8293 24.3555 38.8293 24.19 38.8293C24.1657 38.9023 24.1413 38.9753 24.1163 39.0505C23.9702 39.1272 23.8223 39.2001 23.6738 39.2718C23.5777 39.3367 23.4825 39.4029 23.388 39.47C22.0936 40.3452 20.6219 40.8219 19.1013 41.1155C19.0503 41.1254 18.9993 41.1353 18.9468 41.1455C16.8087 41.5414 14.3272 41.2208 12.39 40.2305C12.2982 40.1911 12.2061 40.1525 12.1134 40.1153C11.8554 40.0012 11.6143 39.8685 11.369 39.7295C11.1718 39.6191 10.9706 39.5182 10.7675 39.4193C10.7675 39.3706 10.7675 39.3219 10.7675 39.2718C10.6904 39.2457 10.6904 39.2457 10.6116 39.219C10.3605 39.1072 10.1567 38.9569 9.94242 38.7878C9.90047 38.7549 9.85853 38.7221 9.81531 38.6882C9.13914 38.1536 8.5709 37.5911 8.03875 36.9118C7.98694 36.8492 7.93513 36.7866 7.88174 36.7222C7.5448 36.3143 7.26227 35.8994 7.00625 35.4368C6.97987 35.3896 6.95349 35.3425 6.92631 35.2939C6.31157 34.1902 6.31157 34.1902 6.16619 33.6126C6.09924 33.3637 5.99794 33.1308 5.89741 32.8938C4.90482 30.3018 5.34276 26.9851 6.41636 24.4982C6.80379 23.6369 7.29719 22.8221 7.89125 22.088C7.93841 22.015 7.98556 21.942 8.03414 21.8668C8.18995 21.6401 8.35878 21.469 8.555 21.2768C8.61328 21.2176 8.67156 21.1585 8.7316 21.0976C9.80057 20.0165 9.80057 20.0165 10.1775 19.9493C10.1775 19.9006 10.1775 19.8519 10.1775 19.8018C10.3213 19.7024 10.4698 19.6099 10.62 19.5206C10.8905 19.359 11.1598 19.1976 11.422 19.0228C12.1883 18.5527 12.9891 18.2621 13.8466 18.0041C13.9303 17.9786 14.0141 17.9531 14.1005 17.9268C14.6156 17.777 15.1009 17.6969 15.635 17.663C15.746 17.6501 15.8569 17.6366 15.9677 17.6224C17.4991 17.4494 19.1115 17.5652 20.5722 18.0565ZM12.98 20.2443C13.1176 20.2723 13.1176 20.2723 13.258 20.301C13.9086 20.4351 14.5551 20.5714 15.1925 20.7605C15.2319 20.7141 15.2712 20.6677 15.3118 20.6199C15.6649 20.2143 16.0267 19.8679 16.4558 19.5433C16.5013 19.5069 16.5468 19.4705 16.5938 19.433C16.5938 19.4087 16.5938 19.3843 16.5938 19.3593C15.5988 19.2862 13.7267 19.4975 12.98 20.2443ZM17.4788 20.1705C17.4788 20.2192 17.4788 20.2679 17.4788 20.318C17.4255 20.3347 17.3723 20.3515 17.3174 20.3687C17.0683 20.485 16.9302 20.6359 16.7413 20.8343C16.6728 20.8875 16.6044 20.9407 16.5338 20.9956C16.454 21.0617 16.454 21.0617 16.3725 21.1293C16.3725 21.1779 16.3725 21.2266 16.3725 21.2768C16.5677 21.3845 16.6597 21.4243 16.8888 21.4243C16.8888 21.4729 16.8888 21.5216 16.8888 21.5718C16.9602 21.5991 17.0317 21.6265 17.1054 21.6547C17.3914 21.7766 17.6371 21.9399 17.8913 22.1177C18.0764 22.2439 18.0764 22.2439 18.3119 22.3709C18.6119 22.5403 18.8828 22.7415 19.1566 22.95C19.2081 22.989 19.2596 23.028 19.3127 23.0682C20.1433 23.6999 20.9558 24.3608 21.6825 25.1118C21.7152 23.474 21.4349 21.9424 20.7238 20.4655C20.6751 20.4655 20.6264 20.4655 20.5763 20.4655C20.5595 20.4244 20.5428 20.3834 20.5255 20.341C20.3315 19.9992 20.0443 19.7486 19.6913 19.5805C18.9434 19.3971 18.1009 19.7557 17.4788 20.1705ZM22.7888 21.0555C22.8583 21.3753 22.9287 21.6938 23.0146 22.0096C23.0822 22.2781 23.1129 22.5413 23.1352 22.817C23.156 23.0316 23.1849 23.2442 23.2146 23.4578C23.2835 23.9725 23.3142 24.4721 23.2987 24.9913C23.2972 25.0489 23.2956 25.1065 23.2941 25.1659C23.2875 25.4011 23.2801 25.6361 23.2686 25.8711C23.2292 26.7219 23.3005 27.1859 23.895 27.8405C23.9695 27.9447 24.042 28.0503 24.1119 28.1577C24.144 28.2064 24.1761 28.2551 24.2092 28.3052C24.6746 29.0239 25.1123 29.7469 25.37 30.5693C25.705 30.3039 25.969 30.0577 26.1813 29.6843C26.1813 29.6356 26.1813 29.5869 26.1813 29.5368C26.2299 29.5368 26.2786 29.5368 26.3288 29.5368C26.4249 29.3651 26.5199 29.193 26.6145 29.0205C26.6414 28.9727 26.6683 28.9249 26.6961 28.8756C27.0894 28.1532 27.1133 27.5865 26.8931 26.7985C26.8519 26.6646 26.8097 26.531 26.7666 26.3978C26.7438 26.3269 26.721 26.256 26.6975 26.183C26.4854 25.5462 26.2178 24.9571 25.8863 24.3743C25.8606 24.3291 25.835 24.2839 25.8086 24.2373C25.5533 23.7931 25.2972 23.4066 24.9275 23.0468C24.8529 22.9244 24.7791 22.8015 24.7063 22.678C24.611 22.5766 24.5126 22.4782 24.4113 22.383C24.2528 22.2246 24.0954 22.0661 23.9411 21.9036C23.7414 21.7134 23.5356 21.5748 23.305 21.4243C23.2227 21.3577 23.1413 21.2901 23.0607 21.2214C22.8962 21.0476 22.8962 21.0476 22.7888 21.0555ZM9.75344 22.5305C9.67326 22.6286 9.59337 22.7269 9.51375 22.8255C9.38101 22.9746 9.2475 23.1229 9.11389 23.2712C8.98261 23.434 8.88077 23.6032 8.77625 23.7843C8.74231 23.84 8.70837 23.8957 8.6734 23.9531C8.55881 24.1418 8.44593 24.3315 8.33375 24.5218C8.29439 24.5885 8.25503 24.6552 8.21448 24.724C7.99591 25.1079 7.83258 25.471 7.71782 25.8977C7.65996 26.1068 7.58422 26.3056 7.50378 26.507C6.91246 28.1571 6.80365 30.7445 7.56283 32.3588C8.08766 33.3464 8.88736 33.9907 9.95625 34.3305C10.0361 34.3577 10.116 34.3849 10.1982 34.4129C10.4121 34.4853 10.6264 34.5561 10.8413 34.6255C11.0066 34.4933 11.0066 34.4933 10.9964 34.3133C10.9916 34.245 10.9868 34.1767 10.9818 34.1064C10.9772 34.0295 10.9726 33.9526 10.9679 33.8734C10.9626 33.79 10.9573 33.7066 10.9519 33.6207C10.8202 30.9373 11.3085 28.0755 12.3795 25.6022C12.4645 25.405 12.5432 25.2061 12.6205 25.0057C12.7205 24.7536 12.8366 24.5312 12.98 24.3005C13.0331 24.1758 13.0861 24.051 13.1389 23.9262C13.2397 23.6967 13.3553 23.4752 13.4732 23.2542C13.511 23.1831 13.511 23.1831 13.5495 23.1107C13.7982 22.6515 14.0817 22.2208 14.3813 21.793C14.3447 21.72 14.3447 21.72 14.3075 21.6455C14.1559 21.597 14.1559 21.597 13.9713 21.5666C13.9017 21.5537 13.832 21.5409 13.7603 21.5277C13.6868 21.5148 13.6134 21.502 13.5377 21.4888C13.4314 21.4687 13.4314 21.4687 13.323 21.4482C11.9388 21.1999 10.7178 21.4467 9.75344 22.5305ZM15.5613 22.1618C15.108 22.6588 15.108 22.6588 14.8975 23.268C14.8488 23.268 14.8002 23.268 14.75 23.268C14.7152 23.3402 14.7152 23.3402 14.6797 23.4138C14.5414 23.6963 14.4076 23.9672 14.2291 24.2268C14.0684 24.4757 13.9705 24.7243 13.8653 25.0003C13.7982 25.1682 13.7231 25.3251 13.6391 25.4851C13.5084 25.739 13.4182 25.9946 13.3326 26.2667C13.2725 26.4468 13.2014 26.6193 13.1275 26.7942C12.9929 27.1264 12.902 27.4571 12.821 27.8059C12.7759 27.9912 12.7275 28.1719 12.6735 28.3544C12.1465 30.1698 11.5522 32.9235 12.1688 34.773C13.8211 35.5992 16.9807 34.7238 18.6613 34.196C18.9864 34.0953 19.3171 34.0334 19.6532 33.9811C20.0337 33.7902 20.1918 33.3666 20.3299 32.9811C20.3652 32.8719 20.3997 32.7624 20.4334 32.6527C20.4709 32.5349 20.5084 32.417 20.546 32.2992C20.5638 32.2426 20.5815 32.186 20.5998 32.1277C20.6646 31.9248 20.7359 31.7243 20.8067 31.5234C20.9756 31.0175 21.0896 30.4997 21.206 29.9798C21.2361 29.8486 21.2691 29.7181 21.3025 29.5877C21.4227 29.1138 21.4965 28.6439 21.5488 28.1585C21.555 28.1016 21.5612 28.0447 21.5676 27.986C21.5844 27.8147 21.5966 27.6434 21.6088 27.4718C21.6162 27.4107 21.6237 27.3497 21.6313 27.2868C21.661 26.9125 21.6242 26.7049 21.3791 26.4139C21.2778 26.3098 21.1745 26.2077 21.0695 26.1074C21.0155 26.0532 20.9615 25.9991 20.9059 25.9433C20.7487 25.7869 20.5893 25.6334 20.4288 25.4805C20.3887 25.4416 20.3487 25.4027 20.3075 25.3627C19.8756 24.9438 19.4133 24.5787 18.9264 24.2273C18.7471 24.0904 18.5949 23.9451 18.4375 23.7843C18.3161 23.708 18.1929 23.6347 18.0688 23.563C17.7521 23.3578 17.4402 23.1478 17.1377 22.9223C16.8975 22.7488 16.6466 22.6439 16.3725 22.5305C16.1967 22.4346 16.0232 22.3356 15.8502 22.2346C15.7134 22.1505 15.7134 22.1505 15.5613 22.1618ZM23.1575 28.873C23.0236 29.3278 22.9079 29.7866 22.7934 30.2466C22.7638 30.3649 22.7638 30.3649 22.7336 30.4856C22.6328 30.8906 22.5346 31.2959 22.443 31.7032C22.3551 32.0933 22.2463 32.4745 22.125 32.8555C23.4052 32.2819 23.4052 32.2819 24.4406 31.3883C24.5045 31.1648 24.4405 31.0714 24.3375 30.8643C24.2961 30.7766 24.2548 30.6889 24.2122 30.5986C23.92 30.0029 23.6241 29.4105 23.2313 28.873C23.2069 28.873 23.1826 28.873 23.1575 28.873ZM27.0663 30.348C27.001 30.4308 26.9386 30.5158 26.8773 30.6015C26.2014 31.5179 26.2014 31.5179 25.8863 31.6755C25.9005 31.7468 25.9148 31.8181 25.9295 31.8916C26.038 32.4341 26.1465 32.9767 26.255 33.5193C26.4188 33.4575 26.4188 33.4575 26.4711 33.2796C26.5056 33.1713 26.5056 33.1713 26.5408 33.0609C26.5663 32.9813 26.5917 32.9017 26.618 32.8196C26.6442 32.7356 26.6705 32.6516 26.6975 32.5651C26.7237 32.4837 26.75 32.4023 26.777 32.3184C26.9831 31.6673 27.1699 31.0353 27.14 30.348C27.1157 30.348 27.0913 30.348 27.0663 30.348ZM24.78 32.5605C24.7481 32.5924 24.7161 32.6244 24.6832 32.6573C24.5323 32.8082 24.3747 32.8947 24.19 33.003C24.1029 33.0561 24.016 33.1093 23.929 33.1626C23.8286 33.2232 23.7282 33.2837 23.6277 33.3441C23.5736 33.3769 23.5196 33.4097 23.4639 33.4434C23.1703 33.6174 22.8806 33.7689 22.5632 33.8949C21.9203 34.1526 21.4706 34.3458 21.1709 34.9989C21.1103 35.1441 21.0543 35.2901 21.0006 35.438C20.8184 35.9172 20.5501 36.3513 20.2766 36.7827C20.2447 36.8338 20.2127 36.885 20.1797 36.9377C20.0524 37.1399 19.9271 37.3358 19.7791 37.5236C19.6701 37.6539 19.6701 37.6539 19.6913 37.8705C19.6474 37.8887 19.6036 37.9068 19.5584 37.9255C19.3693 38.0334 19.2873 38.1411 19.1612 38.3176C18.9149 38.648 18.64 38.9311 18.3433 39.2164C18.2076 39.3241 18.2076 39.3241 18.2163 39.4193C20.1839 39.3164 22.3078 38.4278 23.7475 37.0593C23.7475 37.0106 23.7475 36.9619 23.7475 36.9118C23.8102 36.9039 23.8102 36.9039 23.8743 36.8959C24.3141 36.7445 24.675 36.1969 24.886 35.7963C25.1161 35.3139 25.1755 34.811 25.1718 34.2844C25.1717 34.2274 25.1716 34.1704 25.1715 34.1116C25.1627 33.5755 25.0674 33.0786 24.9275 32.5605C24.8788 32.5605 24.8302 32.5605 24.78 32.5605ZM8.92375 35.1418C8.96786 35.2254 9.01197 35.3091 9.05742 35.3953C9.08224 35.4423 9.10705 35.4894 9.13261 35.5379C9.21803 35.6818 9.21803 35.6818 9.44 35.7318C9.49137 35.8538 9.54037 35.9768 9.5875 36.1005C9.69045 36.2343 9.69045 36.2343 9.80875 36.3218C9.85743 36.3218 9.9061 36.3218 9.95625 36.3218C9.97679 36.4016 9.97679 36.4016 9.99774 36.4831C10.1247 36.7315 10.258 36.8159 10.4866 36.9656C10.62 37.0593 10.62 37.0593 10.8228 37.2667C10.9766 37.4537 10.9766 37.4537 11.21 37.428C11.2343 37.501 11.2587 37.574 11.2838 37.6493C11.505 37.7753 11.505 37.7753 11.7263 37.8705C11.6781 37.5976 11.6028 37.3477 11.5096 37.0869C11.3655 36.6644 11.276 36.2464 11.21 35.8055C11.0804 35.78 11.0804 35.78 10.9481 35.7539C10.3377 35.6289 9.7755 35.4985 9.21645 35.212C9.07601 35.131 9.07601 35.131 8.92375 35.1418ZM18.504 35.4244C17.9415 35.5883 17.3813 35.6818 16.8013 35.76C16.6355 35.7824 16.47 35.806 16.3044 35.8298C15.2849 35.9736 14.2728 36.0395 13.2427 36.0314C13.1183 36.0309 13.1183 36.0309 12.9914 36.0304C12.7909 36.0295 12.5905 36.0283 12.39 36.0268C12.4654 36.4064 12.5473 36.7549 12.7173 37.1053C12.8227 37.3241 12.9156 37.5294 12.9938 37.7599C13.2878 38.3275 13.7778 38.8872 14.3813 39.1243C15.2378 39.3133 15.8168 39.059 16.5333 38.606C16.697 38.4914 16.8368 38.3936 16.9625 38.2393C16.9625 38.1906 16.9625 38.1419 16.9625 38.0918C17.0188 38.072 17.0751 38.0522 17.133 38.0318C17.3242 37.9474 17.4272 37.8879 17.5525 37.723C17.5525 37.65 17.5525 37.577 17.5525 37.5018C17.5938 37.4865 17.635 37.4713 17.6775 37.4557C17.9092 37.3174 18.0486 37.1248 18.207 36.9118C18.2393 36.869 18.2716 36.8263 18.3048 36.7823C18.6538 36.3137 18.9666 35.8373 19.175 35.2893C18.9236 35.2893 18.7441 35.3491 18.504 35.4244Z" fill="black"/>
<path d="M59.7005 17.6524C59.7851 17.652 59.8698 17.6515 59.9571 17.651C60.0489 17.6509 60.1408 17.6508 60.2355 17.6507C60.3765 17.6504 60.3765 17.6504 60.5204 17.65C60.7197 17.6496 60.919 17.6494 61.1182 17.6495C61.3733 17.6495 61.6284 17.6485 61.8835 17.6472C62.127 17.6462 62.3704 17.6462 62.6139 17.6461C62.7055 17.6456 62.7971 17.6451 62.8914 17.6445C63.0191 17.6449 63.0191 17.6449 63.1494 17.6452C63.2243 17.6451 63.2992 17.645 63.3764 17.6449C63.5828 17.664 63.6988 17.6921 63.8682 17.8106C63.9962 18.0218 64.0341 18.1788 64.0339 18.4241C64.0342 18.4876 64.0345 18.5512 64.0348 18.6166C64.0341 18.7208 64.0341 18.7208 64.0335 18.8271C64.0336 18.9011 64.0337 18.9751 64.0339 19.0514C64.0341 19.3002 64.0333 19.549 64.0325 19.7978C64.0324 19.9758 64.0325 20.1539 64.0326 20.332C64.0326 20.7157 64.0322 21.0994 64.0313 21.4831C64.0301 22.0379 64.0298 22.5926 64.0296 23.1474C64.0293 24.0475 64.0283 24.9476 64.0269 25.8477C64.0255 26.7221 64.0245 27.5964 64.0238 28.4708C64.0238 28.5247 64.0238 28.5786 64.0237 28.6341C64.0235 28.9045 64.0234 29.1748 64.0232 29.4452C64.0216 31.6883 64.019 33.9313 64.0157 36.1744C64.0631 36.1741 64.1104 36.1738 64.1591 36.1736C65.3095 36.167 66.4598 36.1622 67.6102 36.1591C68.1665 36.1576 68.7228 36.1555 69.2791 36.1521C69.7639 36.1492 70.2487 36.1473 70.7335 36.1466C70.9903 36.1462 71.2471 36.1453 71.5038 36.1432C71.7903 36.1408 72.0767 36.1408 72.3631 36.1409C72.4485 36.1398 72.5339 36.1388 72.6219 36.1377C72.7387 36.1383 72.7387 36.1383 72.8579 36.1389C72.9257 36.1386 72.9935 36.1384 73.0633 36.1381C73.2345 36.1744 73.2345 36.1744 73.3669 36.3124C73.4787 36.51 73.4843 36.6439 73.4855 36.8705C73.4869 36.9909 73.4869 36.9909 73.4884 37.1137C73.4882 37.2 73.4879 37.2862 73.4877 37.3751C73.4881 37.464 73.4885 37.553 73.4889 37.6446C73.4894 37.8325 73.4893 38.0205 73.4886 38.2085C73.488 38.4964 73.4901 38.7843 73.4925 39.0722C73.4926 39.2548 73.4926 39.4373 73.4923 39.6199C73.4932 39.7062 73.494 39.7924 73.4948 39.8813C73.4942 39.9616 73.4935 40.0418 73.4927 40.1245C73.4927 40.195 73.4927 40.2655 73.4927 40.3382C73.4429 40.5909 73.365 40.6644 73.1607 40.8206C72.9621 40.8495 72.7937 40.8602 72.5953 40.8576C72.538 40.858 72.4808 40.8584 72.4218 40.8588C72.2297 40.8598 72.0377 40.8587 71.8456 40.8576C71.708 40.8579 71.5704 40.8583 71.4328 40.8588C71.0589 40.8599 70.6849 40.859 70.311 40.8578C69.92 40.8568 69.529 40.8573 69.138 40.8575C68.4813 40.8577 67.8246 40.8568 67.1679 40.855C66.4083 40.8531 65.6487 40.853 64.8891 40.8538C64.1589 40.8546 63.4287 40.8542 62.6984 40.8531C62.3875 40.8527 62.0765 40.8527 61.7655 40.853C61.3994 40.8534 61.0333 40.8526 60.6672 40.8511C60.5327 40.8506 60.3982 40.8506 60.2637 40.851C60.0803 40.8514 59.897 40.8505 59.7137 40.8492C59.6602 40.8497 59.6068 40.8501 59.5517 40.8506C59.2439 40.8467 59.0735 40.8173 58.8532 40.5994C58.8163 40.4275 58.8163 40.4275 58.8161 40.2205C58.8154 40.1417 58.8146 40.0628 58.8138 39.9815C58.8145 39.8946 58.8151 39.8076 58.8158 39.718C58.8153 39.6259 58.8149 39.5337 58.8144 39.4388C58.8132 39.1826 58.8138 38.9264 58.8147 38.6701C58.8153 38.394 58.8143 38.1178 58.8135 37.8416C58.8122 37.3004 58.8125 36.7593 58.8133 36.2181C58.814 35.7783 58.8141 35.3385 58.8138 34.8988C58.8137 34.8362 58.8137 34.7737 58.8136 34.7093C58.8135 34.5823 58.8134 34.4553 58.8133 34.3283C58.8125 33.1366 58.8135 31.9449 58.8151 30.7531C58.8164 29.73 58.8161 28.7069 58.8148 27.6839C58.8132 26.4966 58.8126 25.3093 58.8135 24.122C58.8136 23.9955 58.8137 23.8689 58.8138 23.7424C58.8138 23.6801 58.8139 23.6178 58.8139 23.5537C58.8142 23.1144 58.8137 22.675 58.813 22.2357C58.8122 21.7004 58.8124 21.1652 58.814 20.6299C58.8148 20.3567 58.8151 20.0835 58.8141 19.8102C58.8131 19.5143 58.8143 19.2185 58.8158 18.9226C58.8151 18.8358 58.8145 18.749 58.8138 18.6596C58.8149 18.541 58.8149 18.541 58.8161 18.42C58.8162 18.3517 58.8162 18.2834 58.8163 18.213C58.8646 17.9762 58.9648 17.8888 59.1482 17.7369C59.3412 17.6404 59.4844 17.6532 59.7005 17.6524Z" fill="black"/>
<path d="M30.4579 15.008C30.4579 15.0567 30.4579 15.1054 30.4579 15.1555C30.4996 15.1728 30.5413 15.1901 30.5843 15.208C31.0185 15.4529 31.4653 15.9598 31.6111 16.4438C31.6502 16.7165 31.661 16.9867 31.6655 17.262C31.6666 17.3152 31.6676 17.3683 31.6687 17.4231C31.6635 17.9865 31.4514 18.3872 31.1216 18.843C31.0729 18.916 31.0243 18.989 30.9741 19.0643C30.5859 19.5241 29.9104 19.7664 29.3251 19.8168C28.5745 19.8315 27.9159 19.5998 27.3667 19.0775C26.7904 18.4521 26.5946 17.8534 26.6018 17.0091C26.6346 16.6495 26.7585 16.3609 26.9179 16.0405C26.9559 15.9523 26.9939 15.8641 27.0331 15.7732C27.2926 15.3413 27.822 14.9717 28.3007 14.8236C29.0295 14.6992 29.7697 14.736 30.4579 15.008Z" fill="black"/>
<path d="M8.62967 15.1231C9.0529 15.3862 9.31571 15.7051 9.58842 16.1142C9.71202 16.7321 9.7107 17.3553 9.51467 17.9579C9.466 18.0309 9.41732 18.1039 9.36717 18.1792C9.3185 18.1792 9.26982 18.1792 9.21967 18.1792C9.20294 18.2217 9.18621 18.2643 9.16897 18.3082C8.93515 18.7091 8.58166 18.8355 8.15346 18.9507C7.53342 19.0821 6.98297 18.9343 6.41717 18.6631C6.25449 18.536 6.20384 18.4396 6.12217 18.2529C6.08719 18.2194 6.0522 18.186 6.01616 18.1515C5.685 17.8071 5.63881 17.4297 5.6428 16.9761C5.64322 16.9206 5.64364 16.8651 5.64407 16.8079C5.66113 16.2766 5.80378 15.9341 6.16711 15.5443C6.29361 15.4265 6.42255 15.3274 6.56467 15.2292C6.60688 15.1986 6.64909 15.1681 6.69258 15.1367C7.27974 14.7766 8.0304 14.8182 8.62967 15.1231Z" fill="black"/>
<path d="M14.4706 43.0528C14.8896 43.4589 15.0874 43.954 15.1418 44.5313C15.0852 45.1995 14.8679 45.7324 14.3813 46.2045C13.8048 46.5874 13.2178 46.6358 12.5376 46.5732C11.9931 46.4162 11.5907 46.0868 11.2838 45.6145C11.0236 45.0996 10.9766 44.5566 11.1161 43.9992C11.2504 43.5924 11.3827 43.2954 11.7263 43.0332C11.775 43.0332 11.8237 43.0332 11.8738 43.0332C11.8738 42.9845 11.8738 42.9359 11.8738 42.8857C12.7851 42.3995 13.6393 42.3837 14.4706 43.0528Z" fill="black"/>
<path d="M25.9605 41.7057C26.3442 42.0448 26.5701 42.3503 26.6104 42.8673C26.6363 43.3481 26.6486 43.7594 26.3534 44.1587C25.9974 44.5431 25.7038 44.708 25.1734 44.7421C24.598 44.7577 24.1791 44.6953 23.748 44.2869C23.4073 43.8392 23.2652 43.4498 23.3055 42.8857C23.461 42.2637 23.7134 41.9134 24.2409 41.5703C24.7808 41.299 25.4623 41.3813 25.9605 41.7057Z" fill="black"/>
<path d="M2.19268 23.7292C2.6585 23.98 2.93585 24.2343 3.09612 24.7432C3.17892 25.2561 3.10417 25.6818 2.84404 26.1318C2.64287 26.408 2.4691 26.5638 2.13737 26.6607C1.02079 26.7748 1.02079 26.7748 0.588614 26.4395C0.458399 26.2966 0.458399 26.2966 0.348926 26.1445C0.31204 26.0943 0.275153 26.0441 0.237149 25.9924C-0.0140869 25.598 0.0198089 25.118 0.0723641 24.6695C0.227508 24.2488 0.482353 23.9968 0.869786 23.7799C1.34009 23.5758 1.70946 23.5681 2.19268 23.7292Z" fill="black"/>
<path d="M33.5747 30.2374C33.8995 30.4239 34.0933 30.6592 34.22 31.0117C34.2887 31.4779 34.2605 31.8619 33.9987 32.2655C33.95 32.2655 33.9014 32.2655 33.8512 32.2655C33.833 32.3113 33.8147 32.3571 33.7959 32.4044C33.655 32.643 33.4872 32.6761 33.2295 32.7506C32.8956 32.8054 32.6139 32.7653 32.3025 32.6342C31.9907 32.4093 31.7229 32.1327 31.6387 31.7492C31.6039 31.317 31.6389 31.0281 31.86 30.643C32.3426 30.1364 32.9065 29.9496 33.5747 30.2374Z" fill="black"/>
<path d="M4.52415 35.9049C4.67414 36.0124 4.81257 36.1158 4.9413 36.248C4.9413 36.2967 4.9413 36.3454 4.9413 36.3955C4.98998 36.3955 5.03865 36.3955 5.0888 36.3955C5.21034 37.4878 5.21034 37.4878 5.01505 37.8705C4.62004 38.2443 4.26339 38.418 3.71838 38.4127C3.34747 38.3588 3.06712 38.139 2.81177 37.8751C2.57718 37.4451 2.53465 37.088 2.65505 36.6168C2.7989 36.251 2.98503 36.0176 3.33724 35.8378C3.76109 35.6811 4.12744 35.6768 4.52415 35.9049Z" fill="black"/>
<path d="M15.7163 28.2973C16.0386 28.549 16.2415 28.8323 16.2988 29.2419C16.2798 29.7259 16.1362 30.1559 15.7825 30.4957C15.3937 30.7138 14.8904 30.6844 14.455 30.6432C14.2032 30.5534 14.0817 30.4234 13.925 30.2099C13.8874 30.1599 13.8499 30.1099 13.8112 30.0584C13.623 29.7515 13.6142 29.4494 13.6438 29.0944C13.7744 28.6569 13.9902 28.4282 14.3813 28.2028C14.83 27.9986 15.2874 28.0541 15.7163 28.2973Z" fill="black"/>
<path d="M21.8295 12.2055C22.1234 12.3548 22.3361 12.5646 22.567 12.7955C22.7005 13.2362 22.6813 13.7539 22.567 14.1968C22.5183 14.1968 22.4697 14.1968 22.4195 14.1968C22.4058 14.2394 22.3921 14.282 22.378 14.3258C22.2212 14.5713 22.0232 14.6891 21.7558 14.7868C21.3365 14.8684 21.0201 14.8197 20.6541 14.5978C20.3618 14.3763 20.224 14.1912 20.1333 13.828C20.0693 13.3199 20.1227 12.9873 20.4283 12.5743C20.8692 12.1754 21.2431 12.1256 21.8295 12.2055Z" fill="black"/>
<path d="M59.1475 17.7368C59.1475 17.8098 59.1475 17.8828 59.1475 17.9581C59.1232 17.9824 59.0989 18.0067 59.0738 18.0318C59.0666 18.1525 59.0647 18.2736 59.0647 18.3945C59.0646 18.4735 59.0644 18.5525 59.0643 18.6339C59.0646 18.7657 59.0646 18.7657 59.0649 18.9002C59.0649 18.9928 59.0648 19.0853 59.0647 19.1806C59.0646 19.4386 59.0649 19.6966 59.0652 19.9545C59.0655 20.2323 59.0654 20.5101 59.0654 20.7878C59.0653 21.2694 59.0656 21.7511 59.066 22.2327C59.0666 22.929 59.0668 23.6254 59.0669 24.3217C59.067 25.4514 59.0675 26.5811 59.0682 27.7108C59.0689 28.8084 59.0694 29.9061 59.0697 31.0037C59.0698 31.0713 59.0698 31.139 59.0698 31.2086C59.0699 31.5478 59.07 31.8869 59.0701 32.2261C59.0708 35.0418 59.0721 37.8574 59.0738 40.6731C59.0008 40.6487 58.9278 40.6244 58.8525 40.5993C58.8458 37.7294 58.8406 34.8594 58.8375 31.9895C58.8371 31.6509 58.8367 31.3123 58.8363 30.9736C58.8362 30.9062 58.8362 30.8388 58.8361 30.7694C58.8348 29.677 58.8325 28.5846 58.8298 27.4922C58.827 26.3718 58.8254 25.2514 58.8248 24.131C58.8244 23.4393 58.8231 22.7476 58.8207 22.0559C58.8191 21.582 58.8187 21.1081 58.819 20.6342C58.8192 20.3605 58.8189 20.0868 58.8174 19.8132C58.8157 19.5168 58.8162 19.2204 58.8171 18.924C58.8162 18.8371 58.8153 18.7501 58.8145 18.6606C58.8153 18.5418 58.8153 18.5418 58.8162 18.4206C58.8161 18.3521 58.816 18.2837 58.8159 18.2132C58.8633 17.9786 58.9682 17.8889 59.1475 17.7368Z" fill="black"/>
<path d="M16.1517 19.2119C16.3951 19.2119 16.6385 19.2119 16.8892 19.2119C16.6847 19.4855 16.4722 19.69 16.2024 19.8987C15.9344 20.1108 15.7126 20.3168 15.5018 20.5855C15.3825 20.7313 15.3825 20.7313 15.2667 20.8344C15.0132 20.8344 15.0132 20.8344 14.8242 20.7607C14.8242 20.712 14.8242 20.6633 14.8242 20.6132C14.9058 20.6417 14.9058 20.6417 14.989 20.6708C15.09 20.6788 15.09 20.6788 15.193 20.6869C15.3608 20.5509 15.3608 20.5509 15.5064 20.355C15.8116 19.9908 16.1347 19.7086 16.5205 19.4332C16.3379 19.3967 16.3379 19.3967 16.1517 19.3594C16.1517 19.3107 16.1517 19.2621 16.1517 19.2119Z" fill="black"/>
<path d="M111.584 33.0032C111.972 33.1713 112.164 33.4247 112.321 33.8144C112.428 34.3866 112.43 34.9832 112.1 35.4784C111.976 35.6308 111.976 35.6308 111.879 35.7319C111.842 35.6224 111.842 35.6224 111.805 35.5107C111.9 35.3612 111.999 35.2138 112.1 35.0682C112.292 34.4641 112.163 33.9231 111.879 33.3719C111.727 33.1505 111.727 33.1505 111.584 33.0032Z" fill="black"/>
<path d="M22.4205 37.9443C22.4205 38.0173 22.4205 38.0904 22.4205 38.1656C22.0507 38.4429 21.6415 38.6303 21.222 38.8201C21.1706 38.8439 21.1192 38.8677 21.0662 38.8922C20.7941 39.0116 20.6385 39.0691 20.3555 38.9768C20.4023 38.956 20.4491 38.9352 20.4974 38.9138C20.7115 38.8185 20.9253 38.7225 21.1391 38.6265C21.2128 38.5938 21.2864 38.5611 21.3623 38.5274C21.7384 38.3581 22.0871 38.1878 22.4205 37.9443Z" fill="black"/>
<path d="M58.8516 37.5757C58.876 37.5757 58.9003 37.5757 58.9254 37.5757C58.9272 37.6564 58.9291 37.7371 58.931 37.8203C58.9379 38.1206 58.9453 38.421 58.9528 38.7213C58.956 38.8511 58.9591 38.9809 58.9621 39.1108C58.9663 39.2977 58.971 39.4846 58.9758 39.6715C58.977 39.7293 58.9783 39.7871 58.9795 39.8466C58.9872 40.1299 59.0055 40.3975 59.0729 40.6732C58.9999 40.6488 58.9269 40.6245 58.8516 40.5994C58.8516 39.6016 58.8516 38.6038 58.8516 37.5757Z" fill="black"/>
<path d="M59.1468 17.7368C59.1468 17.9581 59.1468 17.9581 58.9993 18.1793C58.9816 18.3717 58.9718 18.5568 58.9688 18.7494C58.9673 18.8048 58.9659 18.8601 58.9645 18.9171C58.96 19.0937 58.9566 19.2703 58.9532 19.4469C58.9504 19.5667 58.9475 19.6865 58.9446 19.8063C58.9375 20.0998 58.9313 20.3933 58.9256 20.6868C58.9012 20.6868 58.8769 20.6868 58.8518 20.6868C58.8445 20.3141 58.8392 19.9414 58.8356 19.5687C58.8341 19.4419 58.8321 19.3152 58.8296 19.1884C58.826 19.0061 58.8243 18.8238 58.823 18.6414C58.8215 18.5849 58.82 18.5283 58.8184 18.47C58.8183 18.1989 58.8284 18.061 59.0011 17.8462C59.0492 17.8101 59.0973 17.774 59.1468 17.7368Z" fill="black"/>
<path d="M10.472 21.7192C10.545 21.7436 10.618 21.7679 10.6933 21.793C10.6384 21.8306 10.6384 21.8306 10.5824 21.869C10.1918 22.1477 9.88984 22.4551 9.58703 22.8255C9.51483 22.9115 9.44262 22.9976 9.37039 23.0836C9.29509 23.1749 9.29509 23.1749 9.21828 23.268C9.19394 23.195 9.1696 23.122 9.14453 23.0467C9.1932 23.0467 9.24188 23.0467 9.29203 23.0467C9.31066 23.0048 9.3293 22.9629 9.34849 22.9197C9.60149 22.4529 10.038 22.022 10.472 21.7192Z" fill="black"/>
<path d="M77.5116 20.4658C77.5603 20.4901 77.6089 20.5145 77.6591 20.5395C77.6147 20.5813 77.6147 20.5813 77.5695 20.6239C77.2248 20.9577 76.9249 21.3167 76.6277 21.6933C76.4791 21.867 76.4791 21.867 76.2578 22.0145C76.2822 21.9172 76.3065 21.8198 76.3316 21.7195C76.3803 21.7195 76.4289 21.7195 76.4791 21.7195C76.4991 21.6758 76.5192 21.632 76.5398 21.5869C76.6247 21.428 76.7117 21.3167 76.8346 21.186C76.874 21.1437 76.9135 21.1014 76.9541 21.0578C76.9951 21.0145 77.0361 20.9713 77.0783 20.9267C77.1199 20.8823 77.1614 20.8379 77.2042 20.7922C77.3064 20.6831 77.4089 20.5744 77.5116 20.4658Z" fill="black"/>
<path d="M90.8597 33.8145C90.8597 34.0357 90.8597 34.0357 90.7087 34.2109C90.61 34.3067 90.61 34.3067 90.5093 34.4045C90.4443 34.4683 90.3793 34.5322 90.3123 34.598C90.1559 34.7421 90.0002 34.8715 89.8272 34.9945C89.7785 34.9701 89.7298 34.9458 89.6797 34.9207C89.8314 34.7633 89.9831 34.619 90.1544 34.4828C90.3552 34.3212 90.5325 34.1465 90.7122 33.962C90.7608 33.9133 90.8095 33.8646 90.8597 33.8145Z" fill="black"/>
<path d="M0.885468 23.8584C0.790685 24.0698 0.695836 24.2253 0.516718 24.3746C0.468043 24.3746 0.419368 24.3746 0.369218 24.3746C0.320543 24.5693 0.271868 24.764 0.221718 24.9646C0.173043 24.9646 0.124368 24.9646 0.0742188 24.9646C0.10373 24.5613 0.252923 24.3017 0.516718 24.0059C0.737968 23.8584 0.737968 23.8584 0.885468 23.8584Z" fill="black"/>
<path d="M102.595 34.22C102.822 34.2594 102.893 34.2973 103.029 34.4781C102.94 34.4705 102.852 34.4629 102.761 34.455C102.504 34.4528 102.377 34.4957 102.181 34.6625C102.12 34.7233 102.059 34.7842 101.996 34.8468C101.996 34.6256 101.996 34.6256 102.153 34.4274C102.365 34.2568 102.365 34.2568 102.595 34.22Z" fill="black"/>
<path d="M32.5242 30.2007C32.5242 30.2494 32.5242 30.298 32.5242 30.3482C32.4755 30.3482 32.4268 30.3482 32.3767 30.3482C32.3584 30.3938 32.3402 30.4394 32.3214 30.4865C32.2292 30.6432 32.2292 30.6432 32.0771 30.7169C31.9185 30.7781 31.9185 30.7781 31.8789 30.9474C31.8728 30.993 31.8667 31.0387 31.8604 31.0857C31.8117 31.0857 31.7631 31.0857 31.7129 31.0857C31.7931 30.7114 32.0859 30.2007 32.5242 30.2007Z" fill="black"/>
<path d="M105.463 22.8257C105.537 23.0469 105.537 23.0469 105.483 23.1743C105.455 23.2205 105.427 23.2667 105.399 23.3143C105.224 23.6384 105.185 23.9364 105.168 24.3007C105.144 24.3007 105.12 24.3007 105.095 24.3007C105.05 23.7004 105.073 23.2996 105.463 22.8257Z" fill="black"/>
<path d="M13.3474 18.3269C13.1943 18.4033 13.0405 18.4783 12.8865 18.5528C12.8009 18.5947 12.7154 18.6366 12.6272 18.6798C12.3956 18.7668 12.3154 18.7917 12.0938 18.6957C12.2119 18.6356 12.3302 18.5757 12.4486 18.5159C12.5145 18.4825 12.5804 18.4492 12.6482 18.4148C12.9189 18.2848 13.0614 18.2382 13.3474 18.3269Z" fill="black"/>
<path d="M113.059 18.2529C113.425 18.3629 113.753 18.5187 114.091 18.6954C113.802 18.7916 113.72 18.7192 113.451 18.5894C113.377 18.5545 113.304 18.5196 113.228 18.4836C113.172 18.4562 113.116 18.4287 113.059 18.4004C113.059 18.3517 113.059 18.303 113.059 18.2529Z" fill="black"/>
<path d="M81.0048 18.2768C81.0646 18.3018 81.0646 18.3018 81.1257 18.3272C80.9973 18.4036 80.8681 18.4787 80.7386 18.5531C80.6308 18.616 80.6308 18.616 80.5208 18.6802C80.3145 18.7697 80.3145 18.7697 80.1405 18.7464C80.1006 18.7298 80.0606 18.7131 80.0195 18.696C80.1479 18.6196 80.2771 18.5446 80.4067 18.4701C80.5145 18.4073 80.5145 18.4073 80.6245 18.3431C80.8307 18.2535 80.8307 18.2535 81.0048 18.2768Z" fill="black"/>
<path d="M22.2716 31.897C22.3203 31.897 22.369 31.897 22.4191 31.897C22.3953 32.02 22.3705 32.1429 22.3454 32.2657C22.3355 32.3217 22.3256 32.3777 22.3154 32.4354C22.304 32.495 22.2926 32.5546 22.2809 32.616C22.2704 32.6735 22.2599 32.7309 22.2492 32.79C22.2322 32.8361 22.2153 32.8821 22.1979 32.9295C22.1249 32.9538 22.0519 32.9781 21.9766 33.0032C22.0119 32.8603 22.0472 32.7174 22.0827 32.5746C22.1023 32.495 22.122 32.4154 22.1423 32.3334C22.1802 32.1865 22.2237 32.0409 22.2716 31.897Z" fill="black"/>
<path d="M21.6825 24.448C21.7312 24.448 21.7799 24.448 21.83 24.448C21.83 24.7157 21.83 24.9834 21.83 25.2592C21.7327 25.2349 21.6353 25.2106 21.535 25.1855C21.5837 24.9421 21.6324 24.6987 21.6825 24.448Z" fill="black"/>
<path d="M76.1833 22.0146C76.1833 22.3121 76.0656 22.4198 75.8883 22.6553C75.8335 22.7286 75.7788 22.8019 75.7223 22.8774C75.6584 22.9614 75.6584 22.9614 75.5933 23.0471C75.5689 22.9984 75.5446 22.9498 75.5195 22.8996C75.5883 22.7934 75.6576 22.6874 75.7269 22.5816C75.7654 22.5225 75.8039 22.4635 75.8436 22.4027C75.9476 22.2562 76.0521 22.1364 76.1833 22.0146Z" fill="black"/>
<path d="M13.3498 20.0232C13.2768 20.0719 13.2038 20.1206 13.1285 20.1707C13.2016 20.1951 13.2746 20.2194 13.3498 20.2445C13.3498 20.2932 13.3498 20.3418 13.3498 20.392C12.9257 20.4012 12.9257 20.4012 12.7598 20.3182C12.7598 20.2696 12.7598 20.2209 12.7598 20.1707C12.9978 20.012 13.0757 20.0084 13.3498 20.0232Z" fill="black"/>
<path d="M3.31898 35.8794C3.31898 36.1006 3.31898 36.1006 3.14382 36.2988C2.95023 36.4694 2.95023 36.4694 2.80273 36.4694C2.87735 36.2184 2.9243 36.1185 3.14382 35.967C3.20163 35.9381 3.25943 35.9092 3.31898 35.8794Z" fill="black"/>
<path d="M23.158 32.4129C23.0543 32.4893 22.9496 32.5643 22.8445 32.6388C22.7573 32.7016 22.7573 32.7016 22.6682 32.7658C22.4942 32.8554 22.4942 32.8554 22.3248 32.8321C22.2834 32.8154 22.2419 32.7988 22.1992 32.7816C22.317 32.7054 22.4354 32.6304 22.5542 32.5558C22.62 32.5139 22.6859 32.4719 22.7538 32.4287C22.9367 32.3391 22.9367 32.3391 23.158 32.4129Z" fill="black"/>
<path d="M14.3812 28.2832C14.2713 28.5631 14.1042 28.697 13.865 28.8732C13.865 28.652 13.865 28.652 14.0401 28.4537C14.2337 28.2832 14.2337 28.2832 14.3812 28.2832Z" fill="black"/>
<path d="M15.8555 22.2354C16.5631 22.435 16.5631 22.435 16.8143 22.7516C16.4403 22.7166 16.1523 22.5272 15.8555 22.3091C15.8555 22.2848 15.8555 22.2605 15.8555 22.2354Z" fill="black"/>
<path d="M9.21797 18.0317C9.26665 18.0317 9.31532 18.0317 9.36547 18.0317C9.36547 18.0804 9.36547 18.1291 9.36547 18.1792C9.3168 18.1792 9.26812 18.1792 9.21797 18.1792C9.20124 18.2218 9.18451 18.2644 9.16727 18.3083C9.04342 18.5206 8.90616 18.6346 8.70172 18.7692C8.62871 18.7449 8.5557 18.7206 8.48047 18.6955C8.52135 18.6661 8.56223 18.6367 8.60435 18.6065C8.65778 18.5674 8.7112 18.5283 8.76625 18.4881C8.8193 18.4496 8.87235 18.4111 8.927 18.3714C9.08745 18.2506 9.08745 18.2506 9.21797 18.0317Z" fill="black"/>
<path d="M16.5188 38.5342C16.5674 38.5586 16.616 38.5829 16.6662 38.608C16.5749 38.6844 16.4825 38.7594 16.3896 38.8338C16.3126 38.8967 16.3126 38.8967 16.234 38.9609C16.0762 39.0505 16.0763 39.0505 15.9092 39.0271C15.867 39.0105 15.8247 38.9939 15.7812 38.9767C15.9007 38.9007 16.0205 38.8256 16.1407 38.7509C16.2074 38.7089 16.2742 38.667 16.3429 38.6238C16.4299 38.5795 16.43 38.5795 16.5188 38.5342Z" fill="black"/>
<path d="M13.127 38.0181C13.3923 38.2757 13.6311 38.5425 13.8645 38.8293C13.6323 38.7283 13.4923 38.6173 13.3299 38.4237C13.2914 38.3788 13.253 38.3339 13.2135 38.2877C13.127 38.1656 13.127 38.1656 13.127 38.0181Z" fill="black"/>
<path d="M20.798 35.6582C20.8484 35.7838 20.8484 35.7838 20.8717 35.9532C20.7821 36.1272 20.7821 36.1272 20.6551 36.3035C20.6134 36.3625 20.5716 36.4214 20.5286 36.4821C20.4958 36.5266 20.463 36.5711 20.4292 36.617C20.4049 36.5683 20.3806 36.5196 20.3555 36.4695C20.4451 36.2776 20.4451 36.2776 20.5721 36.0546C20.6347 35.9437 20.6347 35.9437 20.6986 35.8305C20.7314 35.7736 20.7642 35.7168 20.798 35.6582Z" fill="black"/>
<path d="M96.17 23.7844C96.3676 23.9554 96.4401 24.1029 96.5157 24.3514C96.5343 24.411 96.5528 24.4706 96.5719 24.532C96.5853 24.5774 96.5987 24.6227 96.6125 24.6694C96.4241 24.4873 96.2903 24.3143 96.17 24.0794C96.17 23.9821 96.17 23.8847 96.17 23.7844Z" fill="black"/>
<path d="M114.238 18.8428C114.588 18.8853 114.826 19.0309 115.123 19.2116C115.098 19.2602 115.074 19.3089 115.049 19.3591C114.955 19.3151 114.861 19.2704 114.768 19.2254C114.69 19.1882 114.69 19.1882 114.61 19.1502C114.458 19.0636 114.355 18.9714 114.238 18.8428Z" fill="black"/>
<path d="M19.0284 35.5845C19.0527 35.6331 19.077 35.6818 19.1021 35.732C18.9561 35.951 18.8101 36.17 18.6596 36.3957C18.6353 36.347 18.6109 36.2984 18.5859 36.2482C18.7319 36.0292 18.8779 35.8101 19.0284 35.5845Z" fill="black"/>
<path d="M21.314 34.6255C21.3627 34.6498 21.4114 34.6742 21.4615 34.6992C21.3398 34.9426 21.2181 35.186 21.0928 35.4367C21.019 35.1417 21.019 35.1417 21.0763 35C21.1952 34.8127 21.1952 34.8127 21.314 34.6255Z" fill="black"/>
<path d="M16.1504 19.2119C16.3938 19.2119 16.6372 19.2119 16.8879 19.2119C16.8149 19.3214 16.8149 19.3214 16.7404 19.4332C16.5457 19.4088 16.351 19.3845 16.1504 19.3594C16.1504 19.3107 16.1504 19.2621 16.1504 19.2119Z" fill="black"/>
<path d="M101.627 39.198C101.937 39.2475 102.173 39.4086 102.439 39.5667C102.217 39.6405 102.217 39.6405 102.067 39.5696C102.015 39.5352 101.962 39.5008 101.909 39.4653C101.856 39.4313 101.803 39.3973 101.749 39.3622C101.709 39.3324 101.669 39.3025 101.627 39.2717C101.627 39.2474 101.627 39.2231 101.627 39.198Z" fill="black"/>
<path d="M10.4728 21.7192C10.5459 21.7436 10.6189 21.7679 10.6941 21.793C10.3655 22.0485 10.3655 22.0485 10.0303 22.3092C9.98163 22.2849 9.93296 22.2606 9.88281 22.2355C9.97569 22.147 10.0697 22.0596 10.164 21.9728C10.2423 21.8996 10.2423 21.8996 10.3222 21.825C10.3719 21.7901 10.4216 21.7552 10.4728 21.7192Z" fill="black"/>
<path d="M10.5469 39.124C10.8415 39.225 11.0484 39.3642 11.2844 39.5665C11.2114 39.603 11.2114 39.603 11.1369 39.6402C10.9433 39.5434 10.9433 39.5434 10.7681 39.419C10.7681 39.3703 10.7681 39.3216 10.7681 39.2715C10.6951 39.2471 10.6221 39.2228 10.5469 39.1977C10.5469 39.1734 10.5469 39.149 10.5469 39.124Z" fill="black"/>
<path d="M115.051 39.124C115.051 39.197 115.051 39.27 115.051 39.3452C114.938 39.4475 114.938 39.4475 114.793 39.5434C114.721 39.5918 114.721 39.5918 114.648 39.6411C114.61 39.6651 114.573 39.6892 114.535 39.714C114.486 39.6896 114.437 39.6653 114.387 39.6402C114.606 39.4699 114.825 39.2995 115.051 39.124Z" fill="black"/>
<path d="M103.693 30.2007C103.967 30.2381 104.189 30.283 104.43 30.4219C104.43 30.4706 104.43 30.5193 104.43 30.5694C103.872 30.4325 103.872 30.4325 103.693 30.2007Z" fill="black"/>
<path d="M102.66 29.6106C102.925 29.709 103.158 29.8289 103.398 29.9793C103.325 30.0037 103.252 30.028 103.176 30.0531C102.761 29.8121 102.761 29.8121 102.66 29.6106Z" fill="black"/>
<path d="M24.8535 22.8257C25.1292 23.0216 25.2701 23.1635 25.3697 23.4894C25.283 23.4211 25.1971 23.3518 25.1116 23.282C25.0397 23.2243 25.0397 23.2243 24.9664 23.1653C24.8535 23.0469 24.8535 23.0469 24.8535 22.8257Z" fill="black"/>
<path d="M26.5508 22.3833C26.7229 22.5553 26.895 22.7274 27.0671 22.8995C27.0394 23.0562 27.0394 23.0562 26.9933 23.1945C26.9192 23.0872 26.8455 22.9796 26.7721 22.8719C26.731 22.812 26.69 22.7521 26.6476 22.6904C26.5508 22.5308 26.5508 22.5308 26.5508 22.3833Z" fill="black"/>
<path d="M58.8516 39.7881C58.876 39.7881 58.9003 39.7881 58.9254 39.7881C58.9741 40.0801 59.0227 40.3722 59.0729 40.6731C58.9999 40.6487 58.9269 40.6244 58.8516 40.5993C58.8516 40.3316 58.8516 40.0639 58.8516 39.7881Z" fill="black"/>
<path d="M7.22852 35.6582C7.27719 35.6582 7.32587 35.6582 7.37602 35.6582C7.47368 35.7821 7.47368 35.7821 7.57422 35.944C7.60797 35.997 7.64172 36.0501 7.67649 36.1047C7.69902 36.1521 7.72156 36.1994 7.74477 36.2482C7.72043 36.2969 7.69609 36.3456 7.67102 36.3957C7.41412 36.1731 7.31764 35.985 7.22852 35.6582Z" fill="black"/>
<path d="M81.8633 35.1416C82.1901 35.2308 82.3782 35.3273 82.6008 35.5841C82.2444 35.5536 82.0974 35.4024 81.8633 35.1416Z" fill="black"/>
<path d="M25.0017 32.4131C24.9773 32.4861 24.953 32.5591 24.9279 32.6343C24.8792 32.61 24.8306 32.5857 24.7804 32.5606C24.7561 32.6336 24.7317 32.7066 24.7067 32.7818C24.585 32.8062 24.4633 32.8305 24.3379 32.8556C24.7691 32.4131 24.7691 32.4131 25.0017 32.4131Z" fill="black"/>
<path d="M115.64 21.0557C115.664 21.1287 115.689 21.2017 115.714 21.2769C115.61 21.4439 115.478 21.5735 115.345 21.7194C115.321 21.6707 115.296 21.6221 115.271 21.5719C115.393 21.4016 115.515 21.2312 115.64 21.0557Z" fill="black"/>
<path d="M54.207 20.7607C54.3791 20.9328 54.5512 21.1049 54.7232 21.2769C54.6989 21.35 54.6746 21.423 54.6495 21.4982C54.5753 21.4033 54.5017 21.3079 54.4282 21.2124C54.3872 21.1594 54.3461 21.1063 54.3038 21.0517C54.207 20.9082 54.207 20.9082 54.207 20.7607Z" fill="black"/>
<path d="M78.8379 39.1245C79.1283 39.2212 79.2972 39.3398 79.5017 39.567C79.3418 39.5296 79.2067 39.4932 79.0592 39.4195C79.0592 39.3708 79.0592 39.3221 79.0592 39.272C78.9862 39.2476 78.9132 39.2233 78.8379 39.1982C78.8379 39.1739 78.8379 39.1495 78.8379 39.1245Z" fill="black"/>
<path d="M93.1466 38.6084C93.1466 38.657 93.1466 38.7057 93.1466 38.7559C93.0019 38.8583 92.8544 38.9569 92.7041 39.0509C92.6554 39.0265 92.6067 39.0022 92.5566 38.9771C92.9806 38.6084 92.9806 38.6084 93.1466 38.6084Z" fill="black"/>
<path d="M24.4108 38.5342C24.4594 38.5586 24.5081 38.5829 24.5583 38.608C24.4569 38.7186 24.4569 38.7186 24.337 38.8292C24.2883 38.8292 24.2397 38.8292 24.1895 38.8292C24.1652 38.9022 24.1408 38.9752 24.1158 39.0505C24.0428 39.0261 23.9697 39.0018 23.8945 38.9767C24.0649 38.8307 24.2352 38.6847 24.4108 38.5342Z" fill="black"/>
<path d="M10.1775 36.6907C10.6108 36.958 10.6108 36.958 10.6937 37.2069C10.4823 37.1121 10.3268 37.0173 10.1775 36.8382C10.1775 36.7895 10.1775 36.7408 10.1775 36.6907Z" fill="black"/>
<path d="M80.0933 25.0381C80.1176 25.1111 80.142 25.1841 80.1671 25.2593C80.094 25.3689 80.094 25.3689 80.0196 25.4806C79.9709 25.4806 79.9222 25.4806 79.8721 25.4806C79.8477 25.5536 79.8234 25.6266 79.7983 25.7018C79.774 25.6532 79.7496 25.6045 79.7246 25.5543C79.8462 25.384 79.9679 25.2136 80.0933 25.0381Z" fill="black"/>
<path d="M106.2 22.2354C106.273 22.2597 106.346 22.2841 106.421 22.3091C106.326 22.3729 106.231 22.4357 106.135 22.4981C106.082 22.5332 106.029 22.5683 105.975 22.6044C105.927 22.6287 105.88 22.6529 105.831 22.6779C105.783 22.6536 105.734 22.6292 105.684 22.6041C106.034 22.3184 106.034 22.3184 106.2 22.2354Z" fill="black"/>
<path d="M23.01 21.1294C23.2987 21.223 23.4371 21.3146 23.6 21.5719C23.3788 21.5719 23.3788 21.5719 23.2765 21.4751C23.1877 21.3599 23.0988 21.2446 23.01 21.1294Z" fill="black"/>
</svg>
