<svg width="118" height="59" viewBox="0 0 118 59" fill="none" xmlns="http://www.w3.org/2000/svg">
<path d="M27 3.0004C27 1.34354 28.3431 0 30 0C48.8193 0 67.6634 0 86.9996 0C88.6564 0 90 1.34313 90 2.99998C90 20.4993 90 38.0231 90 55.9996C90 57.6565 88.6569 59 87 59C68.1807 59 49.3366 59 30.0004 59C28.3436 59 27 57.6569 27 56C27 38.5007 27 20.9769 27 3.0004Z" fill="#F6B715"/>
<path d="M45.9307 6.49415C45.9665 6.49418 46.0023 6.49421 46.0391 6.49425C46.6746 6.49606 47.2877 6.52523 47.91 6.66639C47.9626 6.67828 48.0152 6.69017 48.0693 6.70242C50.2246 7.20854 52.1978 8.46195 53.5626 10.2099C53.5978 10.2533 53.6329 10.2967 53.6691 10.3414C54.4074 11.2699 55.0143 12.3462 55.4149 13.4626C55.4358 13.5167 55.4567 13.5708 55.4782 13.6265C55.8285 14.5483 56.0487 15.5064 56.2026 16.4781C56.2083 16.5133 56.214 16.5486 56.2198 16.5849C56.3709 17.536 56.3746 18.484 56.3749 19.4456C56.3749 19.4913 56.3749 19.4913 56.3749 19.5379C56.3753 20.5157 56.3533 21.4818 56.228 22.4526C56.2241 22.4839 56.2202 22.5152 56.2161 22.5475C56.1119 23.3742 55.9706 24.1828 55.7311 24.9825C55.7196 25.0215 55.7081 25.0605 55.6963 25.1006C55.5663 25.5388 55.4236 25.9664 55.2342 26.3829C55.2217 26.411 55.2093 26.439 55.1965 26.4678C54.7372 27.4997 54.1494 28.3921 53.3368 29.1839C53.3147 29.2085 53.2926 29.2331 53.2699 29.2585C52.1964 30.4173 50.4291 31.0549 48.882 31.1323C48.5816 31.1427 48.2812 31.144 47.9806 31.1434C47.9347 31.1433 47.8888 31.1433 47.8415 31.1432C47.1573 31.1413 46.5032 31.1179 45.8375 30.9457C45.7933 30.9346 45.749 30.9234 45.7035 30.9119C44.4889 30.599 43.2852 30.1099 42.2686 29.3646C42.2256 29.3338 42.1825 29.3029 42.1382 29.2712C41.3317 28.6819 40.5691 27.9939 39.9646 27.1961C39.9461 27.1722 39.9276 27.1484 39.9085 27.1238C39.2176 26.2321 38.6546 25.231 38.2438 24.1811C38.2134 24.1053 38.1818 24.03 38.1496 23.9549C37.3213 22.0199 37.0981 19.8098 37.1016 17.7232C37.1016 17.6718 37.1016 17.6204 37.1016 17.5674C37.1034 16.3422 37.1882 15.1186 37.4584 13.9204C37.4793 13.827 37.4984 13.7334 37.5172 13.6396C37.8957 11.8223 38.7301 10.1515 40.0098 8.80943C40.0432 8.77367 40.0766 8.73792 40.1109 8.70108C40.9705 7.80539 42.1672 7.16315 43.3528 6.82168C43.4082 6.80555 43.4635 6.78942 43.5205 6.7728C44.3184 6.55673 45.1068 6.49313 45.9307 6.49415Z" fill="#F6B715"/>
<path d="M46.8228 4.73212C46.8571 4.73206 46.8913 4.732 46.9266 4.73193C48.01 4.73234 49.1099 4.80655 50.1743 5.01447C50.2223 5.02349 50.2703 5.03251 50.3197 5.0418C51.0703 5.18387 51.7987 5.36041 52.5235 5.60176C52.579 5.61969 52.6345 5.63763 52.6917 5.65611C54.3649 6.22249 55.9447 7.11415 57.25 8.30526C57.3467 8.39299 57.4447 8.47856 57.5437 8.56362C58.2724 9.19997 58.8759 9.98111 59.3903 10.797C59.4078 10.8247 59.4253 10.8524 59.4434 10.881C60.0356 11.8248 60.4941 12.844 60.8083 13.9127C60.8321 13.9919 60.8582 14.0705 60.8846 14.1489C61.1659 14.986 61.283 15.8852 61.378 16.7603C61.3837 16.8095 61.3837 16.8095 61.3894 16.8598C61.4182 17.1244 61.4304 17.3852 61.4308 17.6512C61.431 17.6917 61.4312 17.7321 61.4314 17.7738C61.4318 17.9037 61.4318 18.0336 61.4317 18.1635C61.4316 18.2081 61.4316 18.2526 61.4315 18.2984C61.4292 19.4088 61.3356 20.4599 61.107 21.5489C61.0967 21.5997 61.0967 21.5997 61.0862 21.6516C60.5874 24.0803 59.2388 26.3334 57.5832 28.1446C57.5451 28.1874 57.5071 28.2302 57.4678 28.2743C57.1639 28.6145 56.8407 28.9268 56.499 29.2289C56.4628 29.2609 56.4628 29.2609 56.4259 29.2937C56.1489 29.5376 55.8639 29.7669 55.5644 29.9827C55.5373 30.0024 55.5101 30.022 55.4822 30.0422C55.2906 30.1776 55.2906 30.1776 55.1889 30.1776C55.1889 30.2074 55.1889 30.2372 55.1889 30.2679C55.2332 30.2731 55.2332 30.2731 55.2784 30.2783C55.466 30.3261 55.6211 30.4153 55.7903 30.5079C56.1291 30.6899 56.4706 30.8651 56.8152 31.0359C57.178 31.2161 57.538 31.4006 57.8958 31.5907C58.166 31.7338 58.4388 31.8712 58.7126 32.0072C59.0216 32.1606 59.3285 32.3168 59.6331 32.4787C59.9972 32.6722 60.365 32.8576 60.7349 33.0401C61.0096 33.1762 61.2814 33.3172 61.5524 33.4606C62.0369 33.7167 62.5255 33.9643 63.0156 34.2095C63.0609 34.2322 63.1061 34.2548 63.1527 34.2781C64.574 34.988 66.0229 35.6229 67.5079 36.1888C67.5615 36.2093 67.6151 36.2298 67.6704 36.2509C67.9323 36.3496 68.1935 36.4415 68.4629 36.5173C68.5683 36.5496 68.6684 36.5894 68.77 36.6321C69.0846 36.7612 69.4103 36.856 69.7356 36.954C69.7649 36.9629 69.7941 36.9718 69.8243 36.981C70.0501 37.0495 70.2767 37.1151 70.5036 37.1799C70.5648 37.1975 70.5648 37.1975 70.6273 37.2155C71.9267 37.5873 73.2566 37.8552 74.5977 38.0213C74.6647 38.0296 74.6647 38.0296 74.7331 38.0382C75.5287 38.1323 76.3223 38.137 77.1222 38.1369C77.2516 38.1369 77.3811 38.1372 77.5105 38.1379C78.2213 38.1412 78.9239 38.1378 79.6292 38.0382C79.68 38.0316 79.7309 38.025 79.7833 38.0182C79.9186 38.0001 80.0534 37.9802 80.1882 37.9591C80.2368 37.9516 80.2853 37.9441 80.3353 37.9363C81.2239 37.7938 82.1069 37.6084 82.9722 37.3606C83.0262 37.3453 83.0802 37.3301 83.1358 37.3143C83.4223 37.23 83.6952 37.1271 83.9698 37.0099C84.635 36.7276 84.635 36.7276 84.9148 36.7733C85.0249 36.8467 85.0249 36.8467 85.0955 36.954C85.1209 37.0867 85.1209 37.0867 85.0955 37.225C84.8964 37.487 84.6008 37.5925 84.3077 37.7248C84.2518 37.7504 84.1959 37.776 84.14 37.8016C83.361 38.1553 82.5645 38.4714 81.7579 38.7564C81.6452 38.7962 81.5327 38.8367 81.4205 38.878C80.2109 39.3168 78.9461 39.6228 77.6769 39.8286C77.592 39.8425 77.592 39.8425 77.5059 39.8904C77.3905 39.9091 77.2755 39.9259 77.1597 39.9411C77.1065 39.9482 77.1065 39.9482 77.0524 39.9554C76.9767 39.9655 76.9009 39.9755 76.8252 39.9854C76.7135 40 76.6019 40.0151 76.4903 40.0303C75.448 40.1694 74.4148 40.2238 73.3637 40.221C73.2664 40.2208 73.169 40.2207 73.0717 40.2206C72.1043 40.2191 71.1481 40.1925 70.1874 40.0711C70.1302 40.0644 70.0731 40.0576 70.0143 40.0506C68.9745 39.9265 67.9651 39.7289 66.9621 39.4283C66.8406 39.3924 66.7187 39.358 66.5966 39.324C66.1792 39.2077 65.7659 39.0878 65.3606 38.9336C65.2873 38.9057 65.2138 38.8781 65.1403 38.8507C64 38.4251 62.8981 37.9288 61.8062 37.3926C61.705 37.3428 61.6037 37.2933 61.5023 37.2439C60.9187 36.9593 60.3494 36.6569 59.7863 36.3339C59.5251 36.1845 59.2603 36.0425 58.995 35.9008C58.4979 35.6341 58.0135 35.3483 57.5294 35.0589C57.2282 34.879 56.9247 34.7033 56.6204 34.5286C56.2248 34.3012 55.8308 34.0715 55.4384 33.8389C55.208 33.7023 54.9773 33.5661 54.7463 33.4306C54.7197 33.415 54.693 33.3993 54.6655 33.3832C54.5281 33.3026 54.3904 33.2221 54.2526 33.142C53.9908 32.9897 53.7303 32.836 53.473 32.6761C53.3548 32.6028 53.2361 32.5303 53.1173 32.4579C53.0608 32.4232 53.0047 32.3881 52.9488 32.3524C52.6074 32.1191 52.6074 32.1191 52.2117 32.0931C52.1492 32.1152 52.0874 32.1391 52.0266 32.1653C51.976 32.1814 51.9253 32.1975 51.8732 32.214C51.7968 32.2402 51.7968 32.2402 51.7188 32.267C51.2172 32.4314 50.6973 32.5282 50.1808 32.6333C50.0938 32.651 50.007 32.6691 49.9202 32.6878C49.6181 32.7517 49.315 32.7891 49.0082 32.8232C48.9592 32.8289 48.9101 32.8345 48.8596 32.8404C48.3187 32.9017 47.7819 32.9404 47.2375 32.9425C47.1831 32.9427 47.1287 32.943 47.0726 32.9433C46.9579 32.9437 46.8431 32.944 46.7284 32.9442C46.5572 32.9446 46.3861 32.946 46.2149 32.9474C44.6482 32.9542 43.0846 32.7337 41.5909 32.2557C41.4782 32.2223 41.3655 32.1893 41.2526 32.1567C39.2693 31.5182 37.1939 30.3048 35.8424 28.6896C35.749 28.5797 35.6501 28.4757 35.5514 28.3705C34.9218 27.6789 34.4043 26.8847 33.9591 26.0645C33.9127 25.9794 33.8654 25.8947 33.8179 25.8101C33.5903 25.3998 33.4053 24.9764 33.2294 24.5416C33.192 24.4496 33.1536 24.3581 33.1147 24.2667C32.6282 23.1 32.3821 21.8452 32.1942 20.6002C32.1857 20.5455 32.1772 20.4907 32.1685 20.4343C31.9682 18.8833 32.0516 17.2373 32.4201 15.7212C32.4345 15.66 32.449 15.5987 32.4634 15.5375C33.1794 12.6111 34.7668 9.70422 37.2088 7.86056C37.2538 7.82486 37.2988 7.78917 37.3452 7.75239C37.7074 7.46586 38.0838 7.20444 38.4737 6.95704C38.5019 6.93913 38.53 6.92121 38.559 6.90275C39.6609 6.20891 40.8733 5.68094 42.133 5.35481C42.2668 5.31911 42.3987 5.27786 42.5311 5.23752C43.196 5.04939 43.8767 4.95448 44.5612 4.87047C44.592 4.86664 44.6227 4.86282 44.6544 4.85888C45.3757 4.77005 46.0962 4.73289 46.8228 4.73212ZM44.0756 6.64081C44.0438 6.6471 44.0121 6.65339 43.9795 6.65987C43.7675 6.70352 43.5599 6.75892 43.3527 6.82151C43.3024 6.83649 43.3024 6.83649 43.2509 6.85178C42.3545 7.12465 41.5146 7.55198 40.7777 8.13162C40.736 8.16336 40.6943 8.1951 40.6514 8.2278C39.8838 8.83009 39.2922 9.55884 38.79 10.3904C38.772 10.4198 38.7541 10.4492 38.7356 10.4794C38.2283 11.3194 37.8892 12.2328 37.6425 13.18C37.6185 13.27 37.5921 13.3592 37.5653 13.4483C37.4135 13.9618 37.3447 14.4889 37.2752 15.0188C37.2617 15.1206 37.2477 15.2223 37.2329 15.3239C36.8468 17.9937 37.1119 20.8358 37.9316 23.4011C37.9424 23.4354 37.9533 23.4696 37.9644 23.5049C38.0887 23.892 38.2551 24.2571 38.4316 24.6225C38.4742 24.7121 38.5149 24.8024 38.5553 24.893C39.2627 26.468 40.3946 27.9519 41.7716 29.003C41.8006 29.0252 41.8296 29.0474 41.8594 29.0702C42.3488 29.4419 42.8506 29.7628 43.3979 30.042C43.4324 30.0597 43.467 30.0774 43.5025 30.0957C44.8551 30.7811 46.2994 31.1444 47.815 31.138C47.9515 31.1376 48.088 31.138 48.2244 31.1386C48.8741 31.1391 49.5358 31.1287 50.163 30.9399C50.1958 30.9304 50.2286 30.9208 50.2624 30.911C51.3614 30.5808 52.3514 30.11 53.1928 29.3196C53.2915 29.2289 53.2915 29.2289 53.3972 29.1495C54.4605 28.2532 55.1155 26.812 55.5503 25.5244C55.5639 25.487 55.5774 25.4495 55.5914 25.411C55.9301 24.4496 56.1012 23.46 56.2279 22.4524C56.2355 22.3941 56.243 22.3357 56.2507 22.2756C56.3619 21.372 56.3763 20.4683 56.3775 19.5588C56.3776 19.4697 56.3778 19.3806 56.3781 19.2915C56.3797 18.2364 56.3418 17.1892 56.1461 16.1504C56.134 16.0843 56.1219 16.0182 56.1099 15.9522C56.0305 15.5241 55.9371 15.1031 55.806 14.6877C55.772 14.5783 55.74 14.4685 55.7082 14.3585C55.5973 13.9769 55.4856 13.6003 55.3244 13.2365C55.2992 13.1774 55.274 13.1183 55.2489 13.0592C54.6498 11.6656 53.8393 10.4502 52.7946 9.35137C52.7531 9.30717 52.7531 9.30717 52.7109 9.26208C52.4863 9.02894 52.2346 8.8296 51.9814 8.62856C51.9151 8.57466 51.9151 8.57466 51.8474 8.51968C51.0873 7.91482 50.2229 7.43902 49.316 7.09257C49.2851 7.08052 49.2541 7.06847 49.2223 7.05606C48.7724 6.88253 48.3227 6.74582 47.8506 6.64645C47.7857 6.6327 47.7857 6.6327 47.7195 6.61866C47.128 6.50129 46.5314 6.4945 45.9306 6.49399C45.8755 6.49392 45.8755 6.49392 45.8193 6.49385C45.2291 6.49434 44.6555 6.52311 44.0756 6.64081Z" fill="#FEFEFD"/>
<path d="M80.3988 5.28553C80.4583 5.30115 80.5179 5.31668 80.5775 5.33212C81.0856 5.46802 81.0856 5.46802 81.1667 5.60176C81.1798 5.72347 81.1837 5.83308 81.1809 5.9547C81.1803 5.99048 81.1797 6.02626 81.1791 6.06313C81.1728 6.34627 81.1558 6.62749 81.1344 6.90986C81.0928 7.46218 81.0677 8.0121 81.0625 8.56592C81.0621 8.59696 81.0618 8.628 81.0615 8.65998C81.0588 8.94503 81.057 9.23009 81.0558 9.51516C81.0551 9.67402 81.0537 9.83288 81.0519 9.99174C81.0512 10.0793 81.0512 10.1669 81.0511 10.2545C81.0478 10.5514 81.0436 10.8473 80.8957 11.1133C80.739 11.2177 80.6733 11.2228 80.4891 11.2036C80.3719 11.1199 80.3158 11.0199 80.2632 10.8874C80.2553 10.7709 80.2511 10.6566 80.2491 10.5401C80.1995 9.33779 79.5258 8.30311 78.6736 7.49351C78.1532 7.04473 77.4866 6.77294 76.8298 6.59564C76.7988 6.58685 76.7678 6.57805 76.7358 6.56899C75.5376 6.24523 74.0334 6.39581 72.9465 7.00858C72.1025 7.51662 71.4926 8.26301 71.2506 9.22432C71.0153 10.2756 71.2305 11.3283 71.7899 12.237C72.2571 12.9321 72.8514 13.5521 73.4868 14.0949C73.5286 14.1311 73.5703 14.1673 73.6133 14.2046C73.9757 14.5172 74.3521 14.8089 74.7338 15.0972C74.9322 15.2473 75.1299 15.3982 75.3277 15.549C75.3681 15.5798 75.4085 15.6106 75.4502 15.6423C75.5283 15.7018 75.6063 15.7613 75.6844 15.8208C75.7503 15.871 75.8161 15.9212 75.882 15.9714C76.367 16.3409 76.8382 16.7257 77.3022 17.1212C77.4027 17.2068 77.5036 17.2918 77.605 17.3762C77.9952 17.7029 78.3599 18.0504 78.7185 18.4113C78.8095 18.5028 78.901 18.5938 78.9926 18.6847C79.3162 19.008 79.6221 19.334 79.9018 19.6967C79.9287 19.7309 79.9556 19.765 79.9832 19.8002C80.5401 20.5143 81.0303 21.2845 81.3475 22.1362C81.3585 22.1648 81.3695 22.1934 81.3809 22.2229C82.0378 23.9444 82.1031 26.0953 81.4378 27.8284C81.4248 27.8625 81.4117 27.8966 81.3983 27.9317C81.0357 28.8626 80.5444 29.6322 79.8566 30.3583C79.8169 30.401 79.7771 30.4436 79.7361 30.4876C78.8042 31.4679 77.607 32.0706 76.3329 32.4816C76.2887 32.4962 76.2446 32.5108 76.1991 32.5259C75.8398 32.6416 75.4821 32.7201 75.1103 32.7837C75.0572 32.7932 75.004 32.8028 74.9493 32.8127C74.4067 32.9078 73.873 32.9405 73.3225 32.9425C73.2648 32.9427 73.2071 32.943 73.1476 32.9433C73.0258 32.9437 72.9041 32.944 72.7823 32.9442C72.6601 32.9444 72.5379 32.945 72.4156 32.946C70.7424 32.9591 68.4578 32.8427 67.0467 31.7926C66.7984 31.4919 66.8262 31.1513 66.8279 30.7802C66.8278 30.7184 66.8276 30.6566 66.8274 30.5948C66.827 30.4289 66.8276 30.2631 66.8285 30.0972C66.829 29.9939 66.8293 29.8907 66.8295 29.7874C66.8319 28.8395 66.8533 27.8941 66.9052 26.9475C66.9079 26.8969 66.9105 26.8462 66.9132 26.7941C66.9829 25.5048 66.9829 25.5048 67.2021 25.2415C67.2977 25.163 67.2977 25.163 67.4558 25.1376C67.6139 25.163 67.6139 25.163 67.7129 25.2573C67.815 25.4217 67.8142 25.5208 67.8144 25.7136C67.8524 27.0166 68.2703 28.4349 69.1047 29.4548C69.138 29.496 69.1713 29.5372 69.2057 29.5797C69.7461 30.2119 70.4886 30.6469 71.2704 30.9145C71.3004 30.9249 71.3305 30.9353 71.3615 30.946C71.9483 31.1344 72.5329 31.1949 73.1459 31.1916C73.2549 31.1912 73.3638 31.1925 73.4729 31.1939C74.1394 31.197 74.7785 31.0826 75.3955 30.8242C75.433 30.8087 75.4704 30.7933 75.509 30.7775C76.048 30.5479 76.5049 30.2308 76.9202 29.8162C76.955 29.7819 76.9897 29.7477 77.0255 29.7124C77.7415 28.966 78.0242 28.0279 78.0185 27.0124C78.0184 26.9814 78.0183 26.9504 78.0182 26.9184C78.0118 25.6464 77.6213 24.5799 76.8298 23.5819C76.7954 23.5382 76.7609 23.4945 76.7254 23.4495C76.2249 22.8311 75.651 22.2624 75.0228 21.7748C74.9353 21.7038 74.8481 21.6324 74.761 21.5609C74.4431 21.3006 74.1207 21.0473 73.794 20.798C70.7327 18.4549 70.7327 18.4549 69.6468 17.0313C69.6086 16.9845 69.5703 16.9378 69.5318 16.8912C69.0328 16.2819 68.616 15.6146 68.2848 14.9002C68.2487 14.8226 68.2112 14.7457 68.1737 14.6688C67.9477 14.182 67.8226 13.6679 67.7043 13.1462C67.696 13.1105 67.6878 13.0748 67.6793 13.0381C67.308 11.3582 67.6327 9.59321 68.5174 8.13163C68.7654 7.75608 69.068 7.41964 69.3758 7.09258C69.4023 7.06317 69.4288 7.03376 69.4561 7.00346C70.1302 6.28505 71.0444 5.78189 71.9508 5.42106C71.999 5.40126 72.0473 5.38146 72.0969 5.36106C74.6362 4.38252 77.8083 4.553 80.3988 5.28553Z" fill="#FEFEFD"/>
<path d="M55.253 51.266C55.415 51.2659 55.577 51.2657 55.739 51.2654C56.4997 51.2643 57.2604 51.2638 58.0211 51.2638C58.1737 51.2638 58.3262 51.2637 58.4787 51.2637C62.248 51.2629 66.0163 51.28 76.2739 51.5811C76.4995 51.5907 76.7252 51.5999 76.9508 51.6089C78.2791 51.6622 79.6048 51.7385 80.9302 51.8398C80.9607 51.8421 80.9913 51.8444 81.0227 51.8468C81.6688 51.896 82.3138 51.9513 82.9578 52.022C83.0062 52.0273 83.0545 52.0326 83.1043 52.0381C84.378 52.1829 84.378 52.1829 84.917 52.4496C84.917 52.4944 84.917 52.5391 84.917 52.5852C84.2665 52.9148 83.4742 52.9612 82.7586 53.0271C82.6347 53.0392 82.5114 53.0544 82.3879 53.07C82.0484 53.1124 81.7087 53.1441 81.3676 53.1711C81.3183 53.1751 81.2689 53.179 81.218 53.183C80.7075 53.2228 80.1967 53.2546 79.6856 53.2836C79.6363 53.2865 79.587 53.2893 79.5362 53.2922C78.3134 53.362 77.0898 53.414 75.8661 53.4645C75.6329 53.4742 75.3997 53.4841 75.1666 53.494C73.3133 53.5725 71.461 53.6294 69.6065 53.6666C69.469 53.6693 69.3315 53.6722 69.1939 53.675C68.6706 53.6859 68.1473 53.6963 67.624 53.7059C67.3688 53.7106 67.1137 53.7155 66.8586 53.7208C64.4231 53.7713 61.9874 53.7667 59.5515 53.7655C59.1464 53.7654 58.7413 53.7654 58.3361 53.7656C56.0489 53.7667 53.7618 53.7656 51.4747 53.7394C51.4345 53.739 51.3942 53.7385 51.3528 53.7381C50.0615 53.7236 48.7714 53.6914 47.4808 53.6484C46.8922 53.6289 46.3035 53.6144 45.7147 53.6014C45.629 53.5995 45.5432 53.5976 45.4575 53.5957C45.1211 53.5883 44.7848 53.5809 44.4484 53.5741C43.5645 53.5563 42.6829 53.5288 41.8004 53.4762C41.266 53.4444 40.7317 53.4243 40.1967 53.4084C39.2396 53.3792 38.2848 53.3292 37.3296 53.2628C37.2469 53.2571 37.2469 53.2571 37.1625 53.2513C36.6122 53.2132 36.0638 53.1705 35.5164 53.1015C35.3089 53.076 35.1013 53.0591 34.8929 53.0426C34.4941 53.0083 34.0979 52.9596 33.7014 52.9042C33.6491 52.8971 33.5968 52.89 33.543 52.8826C32.6869 52.7593 32.6869 52.7593 32.5127 52.5852C32.5099 52.4976 32.5099 52.4976 32.5579 52.4045C33.5788 51.9098 34.9748 51.9608 36.0816 51.8623C36.1207 51.8589 36.1598 51.8554 36.2001 51.8518C36.8922 51.7908 37.5846 51.7432 38.2783 51.7042C38.3285 51.7014 38.3787 51.6985 38.4305 51.6956C39.1466 51.655 39.8629 51.6178 40.5795 51.5856C40.6355 51.583 40.6355 51.583 40.6926 51.5804C41.2989 51.5525 41.9054 51.5385 42.5122 51.5253C43.1589 51.5112 43.8053 51.4931 44.4517 51.4685C44.5279 51.4656 44.604 51.4627 44.6802 51.4598C44.796 51.4554 44.9119 51.451 45.0277 51.4466C46.6997 51.3832 48.3706 51.345 50.0437 51.3327C50.1585 51.3318 50.2732 51.3308 50.388 51.3298C50.418 51.3295 50.448 51.3293 50.479 51.329C50.9458 51.3252 51.4123 51.3171 51.8789 51.3038C53.0036 51.2717 54.128 51.267 55.253 51.266Z" fill="#89878A"/>
<path d="M50.8067 51.2296C51.5764 51.2243 52.3421 51.2305 53.1107 51.2748C53.1107 51.2897 53.1107 51.3046 53.1107 51.32C51.8756 51.3564 50.6419 51.3714 49.4062 51.3651C49.4062 51.3502 49.4062 51.3353 49.4062 51.32C50.0995 51.2976 50.0995 51.2976 50.8067 51.2748C50.8067 51.2599 50.8067 51.245 50.8067 51.2296Z" fill="#E3AE2C"/>
<path d="M43.2643 51.4106C43.9799 51.433 43.9799 51.433 44.7099 51.4558C44.7099 51.4707 44.7099 51.4856 44.7099 51.501C44.0773 51.5282 43.4458 51.5548 42.8125 51.5462C42.8125 51.5313 42.8125 51.5164 42.8125 51.501C42.9616 51.4861 43.1107 51.4712 43.2643 51.4558C43.2643 51.4409 43.2643 51.426 43.2643 51.4106Z" fill="#D7A93B"/>
<path d="M40.5078 53.398C40.9323 53.3931 41.3499 53.3983 41.7727 53.4431C41.7727 53.458 41.7727 53.473 41.7727 53.4883C41.5295 53.5297 41.2965 53.5385 41.0499 53.5335C41.0499 53.5186 41.0499 53.5037 41.0499 53.4883C40.871 53.4734 40.6921 53.4585 40.5078 53.4431C40.5078 53.4282 40.5078 53.4133 40.5078 53.398Z" fill="#DEAC33"/>
<path d="M78.5 18.1606C78.6559 18.2274 78.7552 18.316 78.8727 18.4373C78.9046 18.4701 78.9365 18.5028 78.9694 18.5365C79.0054 18.5741 79.0054 18.5741 79.0421 18.6124C79.0123 18.6422 78.9825 18.672 78.9518 18.7028C78.8762 18.6296 78.801 18.5561 78.7259 18.4825C78.684 18.4416 78.642 18.4008 78.5988 18.3586C78.5 18.251 78.5 18.251 78.5 18.1606Z" fill="#F6BB2A"/>
<path d="M81.7991 25.9761C81.814 25.9761 81.8289 25.9761 81.8443 25.9761C81.8784 26.2126 81.8988 26.4176 81.8443 26.6537C81.8144 26.6388 81.7846 26.6239 81.7539 26.6085C81.7688 26.3998 81.7837 26.1911 81.7991 25.9761Z" fill="#F7BF33"/>
<path d="M69.6465 39.981C69.8254 39.9959 70.0043 40.0108 70.1886 40.0261C69.9633 40.1388 69.8873 40.1114 69.6465 40.0713C69.6465 40.0415 69.6465 40.0117 69.6465 39.981Z" fill="#F7BF32"/>
<path d="M56.0032 23.4917C56.0516 23.6395 56.0435 23.737 56.006 23.887C55.9928 23.9411 55.9928 23.9411 55.9793 23.9964C55.9723 24.0237 55.9652 24.0509 55.958 24.079C55.8885 23.9701 55.8632 23.9208 55.8885 23.7917C55.9021 23.7561 55.9157 23.7204 55.9297 23.6837C55.9431 23.6476 55.9565 23.6115 55.9703 23.5743C55.9812 23.547 55.992 23.5198 56.0032 23.4917Z" fill="#F8C23E"/>
<path d="M72.5372 31.0811C72.5372 31.1109 72.5372 31.1407 72.5372 31.1714C72.6117 31.1714 72.6863 31.1714 72.7631 31.1714C72.7631 31.1863 72.7631 31.2012 72.7631 31.2166C72.559 31.22 72.375 31.2212 72.1758 31.1714C72.3153 31.0917 72.367 31.0811 72.5372 31.0811Z" fill="#F8C851"/>
<path d="M77.8229 25.3892C77.9388 25.5631 77.9381 25.6799 77.9584 25.8861C77.9286 25.8861 77.8988 25.8861 77.868 25.8861C77.772 25.5416 77.772 25.5416 77.8229 25.3892Z" fill="#F7C037"/>
<path d="M50.3555 5.01465C50.5045 5.02956 50.6536 5.04446 50.8072 5.05982C50.7923 5.08964 50.7774 5.11946 50.7621 5.15018C50.4841 5.12371 50.4841 5.12371 50.4006 5.105C50.3857 5.07518 50.3708 5.04537 50.3555 5.01465Z" fill="#F7BD2E"/>
<path d="M82.6576 52.9914C82.6576 53.0063 82.6576 53.0212 82.6576 53.0365C82.4584 53.0863 82.2743 53.0852 82.0703 53.0817C82.0703 53.0668 82.0703 53.0519 82.0703 53.0365C82.2854 52.9474 82.4301 52.9459 82.6576 52.9914Z" fill="#A9956D"/>
<path d="M79.6305 38.0382C79.6305 38.0531 79.6305 38.068 79.6305 38.0834C79.4153 38.1264 79.2164 38.1323 78.998 38.1286C78.998 38.1136 78.998 38.0987 78.998 38.0834C79.2328 37.9836 79.3858 37.996 79.6305 38.0382Z" fill="#F9CA5B"/>
<path d="M73.9837 31.0811C74.103 31.096 74.2222 31.1109 74.3451 31.1262C74.3451 31.1411 74.3451 31.156 74.3451 31.1714C74.1459 31.2212 73.9618 31.22 73.7578 31.2166C73.7578 31.2017 73.7578 31.1868 73.7578 31.1714C73.8324 31.1714 73.9069 31.1714 73.9837 31.1714C73.9837 31.1416 73.9837 31.1118 73.9837 31.0811Z" fill="#F9CD64"/>
<path d="M49.8133 4.87892C49.7835 4.90873 49.7537 4.93855 49.723 4.96927C49.6252 4.96821 49.6252 4.96821 49.5141 4.95233C49.4771 4.94732 49.4402 4.94231 49.4022 4.93715C49.3739 4.93284 49.3456 4.92853 49.3164 4.92409C49.5052 4.79821 49.5941 4.84297 49.8133 4.87892Z" fill="#F7BD2B"/>
</svg>
