<svg width="118" height="59" viewBox="0 0 118 59" fill="none" xmlns="http://www.w3.org/2000/svg">
<path d="M21.204 13.0513C21.0264 14.4139 21.0264 14.4139 20.8353 14.9872C20.886 14.993 20.9367 14.9989 20.989 15.0049C22.4971 15.227 23.9329 15.8234 25.2603 16.5544C25.4061 16.6325 25.4061 16.6325 25.5548 16.7121C26.6091 17.2985 28.125 18.2276 28.6712 19.32C27.3022 20.689 25.9332 22.058 24.5228 23.4685C24.2172 23.3157 23.9965 23.1615 23.7377 22.9447C22.5411 21.9487 21.1501 21.3352 19.6368 20.9794C19.6323 21.0352 19.6278 21.0911 19.6231 21.1486C19.5725 21.7167 19.4823 22.2662 19.3603 22.8231C19.0583 22.9238 18.8654 22.8899 18.5558 22.848C17.2579 22.6941 15.9127 22.9823 14.7509 23.5606C14.6773 23.5968 14.6038 23.6329 14.528 23.6701C13.5198 24.1976 12.5743 24.9758 11.9853 25.9575C11.5767 25.8175 11.245 25.5956 10.8963 25.3468C10.8137 25.2887 10.8137 25.2887 10.7294 25.2294C10.5946 25.1345 10.4602 25.039 10.3259 24.9435C10.0334 25.2834 9.82195 25.6331 9.63448 26.0382C9.60678 26.0975 9.57909 26.1568 9.55055 26.2179C9.26705 26.8485 9.09676 27.497 8.94307 28.17C9.0221 28.1812 9.10112 28.1924 9.18254 28.2039C9.34065 28.227 9.34065 28.227 9.50196 28.2507C9.65757 28.2731 9.65757 28.2731 9.81633 28.2961C10.1506 28.356 10.4622 28.4403 10.7868 28.5388C10.7854 28.5958 10.7839 28.6527 10.7824 28.7115C10.7298 31.1054 11.1179 33.179 12.8083 34.9887C13.1239 35.3151 13.4443 35.5822 13.829 35.8216C13.7854 36.2993 13.5361 36.6204 13.2701 37.0027C13.2266 37.0666 13.183 37.1305 13.1381 37.1963C13.0311 37.3531 12.9231 37.5093 12.8149 37.6653C12.8777 37.6893 12.9404 37.7133 13.0051 37.7381C13.2574 37.8421 13.5018 37.9572 13.7472 38.0767C15.9955 39.1638 18.4652 39.4039 20.8439 38.5918C22.0145 38.1668 23.2939 37.5408 24.1097 36.5782C24.2462 36.4669 24.2462 36.4669 24.4132 36.4821C24.6826 36.5849 24.8262 36.7372 25.0292 36.9419C25.1103 37.0231 25.1915 37.1043 25.2752 37.188C25.3629 37.2771 25.4506 37.3662 25.5383 37.4554C25.6286 37.5463 25.719 37.6371 25.8095 37.7278C26.0472 37.9665 26.284 38.206 26.5206 38.4457C26.7623 38.6903 27.0049 38.9341 27.2473 39.178C27.7227 39.6563 28.1972 40.1356 28.6712 40.6153C27.8418 42.3838 25.0101 43.6369 23.2898 44.2855C19.4104 45.679 15.2483 45.5224 11.4779 43.8583C11.0081 43.6366 10.5562 43.3818 10.1089 43.1182C10.0444 43.0804 9.97998 43.0425 9.91356 43.0036C9.85723 42.9696 9.80089 42.9357 9.74285 42.9008C9.57517 42.8082 9.57517 42.8082 9.31182 42.8278C9.18783 42.9563 9.18783 42.9563 9.08315 43.1303C9.04245 43.1927 9.00175 43.2551 8.95982 43.3194C8.91817 43.3853 8.87651 43.4513 8.8336 43.5192C8.79088 43.5852 8.74816 43.6511 8.70414 43.7191C8.59855 43.8824 8.49413 44.0464 8.38995 44.2106C7.88682 44.1795 7.58846 43.8766 7.22032 43.5653C7.12238 43.4839 7.12238 43.4839 7.02246 43.4009C6.83198 43.2417 6.64274 43.0812 6.45401 42.92C6.36203 42.8415 6.27005 42.7629 6.17529 42.682C5.70466 42.2686 5.28351 41.8371 4.88682 41.3528C4.84715 41.3056 4.80747 41.2583 4.76659 41.2096C2.11409 38.046 0.625515 34.1006 0.628912 29.9619C0.628986 29.8664 0.629061 29.771 0.629137 29.6726C0.633854 29.072 0.661112 28.479 0.726861 27.8819C0.734088 27.816 0.741315 27.7501 0.74876 27.6822C0.797735 27.292 0.887963 26.9838 1.01495 26.6028C1.65381 26.7245 2.29267 26.8462 2.95088 26.9716C2.968 26.8271 2.98511 26.6826 3.00274 26.5337C3.28631 24.8521 4.04771 23.2162 4.98513 21.8015C5.10283 21.6121 5.10283 21.6121 4.97901 21.3481C4.73263 21.1577 4.73263 21.1577 4.43741 20.9736C4.33877 20.9098 4.24014 20.846 4.13852 20.7803C4.05082 20.7243 3.96312 20.6683 3.87276 20.6106C3.78149 20.5498 3.69023 20.489 3.5962 20.4263C4.46114 17.8965 7.76929 15.6822 10.0211 14.5382C13.2983 12.9339 17.6205 11.9246 21.204 13.0513Z" fill="#EDDB00"/>
<path d="M21.2035 13.0513C21.0259 14.4139 21.0259 14.4139 20.8348 14.9872C20.8855 14.993 20.9363 14.9989 20.9885 15.0049C22.4967 15.227 23.9324 15.8234 25.2598 16.5544C25.357 16.6064 25.4542 16.6585 25.5543 16.7121C26.6086 17.2985 28.1245 18.2276 28.6707 19.32C27.3017 20.689 25.9327 22.058 24.5223 23.4685C24.2167 23.3157 23.996 23.1615 23.7373 22.9447C22.5406 21.9487 21.1496 21.3352 19.6363 20.9794C19.6318 21.0352 19.6273 21.0911 19.6226 21.1486C19.572 21.7167 19.4818 22.2662 19.3598 22.8231C19.0578 22.9238 18.8649 22.8899 18.5553 22.848C17.2574 22.6941 15.9122 22.9823 14.7504 23.5606C14.6401 23.6148 14.6401 23.6148 14.5275 23.6701C13.5193 24.1976 12.5738 24.9758 11.9848 25.9575C11.6001 25.8237 11.3096 25.6337 10.9822 25.3929C10.8664 25.3087 10.7504 25.2247 10.6344 25.1408C10.5705 25.0945 10.5066 25.0482 10.4407 25.0005C9.25484 24.1475 8.0465 23.3258 6.83251 22.5135C6.71185 22.4328 6.59126 22.352 6.47073 22.271C5.88841 21.8803 5.3076 21.4981 4.68899 21.1662C4.44897 21.0337 4.2273 20.88 4.00479 20.7201C3.88767 20.6365 3.88767 20.6365 3.76819 20.5512C3.71127 20.51 3.65435 20.4688 3.5957 20.4263C4.46065 17.8965 7.7688 15.6822 10.0206 14.5382C13.2978 12.9339 17.62 11.9246 21.2035 13.0513Z" fill="#48A9C4"/>
<path d="M24.4115 36.4822C24.6809 36.585 24.8246 36.7373 25.0275 36.942C25.1087 37.0232 25.1899 37.1044 25.2735 37.1881C25.3612 37.2772 25.4489 37.3663 25.5366 37.4555C25.627 37.5464 25.7174 37.6372 25.8078 37.7279C26.0455 37.9666 26.2823 38.2061 26.5189 38.4458C26.7607 38.6904 27.0032 38.9342 27.2457 39.1781C27.7211 39.6564 28.1956 40.1356 28.6695 40.6154C27.8402 42.3838 25.0084 43.637 23.2881 44.2856C19.3319 45.7067 15.0611 45.5206 11.2461 43.7498C10.931 43.5953 10.6209 43.4335 10.3127 43.2658C10.207 43.2088 10.207 43.2088 10.0991 43.1507C10.002 43.0957 10.002 43.0957 9.90289 43.0397C9.81767 42.9917 9.81767 42.9917 9.73072 42.9427C9.55541 42.803 9.48889 42.6637 9.40234 42.4592C10.5076 40.8298 11.6136 39.2011 12.7211 37.5732C12.8083 37.6201 12.8955 37.6669 12.9854 37.7151C15.3311 38.9468 17.8731 39.4911 20.4662 38.7162C21.7677 38.3003 23.2109 37.6368 24.1081 36.5783C24.2445 36.467 24.2445 36.467 24.4115 36.4822Z" fill="#004975"/>
<path d="M20.743 14.9873C23.7472 15.3357 26.5848 16.9916 28.6711 19.1357C28.5332 19.4575 28.3492 19.6644 28.1019 19.9102C28.0225 19.9896 27.9432 20.0689 27.8614 20.1507C27.7757 20.2355 27.6899 20.3203 27.6016 20.4076C27.5129 20.4959 27.4243 20.5843 27.3357 20.6727C27.1031 20.9047 26.8698 21.1361 26.6365 21.3674C26.3982 21.6038 26.1605 21.8406 25.9228 22.0775C25.4566 22.5417 24.9898 23.0053 24.5227 23.4686C24.2246 23.3285 23.9905 23.1566 23.7376 22.9448C22.5339 21.9429 21.1525 21.3515 19.6367 20.9795C19.7608 20.2163 19.8965 19.456 20.0408 18.6964C20.061 18.5895 20.0812 18.4826 20.102 18.3725C20.1657 18.0354 20.2296 17.6983 20.2936 17.3611C20.3371 17.1308 20.3807 16.9004 20.4243 16.6701C20.5304 16.1091 20.6366 15.5482 20.743 14.9873Z" fill="#004975"/>
<path d="M5.16289 21.4404C5.61675 21.5921 5.98147 21.85 6.37285 22.1178C6.48117 22.1912 6.48117 22.1912 6.59168 22.2661C6.82247 22.4226 7.05284 22.5797 7.2832 22.7368C7.43526 22.84 7.58735 22.9432 7.73946 23.0463C8.57392 23.6127 9.40539 24.1832 10.2332 24.7592C10.1152 25.1285 9.97816 25.4594 9.79374 25.801C9.47827 26.3892 9.22676 26.9739 9.04629 27.617C9.01994 27.7085 9.01994 27.7085 8.99306 27.8018C8.80852 28.5052 8.7579 29.1866 8.66602 29.9217C6.68859 29.9217 4.71117 29.9217 2.67383 29.9217C2.67383 28.2786 2.67383 28.2786 2.81211 27.4384C2.82806 27.341 2.84402 27.2436 2.86045 27.1433C3.14837 25.5234 3.71017 23.9787 4.51758 22.5467C4.54894 22.491 4.58029 22.4353 4.6126 22.378C4.79157 22.0627 4.97501 21.7504 5.16289 21.4404Z" fill="#97D700"/>
<path d="M75.5938 31.4888C77.4375 31.4888 77.4375 31.4888 77.8804 31.9C78.0313 32.1647 78.0313 32.1647 78.1635 32.4452C78.2121 32.5342 78.2607 32.6232 78.3108 32.7149C78.407 32.892 78.5006 33.0706 78.5912 33.2507C78.8011 33.6588 79.0404 34.0483 79.2812 34.4388C79.6466 34.0165 79.916 33.5472 80.1974 33.0675C80.292 32.9062 80.387 32.7451 80.4822 32.5842C80.5238 32.5133 80.5654 32.4424 80.6082 32.3693C80.7983 32.0673 81.0098 31.7792 81.2172 31.4888C81.8256 31.4888 82.4341 31.4888 83.0609 31.4888C83.0609 33.9529 83.0609 36.4171 83.0609 38.956C82.4829 38.956 81.9049 38.956 81.3094 38.956C81.279 37.4957 81.2485 36.0355 81.2172 34.531C80.817 35.165 80.817 35.165 80.4175 35.7994C80.0902 36.316 79.7504 36.8149 79.3734 37.2966C79.0499 37.1887 79.022 37.1264 78.8506 36.8446C78.8045 36.7701 78.7583 36.6955 78.7108 36.6187C78.6633 36.5401 78.6158 36.4615 78.5668 36.3805C78.1794 35.7469 77.7724 35.141 77.3453 34.531C77.3149 35.9912 77.2845 37.4515 77.2531 38.956C76.7055 38.956 76.1579 38.956 75.5938 38.956C75.5938 36.4918 75.5938 34.0276 75.5938 31.4888Z" fill="#004975"/>
<path d="M102.973 31.4888C103.623 31.4831 104.273 31.4774 104.943 31.4715C105.147 31.469 105.35 31.4665 105.559 31.4639C105.723 31.4631 105.888 31.4624 106.052 31.4618C106.134 31.4604 106.217 31.459 106.303 31.4575C107.185 31.4572 108.009 31.646 108.654 32.2818C109.217 32.8962 109.283 33.4834 109.271 34.302C109.213 34.9282 108.949 35.4684 108.504 35.9138C108.265 36.0798 108.019 36.2306 107.766 36.3748C107.809 36.4319 107.851 36.4891 107.895 36.548C108.279 37.0685 108.65 37.5958 109.011 38.1321C109.052 38.1925 109.093 38.2528 109.135 38.315C109.426 38.7498 109.426 38.7498 109.426 38.956C108.758 39.1 108.047 39.2132 107.398 38.956C106.98 38.5497 106.709 38.0562 106.45 37.5386C106.292 37.238 106.157 36.9899 105.923 36.7435C105.495 36.6189 105.177 36.6323 104.724 36.6513C104.724 37.4119 104.724 38.1724 104.724 38.956C104.146 38.956 103.568 38.956 102.973 38.956C102.973 36.4918 102.973 34.0277 102.973 31.4888ZM104.724 33.056C104.724 33.7253 104.724 34.3946 104.724 35.0841C105.186 35.0927 105.186 35.0927 105.658 35.1014C105.754 35.1039 105.85 35.1064 105.949 35.109C106.528 35.1142 106.939 35.054 107.386 34.652C107.539 34.3369 107.551 34.0404 107.49 33.7013C107.269 33.3247 107.068 33.1901 106.66 33.056C106.429 33.031 106.429 33.031 106.192 33.038C106.114 33.0385 106.037 33.0389 105.957 33.0394C105.812 33.0419 105.812 33.0419 105.663 33.0445C105.198 33.0502 105.198 33.0502 104.724 33.056Z" fill="#004975"/>
<path d="M59.8301 31.4888C60.4081 31.4888 60.9861 31.4888 61.5816 31.4888C61.5816 32.4623 61.5816 33.4358 61.5816 34.4388C62.5247 34.4388 63.4678 34.4388 64.4395 34.4388C64.4395 33.4653 64.4395 32.4918 64.4395 31.4888C65.0175 31.4888 65.5955 31.4888 66.191 31.4888C66.191 33.9529 66.191 36.4171 66.191 38.956C65.613 38.956 65.035 38.956 64.4395 38.956C64.4395 37.9825 64.4395 37.009 64.4395 36.006C63.4964 36.006 62.5533 36.006 61.5816 36.006C61.5816 36.9795 61.5816 37.953 61.5816 38.956C61.0036 38.956 60.4256 38.956 59.8301 38.956C59.8301 36.4918 59.8301 34.0276 59.8301 31.4888Z" fill="#004875"/>
<path d="M68.2188 31.4888C70.0745 31.4888 71.9302 31.4888 73.8422 31.4888C73.8422 32.0059 73.8422 32.5231 73.8422 33.056C72.534 33.056 71.2259 33.056 69.8781 33.056C69.8781 33.5123 69.8781 33.9686 69.8781 34.4388C71.0342 34.4388 72.1902 34.4388 73.3812 34.4388C73.3812 34.9559 73.3812 35.4731 73.3812 36.006C72.2252 36.006 71.0692 36.006 69.8781 36.006C69.8781 36.4927 69.8781 36.9795 69.8781 37.481C71.2167 37.481 72.5552 37.481 73.9344 37.481C73.9344 37.9677 73.9344 38.4545 73.9344 38.956C72.0482 38.956 70.1621 38.956 68.2188 38.956C68.2188 36.4918 68.2188 34.0276 68.2188 31.4888Z" fill="#004876"/>
<path d="M93.7835 32.0648C93.8979 32.1478 94.0117 32.2318 94.1234 32.3184C94.0012 32.6523 93.8521 32.93 93.651 33.2229C93.6013 33.2958 93.5516 33.3686 93.5005 33.4437C93.4627 33.4982 93.4249 33.5528 93.3859 33.609C93.0836 33.5585 92.8502 33.4906 92.5851 33.3382C92.0544 33.0649 91.4758 32.8773 90.8854 33.0443C90.7542 33.0957 90.7542 33.0957 90.6203 33.148C90.5899 33.361 90.5595 33.5739 90.5281 33.7934C90.803 34.0218 91.0467 34.1354 91.3877 34.2388C91.4826 34.2687 91.5775 34.2986 91.6752 34.3294C91.8727 34.3901 92.0703 34.4504 92.268 34.5101C92.98 34.7357 93.7455 35.01 94.1695 35.6659C94.4539 36.3649 94.465 37.0415 94.2156 37.7574C93.9039 38.3598 93.45 38.6944 92.8328 38.9559C91.6555 39.2955 90.2803 39.0777 89.2155 38.5241C88.7085 38.2245 88.7085 38.2245 88.5 38.034C88.5 37.574 88.6211 37.4778 88.9148 37.1352C88.9918 37.0444 89.0689 36.9536 89.1482 36.86C89.2081 36.7911 89.268 36.7222 89.3297 36.6512C89.6278 36.7624 89.8806 36.8855 90.1421 37.066C90.6956 37.4187 91.2517 37.5306 91.9109 37.4809C92.1998 37.391 92.342 37.3263 92.5563 37.1121C92.6178 36.8896 92.6178 36.8896 92.5563 36.6512C92.051 36.2374 91.4817 36.1134 90.8607 35.9484C90.0582 35.7241 89.3394 35.4284 88.8688 34.7152C88.5974 34.0175 88.6137 33.3871 88.8724 32.6965C89.1807 32.022 89.6786 31.7601 90.3438 31.4887C91.4666 31.1191 92.8272 31.4353 93.7835 32.0648Z" fill="#004875"/>
<path d="M55.3418 31.368C55.4582 31.3688 55.4582 31.3688 55.5769 31.3695C56.592 31.3894 57.4035 31.6656 58.1482 32.382C58.1861 32.422 58.224 32.4619 58.263 32.503C58.1176 32.8451 57.9029 33.0837 57.6523 33.3558C57.5769 33.438 57.5016 33.5202 57.424 33.605C57.3662 33.6672 57.3085 33.7295 57.249 33.7937C57.0201 33.6836 56.8252 33.571 56.6152 33.4249C56.0511 33.0639 55.5119 32.9659 54.8521 33.0562C54.1664 33.2548 53.8154 33.5907 53.4747 34.2085C53.2041 34.8476 53.2026 35.4735 53.4462 36.1156C53.695 36.6796 53.963 37.0611 54.532 37.3216C55.1296 37.4982 55.8058 37.4984 56.3732 37.2276C56.6545 37.0608 56.9105 36.8669 57.1568 36.6515C57.4961 36.7931 57.7088 37.0001 57.9634 37.2622C58.0371 37.3376 58.1108 37.4129 58.1867 37.4905C58.2423 37.5483 58.2979 37.606 58.3552 37.6655C58.1708 38.2189 57.5151 38.5288 57.0253 38.8064C56.0939 39.2322 54.9017 39.2737 53.9302 38.9562C52.8267 38.4644 52.134 37.806 51.6154 36.7123C51.2646 35.7441 51.3169 34.5295 51.6875 33.5769C52.2056 32.5437 53.05 31.8523 54.1301 31.4807C54.5426 31.3827 54.9196 31.365 55.3418 31.368Z" fill="#004875"/>
<path d="M109.887 31.4887C111.588 31.2566 111.588 31.2566 112.089 31.6127C112.386 31.9506 112.567 32.3483 112.744 32.7578C112.892 33.0867 113.079 33.3914 113.263 33.7012C113.368 33.8851 113.471 34.0697 113.574 34.2543C113.943 33.8283 114.217 33.3545 114.502 32.8715C114.551 32.7895 114.599 32.7075 114.65 32.623C114.697 32.5434 114.744 32.4638 114.793 32.3818C114.839 32.3063 114.885 32.2308 114.933 32.153C115.061 31.9419 115.061 31.9419 115.157 31.6633C115.377 31.4356 115.485 31.4564 115.796 31.4437C115.983 31.4467 116.17 31.4522 116.357 31.4599C116.5 31.463 116.5 31.463 116.646 31.4662C116.882 31.4716 117.118 31.4792 117.354 31.4887C117.024 32.126 116.66 32.7263 116.258 33.3196C115.782 34.0244 115.332 34.7458 114.881 35.4669C114.785 35.6172 114.687 35.7656 114.588 35.9137C114.566 36.1475 114.554 36.3721 114.55 36.6062C114.548 36.6733 114.547 36.7404 114.545 36.8096C114.539 37.0238 114.535 37.2379 114.531 37.4521C114.527 37.5974 114.524 37.7427 114.52 37.888C114.511 38.2439 114.504 38.5999 114.496 38.9559C113.918 38.9559 113.34 38.9559 112.745 38.9559C112.75 38.7622 112.755 38.5685 112.76 38.3689C112.781 36.8956 112.739 35.7518 111.795 34.5542C111.489 34.1486 111.228 33.7113 110.958 33.2806C110.852 33.1153 110.746 32.95 110.639 32.7847C110.371 32.362 110.124 31.9298 109.887 31.4887Z" fill="#004875"/>
<path d="M32.6348 20.8872C37.2046 20.8872 37.2046 20.8872 37.9593 21.5916C38.5022 22.1948 38.577 22.7159 38.5636 23.5189C38.5126 24.0817 38.3202 24.4588 37.901 24.834C37.4863 25.1242 37.204 25.3122 36.691 25.3122C37.1582 26.0397 37.6804 26.718 38.2137 27.3978C38.2775 27.4802 38.3412 27.5626 38.4069 27.6475C38.4647 27.7214 38.5225 27.7953 38.5821 27.8714C38.7137 28.0696 38.7721 28.2141 38.8113 28.4466C38.4288 28.5035 38.0863 28.5197 37.7051 28.4466C37.3742 28.195 37.1662 27.881 36.9388 27.5362C36.8788 27.4516 36.8189 27.367 36.7571 27.2798C36.5183 26.9411 36.2837 26.6054 36.0794 26.2445C35.8047 25.7699 35.8047 25.7699 35.3441 25.5081C35.0669 25.4773 34.8094 25.4751 34.5304 25.4851C34.209 25.4889 33.8877 25.4927 33.5566 25.4966C33.5566 26.4701 33.5566 27.4436 33.5566 28.4466C33.2524 28.4466 32.9482 28.4466 32.6348 28.4466C32.6348 25.952 32.6348 23.4574 32.6348 20.8872ZM33.5566 21.8091C33.5566 22.7522 33.5566 23.6952 33.5566 24.6669C34.2411 24.6783 34.2411 24.6783 34.9395 24.6899C35.0819 24.6933 35.2244 24.6967 35.3712 24.7001C36.0534 24.7056 36.5712 24.6939 37.152 24.2981C37.5471 23.8726 37.642 23.6035 37.632 23.0367C37.6036 22.7196 37.5225 22.5282 37.3363 22.27C36.8298 21.8964 36.3812 21.7976 35.7623 21.8001C35.5893 21.8004 35.5893 21.8004 35.4127 21.8008C35.2661 21.8016 35.1194 21.8025 34.9683 21.8033C34.2695 21.8062 34.2695 21.8062 33.5566 21.8091Z" fill="#004975"/>
<path d="M95.3223 31.4888C97.3605 31.4888 99.3988 31.4888 101.499 31.4888C101.499 32.0059 101.499 32.5231 101.499 33.056C100.769 33.056 100.039 33.056 99.2863 33.056C99.2863 35.003 99.2863 36.95 99.2863 38.956C98.7083 38.956 98.1303 38.956 97.5348 38.956C97.5348 37.009 97.5348 35.062 97.5348 33.056C96.8046 33.056 96.0745 33.056 95.3223 33.056C95.3223 32.5388 95.3223 32.0216 95.3223 31.4888Z" fill="#004976"/>
<path d="M84.1556 21.4922C84.9391 22.1055 85.3891 22.9658 85.6133 23.9236C85.7331 25.0979 85.5356 26.1983 84.8124 27.1559C84.2024 27.9011 83.383 28.4178 82.4155 28.5388C81.2437 28.6242 80.2295 28.4274 79.2812 27.7091C78.4919 27.0112 78.0493 26.0758 77.9686 25.027C77.9411 23.7663 78.2296 22.7484 79.0968 21.8091C80.5083 20.5134 82.5853 20.4475 84.1556 21.4922ZM79.4439 22.8833C78.9499 23.5402 78.8616 24.3635 78.9322 25.1696C79.1057 26.1147 79.6252 26.7779 80.3874 27.3403C81.0714 27.733 81.9138 27.8073 82.6745 27.6032C83.4099 27.3174 84.0101 26.8029 84.3749 26.1051C84.7211 25.2823 84.7875 24.372 84.4782 23.5261C84.0619 22.6444 83.5103 22.0759 82.5805 21.7342C81.3055 21.3824 80.2652 21.9194 79.4439 22.8833Z" fill="#004875"/>
<path d="M45.5699 21.2823C46.4904 21.9278 47.0793 22.7684 47.3214 23.8603C47.4919 24.9598 47.318 26.0753 46.6704 26.9947C46.0184 27.7941 45.2024 28.4006 44.1582 28.5388C42.9614 28.6204 41.994 28.4383 41.0239 27.7091C40.1763 26.92 39.7475 26.0403 39.7022 24.8827C39.6802 23.6741 40.0147 22.7154 40.8395 21.8091C42.1259 20.6261 44.048 20.4365 45.5699 21.2823ZM41.1931 22.8513C40.7628 23.4831 40.5683 24.2788 40.6551 25.0357C40.8628 26.0276 41.3083 26.7434 42.1301 27.3404C42.8565 27.7516 43.604 27.7868 44.4002 27.5766C45.1906 27.3016 45.7086 26.8616 46.0942 26.1189C46.4347 25.3764 46.4987 24.5569 46.3077 23.758C45.9594 22.8273 45.4279 22.2331 44.527 21.8091C43.227 21.3314 42.0601 21.8448 41.1931 22.8513Z" fill="#004875"/>
<path d="M38.3739 32.019C39.1726 32.6704 39.7814 33.4875 39.9181 34.5311C40.0011 35.6209 39.9162 36.6589 39.2497 37.5618C39.1375 37.6912 39.0223 37.8181 38.904 37.942C38.8215 38.0301 38.8215 38.0301 38.7373 38.1199C37.993 38.841 37.0951 39.1104 36.075 39.1462C35.0798 39.1275 34.1107 38.7874 33.3785 38.0918C32.5718 37.1968 32.2462 36.1936 32.2665 34.992C32.3614 34.1444 32.5975 33.47 33.0962 32.7795C33.1647 32.6807 33.2331 32.5818 33.3036 32.4799C33.6553 32.1282 34.0383 31.8997 34.479 31.6733C34.5403 31.6416 34.6017 31.6098 34.6648 31.5771C35.835 31.0865 37.3565 31.311 38.3739 32.019ZM33.7981 33.3957C33.2692 34.155 33.1664 35.0094 33.2806 35.9139C33.4997 36.7611 33.9285 37.4205 34.6807 37.8812C35.419 38.2626 36.2101 38.3595 37.0271 38.1588C37.9096 37.7978 38.3966 37.2088 38.7999 36.3626C39.1624 35.4419 38.9979 34.5941 38.6275 33.7014C38.2173 32.9942 37.6869 32.5828 36.9335 32.2898C35.6751 32.0511 34.6246 32.4005 33.7981 33.3957Z" fill="#004875"/>
<path d="M97.5352 20.8872C99.33 20.8872 101.125 20.8872 102.974 20.8872C102.974 21.1914 102.974 21.4956 102.974 21.8091C101.484 21.8091 99.9929 21.8091 98.457 21.8091C98.457 22.6001 98.457 23.391 98.457 24.206C99.7652 24.206 101.073 24.206 102.421 24.206C102.421 24.4798 102.421 24.7536 102.421 25.0356C101.113 25.0356 99.8048 25.0356 98.457 25.0356C98.457 25.857 98.457 26.6784 98.457 27.5247C99.9477 27.5247 101.438 27.5247 102.974 27.5247C102.974 27.8289 102.974 28.1331 102.974 28.4466C101.179 28.4466 99.3844 28.4466 97.5352 28.4466C97.5352 25.952 97.5352 23.4574 97.5352 20.8872Z" fill="#004975"/>
<path d="M57.0648 20.8872C57.3691 20.8872 57.6733 20.8872 57.9867 20.8872C58.9559 22.9584 59.9144 25.0349 60.8503 27.1214C60.897 27.2245 60.9436 27.3276 60.9917 27.4339C61.0336 27.5278 61.0754 27.6217 61.1186 27.7184C61.1549 27.7996 61.1913 27.8807 61.2288 27.9643C61.3055 28.17 61.3055 28.17 61.3055 28.4466C61.0012 28.4466 60.697 28.4466 60.3836 28.4466C60.2816 28.245 60.1798 28.0434 60.0782 27.8416C60.0498 27.7855 60.0213 27.7293 59.992 27.6715C59.9638 27.6153 59.9355 27.5592 59.9065 27.5013C59.8809 27.4506 59.8553 27.3999 59.8289 27.3477C59.6987 27.0722 59.5817 26.7907 59.4617 26.5106C58.184 26.5106 56.9063 26.5106 55.5898 26.5106C55.3207 27.1132 55.3207 27.1132 55.052 27.7159C55.0186 27.7905 54.9851 27.8652 54.9507 27.9421C54.8992 28.0572 54.8992 28.0572 54.8468 28.1747C54.7602 28.3544 54.7602 28.3544 54.668 28.4466C54.5125 28.4532 54.3568 28.4543 54.2013 28.4523C54.0742 28.4511 54.0742 28.4511 53.9445 28.4498C53.879 28.4488 53.8136 28.4477 53.7461 28.4466C53.8059 28.0417 53.9556 27.6962 54.1278 27.3288C54.1572 27.2651 54.1866 27.2013 54.2168 27.1356C54.2801 26.9985 54.3435 26.8615 54.4072 26.7245C54.576 26.3615 54.7432 25.9978 54.9107 25.6341C54.9446 25.5606 54.9786 25.487 55.0135 25.4112C55.3861 24.603 55.7493 23.7908 56.1117 22.978C56.424 22.2785 56.7423 21.582 57.0648 20.8872ZM57.4336 22.0856C57.402 22.1567 57.3704 22.2278 57.3379 22.301C57.0937 22.8504 56.8495 23.3998 56.6053 23.9492C56.5341 24.1098 56.5341 24.1098 56.4615 24.2736C56.3781 24.4609 56.294 24.6478 56.209 24.8344C56.1585 24.9456 56.1585 24.9456 56.107 25.0591C56.0634 25.1538 56.0634 25.1538 56.019 25.2505C55.9474 25.4054 55.9474 25.4054 55.9586 25.5888C56.9929 25.5888 58.0273 25.5888 59.093 25.5888C58.782 24.7802 58.4679 23.999 58.1077 23.2149C58.0406 23.0659 58.0406 23.0659 57.9721 22.9139C57.9075 22.7727 57.9075 22.7727 57.8416 22.6287C57.803 22.5441 57.7644 22.4595 57.7247 22.3724C57.6345 22.1642 57.6345 22.1642 57.4336 22.0856Z" fill="#004875"/>
<path d="M76.4458 21.4777C76.5264 21.5506 76.5264 21.5506 76.6086 21.625C76.6086 22.0565 76.5167 22.1432 76.2398 22.4547C75.9276 22.3361 75.6435 22.1971 75.3525 22.0341C74.711 21.7128 74.0834 21.6225 73.3878 21.8209C73.0303 21.9644 72.8218 22.1003 72.6445 22.4547C72.5898 22.7442 72.5659 22.9991 72.6445 23.2844C72.9685 23.6953 73.3048 23.8485 73.7969 23.9816C73.8938 24.0101 73.8938 24.0101 73.9928 24.0392C74.3 24.1293 74.6085 24.2139 74.9175 24.2977C75.7086 24.5214 76.322 24.8 76.793 25.4969C76.9861 26.0762 76.9954 26.816 76.7469 27.381C76.4399 27.8978 75.8915 28.2808 75.318 28.4469C74.0549 28.7406 72.8589 28.44 71.7651 27.7846C71.546 27.6229 71.41 27.4749 71.2617 27.2484C71.4442 27.0355 71.6268 26.8225 71.8148 26.6031C71.8795 26.6465 71.9441 26.6899 72.0107 26.7346C72.879 27.3043 73.7405 27.7721 74.8167 27.5736C75.2219 27.4516 75.5134 27.3149 75.7789 26.9719C75.928 26.6737 75.9233 26.3724 75.8711 26.05C75.4135 25.3788 74.5399 25.2293 73.7969 25.0417C72.9649 24.8257 72.1968 24.5932 71.7227 23.8375C71.4614 23.2147 71.5129 22.6035 71.7342 21.9765C72.1515 21.3504 72.7002 21.0354 73.4108 20.8241C74.5239 20.6947 75.4802 20.9084 76.4458 21.4777Z" fill="#004975"/>
<path d="M92.9151 21.4809C93.1488 21.6543 93.3199 21.8416 93.478 22.0858C93.2954 22.2684 93.1129 22.4509 92.9248 22.639C92.6249 22.539 92.432 22.4292 92.1816 22.2299C91.5692 21.7812 90.7584 21.6373 90.0152 21.7517C89.1877 21.9638 88.6196 22.4047 88.1311 23.0999C87.7479 23.7599 87.6841 24.6356 87.82 25.3758C88.0413 26.181 88.4658 26.7667 89.1452 27.2483C89.8169 27.6286 90.5631 27.6964 91.3116 27.5307C91.9021 27.35 92.359 26.9888 92.8327 26.603C93.3102 26.8344 93.3102 26.8344 93.478 27.064C93.4529 27.3003 93.4108 27.4078 93.2414 27.5767C92.1656 28.3515 91.219 28.634 89.8827 28.539C88.9161 28.377 88.0888 27.8634 87.4635 27.1165C86.7677 26.0991 86.5893 24.9079 86.8048 23.7067C87.0623 22.7574 87.5727 21.9285 88.3943 21.3678C89.8528 20.5443 91.5024 20.5824 92.9151 21.4809Z" fill="#004875"/>
<path d="M17.8848 14.7109C18.5847 14.7109 19.204 14.7363 19.8841 14.8492C19.9674 14.8624 20.0508 14.8756 20.1367 14.8892C20.3388 14.9213 20.5407 14.9542 20.7426 14.9875C20.6915 15.7113 20.5852 16.4114 20.443 17.1226C20.4229 17.2251 20.4027 17.3275 20.382 17.4331C20.3398 17.6477 20.2973 17.8622 20.2546 18.0767C20.1891 18.406 20.1244 18.7356 20.0598 19.0652C20.0186 19.2742 19.9773 19.4833 19.9359 19.6923C19.9165 19.791 19.8971 19.8897 19.8771 19.9914C19.859 20.0823 19.8408 20.1731 19.8221 20.2667C19.8062 20.3468 19.7904 20.4268 19.774 20.5093C19.7285 20.7031 19.7285 20.7031 19.6363 20.8875C19.0583 20.8267 18.4803 20.7658 17.8848 20.7031C17.8848 18.7257 17.8848 16.7483 17.8848 14.7109Z" fill="#23789D"/>
<path d="M11.3398 36.4668C11.3838 36.5047 11.4278 36.5426 11.4731 36.5816C11.531 36.6314 11.5889 36.6812 11.6485 36.7324C11.7058 36.7817 11.7631 36.831 11.8221 36.8818C12.0077 37.039 12.1985 37.1868 12.3942 37.3311C12.4569 37.3774 12.5195 37.4237 12.584 37.4715C12.6298 37.505 12.6755 37.5385 12.7227 37.573C12.4248 38.1483 12.0798 38.6801 11.7099 39.2107C11.4021 39.6524 11.099 40.0971 10.7986 40.5439C10.719 40.6621 10.6395 40.7802 10.5599 40.8983C10.44 41.0764 10.3202 41.2546 10.2008 41.433C10.0881 41.6013 9.9749 41.7693 9.8616 41.9372C9.79564 42.0355 9.72968 42.1337 9.66172 42.235C9.49609 42.459 9.49609 42.459 9.31172 42.5512C8.54391 42.0237 7.86563 41.4397 7.19141 40.7996C7.32925 40.4779 7.51332 40.2709 7.7606 40.0251C7.83995 39.9458 7.9193 39.8664 8.00105 39.7847C8.08681 39.6999 8.17257 39.6151 8.26093 39.5277C8.34958 39.4394 8.43819 39.3511 8.52676 39.2627C8.75944 39.0307 8.99268 38.7993 9.22603 38.568C9.46427 38.3316 9.70199 38.0947 9.93975 37.8579C10.4059 37.3937 10.8727 36.9301 11.3398 36.4668Z" fill="#77923A"/>
<path d="M7.00703 19.228C7.32874 19.3659 7.53569 19.5499 7.78153 19.7972C7.86087 19.8766 7.9402 19.9559 8.02194 20.0377C8.10675 20.1234 8.19156 20.2092 8.27893 20.2975C8.36724 20.3862 8.45559 20.4748 8.54398 20.5634C8.77596 20.7961 9.00738 21.0293 9.23869 21.2627C9.47504 21.5009 9.71192 21.7386 9.94875 21.9764C10.413 22.4426 10.8766 22.9093 11.3398 23.3765C11.2011 23.6664 11.0496 23.8813 10.8328 24.1197C10.6431 24.3292 10.4833 24.523 10.3258 24.7593C9.99171 24.6366 9.71189 24.4878 9.41687 24.2893C9.33024 24.2313 9.24361 24.1734 9.15435 24.1136C9.06178 24.051 8.96921 23.9884 8.87383 23.9238C8.77793 23.8594 8.68203 23.795 8.58322 23.7287C8.27252 23.5197 7.96233 23.3099 7.65234 23.0999C7.59828 23.0633 7.54422 23.0267 7.48852 22.9889C6.77402 22.5048 6.06047 22.0193 5.34766 21.5327C5.42707 21.1458 5.62452 20.8919 5.86621 20.5878C5.92804 20.5087 5.92804 20.5087 5.99112 20.428C6.31583 20.0157 6.65325 19.6158 7.00703 19.228Z" fill="#6EBF63"/>
<path d="M2.95039 27.064C3.44522 27.1215 3.9323 27.1965 4.42107 27.2934C4.4888 27.3066 4.55653 27.3198 4.62631 27.3334C4.84363 27.3759 5.06088 27.4187 5.27812 27.4615C5.42742 27.4908 5.57671 27.52 5.72601 27.5492C6.76803 27.7534 7.80949 27.9604 8.85039 28.1702C8.78955 28.7482 8.7287 29.3262 8.66602 29.9218C6.68859 29.9218 4.71117 29.9218 2.67383 29.9218C2.67383 28.3311 2.67383 28.3311 2.81211 27.715C2.8253 27.6509 2.83849 27.5868 2.85208 27.5208C2.88364 27.3682 2.91681 27.2161 2.95039 27.064Z" fill="#C2D900"/>
<path d="M41.8535 31.4888C43.618 31.4888 45.3825 31.4888 47.2004 31.4888C47.2004 31.7626 47.2004 32.0364 47.2004 32.3185C45.7401 32.3185 44.2799 32.3185 42.7754 32.3185C42.7754 33.1703 42.7754 34.0221 42.7754 34.8997C44.0835 34.8997 45.3917 34.8997 46.7395 34.8997C46.7395 35.1735 46.7395 35.4473 46.7395 35.7294C45.4313 35.7294 44.1232 35.7294 42.7754 35.7294C42.7754 36.7942 42.7754 37.8589 42.7754 38.956C42.4712 38.956 42.167 38.956 41.8535 38.956C41.8535 36.4918 41.8535 34.0276 41.8535 31.4888Z" fill="#004875"/>
<path d="M85.0898 31.4888C85.6679 31.4888 86.2459 31.4888 86.8414 31.4888C86.8414 33.9529 86.8414 36.4171 86.8414 38.956C86.2634 38.956 85.6854 38.956 85.0898 38.956C85.0898 36.4918 85.0898 34.0276 85.0898 31.4888Z" fill="#004876"/>
<path d="M47.3848 20.8875C47.7711 20.8237 48.1058 20.8103 48.491 20.8875C48.6841 21.0752 48.6841 21.0752 48.8497 21.3268C48.9117 21.4189 48.9737 21.5111 49.0377 21.606C49.1006 21.7035 49.1636 21.801 49.2285 21.9015C49.2915 21.9955 49.3545 22.0896 49.4194 22.1864C49.6766 22.5707 49.9299 22.9575 50.1828 23.3446C50.2448 23.4387 50.3069 23.5328 50.3708 23.6297C50.4259 23.714 50.4811 23.7983 50.538 23.8851C50.6996 24.1085 50.8719 24.294 51.0723 24.4828C51.0952 24.4334 51.1182 24.384 51.1419 24.333C51.2837 24.0624 51.4488 23.8138 51.6182 23.5594C51.6534 23.5065 51.6887 23.4535 51.725 23.3989C51.7996 23.287 51.8743 23.1751 51.9491 23.0633C52.0619 22.8946 52.1743 22.7256 52.2865 22.5565C52.4298 22.3412 52.5743 22.1268 52.7199 21.913C52.8394 21.7374 52.9577 21.561 53.0736 21.383C53.3988 20.9058 53.3988 20.9058 53.745 20.8154C53.8327 20.824 53.9204 20.8325 54.0107 20.8414C54.0999 20.848 54.189 20.8547 54.2808 20.8615C54.381 20.8744 54.381 20.8744 54.4832 20.8875C54.3282 21.3678 54.0376 21.7513 53.7515 22.1608C53.6982 22.2378 53.645 22.3148 53.5901 22.3941C53.4805 22.5526 53.3706 22.711 53.2606 22.8693C53.0666 23.1487 52.8736 23.4288 52.6808 23.7091C52.5989 23.8283 52.5169 23.9474 52.4348 24.0664C52.358 24.1778 52.2822 24.2899 52.2074 24.4026C52.0863 24.575 52.0863 24.575 51.9372 24.7464C51.3965 25.4157 51.4508 26.1601 51.4525 26.9776C51.4509 27.1204 51.4489 27.2632 51.4468 27.4059C51.442 27.7529 51.4406 28.0998 51.441 28.4468C51.1368 28.4468 50.8326 28.4468 50.5191 28.4468C50.5212 28.3647 50.5232 28.2826 50.5253 28.198C50.6121 26.0718 50.6121 26.0718 49.6376 24.2656C49.398 23.9916 49.2052 23.6848 49.0038 23.3823C48.9199 23.2599 48.8358 23.1377 48.7514 23.0157C48.7091 22.9545 48.6669 22.8932 48.6233 22.8301C48.4841 22.6291 48.3445 22.4284 48.2047 22.2278C48.1348 22.127 48.1348 22.127 48.0635 22.0243C47.974 21.8952 47.8842 21.7664 47.7941 21.6378C47.6219 21.3893 47.4809 21.1758 47.3848 20.8875Z" fill="#004875"/>
<path d="M110.256 20.8871C110.655 20.7852 110.965 20.7694 111.362 20.8871C111.822 21.2817 112.114 21.8605 112.422 22.3736C112.511 22.5157 112.601 22.6576 112.691 22.7993C112.856 23.0606 113.019 23.323 113.18 23.5872C113.365 23.8912 113.559 24.1876 113.759 24.4824C114.133 23.9769 114.501 23.4684 114.848 22.944C114.909 22.8538 114.97 22.7636 115.033 22.6707C115.185 22.4376 115.327 22.2043 115.467 21.9642C116.088 20.9354 116.088 20.9354 116.559 20.7935C116.839 20.7948 117.083 20.8189 117.354 20.8871C117.075 21.4418 116.739 21.9449 116.375 22.4458C115.922 23.0702 115.491 23.7089 115.058 24.3474C115.001 24.4312 114.944 24.5149 114.886 24.6012C114.835 24.6761 114.785 24.7509 114.732 24.828C114.589 25.0355 114.589 25.0355 114.435 25.2032C114.258 25.4931 114.268 25.7757 114.265 26.1058C114.263 26.1728 114.262 26.2398 114.26 26.3088C114.255 26.522 114.252 26.7352 114.249 26.9484C114.246 27.0933 114.242 27.2382 114.239 27.3831C114.231 27.7375 114.225 28.092 114.22 28.4465C113.916 28.4465 113.611 28.4465 113.298 28.4465C113.302 28.3635 113.305 28.2805 113.309 28.195C113.365 26.4664 113.367 25.1942 112.168 23.8406C111.909 23.5374 111.693 23.2068 111.472 22.8749C111.39 22.7556 111.308 22.6364 111.226 22.5173C111.148 22.4041 111.071 22.2909 110.993 22.1777C110.955 22.1223 110.917 22.067 110.878 22.0099C110.772 21.8549 110.667 21.6994 110.561 21.5439C110.502 21.4567 110.443 21.3695 110.382 21.2796C110.256 21.0715 110.256 21.0715 110.256 20.8871Z" fill="#004875"/>
<path d="M103.803 20.8872C105.75 20.8872 107.697 20.8872 109.703 20.8872C109.703 21.1914 109.703 21.4956 109.703 21.8091C108.881 21.8091 108.06 21.8091 107.214 21.8091C107.214 23.9995 107.214 26.1898 107.214 28.4466C106.909 28.4466 106.605 28.4466 106.292 28.4466C106.292 26.2562 106.292 24.0658 106.292 21.8091C105.47 21.8091 104.649 21.8091 103.803 21.8091C103.803 21.5049 103.803 21.2006 103.803 20.8872Z" fill="#004975"/>
<path d="M62.5039 20.8872C62.8081 20.8872 63.1123 20.8872 63.4258 20.8872C63.4258 23.0776 63.4258 25.268 63.4258 27.5247C64.7948 27.5247 66.1637 27.5247 67.5742 27.5247C67.5742 27.8289 67.5742 28.1331 67.5742 28.4466C65.901 28.4466 64.2278 28.4466 62.5039 28.4466C62.5039 25.952 62.5039 23.4574 62.5039 20.8872Z" fill="#004875"/>
<path d="M94.7695 20.8872C95.0737 20.8872 95.378 20.8872 95.6914 20.8872C95.6914 23.3818 95.6914 25.8764 95.6914 28.4466C95.3872 28.4466 95.083 28.4466 94.7695 28.4466C94.7695 25.952 94.7695 23.4574 94.7695 20.8872Z" fill="#004875"/>
</svg>
