<svg width="23" height="22" viewBox="0 0 23 22" fill="none" xmlns="http://www.w3.org/2000/svg">
<g clip-path="url(#clip0_1_71)">
<path d="M12.1645 21.4418H1.85958C0.922185 21.4418 0.160156 20.6829 0.160156 19.7424V1.8586C0.160156 0.91802 0.918997 0.15918 1.85958 0.15918H15.0787C16.0161 0.15918 16.7781 0.91802 16.7781 1.8586V8.9528" stroke="white" stroke-width="1.4" stroke-linecap="round" stroke-linejoin="round"/>
<path d="M4.13867 4.0625H12.7984" stroke="white" stroke-width="1.4" stroke-linecap="round" stroke-linejoin="round"/>
<path d="M4.13867 6.86511H12.7984" stroke="white" stroke-width="1.4" stroke-linecap="round" stroke-linejoin="round"/>
<path d="M4.13867 9.66797H8.59606" stroke="white" stroke-width="1.4" stroke-linecap="round" stroke-linejoin="round"/>
<path d="M19.4336 21.183C19.1849 21.1416 18.9234 21.1001 18.6651 21.0491C18.5472 21.0268 18.4643 21.0427 18.3878 21.1447C18.2379 21.3424 18.0753 21.5274 17.9159 21.7155C17.7947 21.8589 17.7086 21.8749 17.546 21.7792C17.3324 21.6549 17.1188 21.5305 16.9083 21.4062C16.8159 21.3488 16.7362 21.3488 16.6405 21.4094C16.4301 21.5433 16.2101 21.6645 15.9933 21.7888C15.8466 21.8717 15.7541 21.8558 15.6457 21.7282C15.4767 21.5274 15.3046 21.3233 15.1388 21.1192C15.0909 21.0587 15.0399 21.03 14.9602 21.0427C14.6892 21.0905 14.4182 21.132 14.1472 21.1766C14.0069 21.1989 13.9208 21.1511 13.8698 21.0172C13.7709 20.7558 13.6753 20.4975 13.5828 20.2329C13.5573 20.1563 13.5127 20.1181 13.4393 20.1053C13.1843 20.0575 12.9292 20.0065 12.6709 19.9587C12.4924 19.9268 12.4318 19.8566 12.4286 19.6781C12.4286 19.4103 12.4222 19.1424 12.4222 18.8746C12.4222 18.7917 12.3936 18.7375 12.3234 18.696C12.1002 18.5621 11.877 18.4282 11.6538 18.2911C11.4912 18.1923 11.4625 18.1158 11.5231 17.934C11.6092 17.6789 11.6953 17.4207 11.7878 17.1656C11.8133 17.0955 11.8005 17.0413 11.7527 16.9839C11.5869 16.783 11.4243 16.5789 11.2617 16.3749C11.1341 16.2155 11.1341 16.1326 11.2617 15.9763C11.4243 15.7723 11.5869 15.5682 11.7527 15.3674C11.8037 15.3036 11.8133 15.243 11.7846 15.1665C11.6953 14.9178 11.6124 14.6691 11.5263 14.4172C11.4625 14.2323 11.4912 14.1558 11.6602 14.0537C11.8738 13.9262 12.0875 13.7923 12.3043 13.6679C12.3872 13.6201 12.4254 13.5563 12.4222 13.4575C12.4191 13.1897 12.4222 12.9218 12.4286 12.654C12.4286 12.5042 12.4988 12.4245 12.6486 12.3958C12.9133 12.3447 13.1811 12.2937 13.4489 12.2459C13.5222 12.2332 13.5573 12.1917 13.5796 12.1279C13.6721 11.876 13.7614 11.6242 13.8538 11.3755C13.9208 11.1937 13.9878 11.1523 14.1759 11.181C14.4309 11.2192 14.6828 11.2607 14.9347 11.3117C15.0304 11.3308 15.0846 11.2958 15.1388 11.232C15.3014 11.0343 15.4672 10.8366 15.633 10.6389C15.7478 10.4987 15.8402 10.4827 15.9964 10.572C16.2101 10.6932 16.4269 10.8143 16.6373 10.945C16.7362 11.0088 16.8191 11.0056 16.9147 10.945C17.1188 10.8207 17.3292 10.7027 17.5364 10.5816C17.7118 10.4795 17.7947 10.4923 17.9254 10.6453C18.0912 10.843 18.257 11.0375 18.4196 11.2384C18.4675 11.2989 18.5185 11.3276 18.5982 11.3149C18.8692 11.2671 19.1402 11.2224 19.4112 11.181C19.5547 11.1587 19.6376 11.2065 19.6886 11.3404C19.7875 11.6018 19.8831 11.8601 19.9756 12.1247C20.0011 12.2013 20.0489 12.2363 20.1222 12.2523C20.3773 12.3001 20.6356 12.3511 20.8907 12.3989C21.066 12.4308 21.1298 12.5042 21.1298 12.6795C21.1298 12.9442 21.1362 13.2088 21.1298 13.4734C21.1298 13.5659 21.1649 13.6233 21.2414 13.6679C21.4646 13.7987 21.6814 13.9326 21.9046 14.0665C22.0672 14.1653 22.0959 14.2387 22.0321 14.4236C21.946 14.6755 21.8631 14.9305 21.7707 15.1824C21.7451 15.2526 21.7515 15.31 21.7993 15.3642C21.962 15.565 22.1214 15.7659 22.284 15.9668C22.4243 16.1389 22.4275 16.2155 22.2904 16.3876C22.1309 16.5885 21.9683 16.7894 21.8057 16.9903C21.7579 17.0476 21.7451 17.1018 21.7707 17.172C21.8599 17.4303 21.9492 17.6917 22.0385 17.95C22.0959 18.1189 22.0672 18.1987 21.9173 18.2911C21.7005 18.4218 21.4837 18.5558 21.2637 18.6833C21.1712 18.7375 21.133 18.8013 21.133 18.9097C21.1393 19.1711 21.133 19.4326 21.133 19.694C21.133 19.8566 21.0628 19.9363 20.9034 19.965C20.6451 20.0129 20.3837 20.0639 20.1254 20.1117C20.0521 20.1245 20.0043 20.1595 19.9788 20.2392C19.8895 20.5007 19.7907 20.7621 19.6918 21.0236C19.6472 21.1416 19.5611 21.2021 19.4463 21.1926L19.4336 21.183Z" stroke="#FFD900" stroke-width="1.4" stroke-linecap="round" stroke-linejoin="round"/>
<path d="M14.8749 15.154C15.3563 15.154 15.7517 14.7618 15.7517 14.2772C15.7517 13.7926 15.3595 13.4004 14.8749 13.4004C14.3902 13.4004 13.998 13.7926 13.998 14.2772C13.998 14.7618 14.3902 15.154 14.8749 15.154Z" stroke="#FFD900" stroke-width="1.4" stroke-linecap="round" stroke-linejoin="round"/>
<path d="M18.6717 17.1953C18.1871 17.1953 17.7949 17.5875 17.7949 18.0721C17.7949 18.5568 18.1871 18.9457 18.6717 18.9457C19.1564 18.9457 19.5454 18.5536 19.5454 18.0721C19.5454 17.5907 19.1532 17.1953 18.6717 17.1953Z" stroke="#FFD900" stroke-width="1.4" stroke-linecap="round" stroke-linejoin="round"/>
<path d="M14.1465 18.7989L19.3946 13.5508" stroke="#FFD900" stroke-width="1.4" stroke-linecap="round" stroke-linejoin="round"/>
</g>
<defs>
<clipPath id="clip0_1_71">
<rect width="22.542" height="22" fill="white"/>
</clipPath>
</defs>
</svg>
