<svg width="24" height="24" viewBox="0 0 24 24" fill="none" xmlns="http://www.w3.org/2000/svg">
<g clip-path="url(#clip0_1_103)">
<path d="M4 9.6C3.19226 9.59885 2.40325 9.84326 1.7376 10.3008C2.14152 7.87076 3.39464 5.66289 5.2739 4.07021C7.15316 2.47753 9.53662 1.60339 12 1.60339C14.4634 1.60339 16.8468 2.47753 18.7261 4.07021C20.6054 5.66289 21.8585 7.87076 22.2624 10.3008C21.5968 9.84307 20.8078 9.59865 20 9.6C19.3635 9.6 18.753 9.85286 18.3029 10.3029C17.8529 10.753 17.6 11.3635 17.6 12V18.4C17.5998 18.881 17.7441 19.351 18.0143 19.749C18.2845 20.147 18.668 20.4547 19.1152 20.632C18.9766 21.1398 18.6749 21.588 18.2565 21.9074C17.8382 22.2269 17.3264 22.4 16.8 22.4H12.8V24H16.8C17.7338 24.0001 18.6383 23.6735 19.3566 23.0768C20.0748 22.4801 20.5617 21.6508 20.7328 20.7328C21.6508 20.5617 22.4801 20.0748 23.0768 19.3566C23.6735 18.6383 24.0001 17.7338 24 16.8V12C24 8.8174 22.7357 5.76516 20.4853 3.51472C18.2348 1.26428 15.1826 0 12 0C8.8174 0 5.76516 1.26428 3.51472 3.51472C1.26428 5.76516 0 8.8174 0 12L0 16.8C0 17.8609 0.421427 18.8783 1.17157 19.6284C1.92172 20.3786 2.93913 20.8 4 20.8C4.63652 20.8 5.24697 20.5471 5.69706 20.0971C6.14714 19.647 6.4 19.0365 6.4 18.4V12C6.4 11.3635 6.14714 10.753 5.69706 10.3029C5.24697 9.85286 4.63652 9.6 4 9.6Z" fill="#4D4D4D"/>
</g>
<defs>
<clipPath id="clip0_1_103">
<rect width="24" height="24" fill="white"/>
</clipPath>
</defs>
</svg>
