<svg width="118" height="59" viewBox="0 0 118 59" fill="none" xmlns="http://www.w3.org/2000/svg">
<path d="M21.8377 30.5562C21.8647 30.5196 21.868 30.4861 21.8154 30.4479C21.3885 30.1277 20.8518 29.8649 20.3165 29.841C18.9802 29.7789 18.6999 31.0515 17.6486 30.6693C17.072 30.459 16.1625 29.9334 16.2565 29.2119C16.9127 28.3088 18.1933 28.2753 19.1602 28.1176C20.0665 27.9074 20.3006 26.9055 20.8215 26.3846C20.8453 26.3544 20.8549 26.3241 20.7992 26.3146C20.5093 26.2492 19.4676 26.0501 18.7732 26.4006C18.3144 26.6299 17.7777 27.2066 17.518 27.6302C17.3986 27.823 17.1883 27.9058 16.9127 27.8373C17.4575 27.0058 17.5356 25.8686 18.2523 25.0706C18.5661 24.7218 19.0343 24.4637 19.6842 24.3077C20.702 24.0687 20.5125 22.8423 21.1177 22.2004C21.1464 22.1765 21.1433 22.1382 21.1018 22.1255C20.7753 21.9598 19.6221 21.912 18.9499 22.933C18.5342 23.5606 18.4418 24.2327 17.7569 24.5147C17.7569 24.5147 17.5117 23.739 17.5356 23.2596C17.5721 22.6081 18.5948 22.1223 19.0662 21.5329C19.6173 20.8513 19.2733 19.894 19.3115 19.1246C19.3147 19.08 19.302 19.0641 19.2478 19.0785C18.6457 19.2298 18.0484 19.7649 17.663 20.3113C17.1819 20.9993 17.9114 21.8149 17.2887 22.288C17.037 21.8149 16.8315 21.216 16.6005 20.7191C16.4062 20.3001 16.6292 19.628 16.4158 19.0577C16.1195 18.2677 15.2642 17.9491 14.7369 17.637C14.6988 17.6131 14.6732 17.6115 14.6589 17.6577C14.4407 18.3442 14.3515 19.3094 14.7147 19.8446C15.0492 20.3383 15.8647 20.8082 15.9762 21.0631C16.153 21.4756 16.4222 22.1159 16.3505 22.7897C16.1625 22.7897 16.0017 22.7244 16.0049 22.5682C16.0558 21.0965 14.514 21.1539 13.571 20.7174C13.5264 20.7015 13.5058 20.7063 13.5025 20.7541C13.4627 21.4199 13.6953 22.1063 14.1572 22.6702C14.8995 23.5765 16.2693 22.9458 16.4429 23.731C16.7614 25.155 15.8519 26.8641 15.0699 28.0873C14.6319 27.3355 15.2897 26.6904 15.3199 25.8001C15.3343 25.3509 14.9823 24.5545 14.5873 24.126C14.5586 24.0942 14.5315 24.0894 14.5044 24.1356C14.127 24.7918 13.622 25.276 13.4786 25.8925C13.3512 26.4228 13.6252 26.8418 13.947 27.1779C14.4694 27.7242 14.565 28.3979 14.4567 29.051C14.2624 30.2376 13.4054 31.3605 13.2907 31.5294C13.1952 31.6695 12.9769 31.7954 12.824 31.5278C12.4147 30.811 11.9432 29.8856 11.6215 29.3122C10.7151 27.6924 12.9307 26.7924 12.3525 25.2362C12.2012 24.8269 11.9304 24.502 11.5769 24.2184C11.537 24.1866 11.5036 24.1818 11.4781 24.2407C11.287 24.6373 10.9079 25.1215 10.7582 25.5994C10.5304 26.3146 11.0863 26.6984 11.0416 27.1157C11.0114 27.3913 10.9493 27.6143 10.7916 27.7752C10.1672 26.708 9.2673 25.5851 9.1558 24.5784C8.99336 23.0573 11.0703 23.1321 11.7584 22.1589C12.0945 21.689 12.1885 21.0089 12.0897 20.4849C12.0786 20.4323 12.0738 20.4085 11.9878 20.4259C11.8142 20.4674 11.4048 20.5677 11.0417 20.6887C9.76903 21.1156 10.0733 22.4743 9.13671 23.1003C9.073 22.288 9.51256 20.8704 9.72288 20.5948C10.0478 20.1727 10.4205 20.2094 10.8123 19.6471C11.1659 19.1278 11.3396 18.3123 11.2965 17.6736C11.2965 17.6226 11.279 17.5987 11.2201 17.6226C10.3823 17.9205 9.73239 18.0272 9.23228 18.7105C8.91372 19.1517 8.9073 19.8032 8.97263 20.0899C9.05707 20.4578 8.37533 22.178 8.25425 22.7769C7.78599 22.3485 8.20492 21.8722 8.13804 21.4055C8.04084 20.7461 7.37983 20.031 7.01186 19.3428C6.99439 19.3094 6.9705 19.2919 6.93385 19.3381C6.43691 19.9417 6.40985 20.9611 6.45121 21.3769C6.51175 21.9726 6.86851 22.4632 7.35594 22.7897C8.05043 23.2532 8.13804 24.0751 8.01216 24.9209C8.01216 24.9209 7.54074 24.7855 7.51359 24.3873C7.41331 23.0016 5.91128 23.1688 5.08303 22.5603C5.04638 22.5332 5.01135 22.5237 5.00493 22.5858C4.82655 24.099 6.01798 25.1439 6.9514 25.3923C8.05043 25.6838 8.66838 26.8641 9.13671 27.8994C7.99306 28.0125 7.89432 26.9612 7.10743 26.5837C6.37637 26.2317 4.89343 26.614 4.53351 26.716C4.48093 26.7319 4.48093 26.7589 4.52392 26.7876C5.6102 27.5617 6.30631 28.664 7.76048 28.2753C8.13804 28.1749 9.0873 28.6034 9.63682 28.9968C9.42496 29.7263 8.5824 30.6374 8.32438 30.7473C7.59323 31.0611 7.18073 30.3076 6.57709 29.9653C5.82522 29.5384 4.85207 29.7853 4.19423 30.0832C4.13685 30.1165 4.13368 30.1404 4.18309 30.1914C4.37423 30.365 4.88076 30.8302 5.07661 30.9672C5.92559 31.55 6.79366 30.9035 7.60599 31.3734C7.21259 31.8831 6.42253 31.8353 5.9511 32.4675C5.57517 32.9725 5.49236 33.6446 5.51146 34.218C5.50829 34.2882 5.54177 34.2896 5.58793 34.2706C6.28559 33.8931 7.38617 34.0142 7.70002 33.154C7.93894 32.5026 7.77641 31.9721 8.94874 31.0897C8.94874 31.7477 8.85634 32.2175 8.51235 32.998C8.07433 33.9903 8.59833 34.8424 9.03001 35.5798C9.06024 35.6341 9.10323 35.6309 9.13671 35.599C9.63682 35.1387 9.96496 34.6735 10.0733 34.3439C10.3154 33.6112 9.89963 32.7957 9.63681 32.278C9.39473 31.8034 9.7388 30.6374 10.1975 30.0895C11.1659 32.0614 11.9273 33.4551 11.7903 36.0338C11.7298 37.2014 11.6836 38.3927 11.1054 39.5046C10.6451 40.3854 8.83408 40.8281 9.69898 42.0641C9.94587 42.4194 10.2437 42.816 10.6658 42.6853C11.0162 42.5818 10.9796 42.1899 11.0416 41.8428C11.6979 41.8524 12.1391 42.3811 12.7587 42.2824C13.4436 42.174 12.9339 41.5767 12.9769 41.3776C13.0311 41.134 13.6459 40.6084 14.1635 40.6594C14.7912 40.7199 14.5617 40.156 15.0077 40.1608C15.9698 40.1687 17.2887 40.9094 18.4418 41.3776C18.4418 41.3776 18.6187 41.2806 18.6935 41.2216C18.6776 40.7932 18.0675 40.5653 17.8493 40.1608C17.9736 39.9712 18.1615 39.9394 18.1615 39.6909C17.663 39.3468 16.9383 39.2688 16.3505 39.0347C15.8487 38.8356 15.0683 38.6365 14.8517 37.9739C14.0505 35.5081 14.7083 32.3799 15.7277 30.279C17.0513 31.1982 15.9061 32.5839 15.6943 33.5618C15.5413 34.269 16.0877 34.8902 16.4349 35.4365C16.4668 35.4843 16.4923 35.4859 16.5336 35.4477C16.6834 35.3027 17.0959 34.8743 17.4129 34.218C17.9608 33.084 16.6005 32.3736 17.0689 31.3734C18.0914 31.926 18.0883 32.6348 18.3176 33.377C18.582 34.2245 19.6587 34.2498 20.35 34.7373C20.3978 34.766 20.4169 34.7532 20.4249 34.7054C20.5825 33.8676 20.3532 33.0871 20.0537 32.6331C19.5472 31.8718 18.5056 32.3099 18.1296 31.4338C18.5374 30.9672 19.2573 31.3542 19.7543 31.4067C20.5284 31.48 21.3503 31.2778 21.8377 30.5562Z" fill="#00367B"/>
<path d="M8.62987 15.3707C7.28395 16.1655 6.07342 17.3028 5.0381 18.7491C2.92446 21.7053 1.76172 25.6411 1.76172 29.8174C1.76172 33.9906 2.92446 37.9136 5.0381 40.8651C6.07342 42.3113 7.28395 43.4486 8.62987 44.2466C10.038 45.0765 11.5336 45.4986 13.0786 45.4986C14.6236 45.4986 16.1177 45.0765 17.5257 44.2466C18.8732 43.4486 20.0806 42.3113 21.1174 40.8651C23.2311 37.9136 24.3954 33.9906 24.3954 29.8174C24.3954 25.6411 23.2311 21.7053 21.1174 18.7491C20.0806 17.3028 18.8732 16.1655 17.5257 15.3707C16.1177 14.5377 14.6236 14.1172 13.0786 14.1172C11.5336 14.1172 10.038 14.5377 8.62987 15.3707ZM2.46735 29.8174C2.46735 21.5365 7.22666 14.8212 13.0786 14.8212C18.9306 14.8212 23.6898 21.5365 23.6898 29.8174C23.6898 38.0824 18.9306 44.7914 13.0786 44.7914C7.22666 44.7914 2.46735 38.0824 2.46735 29.8174Z" fill="#00367B"/>
<path d="M41.4087 25.8463L40.3001 24.4494C39.8382 23.8808 39.6057 23.6228 37.8536 23.6228H36.2321V38.0009C36.2321 39.648 36.3627 40.0095 37.0826 40.317L37.9587 40.7023V41.2439H31.8806V40.7023L32.7566 40.317C33.4782 40.0095 33.604 39.648 33.604 38.0009V23.6228H32.0095C30.4917 23.6228 30.052 23.7773 29.5391 24.4494L28.456 25.8463H27.8125V22.2769H42.0267V25.8463H41.4087Z" fill="#00367B"/>
<path d="M51.6322 41.2442V40.7026L52.2773 40.3443C52.9192 39.9828 53.0483 39.6483 53.0483 38.0778V33.4092C53.0483 31.3449 52.9972 30.9596 52.8157 30.3654C52.4812 29.3858 51.5032 28.8697 49.9582 28.8697C49.0057 28.8697 48.0277 29.0752 47.2568 29.4097V38.0778C47.2568 39.6483 47.3842 39.9828 48.0277 40.3443L48.6712 40.7026V41.2442H43.3672V40.7026L44.0362 40.3443C44.6796 39.9828 44.7832 39.6483 44.7832 38.0778V24.84C44.7832 23.4144 44.6542 23.0544 44.0106 22.7948L43.3672 22.5352V21.992L47.2568 20.8818V28.9223C48.4896 27.6544 49.8801 27.0348 51.4522 27.0348C52.5608 27.0348 53.8208 27.4235 54.5168 28.1705C55.2367 28.9478 55.5203 29.6964 55.5203 32.7386V38.0778C55.5203 39.6483 55.6222 39.9828 56.2673 40.3443L56.9362 40.7026V41.2442L51.6322 41.2442Z" fill="#00367B"/>
<path d="M58.9688 41.2438V40.7023L59.6377 40.3439C60.2812 39.9824 60.3847 39.6479 60.3847 38.0774V30.9831C60.3847 29.5654 60.2558 29.2039 59.6122 28.9474L58.9688 28.6894V28.1463L62.8568 27.0345V38.0774C62.8568 39.6479 62.9842 39.9824 63.6293 40.3439L64.2728 40.7023V41.2438L58.9688 41.2438ZM61.6208 24.1913C60.7177 24.1913 60.1538 23.6482 60.1538 22.7419C60.1538 21.8117 60.7177 21.2686 61.6734 21.2686C62.5734 21.2686 63.1388 21.8117 63.1388 22.7164C63.1388 23.6482 62.5734 24.1913 61.6208 24.1913Z" fill="#00367B"/>
<path d="M72.6411 41.4766C68.6765 41.4766 66.5391 39.0811 66.5391 34.6212C66.5391 29.8747 68.8821 27.0347 72.77 27.0347C76.2711 27.0347 77.8957 29.0496 77.8957 33.409V33.691H69.0892V33.9761C69.0892 38.1301 70.4796 39.699 74.1351 39.699C75.2676 39.699 76.4016 39.4952 77.4561 39.108V39.6226C76.1692 40.9111 74.6767 41.4766 72.6411 41.4766ZM75.1911 32.0678C75.1911 29.6962 74.2897 28.5319 72.3336 28.5319C70.2726 28.5319 69.1656 29.9782 69.1131 32.6876L75.1911 32.0678Z" fill="#00367B"/>
<path d="M96.7664 41.244V40.7024L97.4098 40.344C98.0534 39.9826 98.1554 39.6481 98.1554 38.0775V33.409C98.1554 31.3447 98.1298 30.9594 97.9244 30.3651C97.5899 29.3346 96.612 28.8425 94.9124 28.8425C93.9089 28.8425 92.9054 29.0256 92.0517 29.282C92.2843 29.9271 92.3894 30.6502 92.3894 32.7384V38.0775C92.3894 39.6481 92.4913 39.9826 93.1348 40.344L93.8038 40.7024V41.244H88.4997V40.7024L89.1448 40.344C89.7899 39.9826 89.9173 39.6481 89.9173 38.0775V33.409C89.9173 31.3447 89.8664 30.9594 89.6847 30.3651C89.3519 29.3856 88.3723 28.8695 86.8273 28.8695C85.8748 28.8695 84.8969 29.0256 84.1244 29.3585V38.0775C84.1244 39.6481 84.2518 39.9826 84.8969 40.344L85.5404 40.7024V41.244H80.2363V40.7024L80.9053 40.344C81.5488 39.9826 81.6507 39.6481 81.6507 38.0775V30.9832C81.6507 29.5656 81.5232 29.204 80.8798 28.9475L80.2363 28.6895V28.1464L84.0478 27.0346V28.9221C85.3078 27.6542 86.6743 27.0346 88.2959 27.0346C89.9684 27.0346 91.1534 27.6303 91.8223 28.8425C93.1858 27.6542 94.7053 27.0107 96.4319 27.0107C97.6679 27.0107 98.6714 27.3452 99.3914 27.9409C99.8819 28.3535 100.242 28.9475 100.422 29.6437C100.602 30.3651 100.653 30.8558 100.653 32.7384V38.0775C100.653 39.6481 100.756 39.9826 101.401 40.344L102.045 40.7024V41.244H96.7664Z" fill="#00367B"/>
<path d="M110.053 41.4766C106.085 41.4766 103.949 39.0811 103.949 34.6212C103.949 29.8747 106.291 27.0347 110.18 27.0347C113.681 27.0347 115.303 29.0496 115.303 33.409V33.691H106.498V33.9761C106.498 38.1301 107.888 39.699 111.544 39.699C112.676 39.699 113.81 39.4952 114.866 39.108V39.6226C113.579 40.9111 112.085 41.4766 110.053 41.4766ZM112.6 32.0678C112.6 29.6962 111.698 28.5319 109.742 28.5319C107.68 28.5319 106.574 29.9782 106.523 32.6876L112.6 32.0678Z" fill="#00367B"/>
</svg>
